<?xml version="1.0" standalone="no"?>
<!DOCTYPE svg PUBLIC "-//W3C//DTD SVG 20010904//EN"
 "http://www.w3.org/TR/2001/REC-SVG-20010904/DTD/svg10.dtd">
<svg version="1.0" xmlns="http://www.w3.org/2000/svg"
 width="252.000000pt" height="91.000000pt" viewBox="0 0 252.000000 91.000000"
 preserveAspectRatio="xMidYMid meet">
<metadata>
Created by potrace 1.16, written by Peter Selinger 2001-2019
</metadata>
<g transform="translate(0.000000,91.000000) scale(0.100000,-0.100000)"
fill="#000000" stroke="none">
<path d="M87 859 c-46 -27 -60 -157 -23 -215 36 -54 50 -57 266 -56 111 0 200
-3 200 -8 0 -5 -9 -35 -21 -65 -19 -51 -20 -69 -14 -183 3 -70 7 -164 7 -209
1 -92 8 -102 62 -79 57 24 76 59 76 140 -1 39 -7 100 -15 136 -22 98 -19 170
9 244 31 82 27 163 -11 214 l-24 32 -219 0 -219 0 -13 27 c-15 31 -34 38 -61
22z m270 -90 l220 2 17 -25 c9 -14 16 -46 16 -71 l0 -45 -232 0 c-128 0 -243
3 -255 6 -28 8 -43 50 -36 106 8 70 12 76 32 50 17 -24 18 -24 238 -23z m219
-235 c-17 -67 -17 -88 -2 -166 23 -115 26 -256 6 -268 -32 -20 -37 -10 -44 82
-11 158 -7 272 11 327 16 52 41 73 29 25z M793 858 c-30 -37 -40 -131 -22
-203 9 -34 17 -46 39 -54 l29 -10 -26 -53 c-24 -50 -25 -59 -19 -151 4 -54 9
-104 13 -112 4 -12 -4 -15 -35 -15 -23 0 -45 -6 -52 -15 -10 -12 -37 -149 -40
-197 0 -5 54 -8 120 -8 l120 0 11 28 c32 82 33 136 5 251 -28 115 -28 155 0
217 23 51 34 56 151 56 135 0 143 -6 143 -121 0 -146 10 -403 16 -413 8 -13
54 -1 77 19 15 15 17 42 17 288 0 293 -1 296 -57 373 -45 60 -89 74 -227 72
-187 -3 -183 -4 -198 28 -14 30 -49 40 -65 20z m45 -69 c16 -19 28 -20 162
-20 80 0 159 -2 175 -5 47 -9 83 -45 105 -104 18 -49 20 -80 20 -303 0 -195
-3 -248 -12 -245 -10 4 -14 61 -18 224 -6 251 -11 272 -77 292 -58 17 -213 14
-242 -5 -14 -9 -26 -11 -30 -5 -3 5 -28 13 -56 18 -67 12 -83 42 -65 120 7 30
15 54 17 54 3 0 12 -9 21 -21z m57 -236 c-28 -63 -29 -113 -6 -205 13 -51 27
-104 32 -118 7 -18 5 -43 -4 -80 l-14 -55 -88 -3 -88 -3 7 53 c8 54 22 82 37
72 5 -3 25 0 45 6 l35 12 -8 67 c-15 121 -10 192 16 234 23 37 50 52 36 20z
M1395 846 c-25 -38 -31 -146 -10 -190 21 -44 47 -56 119 -56 62 0 82 -16 71
-57 -3 -16 -18 -44 -33 -63 -46 -59 -57 -87 -42 -105 29 -35 79 -13 117 53 43
72 63 140 65 212 1 55 -3 73 -25 108 -35 54 -73 74 -129 66 -39 -5 -46 -3 -71
25 -33 37 -42 38 -62 7z m47 -57 c2 -6 36 -15 75 -18 82 -8 107 -24 124 -82
14 -45 3 -152 -14 -146 -7 2 -11 15 -10 28 2 13 -5 34 -15 46 -14 19 -29 23
-92 27 -41 2 -76 5 -78 5 -2 1 -10 17 -18 37 -14 32 -12 81 3 107 6 11 21 9
25 -4z M1748 856 c-44 -33 -45 -194 -3 -244 21 -25 22 -32 13 -81 -9 -41 -7
-75 6 -159 20 -122 43 -231 60 -282 l12 -35 167 0 c165 0 167 0 191 25 13 14
67 108 119 210 52 102 109 212 127 245 28 53 32 69 32 137 0 104 -17 131 -88
148 -36 9 -54 19 -57 31 -11 43 -87 -3 -87 -52 0 -28 -17 -32 -47 -10 -16 10
-50 22 -77 26 -36 5 -50 11 -53 26 -10 39 -49 19 -88 -45 -9 -15 -13 -15 -50
4 -21 11 -56 20 -76 20 -28 0 -41 6 -53 25 -19 28 -24 30 -48 11z m684 -108
c5 -7 7 -43 6 -79 -3 -59 -9 -76 -48 -140 -25 -41 -83 -149 -128 -241 -46 -91
-90 -172 -98 -179 -10 -8 -61 -12 -162 -13 l-147 -1 -6 40 c-4 22 -14 81 -23
130 -32 169 -38 217 -31 261 10 69 25 52 25 -28 0 -75 25 -179 54 -223 9 -14
16 -31 16 -40 0 -21 26 -19 40 3 8 12 13 13 16 5 7 -16 148 -18 192 -2 29 10
85 80 149 187 12 20 40 57 61 82 76 88 76 122 2 135 -61 10 -83 33 -84 87 -2
72 11 80 91 52 36 -13 70 -29 75 -36z m-596 32 c80 0 100 -24 96 -118 -2 -28
-5 -32 -22 -27 -10 3 -32 -1 -47 -9 -26 -13 -31 -13 -64 6 -56 31 -73 84 -46
141 7 16 16 22 22 16 5 -5 32 -9 61 -9z m279 -10 c78 -17 98 -47 79 -118 -5
-19 -12 -22 -30 -18 -30 8 -52 -16 -88 -96 -16 -35 -39 -85 -52 -113 -21 -44
-23 -46 -18 -16 3 18 17 58 31 89 13 31 25 74 26 97 2 35 -1 40 -21 43 -27 4
-42 36 -37 83 4 53 14 69 39 64 11 -3 43 -10 71 -15z m210 -164 c19 -4 35 -11
35 -16 0 -5 -16 -21 -35 -36 -19 -14 -41 -37 -48 -50 -43 -82 -113 -187 -139
-209 -25 -21 -39 -25 -77 -23 -52 3 -54 12 -23 78 9 19 35 79 57 135 l41 100
42 -3 c38 -2 42 0 48 25 10 43 14 45 40 24 13 -10 40 -22 59 -25z m-312 -2 c9
-4 17 -11 17 -16 0 -6 -22 -61 -50 -123 -27 -62 -50 -117 -50 -123 0 -5 -7
-15 -15 -22 -12 -10 -16 -8 -25 15 -30 78 -42 227 -21 248 6 6 26 10 45 9 20
-2 38 4 46 13 7 9 18 13 24 10 6 -3 19 -8 29 -11z m-40 -300 c-10 -19 -19 -30
-21 -24 -5 14 18 60 30 60 4 0 0 -16 -9 -36z M134 441 c-11 -5 -33 -24 -48
-41 -27 -33 -27 -33 -24 -174 1 -77 -1 -147 -6 -154 -11 -18 12 -42 40 -42 13
0 38 13 56 29 l33 29 7 154 c3 84 8 164 10 178 2 21 -1 25 -22 27 -14 1 -34
-2 -46 -6z m17 -123 c2 -140 0 -178 -13 -205 -25 -52 -33 -30 -36 97 -3 127 6
170 35 170 9 0 13 -18 14 -62z"/>
</g>
</svg>
