<?xml version="1.0" standalone="no"?>
<!DOCTYPE svg PUBLIC "-//W3C//DTD SVG 20010904//EN"
 "http://www.w3.org/TR/2001/REC-SVG-20010904/DTD/svg10.dtd">
<svg version="1.0" xmlns="http://www.w3.org/2000/svg"
 width="35.000000pt" height="126.000000pt" viewBox="0 0 35.000000 126.000000"
 preserveAspectRatio="xMidYMid meet">
<metadata>
Created by potrace 1.16, written by Peter Selinger 2001-2019
</metadata>
<g transform="translate(0.000000,126.000000) scale(0.100000,-0.100000)"
fill="#000000" stroke="none">
<path d="M43 1204 c-7 -19 6 -1166 14 -1174 7 -7 194 -7 223 0 21 6 25 12 25
46 l0 39 -66 3 c-66 3 -67 3 -71 35 -3 18 -6 245 -7 505 l-3 472 34 1 c18 1
41 1 50 0 35 -4 59 18 56 52 l-3 32 -123 3 c-105 2 -123 0 -129 -14z"/>
</g>
</svg>
