<?xml version="1.0" standalone="no"?>
<!DOCTYPE svg PUBLIC "-//W3C//DTD SVG 20010904//EN"
 "http://www.w3.org/TR/2001/REC-SVG-20010904/DTD/svg10.dtd">
<svg version="1.0" xmlns="http://www.w3.org/2000/svg"
 width="67.000000pt" height="92.000000pt" viewBox="0 0 67.000000 92.000000"
 preserveAspectRatio="xMidYMid meet">
<metadata>
Created by potrace 1.16, written by Peter Selinger 2001-2019
</metadata>
<g transform="translate(0.000000,92.000000) scale(0.100000,-0.100000)"
fill="#000000" stroke="none">
<path d="M90 860 c-16 -29 -24 -112 -16 -155 4 -21 18 -47 32 -60 l24 -22 -29
-54 c-37 -70 -62 -223 -39 -245 19 -19 64 -4 73 25 13 42 99 38 115 -5 7 -18
17 -24 40 -24 37 0 45 26 37 108 -7 69 -27 89 -98 98 -43 6 -49 9 -49 30 0 13
9 33 20 44 18 18 33 20 141 20 66 0 129 -4 139 -10 25 -14 60 -111 60 -169 0
-75 -25 -143 -62 -171 -32 -24 -40 -25 -208 -28 -190 -3 -200 -6 -200 -61 0
-14 -7 -44 -16 -68 -29 -75 -35 -73 240 -73 244 0 245 0 257 23 7 12 16 38 20
57 4 19 13 55 19 80 15 56 38 251 34 288 -7 77 -36 214 -53 253 -37 82 -40 83
-240 89 -171 5 -176 6 -186 28 -12 28 -41 29 -55 2z m340 -130 c8 -5 12 -11
10 -14 -9 -8 -235 -11 -248 -2 -29 18 6 26 111 26 62 0 119 -4 127 -10z"/>
</g>
</svg>
