<?xml version="1.0" standalone="no"?>
<!DOCTYPE svg PUBLIC "-//W3C//DTD SVG 20010904//EN"
 "http://www.w3.org/TR/2001/REC-SVG-20010904/DTD/svg10.dtd">
<svg version="1.0" xmlns="http://www.w3.org/2000/svg"
 width="69.000000pt" height="121.000000pt" viewBox="0 0 69.000000 121.000000"
 preserveAspectRatio="xMidYMid meet">
<metadata>
Created by potrace 1.16, written by Peter Selinger 2001-2019
</metadata>
<g transform="translate(0.000000,121.000000) scale(0.100000,-0.100000)"
fill="#000000" stroke="none">
<path d="M50 1184 c-6 -14 -10 -38 -10 -53 0 -31 34 -81 55 -81 23 0 24 -13 5
-72 -24 -70 -31 -248 -12 -294 20 -48 46 -54 226 -54 143 0 165 -2 177 -17 57
-68 50 -124 -24 -195 -29 -28 -68 -58 -87 -68 -19 -10 -58 -40 -85 -67 -40
-38 -53 -59 -62 -98 -15 -67 5 -119 51 -135 78 -25 127 35 95 116 -17 46 -4
66 77 124 161 116 186 158 191 319 4 130 -5 169 -49 206 -30 25 -30 25 -224
25 -107 -1 -199 2 -205 6 -16 10 -3 79 28 138 18 36 26 68 27 107 1 62 -14 89
-48 89 -11 0 -34 7 -50 15 -42 22 -65 19 -76 -11z m468 -449 c14 -4 22 -13 22
-25 0 -24 3 -24 -51 -5 -24 9 -98 18 -166 22 -67 3 -121 9 -119 12 5 7 279 3
314 -4z"/>
</g>
</svg>
