<?xml version="1.0" standalone="no"?>
<!DOCTYPE svg PUBLIC "-//W3C//DTD SVG 20010904//EN"
 "http://www.w3.org/TR/2001/REC-SVG-20010904/DTD/svg10.dtd">
<svg version="1.0" xmlns="http://www.w3.org/2000/svg"
 width="71.000000pt" height="90.000000pt" viewBox="0 0 71.000000 90.000000"
 preserveAspectRatio="xMidYMid meet">
<metadata>
Created by potrace 1.16, written by Peter Selinger 2001-2019
</metadata>
<g transform="translate(0.000000,90.000000) scale(0.100000,-0.100000)"
fill="#000000" stroke="none">
<path d="M76 863 c-40 -80 -36 -158 12 -206 22 -21 30 -22 257 -25 129 -2 235
-5 235 -6 0 -2 -12 -30 -27 -62 -27 -57 -27 -63 -23 -204 2 -80 4 -182 4 -228
l1 -82 27 0 c16 0 41 12 60 29 l33 29 -3 102 c-1 57 -9 134 -17 172 -20 93
-19 123 6 193 25 70 34 176 18 208 -28 54 -37 56 -255 50 -110 -3 -213 -3
-228 1 -15 4 -31 17 -36 31 -13 34 -46 32 -64 -2z M145 450 c-11 -4 -31 -20
-45 -35 -25 -26 -25 -30 -27 -201 -2 -168 -1 -174 18 -174 37 0 77 29 88 62 6
18 10 95 10 171 0 90 4 143 11 152 24 29 -10 44 -55 25z"/>
</g>
</svg>
