<?xml version="1.0" standalone="no"?>
<!DOCTYPE svg PUBLIC "-//W3C//DTD SVG 20010904//EN"
 "http://www.w3.org/TR/2001/REC-SVG-20010904/DTD/svg10.dtd">
<svg version="1.0" xmlns="http://www.w3.org/2000/svg"
 width="105.000000pt" height="95.000000pt" viewBox="0 0 105.000000 95.000000"
 preserveAspectRatio="xMidYMid meet">
<metadata>
Created by potrace 1.16, written by Peter Selinger 2001-2019
</metadata>
<g transform="translate(0.000000,95.000000) scale(0.100000,-0.100000)"
fill="#000000" stroke="none">
<path d="M76 891 c-23 -25 -32 -126 -17 -173 7 -20 21 -44 31 -53 26 -23 25
-29 -4 -57 -13 -13 -28 -36 -33 -53 -10 -29 -7 -416 3 -463 8 -40 44 -45 294
-43 129 0 242 4 252 7 37 11 39 38 38 352 -1 363 -4 384 -70 419 -40 22 -55
23 -226 23 l-183 0 -21 30 c-25 35 -40 37 -64 11z m423 -144 c14 -6 26 -18 29
-26 4 -11 -3 -12 -29 -7 -89 17 -186 18 -248 2 -69 -18 -91 -11 -91 25 0 18
10 19 158 19 104 0 165 -4 181 -13z m-17 -123 c42 -21 50 -53 51 -201 3 -176
13 -167 -192 -171 -133 -2 -160 0 -171 13 -8 10 -14 58 -17 134 -4 116 -4 121
22 165 15 25 28 46 28 46 1 0 19 6 39 13 54 19 204 19 240 1z m48 -464 c0 -5
-17 -10 -37 -9 -31 0 -34 2 -18 9 28 12 55 12 55 0z m-325 -10 c-3 -5 -12 -7
-20 -3 -21 7 -19 13 6 13 11 0 18 -4 14 -10z M704 865 c-17 -42 -18 -144 -2
-180 16 -36 57 -55 118 -55 69 0 90 -12 90 -54 0 -31 -15 -59 -71 -136 -18
-24 -20 -32 -9 -45 7 -8 20 -15 29 -15 48 0 132 146 145 251 8 67 -12 138 -54
182 -23 25 -36 30 -81 32 -96 4 -97 4 -103 30 -10 38 -44 33 -62 -10z m161
-126 c4 -6 5 -13 1 -16 -8 -8 -56 6 -56 17 0 13 47 13 55 -1z"/>
</g>
</svg>
