<?xml version="1.0" standalone="no"?>
<!DOCTYPE svg PUBLIC "-//W3C//DTD SVG 20010904//EN"
 "http://www.w3.org/TR/2001/REC-SVG-20010904/DTD/svg10.dtd">
<svg version="1.0" xmlns="http://www.w3.org/2000/svg"
 width="20.000000pt" height="95.000000pt" viewBox="0 0 20.000000 95.000000"
 preserveAspectRatio="xMidYMid meet">
<metadata>
Created by potrace 1.16, written by Peter Selinger 2001-2019
</metadata>
<g transform="translate(0.000000,95.000000) scale(0.100000,-0.100000)"
fill="#000000" stroke="none">
<path d="M44 488 c3 -255 5 -469 6 -475 0 -9 22 -13 75 -13 60 0 75 3 75 15 0
8 -7 15 -15 15 -9 0 -20 10 -24 23 -5 12 -10 184 -11 382 -2 318 -4 460 -9
503 -1 8 -19 12 -52 12 l-51 0 6 -462z"/>
</g>
</svg>
