<?xml version="1.0" standalone="no"?>
<!DOCTYPE svg PUBLIC "-//W3C//DTD SVG 20010904//EN"
 "http://www.w3.org/TR/2001/REC-SVG-20010904/DTD/svg10.dtd">
<svg version="1.0" xmlns="http://www.w3.org/2000/svg"
 width="87.000000pt" height="92.000000pt" viewBox="0 0 87.000000 92.000000"
 preserveAspectRatio="xMidYMid meet">
<metadata>
Created by potrace 1.16, written by Peter Selinger 2001-2019
</metadata>
<g transform="translate(0.000000,92.000000) scale(0.100000,-0.100000)"
fill="#000000" stroke="none">
<path d="M64 853 c-21 -50 -21 -165 0 -198 8 -13 25 -26 36 -30 15 -5 19 -12
14 -23 -29 -71 -27 -141 11 -332 13 -63 26 -135 30 -160 4 -25 12 -51 17 -57
15 -19 319 -18 356 1 26 14 72 84 72 111 0 7 25 63 55 124 30 61 55 115 55
119 0 5 17 33 38 63 21 30 46 70 55 88 20 41 32 136 23 195 -8 51 -29 68 -98
81 -23 4 -43 16 -53 31 -20 31 -26 30 -52 -9 -19 -27 -23 -47 -23 -108 0 -65
3 -78 23 -97 12 -11 41 -24 65 -28 23 -4 42 -12 42 -18 0 -7 -19 -32 -42 -57
-24 -25 -63 -86 -88 -134 -25 -49 -62 -105 -82 -127 -36 -37 -38 -38 -107 -38
-39 0 -71 4 -71 8 0 9 56 142 96 230 13 29 24 58 24 65 0 31 31 56 73 59 l42
3 3 64 c4 86 -10 116 -62 135 -22 9 -54 17 -70 18 -17 2 -34 12 -40 23 -6 11
-12 22 -14 24 -8 13 -54 -50 -64 -86 -12 -49 -25 -56 -30 -16 -4 34 -39 53
-103 57 -33 1 -52 9 -73 29 -15 15 -31 27 -35 27 -4 0 -14 -17 -23 -37z m141
-133 c0 -18 -33 -26 -47 -12 -6 6 -7 15 -3 22 10 16 50 8 50 -10z m259 4 c19
-18 13 -34 -13 -34 -22 0 -45 25 -36 40 9 15 31 12 49 -6z m-139 -46 c1 -13 3
-26 4 -29 0 -4 15 -12 31 -19 28 -12 30 -15 24 -49 -4 -20 -10 -40 -14 -46 -4
-5 -20 -41 -35 -80 -45 -116 -76 -176 -88 -172 -7 2 -23 32 -36 68 -19 51 -24
82 -24 153 1 100 14 122 65 112 22 -4 31 0 44 19 9 14 13 32 10 41 -6 17 2 39
11 30 3 -3 7 -16 8 -28z m1 -493 c30 -14 72 -25 94 -25 22 0 40 -4 40 -9 0
-25 -180 -30 -204 -5 -24 23 -20 64 6 64 5 0 34 -11 64 -25z"/>
</g>
</svg>
