<?xml version="1.0" standalone="no"?>
<!DOCTYPE svg PUBLIC "-//W3C//DTD SVG 20010904//EN"
 "http://www.w3.org/TR/2001/REC-SVG-20010904/DTD/svg10.dtd">
<svg version="1.0" xmlns="http://www.w3.org/2000/svg"
 width="32.000000pt" height="65.000000pt" viewBox="0 0 32.000000 65.000000"
 preserveAspectRatio="xMidYMid meet">
<metadata>
Created by potrace 1.16, written by Peter Selinger 2001-2019
</metadata>
<g transform="translate(0.000000,65.000000) scale(0.100000,-0.100000)"
fill="#000000" stroke="none">
<path d="M108 584 c-75 -37 -92 -67 -33 -57 34 5 35 5 35 -28 1 -19 3 -115 6
-215 6 -191 5 -197 -41 -206 -11 -2 -21 -11 -23 -21 -3 -16 6 -17 110 -15 92
2 113 6 113 18 0 8 -8 15 -17 15 -44 0 -47 17 -48 265 -1 244 -4 281 -24 279
-6 -1 -41 -17 -78 -35z"/>
</g>
</svg>
