<?xml version="1.0" standalone="no"?>
<!DOCTYPE svg PUBLIC "-//W3C//DTD SVG 20010904//EN"
 "http://www.w3.org/TR/2001/REC-SVG-20010904/DTD/svg10.dtd">
<svg version="1.0" xmlns="http://www.w3.org/2000/svg"
 width="72.000000pt" height="93.000000pt" viewBox="0 0 72.000000 93.000000"
 preserveAspectRatio="xMidYMid meet">
<metadata>
Created by potrace 1.16, written by Peter Selinger 2001-2019
</metadata>
<g transform="translate(0.000000,93.000000) scale(0.100000,-0.100000)"
fill="#000000" stroke="none">
<path d="M95 882 c-62 -44 -62 -181 -1 -227 25 -18 44 -20 257 -23 234 -3 246
-5 216 -41 -25 -29 -42 -105 -42 -181 1 -41 3 -139 5 -217 l5 -143 25 0 c37 0
88 35 96 66 10 39 -2 227 -16 253 -20 39 -16 149 9 216 24 64 29 171 10 208
-18 32 -56 37 -278 37 -225 0 -241 3 -241 42 0 18 -26 24 -45 10z M109 421
l-39 -39 0 -165 c0 -92 4 -168 9 -172 18 -11 92 27 102 52 5 13 9 89 9 168 0
85 4 146 10 150 6 3 10 15 10 26 0 15 -7 19 -31 19 -23 0 -42 -10 -70 -39z"/>
</g>
</svg>
