<?xml version="1.0" standalone="no"?>
<!DOCTYPE svg PUBLIC "-//W3C//DTD SVG 20010904//EN"
 "http://www.w3.org/TR/2001/REC-SVG-20010904/DTD/svg10.dtd">
<svg version="1.0" xmlns="http://www.w3.org/2000/svg"
 width="104.000000pt" height="92.000000pt" viewBox="0 0 104.000000 92.000000"
 preserveAspectRatio="xMidYMid meet">
<metadata>
Created by potrace 1.16, written by Peter Selinger 2001-2019
</metadata>
<g transform="translate(0.000000,92.000000) scale(0.100000,-0.100000)"
fill="#000000" stroke="none">
<path d="M432 857 c-17 -18 -23 -41 -28 -99 -6 -72 -5 -77 18 -100 13 -12 33
-28 44 -35 17 -11 17 -14 3 -25 -8 -7 -18 -21 -22 -31 -13 -35 -37 -31 -74 12
-37 44 -43 51 -118 141 -26 30 -58 74 -73 97 -32 50 -63 56 -103 19 -59 -54
-45 -159 32 -248 27 -31 49 -60 49 -63 0 -4 -18 -29 -40 -55 -70 -84 -77 -135
-30 -235 17 -35 30 -68 30 -72 0 -5 -13 -20 -30 -35 -18 -16 -30 -36 -30 -51
0 -23 4 -25 53 -29 72 -5 97 1 97 23 0 15 -7 19 -40 19 -37 0 -52 11 -31 25
25 15 22 64 -8 127 -17 36 -31 72 -31 80 0 36 33 104 70 144 22 24 40 51 40
59 0 9 -29 50 -65 92 -36 42 -68 87 -72 100 -7 29 24 103 44 103 7 0 13 -4 13
-9 0 -11 180 -235 214 -266 11 -11 29 -32 39 -48 23 -35 34 -34 68 6 l28 32
-9 -35 c-20 -71 -15 -84 80 -197 95 -114 107 -144 72 -176 -10 -10 -25 -17
-34 -17 -8 0 -55 48 -103 106 -96 117 -111 134 -140 167 -12 12 -38 43 -59 70
-21 26 -44 47 -52 47 -17 0 -54 -53 -66 -96 -9 -34 2 -88 22 -104 24 -20 72
-110 77 -145 4 -35 2 -46 -16 -64 -29 -29 -26 -41 9 -41 68 0 67 98 -1 212
-56 93 -62 113 -43 149 8 16 17 29 19 29 8 0 74 -74 75 -83 0 -5 15 -23 33
-40 17 -18 55 -61 82 -95 28 -35 63 -78 78 -95 16 -18 35 -42 44 -54 19 -29
43 -29 77 -2 75 59 72 134 -7 222 -28 32 -67 78 -86 102 -40 54 -38 82 9 150
25 37 38 46 70 51 48 8 59 33 52 119 -7 80 -31 112 -91 121 -25 4 -57 15 -70
25 -31 25 -43 24 -69 -4z m50 -37 c2 -5 27 -15 57 -23 32 -8 62 -23 73 -37 30
-37 18 -120 -18 -120 -8 0 -44 9 -79 21 -57 18 -65 24 -75 54 -8 25 -8 45 0
74 10 37 33 55 42 31z M731 862 c-29 -54 -20 -204 14 -232 8 -6 40 -14 72 -17
32 -3 63 -10 69 -14 6 -5 14 -55 19 -112 6 -92 7 -142 5 -360 -1 -96 12 -109
63 -61 l28 25 -1 307 c-1 169 -4 326 -7 349 -7 53 -34 72 -111 80 -43 5 -61
12 -75 30 -22 28 -62 30 -76 5z m56 -51 c4 -17 17 -21 74 -27 62 -6 71 -10 83
-33 20 -38 29 -631 9 -631 -10 0 -13 47 -13 243 0 185 -3 247 -13 261 -9 13
-33 20 -81 25 -87 9 -107 30 -100 109 2 29 6 58 9 63 10 15 27 10 32 -10z"/>
</g>
</svg>
