<?xml version="1.0" standalone="no"?>
<!DOCTYPE svg PUBLIC "-//W3C//DTD SVG 20010904//EN"
 "http://www.w3.org/TR/2001/REC-SVG-20010904/DTD/svg10.dtd">
<svg version="1.0" xmlns="http://www.w3.org/2000/svg"
 width="141.000000pt" height="105.000000pt" viewBox="0 0 141.000000 105.000000"
 preserveAspectRatio="xMidYMid meet">
<metadata>
Created by potrace 1.16, written by Peter Selinger 2001-2019
</metadata>
<g transform="translate(0.000000,105.000000) scale(0.100000,-0.100000)"
fill="#000000" stroke="none">
<path d="M63 983 c-25 -38 -30 -150 -9 -191 27 -51 41 -54 261 -53 189 1 203
0 223 -19 12 -11 24 -33 27 -48 4 -15 8 -35 10 -45 5 -24 -18 -78 -42 -99 -10
-9 -43 -29 -74 -46 -191 -103 -223 -131 -235 -209 -5 -37 -3 -55 12 -83 17
-32 23 -35 63 -35 36 0 47 5 63 26 18 24 19 32 8 84 -12 57 -12 58 17 81 15
12 55 37 88 55 128 69 205 146 205 206 0 11 3 23 7 27 8 7 5 173 -3 222 -3 17
-19 46 -34 63 l-29 31 -233 0 -233 0 -28 30 c-35 37 -42 37 -64 3z m507 -143
c31 -31 16 -41 -38 -25 -31 10 -95 15 -194 15 -80 0 -153 3 -162 6 -46 18 3
24 179 24 183 0 196 -1 215 -20z M792 1003 c-18 -7 -38 -51 -46 -98 -10 -61
13 -115 60 -143 37 -21 48 -22 234 -21 269 1 245 3 228 -23 -42 -68 -46 -117
-37 -441 l4 -128 30 7 c42 9 71 31 85 63 15 36 7 198 -14 276 -21 80 -20 100
10 195 34 103 31 195 -5 234 l-24 25 -230 0 c-127 0 -233 4 -238 8 -4 4 -9 17
-11 28 -3 20 -23 28 -46 18z m438 -157 c8 -2 -65 -4 -162 -5 -98 0 -178 3
-178 7 0 8 304 5 340 -2z M119 640 c-24 -12 -41 -31 -48 -51 -7 -21 -11 -132
-11 -310 l0 -279 66 0 66 0 -7 322 c-4 178 -9 326 -12 331 -6 10 -13 9 -54
-13z M833 557 c-12 -7 -31 -24 -43 -40 -20 -25 -22 -39 -23 -197 l-2 -170 23
0 c38 0 81 31 93 68 7 22 10 80 6 158 -3 94 -1 128 9 141 23 31 17 53 -13 53
-16 -1 -38 -6 -50 -13z"/>
</g>
</svg>
