<?xml version="1.0" standalone="no"?>
<!DOCTYPE svg PUBLIC "-//W3C//DTD SVG 20010904//EN"
 "http://www.w3.org/TR/2001/REC-SVG-20010904/DTD/svg10.dtd">
<svg version="1.0" xmlns="http://www.w3.org/2000/svg"
 width="85.000000pt" height="91.000000pt" viewBox="0 0 85.000000 91.000000"
 preserveAspectRatio="xMidYMid meet">
<metadata>
Created by potrace 1.16, written by Peter Selinger 2001-2019
</metadata>
<g transform="translate(0.000000,91.000000) scale(0.100000,-0.100000)"
fill="#000000" stroke="none">
<path d="M315 855 c-71 -17 -110 -40 -161 -93 -80 -83 -107 -162 -107 -307 -1
-123 19 -195 74 -267 80 -106 203 -158 346 -145 115 11 212 68 270 160 84 132
92 331 19 469 -82 154 -260 228 -441 183z m166 -49 c128 -45 197 -190 186
-391 -6 -110 -25 -170 -73 -235 -83 -112 -261 -110 -342 4 -52 74 -67 136 -67
281 1 112 4 138 24 189 29 74 98 143 151 152 19 3 42 7 50 9 27 5 34 4 71 -9z"/>
</g>
</svg>
