<?xml version="1.0" standalone="no"?>
<!DOCTYPE svg PUBLIC "-//W3C//DTD SVG 20010904//EN"
 "http://www.w3.org/TR/2001/REC-SVG-20010904/DTD/svg10.dtd">
<svg version="1.0" xmlns="http://www.w3.org/2000/svg"
 width="73.000000pt" height="125.000000pt" viewBox="0 0 73.000000 125.000000"
 preserveAspectRatio="xMidYMid meet">
<metadata>
Created by potrace 1.16, written by Peter Selinger 2001-2019
</metadata>
<g transform="translate(0.000000,125.000000) scale(0.100000,-0.100000)"
fill="#000000" stroke="none">
<path d="M296 1203 c-20 -25 -36 -52 -36 -58 0 -7 17 -36 38 -64 49 -68 70
-66 124 11 l40 57 -37 51 c-50 67 -78 68 -129 3z M451 896 c-7 -8 -17 -44 -23
-81 -14 -84 4 -132 52 -142 17 -3 32 -9 35 -13 2 -4 -14 -30 -35 -59 -22 -29
-40 -57 -40 -62 0 -28 -25 -1 -227 239 -35 41 -63 80 -63 87 0 20 -18 28 -45
21 -49 -12 -82 -124 -54 -179 7 -12 38 -52 71 -89 65 -74 68 -94 22 -125 -14
-9 -36 -36 -51 -60 -22 -39 -25 -52 -20 -108 3 -40 13 -78 26 -100 28 -47 27
-76 -4 -105 -29 -27 -33 -66 -7 -74 9 -2 57 -1 107 2 l90 7 9 43 c12 57 -3
102 -59 186 -53 80 -60 129 -22 164 13 12 26 22 30 22 3 0 57 -62 119 -137 62
-76 121 -146 131 -155 9 -10 17 -21 17 -25 0 -5 18 -27 40 -51 43 -46 56 -48
97 -13 30 25 45 68 38 103 -4 16 -47 79 -97 140 -85 105 -89 113 -83 146 15
80 86 169 125 157 24 -8 37 12 45 71 7 58 -11 116 -42 132 -10 6 -39 13 -65
17 -30 5 -53 15 -67 31 -24 28 -34 30 -50 10z"/>
</g>
</svg>
