<?xml version="1.0" standalone="no"?>
<!DOCTYPE svg PUBLIC "-//W3C//DTD SVG 20010904//EN"
 "http://www.w3.org/TR/2001/REC-SVG-20010904/DTD/svg10.dtd">
<svg version="1.0" xmlns="http://www.w3.org/2000/svg"
 width="32.000000pt" height="66.000000pt" viewBox="0 0 32.000000 66.000000"
 preserveAspectRatio="xMidYMid meet">
<metadata>
Created by potrace 1.16, written by Peter Selinger 2001-2019
</metadata>
<g transform="translate(0.000000,66.000000) scale(0.100000,-0.100000)"
fill="#000000" stroke="none">
<path d="M105 587 c-71 -38 -88 -72 -31 -61 l36 6 2 -113 c1 -63 1 -161 -1
-219 -3 -108 -9 -124 -50 -125 -8 0 -16 -5 -18 -12 -3 -8 26 -13 104 -15 59
-2 114 -1 121 1 22 6 13 31 -12 31 -13 0 -28 6 -34 13 -6 7 -13 122 -17 270
-8 294 -1 277 -100 224z"/>
</g>
</svg>
