<?xml version="1.0" standalone="no"?>
<!DOCTYPE svg PUBLIC "-//W3C//DTD SVG 20010904//EN"
 "http://www.w3.org/TR/2001/REC-SVG-20010904/DTD/svg10.dtd">
<svg version="1.0" xmlns="http://www.w3.org/2000/svg"
 width="74.000000pt" height="110.000000pt" viewBox="0 0 74.000000 110.000000"
 preserveAspectRatio="xMidYMid meet">
<metadata>
Created by potrace 1.16, written by Peter Selinger 2001-2019
</metadata>
<g transform="translate(0.000000,110.000000) scale(0.100000,-0.100000)"
fill="#000000" stroke="none">
<path d="M58 1023 c-10 -26 -13 -60 -10 -106 4 -59 8 -70 34 -92 29 -25 31
-25 236 -25 114 0 212 -4 219 -8 7 -4 19 -24 28 -45 40 -96 13 -127 -240 -275
-65 -38 -81 -57 -96 -113 -20 -76 3 -126 64 -136 31 -5 42 -2 63 18 27 25 27
38 8 121 -8 34 21 63 108 106 35 18 77 44 95 59 18 16 44 36 58 46 14 10 35
37 47 60 20 37 22 56 20 158 -1 129 -8 155 -49 193 l-28 27 -235 -3 -235 -3
-13 28 c-20 42 -56 37 -74 -10z m496 -113 c33 -12 36 -45 4 -36 -13 3 -48 11
-78 18 l-55 13 40 6 c22 3 45 7 52 8 6 0 23 -3 37 -9z M123 710 c-13 -5 -32
-24 -43 -42 -19 -31 -20 -50 -19 -336 0 -167 3 -310 6 -318 4 -10 23 -14 64
-14 l60 0 -5 358 c-2 196 -5 358 -5 360 -2 5 -37 0 -58 -8z m-8 -270 c3 -5 -1
-10 -10 -10 -9 0 -13 5 -10 10 3 6 8 10 10 10 2 0 7 -4 10 -10z"/>
</g>
</svg>
