<?xml version="1.0" standalone="no"?>
<!DOCTYPE svg PUBLIC "-//W3C//DTD SVG 20010904//EN"
 "http://www.w3.org/TR/2001/REC-SVG-20010904/DTD/svg10.dtd">
<svg version="1.0" xmlns="http://www.w3.org/2000/svg"
 width="73.000000pt" height="49.000000pt" viewBox="0 0 73.000000 49.000000"
 preserveAspectRatio="xMidYMid meet">
<metadata>
Created by potrace 1.16, written by Peter Selinger 2001-2019
</metadata>
<g transform="translate(0.000000,49.000000) scale(0.100000,-0.100000)"
fill="#000000" stroke="none">
<path d="M250 443 c-8 -3 -25 -15 -38 -26 l-23 -21 -6 22 c-6 26 -21 26 -88 3
-52 -19 -66 -44 -27 -49 12 -2 22 -9 23 -15 1 -7 3 -63 5 -126 3 -115 -4 -151
-31 -151 -8 0 -15 -6 -15 -14 0 -15 61 -26 120 -22 19 1 47 3 63 4 37 3 34 19
-8 36 -35 15 -35 15 -37 83 -3 124 3 167 23 188 15 15 21 17 31 7 17 -17 63
-15 78 3 18 21 5 60 -25 73 -14 7 -27 12 -28 11 -1 0 -9 -3 -17 -6z M464 431
c-52 -24 -101 -83 -112 -137 -17 -81 18 -192 72 -227 39 -26 109 -31 152 -11
53 24 114 97 114 137 0 27 -20 20 -54 -19 -43 -50 -101 -58 -150 -20 -33 25
-62 83 -54 108 3 8 40 12 117 14 62 1 117 6 122 11 11 11 -3 65 -26 100 -22
33 -74 63 -110 63 -16 0 -48 -9 -71 -19z m94 -68 c25 -35 15 -43 -53 -43 -58
0 -65 2 -65 19 0 47 87 65 118 24z"/>
</g>
</svg>
