<?xml version="1.0" standalone="no"?>
<!DOCTYPE svg PUBLIC "-//W3C//DTD SVG 20010904//EN"
 "http://www.w3.org/TR/2001/REC-SVG-20010904/DTD/svg10.dtd">
<svg version="1.0" xmlns="http://www.w3.org/2000/svg"
 width="114.000000pt" height="108.000000pt" viewBox="0 0 114.000000 108.000000"
 preserveAspectRatio="xMidYMid meet">
<metadata>
Created by potrace 1.16, written by Peter Selinger 2001-2019
</metadata>
<g transform="translate(0.000000,108.000000) scale(0.100000,-0.100000)"
fill="#000000" stroke="none">
<path d="M149 1033 c-14 -2 -42 -21 -62 -41 -32 -32 -35 -41 -29 -66 5 -16 15
-34 24 -40 23 -14 58 18 58 54 0 48 43 66 88 34 33 -23 31 -81 -3 -94 -127
-48 -175 -89 -182 -154 -5 -42 -2 -50 22 -76 41 -42 69 -45 132 -14 l54 26 20
-21 c27 -28 61 -26 99 5 35 30 35 49 -1 49 -24 0 -24 1 -29 130 -5 138 -16
171 -61 195 -23 13 -91 20 -130 13z m101 -254 c0 -59 0 -60 -35 -75 -94 -39
-116 74 -23 119 54 27 58 23 58 -44z M513 888 c-13 -24 -18 -55 -18 -117 0
-78 2 -84 28 -107 16 -13 37 -24 48 -24 20 0 26 -15 9 -25 -6 -4 -19 -24 -30
-45 -22 -43 -25 -102 -10 -215 10 -82 4 -95 -51 -95 -33 0 -41 -4 -49 -26 -17
-43 -41 -174 -35 -184 7 -11 164 -14 213 -4 35 7 48 31 62 117 7 46 6 71 -6
115 -9 32 -22 79 -30 107 -19 66 -18 105 4 163 33 86 45 92 178 93 112 1 117
1 142 -25 l26 -26 3 -262 c2 -145 7 -266 13 -272 15 -15 71 14 82 43 9 26 4
406 -8 539 -7 81 -34 140 -80 176 -30 24 -50 30 -118 37 -44 4 -125 7 -180 5
-104 -4 -100 -5 -144 48 -19 23 -29 20 -49 -16z m367 -135 l25 -7 -30 -7 c-16
-4 -53 -7 -82 -8 -29 0 -73 -8 -98 -17 -52 -17 -81 -12 -90 16 -12 39 2 43
129 37 67 -4 132 -10 146 -14z m-302 -585 c-2 -15 -11 -24 -25 -26 -25 -4 -31
16 -11 36 20 20 40 14 36 -10z M270 540 c0 -5 7 -10 15 -10 8 0 15 5 15 10 0
6 -7 10 -15 10 -8 0 -15 -4 -15 -10z"/>
</g>
</svg>
