<?xml version="1.0" standalone="no"?>
<!DOCTYPE svg PUBLIC "-//W3C//DTD SVG 20010904//EN"
 "http://www.w3.org/TR/2001/REC-SVG-20010904/DTD/svg10.dtd">
<svg version="1.0" xmlns="http://www.w3.org/2000/svg"
 width="98.000000pt" height="96.000000pt" viewBox="0 0 98.000000 96.000000"
 preserveAspectRatio="xMidYMid meet">
<metadata>
Created by potrace 1.16, written by Peter Selinger 2001-2019
</metadata>
<g transform="translate(0.000000,96.000000) scale(0.100000,-0.100000)"
fill="#000000" stroke="none">
<path d="M63 883 c-11 -25 -17 -65 -17 -116 0 -67 3 -81 22 -100 22 -21 30
-22 207 -22 138 0 187 -3 197 -13 17 -17 26 -146 27 -384 l1 -188 24 0 c13 0
34 9 47 19 l24 19 -3 319 c-2 175 -7 332 -13 349 -24 78 -80 96 -281 93 l-153
-2 -16 29 c-24 43 -46 42 -66 -3z m366 -122 c14 -4 26 -11 28 -16 3 -9 -286
-9 -296 0 -1 2 0 8 4 14 7 12 223 14 264 2z M674 912 c-19 -12 -35 -102 -28
-151 12 -82 36 -110 96 -111 60 0 86 -15 92 -52 6 -31 14 -300 15 -475 1 -73
3 -83 19 -83 10 0 29 12 43 26 22 24 24 33 23 117 -1 51 -2 203 -3 339 -1 136
-6 260 -12 275 -13 39 -42 54 -110 60 -48 5 -60 10 -78 34 -22 29 -37 35 -57
21z m120 -148 c22 -9 20 -24 -3 -24 -21 0 -34 13 -24 24 8 7 8 7 27 0z"/>
</g>
</svg>
