<?xml version="1.0" standalone="no"?>
<!DOCTYPE svg PUBLIC "-//W3C//DTD SVG 20010904//EN"
 "http://www.w3.org/TR/2001/REC-SVG-20010904/DTD/svg10.dtd">
<svg version="1.0" xmlns="http://www.w3.org/2000/svg"
 width="33.000000pt" height="25.000000pt" viewBox="0 0 33.000000 25.000000"
 preserveAspectRatio="xMidYMid meet">
<metadata>
Created by potrace 1.16, written by Peter Selinger 2001-2019
</metadata>
<g transform="translate(0.000000,25.000000) scale(0.100000,-0.100000)"
fill="#000000" stroke="none">
<path d="M111 201 c-35 -14 -48 -26 -57 -52 -16 -44 -17 -78 -3 -118 l11 -31
103 0 103 0 11 31 c15 43 14 73 -3 114 -27 64 -93 86 -165 56z m97 -76 c23
-30 18 -69 -11 -90 -45 -32 -87 -4 -87 56 0 60 61 81 98 34z"/>
</g>
</svg>
