<?xml version="1.0" standalone="no"?>
<!DOCTYPE svg PUBLIC "-//W3C//DTD SVG 20010904//EN"
 "http://www.w3.org/TR/2001/REC-SVG-20010904/DTD/svg10.dtd">
<svg version="1.0" xmlns="http://www.w3.org/2000/svg"
 width="71.000000pt" height="93.000000pt" viewBox="0 0 71.000000 93.000000"
 preserveAspectRatio="xMidYMid meet">
<metadata>
Created by potrace 1.16, written by Peter Selinger 2001-2019
</metadata>
<g transform="translate(0.000000,93.000000) scale(0.100000,-0.100000)"
fill="#000000" stroke="none">
<path d="M63 853 c-35 -85 -25 -166 25 -200 24 -16 52 -18 250 -19 123 -1 225
-4 228 -6 2 -3 -8 -31 -23 -64 -26 -57 -26 -63 -23 -214 2 -85 4 -188 4 -227
-1 -70 0 -73 23 -73 36 0 83 28 93 56 15 38 12 182 -5 271 -20 104 -19 125 10
215 21 67 24 87 16 140 -13 99 -11 98 -280 98 -235 0 -251 3 -251 42 0 13 -8
18 -26 18 -20 0 -28 -8 -41 -37z M114 441 c-17 -10 -36 -32 -42 -47 -16 -41
-21 -342 -5 -348 6 -3 28 0 48 5 55 16 65 49 65 223 0 86 4 147 10 151 6 3 10
13 10 21 0 20 -49 18 -86 -5z"/>
</g>
</svg>
