<?xml version="1.0" standalone="no"?>
<!DOCTYPE svg PUBLIC "-//W3C//DTD SVG 20010904//EN"
 "http://www.w3.org/TR/2001/REC-SVG-20010904/DTD/svg10.dtd">
<svg version="1.0" xmlns="http://www.w3.org/2000/svg"
 width="64.000000pt" height="94.000000pt" viewBox="0 0 64.000000 94.000000"
 preserveAspectRatio="xMidYMid meet">
<metadata>
Created by potrace 1.16, written by Peter Selinger 2001-2019
</metadata>
<g transform="translate(0.000000,94.000000) scale(0.100000,-0.100000)"
fill="#000000" stroke="none">
<path d="M73 883 c-3 -10 -12 -33 -19 -52 -18 -44 -18 -135 1 -170 8 -16 25
-31 37 -35 13 -3 100 -6 194 -6 151 0 173 -2 187 -18 14 -15 17 -59 23 -287 3
-149 8 -272 9 -273 10 -11 67 13 77 31 15 27 12 611 -3 670 -7 27 -21 45 -51
65 -41 27 -44 27 -207 28 -202 2 -191 1 -191 17 0 14 -31 47 -44 47 -3 0 -9
-8 -13 -17z m387 -159 c12 -12 -5 -14 -127 -14 -78 0 -148 3 -157 6 -37 14
-10 24 82 27 124 5 183 -1 202 -19z"/>
</g>
</svg>
