<?xml version="1.0" standalone="no"?>
<!DOCTYPE svg PUBLIC "-//W3C//DTD SVG 20010904//EN"
 "http://www.w3.org/TR/2001/REC-SVG-20010904/DTD/svg10.dtd">
<svg version="1.0" xmlns="http://www.w3.org/2000/svg"
 width="78.000000pt" height="95.000000pt" viewBox="0 0 78.000000 95.000000"
 preserveAspectRatio="xMidYMid meet">
<metadata>
Created by potrace 1.16, written by Peter Selinger 2001-2019
</metadata>
<g transform="translate(0.000000,95.000000) scale(0.100000,-0.100000)"
fill="#000000" stroke="none">
<path d="M156 888 c-18 -28 -35 -128 -28 -166 6 -33 39 -82 55 -82 35 -1 37
-17 11 -64 -22 -40 -27 -60 -26 -115 1 -83 7 -135 16 -150 4 -6 4 -20 1 -31
-5 -16 -15 -20 -49 -20 -24 0 -48 -6 -54 -13 -11 -13 -46 -186 -39 -193 8 -8
179 -16 212 -10 37 7 46 25 65 121 9 49 8 70 -5 115 -42 151 -47 175 -41 213
9 52 41 114 69 130 24 14 223 17 245 3 36 -22 42 -60 43 -309 1 -135 5 -251
10 -258 11 -19 72 14 87 46 11 24 8 341 -4 510 -7 100 -34 157 -92 199 l-44
31 -179 5 c-179 5 -180 5 -192 30 -17 33 -42 37 -61 8z m384 -144 c8 -8 -15
-13 -85 -18 -54 -3 -113 -13 -132 -21 -20 -8 -42 -15 -49 -15 -18 0 -48 46
-39 60 10 16 289 10 305 -6z m-320 -563 c0 -23 -14 -41 -31 -41 -21 0 -25 20
-7 38 14 14 38 16 38 3z"/>
</g>
</svg>
