<?xml version="1.0" standalone="no"?>
<!DOCTYPE svg PUBLIC "-//W3C//DTD SVG 20010904//EN"
 "http://www.w3.org/TR/2001/REC-SVG-20010904/DTD/svg10.dtd">
<svg version="1.0" xmlns="http://www.w3.org/2000/svg"
 width="187.000000pt" height="62.000000pt" viewBox="0 0 187.000000 62.000000"
 preserveAspectRatio="xMidYMid meet">
<metadata>
Created by potrace 1.16, written by Peter Selinger 2001-2019
</metadata>
<g transform="translate(0.000000,62.000000) scale(0.100000,-0.100000)"
fill="#000000" stroke="none">
<path d="M1682 568 c-5 -7 -13 -33 -17 -57 -8 -47 8 -91 32 -91 18 0 16 -10
-7 -40 l-19 -25 -41 45 c-22 25 -60 71 -83 103 -45 62 -66 70 -91 32 -27 -41
-15 -98 29 -140 38 -35 38 -43 4 -87 -38 -48 -43 -92 -15 -147 16 -30 16 -34
2 -50 -19 -21 -21 -47 -3 -53 6 -3 34 -4 61 -3 35 2 53 8 63 21 16 22 9 68
-16 104 -32 46 -42 71 -36 90 4 11 13 20 20 20 8 0 48 -44 90 -98 91 -114 112
-131 149 -114 38 17 37 83 0 117 -45 42 -74 88 -74 116 0 29 43 89 65 89 19 0
38 54 30 89 -7 33 -30 51 -64 51 -12 0 -29 9 -38 20 -20 23 -27 25 -41 8z M57
552 c-23 -25 -22 -103 1 -131 16 -20 26 -22 150 -22 72 -1 132 -4 132 -7 0 -4
-5 -27 -11 -52 -6 -28 -8 -92 -4 -168 6 -105 10 -122 24 -122 10 0 27 9 39 20
26 24 29 84 11 184 -10 52 -9 71 5 120 20 68 14 131 -14 146 -10 6 -75 10
-144 10 -115 0 -126 2 -136 20 -13 25 -32 25 -53 2z M1229 531 c-13 -43 -6
-103 14 -119 6 -6 29 -13 50 -17 20 -4 39 -11 42 -15 3 -4 5 -78 6 -164 1
-132 3 -158 17 -163 9 -4 22 2 33 15 15 20 17 41 12 214 -5 220 -12 241 -75
246 -20 2 -44 12 -53 23 -26 27 -33 24 -46 -20z M855 550 c-4 -6 -9 -35 -12
-65 -5 -45 -2 -59 12 -75 16 -18 29 -20 127 -18 87 2 111 -1 118 -12 6 -8 10
-71 11 -140 1 -178 1 -175 25 -178 44 -6 49 17 46 222 -3 187 -4 192 -27 216
-23 22 -33 24 -137 27 -85 3 -116 7 -124 18 -13 17 -30 19 -39 5z M469 523
c-5 -15 -9 -45 -7 -67 4 -55 28 -66 145 -66 103 0 118 -8 129 -66 9 -51 -2
-106 -27 -127 -17 -13 -40 -17 -110 -17 -74 0 -92 -3 -108 -19 -19 -19 -37
-93 -27 -109 7 -12 225 -7 259 7 19 7 34 26 48 57 22 54 41 207 29 240 -5 12
-6 25 -3 28 3 3 1 11 -5 18 -5 7 -13 30 -17 50 -12 62 -30 71 -144 70 -74 0
-103 4 -112 14 -18 22 -39 17 -50 -13z M69 283 c-10 -11 -15 -52 -17 -130 -4
-125 2 -135 52 -90 23 20 25 30 28 130 l4 107 -27 0 c-15 0 -33 -7 -40 -17z"/>
</g>
</svg>
