<?xml version="1.0" standalone="no"?>
<!DOCTYPE svg PUBLIC "-//W3C//DTD SVG 20010904//EN"
 "http://www.w3.org/TR/2001/REC-SVG-20010904/DTD/svg10.dtd">
<svg version="1.0" xmlns="http://www.w3.org/2000/svg"
 width="72.000000pt" height="92.000000pt" viewBox="0 0 72.000000 92.000000"
 preserveAspectRatio="xMidYMid meet">
<metadata>
Created by potrace 1.16, written by Peter Selinger 2001-2019
</metadata>
<g transform="translate(0.000000,92.000000) scale(0.100000,-0.100000)"
fill="#000000" stroke="none">
<path d="M62 855 c-6 -13 -14 -46 -18 -74 -11 -85 42 -151 122 -151 37 0 37
-15 1 -82 -50 -92 -69 -159 -81 -283 -14 -144 -10 -212 14 -220 41 -13 48 2
55 113 6 114 28 234 52 292 15 38 63 113 76 118 4 2 15 11 24 20 26 27 169 23
215 -6 53 -33 63 -60 63 -181 0 -58 -3 -114 -7 -123 -7 -16 -23 -18 -142 -18
-74 0 -141 -3 -150 -6 -8 -3 -18 -22 -22 -42 -4 -21 -10 -42 -15 -47 -4 -6
-11 -34 -15 -63 l-7 -52 195 0 c145 0 198 3 205 12 9 12 15 58 29 228 2 25 6
72 10 105 7 81 7 90 -5 165 -14 83 -62 181 -104 212 -48 36 -124 78 -141 78
-9 0 -20 -20 -31 -57 -20 -69 -75 -136 -87 -106 -3 10 -7 34 -7 54 -1 20 -9
46 -18 57 -21 23 -73 42 -115 42 -21 0 -31 6 -35 20 -8 29 -47 26 -61 -5z
m452 -694 c9 -15 -50 -24 -97 -15 l-42 8 35 7 c54 10 98 10 104 0z"/>
</g>
</svg>
