<?xml version="1.0" standalone="no"?>
<!DOCTYPE svg PUBLIC "-//W3C//DTD SVG 20010904//EN"
 "http://www.w3.org/TR/2001/REC-SVG-20010904/DTD/svg10.dtd">
<svg version="1.0" xmlns="http://www.w3.org/2000/svg"
 width="241.000000pt" height="80.000000pt" viewBox="0 0 241.000000 80.000000"
 preserveAspectRatio="xMidYMid meet">
<metadata>
Created by potrace 1.16, written by Peter Selinger 2001-2019
</metadata>
<g transform="translate(0.000000,80.000000) scale(0.100000,-0.100000)"
fill="#000000" stroke="none">
<path d="M1376 747 c-22 -16 -18 -65 5 -80 23 -14 67 0 74 24 8 25 -19 69 -43
69 -10 0 -26 -6 -36 -13z M431 614 c-13 -19 -37 -46 -53 -59 -33 -28 -37 -55
-8 -55 21 0 24 -19 22 -165 0 -75 16 -151 38 -170 30 -27 102 -16 134 21 36
41 32 47 -19 40 -54 -9 -54 -9 -58 154 l-2 115 35 5 c27 4 35 10 35 25 0 15
-8 21 -35 25 -34 5 -35 7 -38 53 -4 57 -18 60 -51 11z M1378 547 c-40 -15 -58
-27 -58 -39 0 -13 8 -18 25 -18 l25 0 0 -133 c0 -138 -5 -157 -43 -157 -12 0
-17 -6 -15 -17 3 -14 16 -17 88 -16 47 0 93 1 103 2 20 1 24 31 3 31 -32 0
-39 31 -45 197 -4 98 -10 167 -16 169 -5 1 -36 -7 -67 -19z M1613 549 c-56
-21 -66 -41 -33 -59 18 -10 20 -21 20 -140 0 -119 -2 -131 -20 -142 -49 -31
-8 -46 103 -40 61 4 70 14 36 41 -18 15 -21 30 -25 121 -2 58 -1 112 1 121 6
18 46 39 75 39 31 0 40 -32 40 -149 0 -99 -2 -113 -20 -128 -39 -34 -26 -43
64 -43 94 0 114 11 75 43 -23 18 -24 27 -29 147 -5 141 -17 170 -75 199 -32
16 -99 1 -109 -24 -8 -22 -24 -18 -28 7 -4 29 -14 30 -75 7z M2104 556 c-67
-30 -101 -124 -69 -187 10 -18 24 -39 31 -47 12 -11 10 -18 -11 -46 -29 -38
-31 -58 -10 -76 13 -11 11 -16 -15 -40 -94 -88 2 -179 163 -151 111 18 167 68
167 146 0 36 -40 84 -70 86 -69 2 -168 11 -180 15 -26 9 19 34 62 34 80 0 153
78 146 158 -2 31 0 37 22 42 18 4 25 13 25 30 0 23 -5 25 -60 31 -33 4 -85 10
-115 13 -38 4 -65 2 -86 -8z m106 -76 c27 -53 27 -114 -1 -133 -42 -30 -83 6
-95 83 -9 55 10 90 47 90 23 0 32 -8 49 -40z m78 -326 c40 -6 40 -27 -1 -58
-23 -17 -43 -21 -106 -21 -49 0 -84 5 -93 13 -18 14 -13 51 8 68 14 11 116 10
192 -2z M740 553 c-36 -15 -83 -60 -102 -97 -17 -32 -20 -53 -16 -110 6 -83
23 -123 73 -160 29 -23 46 -27 103 -29 56 -2 73 2 103 22 64 43 83 84 83 177
0 72 -3 87 -27 123 -15 22 -40 47 -57 56 -32 17 -136 29 -160 18z m112 -70
c46 -43 62 -160 33 -230 -19 -45 -30 -53 -72 -53 -55 0 -103 85 -103 181 0
120 69 170 142 102z M1061 537 c-51 -25 -62 -44 -29 -49 23 -3 23 -6 26 -133
l3 -130 -28 -23 c-23 -18 -25 -24 -14 -31 20 -13 189 -12 198 1 6 10 -1 17
-41 43 -11 7 -17 37 -22 115 -6 99 -5 107 16 133 21 26 23 27 46 13 35 -24 74
-6 74 33 0 47 -63 69 -106 36 -25 -19 -34 -19 -34 0 0 21 -37 18 -89 -8z M105
537 c-46 -21 -70 -79 -53 -129 14 -41 27 -54 106 -102 76 -46 89 -65 64 -97
-16 -18 -25 -21 -55 -15 -28 5 -42 16 -64 51 -44 70 -61 55 -54 -45 1 -19 5
-37 7 -39 3 -3 34 -8 71 -12 97 -10 147 9 173 66 30 67 20 98 -51 145 -32 21
-67 41 -78 45 -27 8 -53 52 -46 75 15 48 83 29 120 -33 9 -15 22 -26 28 -24
13 4 20 86 9 104 -12 18 -142 25 -177 10z M1150 45 c0 -8 7 -15 15 -15 8 0 15
7 15 15 0 8 -7 15 -15 15 -8 0 -15 -7 -15 -15z"/>
</g>
</svg>
