<?xml version="1.0" standalone="no"?>
<!DOCTYPE svg PUBLIC "-//W3C//DTD SVG 20010904//EN"
 "http://www.w3.org/TR/2001/REC-SVG-20010904/DTD/svg10.dtd">
<svg version="1.0" xmlns="http://www.w3.org/2000/svg"
 width="186.000000pt" height="69.000000pt" viewBox="0 0 186.000000 69.000000"
 preserveAspectRatio="xMidYMid meet">
<metadata>
Created by potrace 1.16, written by Peter Selinger 2001-2019
</metadata>
<g transform="translate(0.000000,69.000000) scale(0.100000,-0.100000)"
fill="#000000" stroke="none">
<path d="M1700 643 c-76 -27 -108 -63 -56 -63 20 0 24 -6 28 -44 3 -25 3 -57
0 -71 -4 -21 -8 -24 -26 -18 -11 4 -41 7 -65 6 -90 -4 -161 -97 -160 -208 1
-103 38 -166 116 -193 32 -11 109 0 127 18 6 6 14 3 21 -6 10 -15 16 -14 56 3
24 11 52 23 62 26 23 9 22 37 -2 37 -11 0 -23 9 -26 21 -4 12 -7 121 -7 243 1
122 -1 229 -4 239 -5 17 -33 21 -64 10z m-56 -248 c28 -22 29 -27 34 -127 3
-67 0 -112 -7 -126 -25 -48 -117 -32 -139 25 -30 75 -35 121 -17 165 34 87 76
107 129 63z M44 615 c-8 -20 4 -35 26 -35 11 0 24 -9 30 -19 11 -21 14 -409 4
-448 -4 -14 -15 -23 -33 -25 -15 -2 -26 -9 -26 -18 0 -13 34 -15 232 -18 l231
-2 16 69 c20 88 20 91 -2 91 -11 0 -29 -17 -43 -37 -37 -58 -78 -74 -179 -71
l-85 3 -3 108 -3 107 80 0 c98 0 108 -4 126 -47 26 -62 40 -36 40 73 0 83 -3
99 -16 102 -11 2 -20 -8 -27 -28 -14 -37 -37 -46 -130 -49 l-73 -1 3 101 3
102 80 0 c142 0 135 1 152 -43 22 -56 47 -51 50 10 1 25 0 55 -3 68 l-4 22
-221 0 c-183 0 -221 -2 -225 -15z M1135 451 c-82 -28 -131 -104 -129 -200 1
-122 76 -202 189 -203 118 -1 194 95 181 229 -8 73 -34 124 -79 152 -35 20
-130 34 -162 22z m106 -67 c52 -50 68 -178 30 -251 -19 -39 -25 -43 -59 -43
-49 0 -75 27 -102 105 -23 67 -25 93 -8 147 23 78 83 96 139 42z M583 443
c-20 -7 -15 -21 8 -28 24 -8 109 -134 109 -163 0 -11 -13 -36 -29 -56 -17 -21
-36 -50 -43 -66 -7 -16 -23 -34 -36 -40 -38 -17 -20 -35 38 -38 60 -4 77 6 60
34 -9 16 -7 28 15 67 15 26 29 47 32 47 9 0 31 -31 49 -68 13 -26 14 -35 4
-47 -22 -27 2 -36 85 -33 84 3 107 18 61 39 -14 7 -40 35 -56 63 -17 28 -42
66 -55 85 -14 19 -25 42 -25 52 0 24 77 119 96 119 9 0 14 7 12 18 -3 14 -16
18 -66 20 -47 2 -62 0 -62 -11 0 -7 4 -17 9 -22 10 -10 -15 -75 -28 -75 -3 1
-13 17 -23 36 -14 30 -14 36 -2 41 8 3 14 11 14 19 0 10 -19 13 -77 12 -43 -1
-84 -3 -90 -5z"/>
</g>
</svg>
