<?xml version="1.0" standalone="no"?>
<!DOCTYPE svg PUBLIC "-//W3C//DTD SVG 20010904//EN"
 "http://www.w3.org/TR/2001/REC-SVG-20010904/DTD/svg10.dtd">
<svg version="1.0" xmlns="http://www.w3.org/2000/svg"
 width="67.000000pt" height="94.000000pt" viewBox="0 0 67.000000 94.000000"
 preserveAspectRatio="xMidYMid meet">
<metadata>
Created by potrace 1.16, written by Peter Selinger 2001-2019
</metadata>
<g transform="translate(0.000000,94.000000) scale(0.100000,-0.100000)"
fill="#000000" stroke="none">
<path d="M113 888 c-6 -7 -16 -36 -23 -64 -18 -69 -6 -139 28 -171 l26 -24
-31 -57 c-34 -61 -65 -224 -47 -241 16 -15 73 0 79 20 14 44 97 47 117 3 11
-24 40 -36 64 -27 17 6 20 117 4 158 -11 29 -63 55 -111 55 -29 0 -31 2 -25
28 13 52 37 62 158 62 109 0 110 0 137 -29 73 -78 67 -273 -10 -330 -28 -21
-40 -22 -198 -22 -123 1 -171 -3 -178 -12 -10 -12 -63 -171 -63 -188 0 -6 97
-8 253 -7 l252 3 22 68 c29 85 63 274 63 343 0 72 -36 246 -63 302 -12 25 -37
56 -54 68 -31 21 -42 22 -182 18 l-150 -4 -21 30 c-23 33 -33 36 -47 18z m337
-153 c13 -15 13 -15 -222 -19 -24 -1 -34 4 -36 17 -3 15 8 17 121 17 99 0 127
-3 137 -15z m10 -584 c0 -15 -32 -18 -150 -12 l-115 6 95 6 c163 9 170 9 170
0z"/>
</g>
</svg>
