<?xml version="1.0" standalone="no"?>
<!DOCTYPE svg PUBLIC "-//W3C//DTD SVG 20010904//EN"
 "http://www.w3.org/TR/2001/REC-SVG-20010904/DTD/svg10.dtd">
<svg version="1.0" xmlns="http://www.w3.org/2000/svg"
 width="64.000000pt" height="95.000000pt" viewBox="0 0 64.000000 95.000000"
 preserveAspectRatio="xMidYMid meet">
<metadata>
Created by potrace 1.16, written by Peter Selinger 2001-2019
</metadata>
<g transform="translate(0.000000,95.000000) scale(0.100000,-0.100000)"
fill="#000000" stroke="none">
<path d="M58 888 c-6 -13 -14 -64 -16 -114 -4 -89 -4 -91 23 -112 26 -21 38
-22 210 -22 l183 0 16 -25 c14 -21 16 -62 16 -287 0 -145 4 -269 8 -276 11
-17 69 3 83 30 11 20 13 368 3 568 -6 123 -19 153 -81 185 -38 19 -56 20 -190
18 -173 -4 -189 -2 -197 32 -8 32 -41 33 -58 3z m376 -134 c42 -16 5 -24 -106
-24 -126 0 -168 6 -168 21 0 10 249 13 274 3z"/>
</g>
</svg>
