<?xml version="1.0" standalone="no"?>
<!DOCTYPE svg PUBLIC "-//W3C//DTD SVG 20010904//EN"
 "http://www.w3.org/TR/2001/REC-SVG-20010904/DTD/svg10.dtd">
<svg version="1.0" xmlns="http://www.w3.org/2000/svg"
 width="18.000000pt" height="20.000000pt" viewBox="0 0 18.000000 20.000000"
 preserveAspectRatio="xMidYMid meet">
<metadata>
Created by potrace 1.16, written by Peter Selinger 2001-2019
</metadata>
<g transform="translate(0.000000,20.000000) scale(0.100000,-0.100000)"
fill="#000000" stroke="none">
<path d="M90 190 c0 -5 5 -10 10 -10 6 0 10 5 10 10 0 6 -4 10 -10 10 -5 0
-10 -4 -10 -10z M59 158 c-1 -2 -3 -12 -4 -23 -1 -11 -5 -35 -9 -53 -11 -49
15 -53 59 -7 40 43 48 80 15 70 -11 -4 -20 -2 -20 4 0 9 -37 17 -41 9z M150
110 c0 -5 5 -10 11 -10 6 0 8 -8 5 -17 -3 -10 -1 -25 4 -33 7 -11 10 -3 10 28
0 31 -4 42 -15 42 -8 0 -15 -4 -15 -10z"/>
</g>
</svg>
