<?xml version="1.0" standalone="no"?>
<!DOCTYPE svg PUBLIC "-//W3C//DTD SVG 20010904//EN"
 "http://www.w3.org/TR/2001/REC-SVG-20010904/DTD/svg10.dtd">
<svg version="1.0" xmlns="http://www.w3.org/2000/svg"
 width="106.000000pt" height="68.000000pt" viewBox="0 0 106.000000 68.000000"
 preserveAspectRatio="xMidYMid meet">
<metadata>
Created by potrace 1.16, written by Peter Selinger 2001-2019
</metadata>
<g transform="translate(0.000000,68.000000) scale(0.100000,-0.100000)"
fill="#000000" stroke="none">
<path d="M744 629 c-44 -13 -60 -35 -82 -114 -17 -61 -22 -70 -43 -70 -36 0
-33 -39 3 -43 24 -3 26 -7 30 -55 2 -29 4 -95 4 -147 l-1 -95 -32 -14 c-18 -8
-33 -18 -33 -22 0 -16 195 -25 220 -9 16 10 3 33 -15 26 -7 -2 -20 3 -29 13
-12 13 -16 45 -17 155 0 75 2 140 5 143 3 3 23 6 43 7 31 1 38 5 38 21 0 16
-8 21 -42 23 -37 3 -42 6 -48 33 -10 42 3 106 23 114 11 4 25 -4 42 -25 39
-47 96 -34 88 22 -6 42 -78 59 -154 37z M220 611 c-78 -27 -154 -111 -170
-188 -37 -177 43 -331 191 -367 80 -20 101 -20 162 -1 83 25 157 75 157 106 0
31 -18 31 -62 1 -61 -41 -111 -55 -176 -49 -113 12 -167 97 -160 252 7 132 65
204 173 213 45 4 55 1 95 -29 26 -20 53 -52 65 -77 12 -26 25 -41 34 -40 12 3
15 21 12 98 -1 52 -4 96 -6 98 -1 1 -22 -2 -45 -7 -26 -6 -52 -6 -67 0 -40 15
-144 10 -203 -10z M924 135 c-38 -58 26 -115 75 -66 37 37 24 72 -31 86 -22 6
-30 2 -44 -20z"/>
</g>
</svg>
