<?xml version="1.0" standalone="no"?>
<!DOCTYPE svg PUBLIC "-//W3C//DTD SVG 20010904//EN"
 "http://www.w3.org/TR/2001/REC-SVG-20010904/DTD/svg10.dtd">
<svg version="1.0" xmlns="http://www.w3.org/2000/svg"
 width="105.000000pt" height="91.000000pt" viewBox="0 0 105.000000 91.000000"
 preserveAspectRatio="xMidYMid meet">
<metadata>
Created by potrace 1.16, written by Peter Selinger 2001-2019
</metadata>
<g transform="translate(0.000000,91.000000) scale(0.100000,-0.100000)"
fill="#000000" stroke="none">
<path d="M441 852 c-16 -12 -25 -36 -33 -89 -10 -63 -9 -75 6 -98 9 -14 28
-31 42 -37 13 -6 24 -15 24 -20 0 -15 -45 -78 -55 -78 -5 0 -35 30 -65 67 -30
37 -72 84 -92 106 -21 22 -54 64 -75 93 -42 59 -63 66 -104 31 -38 -32 -53
-84 -39 -140 11 -42 22 -59 92 -139 l27 -31 -39 -47 c-49 -59 -60 -87 -60
-155 0 -41 7 -67 30 -108 l29 -54 -35 -31 c-25 -22 -34 -38 -32 -54 3 -22 7
-23 112 -26 69 -2 113 1 122 8 7 7 16 31 19 54 8 50 -4 84 -64 175 -22 35 -41
76 -41 90 1 24 20 61 32 61 3 0 43 -46 89 -102 46 -56 91 -108 99 -117 8 -8
28 -31 43 -50 62 -78 102 -121 115 -121 23 0 71 40 88 72 27 53 12 104 -51
173 -30 33 -55 62 -55 65 0 3 -14 20 -31 38 -26 28 -30 39 -26 68 9 54 67 128
103 132 47 6 54 18 54 97 0 64 -3 77 -25 103 -19 23 -37 32 -74 37 -29 4 -57
15 -67 26 -21 24 -36 24 -63 1z m46 -53 c7 -7 35 -16 64 -20 67 -11 83 -26 81
-81 -3 -67 -16 -73 -102 -46 -87 27 -99 44 -80 113 13 47 19 52 37 34z m-320
-53 c24 -30 71 -85 105 -123 35 -38 82 -91 106 -118 l43 -50 29 34 c33 39 46
37 30 -3 -21 -55 -12 -80 53 -160 135 -168 134 -166 88 -210 l-28 -27 -74 88
c-41 48 -79 93 -85 98 -6 6 -24 28 -40 49 -16 22 -40 51 -54 66 -14 14 -38 43
-53 63 -15 20 -36 37 -45 36 -30 -1 -65 -57 -70 -113 -4 -48 -1 -56 41 -119
56 -83 72 -128 57 -157 -9 -17 -20 -20 -75 -20 -69 0 -73 3 -50 34 20 27 19
59 -5 106 -11 21 -24 57 -29 81 -12 53 11 106 70 167 28 28 39 46 35 59 -3 10
-35 49 -71 87 -54 57 -65 75 -65 103 0 30 25 82 40 83 3 0 24 -24 47 -54z
M747 858 c-23 -17 -33 -128 -18 -184 14 -50 62 -80 115 -70 26 5 37 2 52 -15
18 -20 19 -39 20 -283 l1 -261 30 -3 c23 -2 35 3 47 20 14 20 16 61 15 328 0
168 -4 322 -7 344 -6 31 -14 42 -42 57 -19 11 -54 19 -77 19 -35 0 -45 5 -63
30 -23 32 -46 38 -73 18z m53 -68 c9 -16 21 -20 66 -20 44 0 59 -4 79 -24 l23
-24 2 -306 c0 -205 -3 -306 -10 -306 -6 0 -10 81 -10 239 0 132 -3 247 -6 256
-9 21 -68 45 -114 45 -56 0 -83 37 -74 99 10 67 23 80 44 41z"/>
</g>
</svg>
