<?xml version="1.0" standalone="no"?>
<!DOCTYPE svg PUBLIC "-//W3C//DTD SVG 20010904//EN"
 "http://www.w3.org/TR/2001/REC-SVG-20010904/DTD/svg10.dtd">
<svg version="1.0" xmlns="http://www.w3.org/2000/svg"
 width="64.000000pt" height="94.000000pt" viewBox="0 0 64.000000 94.000000"
 preserveAspectRatio="xMidYMid meet">
<metadata>
Created by potrace 1.16, written by Peter Selinger 2001-2019
</metadata>
<g transform="translate(0.000000,94.000000) scale(0.100000,-0.100000)"
fill="#000000" stroke="none">
<path d="M47 908 c-5 -33 0 -146 9 -206 3 -17 15 -41 27 -53 21 -19 32 -20
191 -18 l169 3 23 -28 c19 -21 24 -39 24 -78 0 -48 -3 -54 -49 -97 -26 -25
-81 -70 -120 -99 -78 -58 -114 -106 -125 -166 -10 -51 7 -89 50 -112 31 -17
37 -17 61 -4 34 19 48 69 33 114 -14 44 0 80 41 105 17 10 66 51 108 89 98 89
111 123 111 289 0 88 -4 121 -16 142 -30 52 -43 54 -249 52 -215 -3 -222 0
-212 64 6 35 6 35 -32 35 -36 0 -39 -2 -44 -32z m436 -167 c4 -1 7 -8 7 -17 0
-14 -6 -15 -37 -8 -21 4 -83 9 -138 10 -136 3 -135 3 -135 13 0 7 247 9 303 2z"/>
</g>
</svg>
