<?xml version="1.0" standalone="no"?>
<!DOCTYPE svg PUBLIC "-//W3C//DTD SVG 20010904//EN"
 "http://www.w3.org/TR/2001/REC-SVG-20010904/DTD/svg10.dtd">
<svg version="1.0" xmlns="http://www.w3.org/2000/svg"
 width="33.000000pt" height="65.000000pt" viewBox="0 0 33.000000 65.000000"
 preserveAspectRatio="xMidYMid meet">
<metadata>
Created by potrace 1.16, written by Peter Selinger 2001-2019
</metadata>
<g transform="translate(0.000000,65.000000) scale(0.100000,-0.100000)"
fill="#000000" stroke="none">
<path d="M103 573 c-35 -19 -63 -39 -63 -44 0 -5 18 -9 40 -9 l40 0 0 -82 c0
-46 2 -137 4 -203 4 -129 -6 -165 -44 -165 -11 0 -20 -6 -20 -14 0 -11 20 -15
88 -18 109 -4 142 0 142 18 0 8 -14 17 -30 21 -17 3 -33 10 -37 16 -3 6 -7 78
-8 161 -1 83 -3 197 -4 254 -1 99 -2 102 -23 101 -13 0 -51 -16 -85 -36z"/>
</g>
</svg>
