<?xml version="1.0" standalone="no"?>
<!DOCTYPE svg PUBLIC "-//W3C//DTD SVG 20010904//EN"
 "http://www.w3.org/TR/2001/REC-SVG-20010904/DTD/svg10.dtd">
<svg version="1.0" xmlns="http://www.w3.org/2000/svg"
 width="109.000000pt" height="68.000000pt" viewBox="0 0 109.000000 68.000000"
 preserveAspectRatio="xMidYMid meet">
<metadata>
Created by potrace 1.16, written by Peter Selinger 2001-2019
</metadata>
<g transform="translate(0.000000,68.000000) scale(0.100000,-0.100000)"
fill="#000000" stroke="none">
<path d="M320 621 c-49 -20 -63 -45 -30 -54 19 -5 20 -12 21 -219 2 -252 3
-239 -23 -259 -36 -28 -13 -39 83 -39 73 0 89 3 89 15 0 9 -11 20 -24 24 -32
13 -36 28 -36 145 0 93 2 104 23 124 30 28 68 35 92 17 22 -18 33 -101 27
-213 -3 -56 -7 -64 -28 -72 -13 -5 -24 -16 -24 -25 0 -12 15 -15 79 -15 44 0
86 3 95 6 22 8 20 31 -3 39 -21 6 -31 63 -31 182 0 98 -15 133 -67 161 -32 17
-69 15 -113 -8 -22 -11 -41 -20 -44 -20 -3 0 -7 51 -8 112 -3 128 -4 129 -78
99z M112 501 c-13 -22 -34 -49 -47 -60 -30 -23 -32 -37 -6 -44 17 -4 19 -17
23 -148 5 -177 17 -209 78 -209 27 0 48 8 69 26 47 40 39 70 -11 43 -18 -10
-25 -8 -39 10 -14 17 -17 41 -16 143 l2 123 30 3 c17 2 34 8 39 12 15 15 -14
40 -45 40 -26 0 -28 3 -31 47 -2 25 -8 48 -14 50 -5 2 -20 -15 -32 -36z M835
441 c-53 -18 -77 -38 -102 -85 -22 -42 -26 -63 -25 -116 3 -118 55 -178 162
-186 48 -4 60 -1 95 24 38 26 84 92 85 120 0 24 -31 11 -69 -28 -48 -51 -94
-55 -141 -13 -31 28 -62 97 -54 118 3 8 41 11 112 10 59 -1 113 1 120 3 19 6
7 67 -20 105 -34 47 -105 68 -163 48z m70 -66 c43 -42 33 -52 -55 -51 -49 1
-55 3 -52 21 10 55 66 71 107 30z"/>
</g>
</svg>
