<?xml version="1.0" standalone="no"?>
<!DOCTYPE svg PUBLIC "-//W3C//DTD SVG 20010904//EN"
 "http://www.w3.org/TR/2001/REC-SVG-20010904/DTD/svg10.dtd">
<svg version="1.0" xmlns="http://www.w3.org/2000/svg"
 width="76.000000pt" height="92.000000pt" viewBox="0 0 76.000000 92.000000"
 preserveAspectRatio="xMidYMid meet">
<metadata>
Created by potrace 1.16, written by Peter Selinger 2001-2019
</metadata>
<g transform="translate(0.000000,92.000000) scale(0.100000,-0.100000)"
fill="#000000" stroke="none">
<path d="M156 865 c-25 -25 -39 -95 -32 -160 5 -51 10 -64 37 -87 l32 -27 -22
-58 c-19 -53 -26 -142 -12 -167 4 -9 5 -26 2 -86 -1 -16 -8 -20 -35 -20 -18 0
-38 -6 -43 -13 -12 -15 -46 -187 -39 -194 8 -9 221 -7 235 1 44 27 62 185 29
256 -34 74 -38 152 -11 218 28 69 34 72 152 72 58 0 111 -4 117 -8 28 -19 33
-56 35 -278 1 -126 4 -235 6 -241 8 -22 62 -15 87 10 l23 23 -3 240 c-6 350
-8 363 -69 417 -53 47 -73 51 -243 52 -153 0 -164 1 -174 20 -11 21 -37 45
-49 45 -4 0 -15 -7 -23 -15z m34 -63 c0 -25 60 -35 206 -33 164 2 184 -2 223
-51 45 -55 50 -90 52 -347 2 -216 -1 -265 -15 -250 -3 3 -8 101 -11 218 -6
228 -14 269 -57 292 -31 17 -253 16 -274 -2 -11 -9 -18 -9 -26 -1 -7 7 -32 12
-56 12 -40 0 -44 3 -57 34 -15 35 -10 136 6 136 5 0 9 -4 9 -8z m65 -259 c-25
-38 -24 -131 4 -233 22 -81 25 -170 6 -200 -3 -5 -42 -10 -87 -10 l-81 0 7 52
c9 64 13 71 39 64 11 -3 33 2 50 10 25 14 28 20 23 47 -33 177 -27 229 33 300
22 26 27 2 6 -30z"/>
</g>
</svg>
