<?xml version="1.0" standalone="no"?>
<!DOCTYPE svg PUBLIC "-//W3C//DTD SVG 20010904//EN"
 "http://www.w3.org/TR/2001/REC-SVG-20010904/DTD/svg10.dtd">
<svg version="1.0" xmlns="http://www.w3.org/2000/svg"
 width="40.000000pt" height="61.000000pt" viewBox="0 0 40.000000 61.000000"
 preserveAspectRatio="xMidYMid meet">
<metadata>
Created by potrace 1.16, written by Peter Selinger 2001-2019
</metadata>
<g transform="translate(0.000000,61.000000) scale(0.100000,-0.100000)"
fill="#000000" stroke="none">
<path d="M65 550 c-22 -24 -33 -150 -16 -192 16 -42 57 -62 135 -68 l71 -5 -1
-47 c0 -35 -7 -54 -30 -83 -56 -70 -61 -82 -43 -101 25 -24 52 -10 96 49 98
132 108 289 23 372 -21 20 -44 36 -51 35 -8 -2 -38 -2 -67 -1 -50 1 -54 3 -63
31 -13 35 -29 38 -54 10z m146 -140 c24 -14 25 -30 0 -30 -30 0 -51 11 -51 26
0 17 24 18 51 4z"/>
</g>
</svg>
