<?xml version="1.0" standalone="no"?>
<!DOCTYPE svg PUBLIC "-//W3C//DTD SVG 20010904//EN"
 "http://www.w3.org/TR/2001/REC-SVG-20010904/DTD/svg10.dtd">
<svg version="1.0" xmlns="http://www.w3.org/2000/svg"
 width="68.000000pt" height="125.000000pt" viewBox="0 0 68.000000 125.000000"
 preserveAspectRatio="xMidYMid meet">
<metadata>
Created by potrace 1.16, written by Peter Selinger 2001-2019
</metadata>
<g transform="translate(0.000000,125.000000) scale(0.100000,-0.100000)"
fill="#000000" stroke="none">
<path d="M55 1186 c-10 -15 -15 -40 -13 -68 3 -37 7 -45 35 -58 38 -17 39 -25
14 -105 -24 -79 -26 -226 -4 -269 28 -53 35 -55 214 -56 185 0 197 -4 217 -67
21 -64 -4 -108 -103 -185 -120 -93 -171 -145 -184 -188 -16 -53 -5 -105 26
-130 69 -54 146 8 114 92 -16 44 -2 71 63 121 86 65 154 133 175 176 24 47 36
218 20 290 -7 36 -19 58 -41 76 -30 25 -30 25 -219 24 -103 0 -193 2 -199 6
-18 11 -10 79 16 135 29 62 36 148 15 174 -8 9 -31 19 -53 23 -22 3 -42 12
-45 19 -8 21 -31 16 -48 -10z m462 -458 c25 -25 9 -33 -37 -19 -23 7 -94 15
-160 18 -66 3 -118 9 -116 12 3 3 70 6 150 6 124 0 148 -2 163 -17z"/>
</g>
</svg>
