<?xml version="1.0" standalone="no"?>
<!DOCTYPE svg PUBLIC "-//W3C//DTD SVG 20010904//EN"
 "http://www.w3.org/TR/2001/REC-SVG-20010904/DTD/svg10.dtd">
<svg version="1.0" xmlns="http://www.w3.org/2000/svg"
 width="39.000000pt" height="58.000000pt" viewBox="0 0 39.000000 58.000000"
 preserveAspectRatio="xMidYMid meet">
<metadata>
Created by potrace 1.16, written by Peter Selinger 2001-2019
</metadata>
<g transform="translate(0.000000,58.000000) scale(0.100000,-0.100000)"
fill="#000000" stroke="none">
<path d="M51 509 c-6 -18 -11 -62 -11 -99 0 -60 3 -69 30 -95 25 -24 38 -28
94 -30 70 -2 96 -15 96 -49 0 -22 -7 -36 -57 -112 -39 -59 -42 -84 -10 -84 26
0 76 48 101 98 9 17 22 44 30 60 8 15 18 55 21 89 9 75 -10 133 -58 175 -27
25 -38 28 -99 28 -64 0 -69 2 -78 25 -14 36 -45 33 -59 -6z"/>
</g>
</svg>
