<?xml version="1.0" standalone="no"?>
<!DOCTYPE svg PUBLIC "-//W3C//DTD SVG 20010904//EN"
 "http://www.w3.org/TR/2001/REC-SVG-20010904/DTD/svg10.dtd">
<svg version="1.0" xmlns="http://www.w3.org/2000/svg"
 width="150.000000pt" height="68.000000pt" viewBox="0 0 150.000000 68.000000"
 preserveAspectRatio="xMidYMid meet">
<metadata>
Created by potrace 1.16, written by Peter Selinger 2001-2019
</metadata>
<g transform="translate(0.000000,68.000000) scale(0.100000,-0.100000)"
fill="#000000" stroke="none">
<path d="M1251 624 c-91 -28 -138 -107 -129 -217 10 -122 62 -180 163 -181 57
-1 65 2 102 34 42 37 73 87 73 120 0 29 -10 25 -57 -25 -46 -50 -79 -57 -138
-29 -27 12 -38 27 -51 66 -9 27 -13 52 -9 56 3 4 56 8 118 9 61 2 115 7 119
11 12 12 -11 85 -36 113 -43 50 -91 63 -155 43z m76 -81 c9 -13 13 -26 10 -30
-11 -11 -121 -6 -125 6 -5 15 17 41 42 51 29 10 55 1 73 -27z M455 615 c-27
-8 -53 -14 -57 -15 -3 0 -16 -15 -27 -34 -17 -27 -19 -39 -11 -60 5 -15 17
-29 25 -32 21 -9 55 24 55 52 0 34 26 55 58 48 34 -9 32 -6 42 -48 9 -41 8
-42 -70 -76 -86 -38 -130 -86 -130 -144 0 -37 55 -96 90 -96 31 0 95 24 105
40 9 14 25 13 25 -3 0 -20 39 -39 70 -32 59 13 94 88 38 82 -23 -2 -23 0 -28
123 -6 140 -19 172 -77 196 -39 17 -44 17 -108 -1z m95 -237 c0 -62 -19 -88
-65 -88 -43 0 -62 37 -40 80 14 27 81 70 98 62 4 -2 7 -26 7 -54z M836 620
c-41 -13 -84 -57 -91 -94 -4 -17 -9 -38 -11 -47 -2 -9 11 -39 31 -68 l35 -51
-30 -31 c-34 -37 -36 -46 -14 -70 15 -17 15 -20 -10 -49 -76 -91 -18 -166 124
-163 67 1 126 25 177 72 41 38 39 127 -3 162 -7 6 -56 14 -108 19 -52 4 -100
11 -106 15 -19 12 -1 23 47 29 107 15 155 60 158 150 2 41 5 50 18 48 18 -3
41 33 34 52 -3 8 -33 16 -74 20 -37 3 -86 8 -108 11 -22 2 -53 0 -69 -5z m91
-79 c32 -47 32 -115 0 -135 -47 -31 -82 2 -94 89 -11 87 47 116 94 46z m19
-329 c48 1 70 -3 82 -16 15 -15 15 -18 -10 -43 -23 -22 -37 -27 -102 -31 -109
-7 -152 26 -111 85 13 18 20 20 45 13 17 -5 60 -8 96 -8z M887 463 c-12 -11
-8 -23 8 -23 8 0 15 7 15 15 0 16 -12 20 -23 8z M110 610 c-45 -20 -65 -51
-65 -102 0 -50 28 -100 59 -106 10 -2 25 -10 34 -19 10 -8 33 -24 52 -36 42
-27 49 -56 20 -82 -20 -18 -22 -18 -66 3 -31 16 -48 31 -56 52 -6 20 -17 30
-29 30 -18 0 -20 -6 -17 -62 l3 -63 78 -9 c70 -8 83 -7 121 12 37 17 44 26 49
59 4 21 4 55 1 75 -7 38 -21 51 -115 106 -19 12 -43 30 -53 41 -16 18 -16 21
-2 44 21 30 64 28 86 -4 31 -47 47 -62 58 -55 14 9 16 102 2 111 -18 11 -135
15 -160 5z"/>
</g>
</svg>
