<?xml version="1.0" standalone="no"?>
<!DOCTYPE svg PUBLIC "-//W3C//DTD SVG 20010904//EN"
 "http://www.w3.org/TR/2001/REC-SVG-20010904/DTD/svg10.dtd">
<svg version="1.0" xmlns="http://www.w3.org/2000/svg"
 width="80.000000pt" height="90.000000pt" viewBox="0 0 80.000000 90.000000"
 preserveAspectRatio="xMidYMid meet">
<metadata>
Created by potrace 1.16, written by Peter Selinger 2001-2019
</metadata>
<g transform="translate(0.000000,90.000000) scale(0.100000,-0.100000)"
fill="#000000" stroke="none">
<path d="M362 850 c-151 -32 -250 -125 -302 -285 -16 -46 -17 -229 -2 -248 5
-6 12 -25 16 -41 20 -82 101 -171 194 -214 145 -66 373 -22 466 89 48 56 12
79 -44 28 -58 -51 -100 -68 -196 -75 -85 -6 -91 -5 -144 23 -31 17 -68 47 -87
71 -117 154 -87 470 53 555 88 53 174 59 251 16 60 -33 101 -78 119 -131 12
-36 21 -48 36 -48 19 0 20 5 15 126 -2 69 -9 130 -15 136 -7 7 -18 4 -37 -8
-24 -15 -34 -16 -83 -6 -85 17 -192 22 -240 12z"/>
</g>
</svg>
