<?xml version="1.0" standalone="no"?>
<!DOCTYPE svg PUBLIC "-//W3C//DTD SVG 20010904//EN"
 "http://www.w3.org/TR/2001/REC-SVG-20010904/DTD/svg10.dtd">
<svg version="1.0" xmlns="http://www.w3.org/2000/svg"
 width="73.000000pt" height="92.000000pt" viewBox="0 0 73.000000 92.000000"
 preserveAspectRatio="xMidYMid meet">
<metadata>
Created by potrace 1.16, written by Peter Selinger 2001-2019
</metadata>
<g transform="translate(0.000000,92.000000) scale(0.100000,-0.100000)"
fill="#000000" stroke="none">
<path d="M66 856 c-8 -14 -19 -49 -22 -79 -5 -46 -3 -61 17 -96 24 -43 28 -46
97 -56 23 -4 42 -8 42 -10 0 -2 -20 -43 -44 -91 -53 -107 -73 -192 -81 -342
-7 -122 -1 -142 40 -142 36 0 43 19 44 121 2 198 60 357 152 415 43 27 73 29
163 13 94 -16 106 -30 119 -131 7 -54 7 -104 1 -139 l-9 -54 -151 -3 c-105 -2
-155 -6 -161 -15 -13 -17 -47 -183 -39 -195 7 -12 397 -5 409 7 12 12 48 408
41 456 -11 84 -26 125 -45 125 -11 0 -19 5 -19 10 0 6 7 10 15 10 21 0 20 4
-20 59 -26 35 -54 58 -104 85 -97 51 -100 50 -116 -29 -6 -33 -64 -105 -83
-105 -7 0 -12 15 -12 38 0 79 -47 122 -134 122 -18 0 -30 7 -38 25 -14 32 -41
32 -62 1z m468 -695 c9 -14 -21 -21 -95 -21 -63 0 -88 11 -56 23 21 9 146 7
151 -2z"/>
</g>
</svg>
