<?xml version="1.0" standalone="no"?>
<!DOCTYPE svg PUBLIC "-//W3C//DTD SVG 20010904//EN"
 "http://www.w3.org/TR/2001/REC-SVG-20010904/DTD/svg10.dtd">
<svg version="1.0" xmlns="http://www.w3.org/2000/svg"
 width="71.000000pt" height="93.000000pt" viewBox="0 0 71.000000 93.000000"
 preserveAspectRatio="xMidYMid meet">
<metadata>
Created by potrace 1.16, written by Peter Selinger 2001-2019
</metadata>
<g transform="translate(0.000000,93.000000) scale(0.100000,-0.100000)"
fill="#000000" stroke="none">
<path d="M69 853 c-32 -53 -32 -136 -1 -180 34 -48 67 -54 291 -52 111 1 204
-1 207 -4 3 -3 -6 -30 -20 -61 -28 -59 -34 -126 -23 -246 19 -200 20 -220 7
-235 -10 -12 -10 -19 -2 -27 17 -17 87 7 112 39 19 25 21 37 17 128 -3 55 -10
123 -16 150 -5 28 -13 65 -17 83 -4 22 2 59 20 116 16 52 26 107 26 146 0 55
-3 65 -30 92 l-31 30 -207 -4 c-114 -2 -215 -2 -225 0 -9 2 -24 17 -32 33 -21
40 -48 37 -76 -8z m471 -131 c0 -4 -48 -6 -107 -4 -158 4 -166 9 -20 11 70 0
127 -2 127 -7z M140 446 c-60 -22 -68 -49 -72 -239 l-3 -169 39 5 c74 10 81
26 83 204 2 97 7 161 14 169 13 16 5 44 -13 43 -7 0 -29 -6 -48 -13z"/>
</g>
</svg>
