<?xml version="1.0" standalone="no"?>
<!DOCTYPE svg PUBLIC "-//W3C//DTD SVG 20010904//EN"
 "http://www.w3.org/TR/2001/REC-SVG-20010904/DTD/svg10.dtd">
<svg version="1.0" xmlns="http://www.w3.org/2000/svg"
 width="37.000000pt" height="96.000000pt" viewBox="0 0 37.000000 96.000000"
 preserveAspectRatio="xMidYMid meet">
<metadata>
Created by potrace 1.16, written by Peter Selinger 2001-2019
</metadata>
<g transform="translate(0.000000,96.000000) scale(0.100000,-0.100000)"
fill="#000000" stroke="none">
<path d="M67 898 c-22 -35 -30 -84 -22 -145 9 -73 35 -98 112 -106 31 -3 62
-12 69 -19 10 -10 14 -82 17 -288 2 -152 7 -281 11 -288 11 -18 25 -15 52 15
l25 27 -2 315 c-1 331 -5 389 -32 416 -21 20 -70 35 -119 35 -30 0 -39 5 -50
27 -17 36 -43 40 -61 11z m138 -148 c3 -5 -3 -10 -14 -10 -11 0 -23 5 -26 10
-3 6 3 10 14 10 11 0 23 -4 26 -10z"/>
</g>
</svg>
