<?xml version="1.0" standalone="no"?>
<!DOCTYPE svg PUBLIC "-//W3C//DTD SVG 20010904//EN"
 "http://www.w3.org/TR/2001/REC-SVG-20010904/DTD/svg10.dtd">
<svg version="1.0" xmlns="http://www.w3.org/2000/svg"
 width="73.000000pt" height="94.000000pt" viewBox="0 0 73.000000 94.000000"
 preserveAspectRatio="xMidYMid meet">
<metadata>
Created by potrace 1.16, written by Peter Selinger 2001-2019
</metadata>
<g transform="translate(0.000000,94.000000) scale(0.100000,-0.100000)"
fill="#000000" stroke="none">
<path d="M82 893 c-24 -9 -42 -62 -42 -120 0 -76 16 -105 65 -121 22 -7 43
-16 47 -20 3 -4 2 -34 -3 -66 -13 -78 4 -121 79 -198 88 -91 99 -122 59 -162
-19 -19 -37 -24 -122 -30 -55 -4 -102 -11 -105 -16 -5 -8 -6 -78 -1 -142 2
-30 103 -24 213 12 51 17 96 30 100 30 5 0 26 12 47 26 52 34 83 111 111 274
23 134 26 141 76 212 57 80 77 129 77 182 -1 71 -27 93 -118 102 -44 4 -80 13
-97 25 -15 10 -31 19 -36 19 -36 0 -65 -135 -41 -190 12 -26 23 -34 73 -48 32
-9 60 -22 63 -29 3 -8 -10 -39 -29 -71 -50 -83 -108 -217 -108 -248 0 -8 -4
-14 -10 -14 -5 0 -10 15 -10 33 0 25 -18 59 -69 133 -87 127 -96 169 -36 169
14 0 24 11 33 40 32 94 -11 166 -105 179 -31 4 -57 14 -68 26 -19 21 -22 22
-43 13z m483 -139 c11 -12 13 -20 6 -27 -14 -14 -61 7 -61 28 0 20 34 19 55
-1z m-378 -9 c3 -9 3 -19 -1 -22 -8 -9 -37 18 -30 28 8 14 24 11 31 -6z"/>
</g>
</svg>
