<?xml version="1.0" standalone="no"?>
<!DOCTYPE svg PUBLIC "-//W3C//DTD SVG 20010904//EN"
 "http://www.w3.org/TR/2001/REC-SVG-20010904/DTD/svg10.dtd">
<svg version="1.0" xmlns="http://www.w3.org/2000/svg"
 width="68.000000pt" height="93.000000pt" viewBox="0 0 68.000000 93.000000"
 preserveAspectRatio="xMidYMid meet">
<metadata>
Created by potrace 1.16, written by Peter Selinger 2001-2019
</metadata>
<g transform="translate(0.000000,93.000000) scale(0.100000,-0.100000)"
fill="#000000" stroke="none">
<path d="M69 874 c-21 -22 -24 -35 -24 -96 l0 -70 44 -39 c42 -37 43 -40 27
-58 -9 -10 -26 -41 -36 -69 -16 -43 -19 -80 -21 -271 0 -122 1 -225 4 -228 3
-3 22 0 42 7 65 21 67 30 57 281 -12 315 -18 306 225 311 89 1 165 0 169 -4 4
-4 2 -14 -4 -21 -27 -32 -40 -122 -33 -232 3 -61 6 -161 6 -223 l0 -112 30 6
c47 10 65 26 76 69 12 43 5 219 -11 270 -18 58 -18 126 2 198 13 48 18 95 16
141 -6 107 -3 106 -267 106 -119 0 -221 4 -227 8 -6 4 -16 17 -23 30 -15 28
-22 28 -52 -4z m156 -133 c7 -12 -31 -25 -45 -16 -6 4 -8 11 -5 16 8 12 42 12
50 0z"/>
</g>
</svg>
