<?xml version="1.0" standalone="no"?>
<!DOCTYPE svg PUBLIC "-//W3C//DTD SVG 20010904//EN"
 "http://www.w3.org/TR/2001/REC-SVG-20010904/DTD/svg10.dtd">
<svg version="1.0" xmlns="http://www.w3.org/2000/svg"
 width="103.000000pt" height="91.000000pt" viewBox="0 0 103.000000 91.000000"
 preserveAspectRatio="xMidYMid meet">
<metadata>
Created by potrace 1.16, written by Peter Selinger 2001-2019
</metadata>
<g transform="translate(0.000000,91.000000) scale(0.100000,-0.100000)"
fill="#000000" stroke="none">
<path d="M135 830 c-25 -56 -16 -172 16 -206 12 -13 28 -24 36 -24 18 0 17 -6
-9 -41 -21 -29 -23 -40 -21 -159 l2 -128 -39 -7 c-22 -4 -42 -11 -45 -15 -3
-5 -12 -50 -21 -101 -13 -76 -14 -93 -2 -100 7 -5 58 -6 113 -3 117 6 127 13
145 101 10 44 10 70 0 113 -7 30 -16 60 -20 65 -30 38 -21 185 14 237 22 33
22 33 119 38 109 6 152 -2 166 -29 6 -10 11 -110 11 -223 2 -259 5 -288 35
-288 13 0 33 9 46 19 l24 19 -4 283 -3 283 32 -27 c22 -19 43 -27 70 -27 57 0
89 -17 90 -49 0 -14 2 -134 4 -265 2 -205 5 -241 18 -250 24 -15 64 16 71 56
4 18 4 125 2 238 -3 113 -5 255 -5 317 l0 112 -30 21 c-16 12 -53 23 -82 27
-38 4 -60 12 -76 29 -26 28 -40 30 -68 10 -16 -12 -19 -28 -20 -96 -1 -44 -4
-83 -6 -86 -3 -3 -12 12 -21 33 -15 37 -62 81 -102 97 -11 4 -93 7 -182 6
-159 -1 -162 -1 -174 22 -27 51 -60 51 -84 -2z m640 -30 c13 -14 31 -20 61
-20 59 0 92 -17 103 -54 14 -45 15 -626 2 -626 -7 0 -12 29 -12 73 -1 39 -3
79 -4 87 -1 8 -3 90 -4 181 -1 114 -5 170 -13 182 -9 12 -34 19 -81 24 -53 5
-71 11 -82 27 -22 30 -17 146 5 146 4 0 15 -9 25 -20z m-380 -30 l184 -5 29
-28 c54 -52 62 -101 62 -373 0 -219 -6 -275 -24 -245 -4 5 -7 100 -7 212 -1
303 -9 315 -197 312 -72 -1 -126 -7 -141 -15 -19 -10 -25 -10 -28 0 -3 7 -22
12 -48 12 -27 0 -47 6 -56 17 -15 17 -18 104 -6 137 7 18 8 18 28 0 19 -17 43
-20 204 -24z m-149 -241 c-22 -73 -20 -109 12 -219 26 -91 27 -98 14 -152
l-14 -56 -61 -4 c-34 -2 -73 -2 -87 0 -26 3 -26 3 -16 62 9 55 12 60 35 60 39
0 76 23 74 46 -1 10 -7 58 -13 106 -9 73 -8 94 5 123 17 42 55 98 62 92 2 -3
-3 -29 -11 -58z"/>
</g>
</svg>
