<?xml version="1.0" standalone="no"?>
<!DOCTYPE svg PUBLIC "-//W3C//DTD SVG 20010904//EN"
 "http://www.w3.org/TR/2001/REC-SVG-20010904/DTD/svg10.dtd">
<svg version="1.0" xmlns="http://www.w3.org/2000/svg"
 width="46.000000pt" height="67.000000pt" viewBox="0 0 46.000000 67.000000"
 preserveAspectRatio="xMidYMid meet">
<metadata>
Created by potrace 1.16, written by Peter Selinger 2001-2019
</metadata>
<g transform="translate(0.000000,67.000000) scale(0.100000,-0.100000)"
fill="#000000" stroke="none">
<path d="M165 619 c-42 -12 -101 -76 -114 -124 -14 -52 -14 -55 4 -55 8 0 26
20 40 43 33 57 85 78 133 53 100 -52 76 -183 -58 -326 -82 -86 -134 -149 -128
-155 6 -7 269 -13 306 -7 29 4 37 12 53 49 33 78 22 105 -25 58 -23 -23 -32
-25 -116 -25 -49 0 -90 3 -90 6 0 3 15 20 33 38 58 60 118 135 145 183 22 39
27 60 26 113 0 82 -26 122 -92 145 -50 17 -72 18 -117 4z"/>
</g>
</svg>
