<?xml version="1.0" standalone="no"?>
<!DOCTYPE svg PUBLIC "-//W3C//DTD SVG 20010904//EN"
 "http://www.w3.org/TR/2001/REC-SVG-20010904/DTD/svg10.dtd">
<svg version="1.0" xmlns="http://www.w3.org/2000/svg"
 width="155.000000pt" height="51.000000pt" viewBox="0 0 155.000000 51.000000"
 preserveAspectRatio="xMidYMid meet">
<metadata>
Created by potrace 1.16, written by Peter Selinger 2001-2019
</metadata>
<g transform="translate(0.000000,51.000000) scale(0.100000,-0.100000)"
fill="#000000" stroke="none">
<path d="M1415 458 c-11 -6 -26 -19 -32 -27 -11 -14 -13 -13 -19 7 -8 28 -32
28 -90 2 -47 -22 -58 -47 -21 -52 21 -3 22 -7 25 -123 3 -139 0 -161 -28 -168
-11 -3 -20 -12 -20 -21 0 -15 13 -16 102 -14 108 3 131 14 76 39 l-33 14 -3
121 c-2 106 0 122 16 137 15 14 23 15 50 5 37 -14 65 -3 70 28 6 42 -53 76
-93 52z M165 446 c-43 -21 -68 -45 -96 -91 -54 -90 -15 -239 75 -284 90 -44
154 -36 213 28 55 59 67 92 59 172 -10 116 -62 171 -173 184 -32 3 -58 0 -78
-9z m119 -66 c75 -90 53 -290 -31 -290 -54 0 -87 43 -113 147 -11 44 -11 59 1
95 18 56 41 78 83 78 26 0 41 -7 60 -30z M984 450 c-81 -25 -133 -127 -119
-232 16 -115 99 -183 199 -164 50 10 136 103 136 149 0 26 -18 21 -48 -14 -14
-18 -41 -38 -59 -46 -30 -12 -38 -12 -67 2 -19 9 -41 24 -49 33 -17 20 -39 91
-31 104 3 4 56 8 119 8 63 0 116 4 120 10 12 19 -16 87 -49 119 -38 37 -95 48
-152 31z m70 -61 c14 -11 26 -29 26 -40 0 -18 -6 -20 -62 -17 -71 3 -83 18
-48 56 26 27 50 28 84 1z M465 440 c-3 -5 7 -27 23 -47 17 -21 44 -72 62 -113
17 -41 40 -94 51 -117 11 -24 23 -58 26 -78 10 -64 43 -36 78 70 15 44 40 109
56 144 16 35 29 70 29 77 0 8 9 22 20 31 36 31 25 43 -40 43 -61 0 -76 -11
-44 -34 17 -13 17 -9 -34 -154 -22 -61 -31 -57 -57 28 -9 30 -22 68 -28 84 -9
24 -8 31 7 42 10 7 15 17 11 23 -8 14 -152 15 -160 1z"/>
</g>
</svg>
