<?xml version="1.0" standalone="no"?>
<!DOCTYPE svg PUBLIC "-//W3C//DTD SVG 20010904//EN"
 "http://www.w3.org/TR/2001/REC-SVG-20010904/DTD/svg10.dtd">
<svg version="1.0" xmlns="http://www.w3.org/2000/svg"
 width="89.000000pt" height="67.000000pt" viewBox="0 0 89.000000 67.000000"
 preserveAspectRatio="xMidYMid meet">
<metadata>
Created by potrace 1.16, written by Peter Selinger 2001-2019
</metadata>
<g transform="translate(0.000000,67.000000) scale(0.100000,-0.100000)"
fill="#000000" stroke="none">
<path d="M750 643 c-50 -10 -147 -61 -181 -96 -20 -20 -49 -60 -65 -89 -27
-49 -29 -60 -29 -158 1 -104 1 -106 37 -162 41 -63 84 -89 153 -92 58 -1 102
21 136 70 45 65 55 127 34 199 -22 78 -58 111 -129 120 -34 5 -61 3 -75 -4
-18 -10 -21 -9 -21 9 0 28 43 94 77 117 15 11 49 27 76 37 34 13 47 23 47 37
0 19 -9 21 -60 12z m-64 -278 c66 -27 97 -153 54 -222 -30 -49 -54 -58 -98
-35 -45 23 -71 88 -72 179 0 58 2 63 28 77 34 19 45 19 88 1z M161 621 c-25
-10 -57 -32 -72 -49 -28 -31 -58 -107 -46 -118 13 -13 46 8 58 38 25 61 127
75 169 21 36 -46 16 -171 -34 -212 -9 -7 -16 -19 -16 -25 0 -6 -41 -54 -90
-106 -49 -52 -90 -101 -90 -107 0 -10 41 -13 170 -13 l170 0 10 28 c5 15 16
40 25 55 8 16 15 33 15 38 0 17 -35 9 -53 -11 -11 -14 -30 -20 -59 -21 -61 -1
-132 2 -137 6 -2 3 29 41 68 85 90 102 120 149 130 206 17 88 -25 160 -107
189 -55 18 -56 18 -111 -4z"/>
</g>
</svg>
