<?xml version="1.0" standalone="no"?>
<!DOCTYPE svg PUBLIC "-//W3C//DTD SVG 20010904//EN"
 "http://www.w3.org/TR/2001/REC-SVG-20010904/DTD/svg10.dtd">
<svg version="1.0" xmlns="http://www.w3.org/2000/svg"
 width="33.000000pt" height="67.000000pt" viewBox="0 0 33.000000 67.000000"
 preserveAspectRatio="xMidYMid meet">
<metadata>
Created by potrace 1.16, written by Peter Selinger 2001-2019
</metadata>
<g transform="translate(0.000000,67.000000) scale(0.100000,-0.100000)"
fill="#000000" stroke="none">
<path d="M116 592 c-82 -44 -95 -63 -39 -59 l38 2 3 -214 c3 -223 0 -237 -41
-243 -36 -5 -27 -33 11 -32 181 3 203 5 200 17 -3 6 -15 14 -29 15 -49 7 -49
9 -49 272 0 234 -3 280 -19 280 -3 0 -37 -17 -75 -38z"/>
</g>
</svg>
