<?xml version="1.0" standalone="no"?>
<!DOCTYPE svg PUBLIC "-//W3C//DTD SVG 20010904//EN"
 "http://www.w3.org/TR/2001/REC-SVG-20010904/DTD/svg10.dtd">
<svg version="1.0" xmlns="http://www.w3.org/2000/svg"
 width="69.000000pt" height="94.000000pt" viewBox="0 0 69.000000 94.000000"
 preserveAspectRatio="xMidYMid meet">
<metadata>
Created by potrace 1.16, written by Peter Selinger 2001-2019
</metadata>
<g transform="translate(0.000000,94.000000) scale(0.100000,-0.100000)"
fill="#000000" stroke="none">
<path d="M64 879 c-15 -17 -19 -36 -19 -101 0 -77 1 -81 31 -108 17 -15 38
-30 45 -33 12 -5 11 -8 -1 -19 -27 -23 -47 -62 -58 -113 -11 -50 -13 -465 -3
-465 30 0 82 25 95 45 19 28 20 57 10 292 -3 95 -3 184 0 198 12 47 59 65 172
65 64 0 104 4 112 12 9 9 15 9 24 0 7 -7 27 -12 44 -12 33 0 52 -14 35 -24 -5
-3 -17 -35 -26 -70 -14 -52 -16 -84 -10 -172 4 -60 7 -158 7 -218 l-1 -108 37
5 c20 4 44 15 55 26 38 38 42 151 11 327 -14 75 -14 101 -5 150 39 195 37 245
-13 275 -28 17 -47 19 -225 14 -106 -3 -205 -2 -218 1 -13 4 -29 17 -33 30
-12 30 -41 31 -66 3z m181 -138 c7 -12 -59 -26 -74 -16 -6 3 -11 10 -11 16 0
12 77 12 85 0z"/>
</g>
</svg>
