<?xml version="1.0" standalone="no"?>
<!DOCTYPE svg PUBLIC "-//W3C//DTD SVG 20010904//EN"
 "http://www.w3.org/TR/2001/REC-SVG-20010904/DTD/svg10.dtd">
<svg version="1.0" xmlns="http://www.w3.org/2000/svg"
 width="52.000000pt" height="94.000000pt" viewBox="0 0 52.000000 94.000000"
 preserveAspectRatio="xMidYMid meet">
<metadata>
Created by potrace 1.16, written by Peter Selinger 2001-2019
</metadata>
<g transform="translate(0.000000,94.000000) scale(0.100000,-0.100000)"
fill="#000000" stroke="none">
<path d="M144 865 c-8 -20 -12 -39 -10 -44 3 -4 1 -25 -5 -46 -8 -26 -7 -41 0
-48 6 -6 11 -19 11 -28 0 -10 10 -29 23 -43 17 -20 35 -27 82 -32 33 -4 66
-11 73 -17 10 -8 12 -37 10 -111 -2 -56 0 -126 5 -156 11 -82 7 -84 -130 -90
l-117 -5 -23 -94 c-19 -76 -21 -96 -11 -103 15 -10 380 -9 396 1 35 22 41 125
12 204 -35 92 -40 162 -24 316 13 123 6 213 -18 237 -19 20 -79 33 -145 34
-48 0 -52 2 -62 30 -15 43 -48 41 -67 -5z m188 -137 c12 -21 9 -28 -12 -28
-30 0 -70 22 -70 38 0 11 8 13 37 9 20 -4 40 -12 45 -19z m48 -563 c0 -8 -9
-19 -19 -25 -23 -12 -127 -12 -156 0 -17 6 -13 9 20 14 22 4 54 11 70 15 49
14 85 13 85 -4z"/>
</g>
</svg>
