<?xml version="1.0" standalone="no"?>
<!DOCTYPE svg PUBLIC "-//W3C//DTD SVG 20010904//EN"
 "http://www.w3.org/TR/2001/REC-SVG-20010904/DTD/svg10.dtd">
<svg version="1.0" xmlns="http://www.w3.org/2000/svg"
 width="73.000000pt" height="134.000000pt" viewBox="0 0 73.000000 134.000000"
 preserveAspectRatio="xMidYMid meet">
<metadata>
Created by potrace 1.16, written by Peter Selinger 2001-2019
</metadata>
<g transform="translate(0.000000,134.000000) scale(0.100000,-0.100000)"
fill="#000000" stroke="none">
<path d="M260 1313 c-18 -23 -21 -38 -18 -80 5 -62 19 -80 77 -106 l44 -19 47
22 c27 12 54 34 61 48 19 34 16 105 -5 136 -15 25 -21 26 -101 26 -79 0 -85
-1 -105 -27z m140 -25 c55 -60 -21 -146 -82 -91 -24 21 -23 54 3 87 25 32 51
33 79 4z M404 943 c-14 -21 -19 -46 -19 -99 0 -64 3 -74 25 -92 14 -11 42 -22
64 -25 69 -9 69 -11 -3 -137 -17 -30 -42 -90 -57 -132 -25 -77 -43 -99 -45
-55 0 24 -33 86 -90 169 -60 88 -61 147 -3 132 18 -5 22 0 28 27 3 17 6 53 6
79 0 69 -24 95 -101 109 -34 6 -70 18 -80 27 -47 42 -97 -39 -83 -134 8 -57
25 -79 76 -94 l39 -11 -7 -54 c-12 -95 0 -132 62 -198 93 -99 113 -146 80
-191 -12 -15 -34 -21 -123 -29 l-108 -10 -3 -97 c-2 -67 1 -98 8 -98 7 0 57
15 113 34 56 19 128 42 159 50 112 31 144 82 177 276 27 153 38 187 82 248 58
81 82 133 82 184 1 61 -20 85 -82 93 -85 11 -139 26 -145 41 -9 22 -32 16 -52
-13z m150 -119 c18 -7 22 -34 5 -34 -17 0 -49 20 -49 30 0 11 21 13 44 4z
m-359 -13 c10 -17 -12 -21 -25 -6 -10 12 -10 15 3 15 9 0 18 -4 22 -9z"/>
</g>
</svg>
