<?xml version="1.0" standalone="no"?>
<!DOCTYPE svg PUBLIC "-//W3C//DTD SVG 20010904//EN"
 "http://www.w3.org/TR/2001/REC-SVG-20010904/DTD/svg10.dtd">
<svg version="1.0" xmlns="http://www.w3.org/2000/svg"
 width="37.000000pt" height="95.000000pt" viewBox="0 0 37.000000 95.000000"
 preserveAspectRatio="xMidYMid meet">
<metadata>
Created by potrace 1.16, written by Peter Selinger 2001-2019
</metadata>
<g transform="translate(0.000000,95.000000) scale(0.100000,-0.100000)"
fill="#000000" stroke="none">
<path d="M74 902 c-21 -13 -36 -93 -29 -150 8 -68 38 -102 88 -102 52 0 97
-19 102 -43 2 -12 6 -141 9 -286 3 -154 9 -268 15 -274 17 -17 59 19 67 58 3
20 4 177 2 349 -4 238 -8 319 -19 342 -18 36 -71 64 -125 64 -33 0 -45 5 -58
25 -17 25 -32 30 -52 17z m121 -152 c3 -5 -1 -10 -9 -10 -9 0 -16 5 -16 10 0
6 4 10 9 10 6 0 13 -4 16 -10z"/>
</g>
</svg>
