<?xml version="1.0" standalone="no"?>
<!DOCTYPE svg PUBLIC "-//W3C//DTD SVG 20010904//EN"
 "http://www.w3.org/TR/2001/REC-SVG-20010904/DTD/svg10.dtd">
<svg version="1.0" xmlns="http://www.w3.org/2000/svg"
 width="250.000000pt" height="76.000000pt" viewBox="0 0 250.000000 76.000000"
 preserveAspectRatio="xMidYMid meet">
<metadata>
Created by potrace 1.16, written by Peter Selinger 2001-2019
</metadata>
<g transform="translate(0.000000,76.000000) scale(0.100000,-0.100000)"
fill="#000000" stroke="none">
<path d="M2305 679 c-16 -22 -41 -49 -57 -60 -33 -24 -36 -39 -8 -46 11 -3 20
-6 21 -7 0 0 4 -69 8 -153 8 -160 13 -177 59 -194 47 -18 131 26 132 69 0 15
-12 15 -46 0 -45 -21 -54 5 -54 154 l0 128 29 0 c31 0 57 22 46 40 -3 5 -22
10 -41 10 -25 0 -34 4 -35 18 -1 9 -2 24 -3 32 -2 8 -3 23 -4 33 -3 27 -17 20
-47 -24z M1585 606 c-48 -18 -83 -46 -107 -85 -19 -30 -23 -49 -22 -116 1 -91
16 -131 66 -168 45 -34 98 -42 145 -22 65 27 123 95 123 145 0 29 -15 25 -47
-15 -16 -19 -44 -41 -63 -49 -31 -13 -38 -12 -72 5 -21 11 -44 29 -52 42 -19
30 -29 84 -18 91 6 3 60 7 121 8 121 2 126 4 110 60 -13 46 -47 83 -93 102
-43 18 -49 18 -91 2z m68 -78 c12 -15 19 -29 16 -31 -2 -3 -32 -7 -66 -10 -70
-6 -79 5 -47 51 22 32 70 26 97 -10z M1905 611 c-3 -5 -18 -12 -34 -16 -35 -7
-63 -36 -43 -43 36 -12 42 -32 42 -153 0 -115 -1 -121 -25 -143 -14 -13 -25
-26 -25 -30 0 -3 41 -6 90 -6 92 0 109 9 73 36 -15 10 -19 32 -21 138 l-4 125
37 15 c72 30 90 -10 84 -179 -3 -69 -7 -88 -21 -96 -51 -28 3 -49 106 -41 49
4 59 19 26 40 -18 11 -20 23 -20 118 0 133 -13 186 -53 220 -26 22 -38 25 -71
21 -22 -3 -45 -13 -52 -21 -15 -22 -31 -20 -39 4 -6 20 -39 27 -50 11z M896
603 c-39 -10 -95 -55 -113 -91 -24 -49 -24 -183 0 -229 24 -46 40 -58 98 -77
48 -16 55 -16 94 -1 23 8 54 29 68 44 27 31 57 83 57 101 0 18 -28 11 -47 -14
-21 -26 -73 -56 -98 -56 -49 0 -99 51 -110 113 l-7 35 121 7 c67 4 124 11 126
15 7 11 -15 71 -38 102 -31 42 -98 64 -151 51z m50 -61 c11 -7 34 -45 34 -56
0 -3 -29 -6 -65 -6 -70 0 -78 7 -49 48 15 22 57 30 80 14z M1208 597 c-50 -23
-68 -47 -68 -91 0 -59 27 -96 104 -140 84 -49 97 -70 64 -103 -23 -22 -27 -23
-64 -11 -30 10 -43 22 -57 51 -27 57 -52 47 -53 -20 -1 -28 2 -56 6 -62 6 -10
82 -23 135 -23 42 -1 99 36 118 76 32 68 7 112 -98 171 -64 36 -85 54 -85 74
0 25 12 37 42 45 23 5 33 1 57 -25 17 -17 33 -40 36 -50 16 -51 43 21 30 80
-5 24 -12 31 -29 31 -13 0 -43 2 -67 5 -24 2 -56 -1 -71 -8z M100 577 c-61
-24 -76 -51 -36 -61 29 -7 27 18 30 -310 1 -133 0 -139 -22 -153 -12 -9 -22
-22 -22 -30 0 -11 19 -13 98 -11 102 3 124 15 72 41 -22 11 -25 19 -28 79 l-3
67 35 -6 c54 -8 103 5 142 39 47 42 62 73 70 152 12 114 -37 196 -124 211 -35
6 -72 -4 -123 -32 -4 -2 -9 5 -12 17 -6 25 -9 25 -77 -3z m200 -67 c52 -37 67
-129 35 -215 -19 -51 -45 -68 -91 -59 -49 9 -60 34 -58 129 2 133 2 133 32
149 36 20 49 20 82 -4z M515 581 c-54 -19 -72 -47 -33 -53 30 -4 41 -62 34
-181 -4 -87 -15 -117 -43 -117 -8 0 -13 -6 -11 -12 6 -18 187 -24 202 -7 8 8
8 13 -1 16 -7 3 -22 12 -34 21 -18 16 -20 29 -22 129 -1 93 2 116 16 131 15
17 23 18 56 9 42 -11 71 1 71 29 0 24 -39 54 -68 54 -16 0 -37 -9 -47 -20 -10
-11 -22 -20 -27 -20 -4 0 -8 9 -8 20 0 24 -18 25 -85 1z M660 400 c0 -5 5 -10
10 -10 6 0 10 5 10 10 0 6 -4 10 -10 10 -5 0 -10 -4 -10 -10z"/>
</g>
</svg>
