<?xml version="1.0" standalone="no"?>
<!DOCTYPE svg PUBLIC "-//W3C//DTD SVG 20010904//EN"
 "http://www.w3.org/TR/2001/REC-SVG-20010904/DTD/svg10.dtd">
<svg version="1.0" xmlns="http://www.w3.org/2000/svg"
 width="144.000000pt" height="49.000000pt" viewBox="0 0 144.000000 49.000000"
 preserveAspectRatio="xMidYMid meet">
<metadata>
Created by potrace 1.16, written by Peter Selinger 2001-2019
</metadata>
<g transform="translate(0.000000,49.000000) scale(0.100000,-0.100000)"
fill="#000000" stroke="none">
<path d="M135 436 c-51 -19 -75 -49 -75 -92 0 -28 5 -35 25 -40 33 -8 53 9 57
49 2 24 9 34 31 41 40 14 61 -2 65 -51 l3 -39 -68 -28 c-73 -30 -106 -57 -123
-100 -17 -46 -12 -76 19 -107 36 -35 73 -38 135 -8 l44 22 23 -22 c26 -24 49
-27 81 -8 50 27 59 62 17 62 -24 0 -24 2 -30 115 -7 135 -13 161 -43 189 -30
28 -108 36 -161 17z m115 -230 c0 -57 -12 -79 -50 -91 -27 -9 -59 11 -66 41
-8 30 23 69 71 90 44 20 45 19 45 -40z M455 431 c-68 -20 -84 -45 -35 -54 l30
-6 0 -136 c0 -135 0 -135 -25 -147 -14 -6 -25 -17 -25 -25 0 -11 20 -13 97
-11 100 3 126 15 73 35 l-30 11 0 125 c0 140 6 153 74 164 32 5 37 3 46 -21
11 -29 14 -234 4 -260 -3 -9 -15 -16 -25 -16 -12 0 -19 -7 -19 -20 0 -20 5
-21 97 -18 99 3 131 18 80 37 -14 6 -28 18 -31 28 -11 36 -9 218 2 239 15 28
69 37 100 18 21 -14 22 -21 22 -143 0 -122 -1 -129 -22 -144 -18 -12 -20 -18
-11 -27 16 -17 186 -4 180 13 -2 7 -12 14 -23 16 -10 2 -22 8 -25 13 -4 6 -7
63 -8 127 -1 135 -11 173 -52 202 -25 17 -38 20 -76 14 -25 -3 -59 -15 -77
-26 -37 -22 -46 -24 -46 -6 0 7 -16 19 -35 26 -38 14 -87 7 -120 -15 -26 -19
-32 -18 -40 6 -7 23 -3 23 -80 1z M1185 443 c-79 -22 -126 -96 -128 -198 -1
-68 29 -141 66 -165 44 -27 113 -39 152 -26 49 17 125 108 125 150 0 27 -21
18 -64 -29 -47 -50 -74 -56 -132 -29 -19 9 -34 17 -34 18 0 1 -9 25 -19 53
-15 41 -16 54 -7 62 7 6 59 10 119 9 58 -1 109 0 112 4 14 14 -10 84 -40 116
-26 29 -39 35 -81 38 -27 1 -58 0 -69 -3z m70 -68 c38 -37 32 -45 -40 -45 -54
0 -65 3 -65 17 0 25 30 53 57 53 13 0 35 -11 48 -25z"/>
</g>
</svg>
