<?xml version="1.0" standalone="no"?>
<!DOCTYPE svg PUBLIC "-//W3C//DTD SVG 20010904//EN"
 "http://www.w3.org/TR/2001/REC-SVG-20010904/DTD/svg10.dtd">
<svg version="1.0" xmlns="http://www.w3.org/2000/svg"
 width="33.000000pt" height="24.000000pt" viewBox="0 0 33.000000 24.000000"
 preserveAspectRatio="xMidYMid meet">
<metadata>
Created by potrace 1.16, written by Peter Selinger 2001-2019
</metadata>
<g transform="translate(0.000000,24.000000) scale(0.100000,-0.100000)"
fill="#000000" stroke="none">
<path d="M60 225 c-7 -9 -14 -35 -14 -59 -3 -113 137 -170 208 -85 30 35 42
87 29 126 -10 28 -10 28 -110 31 -81 2 -102 0 -113 -13z m159 -26 c19 -35 8
-77 -24 -85 -60 -15 -103 24 -83 76 12 32 26 41 63 38 20 -2 34 -12 44 -29z"/>
</g>
</svg>
