<?xml version="1.0" standalone="no"?>
<!DOCTYPE svg PUBLIC "-//W3C//DTD SVG 20010904//EN"
 "http://www.w3.org/TR/2001/REC-SVG-20010904/DTD/svg10.dtd">
<svg version="1.0" xmlns="http://www.w3.org/2000/svg"
 width="41.000000pt" height="41.000000pt" viewBox="0 0 41.000000 41.000000"
 preserveAspectRatio="xMidYMid meet">
<metadata>
Created by potrace 1.16, written by Peter Selinger 2001-2019
</metadata>
<g transform="translate(0.000000,41.000000) scale(0.100000,-0.100000)"
fill="#000000" stroke="none">
<path d="M141 357 c-19 -6 -48 -29 -65 -50 -25 -32 -30 -47 -30 -91 0 -104 63
-171 160 -170 63 1 94 19 131 75 46 70 29 172 -37 220 -33 24 -115 32 -159 16z
m99 -72 c16 -8 34 -24 40 -34 38 -72 -40 -152 -112 -115 -69 36 -62 130 12
157 24 9 29 8 60 -8z"/>
</g>
</svg>
