<?xml version="1.0" standalone="no"?>
<!DOCTYPE svg PUBLIC "-//W3C//DTD SVG 20010904//EN"
 "http://www.w3.org/TR/2001/REC-SVG-20010904/DTD/svg10.dtd">
<svg version="1.0" xmlns="http://www.w3.org/2000/svg"
 width="70.000000pt" height="94.000000pt" viewBox="0 0 70.000000 94.000000"
 preserveAspectRatio="xMidYMid meet">
<metadata>
Created by potrace 1.16, written by Peter Selinger 2001-2019
</metadata>
<g transform="translate(0.000000,94.000000) scale(0.100000,-0.100000)"
fill="#000000" stroke="none">
<path d="M94 892 c-6 -4 -20 -32 -32 -63 -19 -52 -20 -60 -6 -106 26 -88 24
-88 278 -90 121 -2 224 -3 228 -3 4 0 -5 -26 -20 -57 -26 -57 -27 -62 -23
-213 2 -85 4 -180 5 -210 0 -30 -3 -65 -7 -76 -16 -45 64 -34 108 16 17 19 20
36 19 124 0 55 -5 126 -12 156 -6 30 -14 69 -18 86 -4 21 3 61 20 117 16 52
26 109 26 147 0 55 -3 65 -30 92 l-30 30 -209 -4 c-116 -3 -217 -1 -226 5 -9
5 -20 20 -25 33 -10 24 -26 30 -46 16z m431 -160 c-6 -4 -64 -5 -130 -2 l-120
6 130 2 c71 1 125 -2 120 -6z M135 451 c-61 -36 -65 -53 -65 -242 l0 -171 33
6 c17 4 43 18 57 31 24 24 25 32 31 183 3 86 9 167 14 180 4 13 3 22 -3 22 -6
0 -16 2 -24 5 -7 3 -27 -3 -43 -14z"/>
</g>
</svg>
