<?xml version="1.0" standalone="no"?>
<!DOCTYPE svg PUBLIC "-//W3C//DTD SVG 20010904//EN"
 "http://www.w3.org/TR/2001/REC-SVG-20010904/DTD/svg10.dtd">
<svg version="1.0" xmlns="http://www.w3.org/2000/svg"
 width="193.000000pt" height="52.000000pt" viewBox="0 0 193.000000 52.000000"
 preserveAspectRatio="xMidYMid meet">
<metadata>
Created by potrace 1.16, written by Peter Selinger 2001-2019
</metadata>
<g transform="translate(0.000000,52.000000) scale(0.100000,-0.100000)"
fill="#000000" stroke="none">
<path d="M1426 459 c-26 -20 -28 -20 -40 -3 -12 16 -18 16 -62 4 -64 -17 -86
-29 -81 -43 2 -6 14 -14 28 -17 24 -6 24 -6 24 -140 0 -130 -1 -135 -22 -145
-61 -26 4 -44 131 -37 60 4 77 24 31 36 -34 9 -41 33 -44 146 -2 85 0 99 19
123 20 25 23 26 43 12 29 -20 50 -19 71 4 20 22 10 53 -24 71 -28 15 -44 12
-74 -11z M1690 474 c-8 -3 -34 -15 -58 -27 -37 -19 -45 -30 -68 -89 -30 -75
-29 -105 6 -187 36 -83 124 -119 205 -82 65 29 144 161 97 161 -5 0 -23 -17
-40 -39 -34 -43 -71 -55 -124 -41 -36 10 -68 55 -82 113 l-6 27 82 1 c174 2
163 -1 161 43 -3 44 -22 78 -56 100 -24 17 -94 28 -117 20z m48 -60 c12 -8 22
-25 22 -37 0 -20 -6 -22 -59 -25 -69 -3 -83 12 -46 52 28 30 51 33 83 10z
M915 460 c-11 -4 -35 -14 -52 -20 -38 -14 -47 -50 -13 -50 12 0 21 -7 21 -17
1 -10 3 -27 4 -38 1 -11 2 -91 3 -177 l2 -158 44 0 c44 0 45 0 48 37 l3 37 66
-3 c59 -2 69 1 98 24 93 79 114 217 48 316 -39 58 -148 76 -193 31 -16 -15
-18 -15 -32 6 -16 24 -18 25 -47 12z m177 -85 c57 -49 62 -175 11 -236 -24
-28 -31 -31 -67 -26 -22 3 -46 14 -53 23 -18 24 -18 214 0 236 27 34 73 36
109 3z M180 446 c-19 -6 -45 -17 -57 -23 -49 -29 -92 -148 -74 -206 6 -18 13
-44 16 -59 9 -47 67 -95 122 -103 57 -7 96 5 136 43 28 27 67 91 67 112 0 19
-37 10 -49 -13 -15 -28 -61 -57 -90 -57 -42 0 -90 32 -106 72 -30 77 -30 77
103 80 l117 3 -3 39 c-7 89 -93 142 -182 112z m49 -46 c7 0 41 -53 41 -64 0
-3 -29 -6 -65 -6 -52 0 -65 3 -65 15 0 24 48 68 66 61 9 -3 19 -6 23 -6z M668
453 c-42 -5 -43 -6 -27 -31 9 -15 8 -24 -6 -46 l-19 -28 -18 24 c-22 28 -23
48 -3 48 8 0 15 7 15 15 0 12 -17 15 -90 15 -70 0 -90 -3 -90 -14 0 -7 8 -16
18 -18 18 -5 112 -130 112 -149 0 -17 -97 -155 -122 -172 -19 -14 -21 -18 -8
-26 8 -6 37 -9 65 -8 48 2 50 3 48 30 -2 27 30 101 47 112 9 5 70 -72 70 -88
0 -6 -8 -16 -17 -23 -24 -17 -17 -22 37 -24 80 -5 130 0 130 11 0 6 -15 25
-32 44 -44 44 -81 92 -108 138 l-23 38 30 42 c17 23 44 51 61 62 17 11 31 25
32 31 0 14 -24 25 -48 22 -9 -1 -34 -3 -54 -5z"/>
</g>
</svg>
