<?xml version="1.0" standalone="no"?>
<!DOCTYPE svg PUBLIC "-//W3C//DTD SVG 20010904//EN"
 "http://www.w3.org/TR/2001/REC-SVG-20010904/DTD/svg10.dtd">
<svg version="1.0" xmlns="http://www.w3.org/2000/svg"
 width="26.000000pt" height="29.000000pt" viewBox="0 0 26.000000 29.000000"
 preserveAspectRatio="xMidYMid meet">
<metadata>
Created by potrace 1.16, written by Peter Selinger 2001-2019
</metadata>
<g transform="translate(0.000000,29.000000) scale(0.100000,-0.100000)"
fill="#000000" stroke="none">
<path d="M50 230 c-6 -12 -10 -42 -8 -68 3 -42 6 -48 36 -62 32 -14 33 -17 28
-58 l-6 -43 38 3 c32 3 39 8 56 43 10 22 18 61 18 88 0 60 -21 87 -69 87 -21
0 -36 6 -39 15 -9 22 -41 18 -54 -5z"/>
</g>
</svg>
