<?xml version="1.0" standalone="no"?>
<!DOCTYPE svg PUBLIC "-//W3C//DTD SVG 20010904//EN"
 "http://www.w3.org/TR/2001/REC-SVG-20010904/DTD/svg10.dtd">
<svg version="1.0" xmlns="http://www.w3.org/2000/svg"
 width="117.000000pt" height="68.000000pt" viewBox="0 0 117.000000 68.000000"
 preserveAspectRatio="xMidYMid meet">
<metadata>
Created by potrace 1.16, written by Peter Selinger 2001-2019
</metadata>
<g transform="translate(0.000000,68.000000) scale(0.100000,-0.100000)"
fill="#000000" stroke="none">
<path d="M585 629 c-49 -14 -87 -60 -83 -100 3 -30 7 -34 35 -37 28 -3 33 0
38 25 12 55 24 73 48 73 35 0 57 -21 63 -61 6 -33 3 -38 -17 -44 -155 -46
-224 -137 -168 -220 13 -20 35 -38 47 -42 28 -7 100 13 124 34 16 14 19 14 35
-5 27 -32 63 -36 101 -12 41 25 42 65 2 65 l-25 0 -5 125 c-6 127 -12 151 -49
184 -24 22 -97 29 -146 15z m105 -243 c0 -45 -4 -58 -22 -70 -27 -19 -62 -21
-75 -3 -32 40 -14 89 41 113 52 22 56 19 56 -40z M933 626 c-48 -22 -73 -52
-73 -88 0 -41 28 -99 55 -113 56 -30 124 -77 129 -92 4 -9 -1 -27 -9 -40 -14
-20 -21 -23 -48 -18 -38 8 -64 29 -83 67 -26 51 -44 36 -44 -37 0 -36 3 -65 8
-66 4 -1 21 -2 39 -4 18 -1 48 -5 66 -9 55 -10 119 22 141 73 16 35 17 47 7
80 -12 40 -28 55 -114 101 -27 14 -56 38 -65 52 -15 25 -15 28 1 46 25 28 61
17 102 -30 18 -22 38 -37 44 -33 12 7 15 101 4 108 -24 14 -131 15 -160 3z
M106 614 c-66 -24 -90 -59 -43 -66 22 -3 22 -3 25 -221 2 -223 -3 -262 -34
-250 -12 4 -15 1 -12 -13 3 -17 13 -19 102 -19 70 0 101 4 103 12 3 7 -8 18
-23 24 -39 14 -44 25 -44 92 l0 57 40 -6 c125 -20 213 66 214 211 0 113 -46
179 -134 191 -40 5 -56 3 -85 -15 -44 -26 -45 -26 -45 -1 0 23 -10 24 -64 4z
m223 -119 c51 -103 -5 -251 -87 -230 -56 14 -62 28 -62 151 0 120 1 122 54
134 44 9 70 -6 95 -55z"/>
</g>
</svg>
