<?xml version="1.0" standalone="no"?>
<!DOCTYPE svg PUBLIC "-//W3C//DTD SVG 20010904//EN"
 "http://www.w3.org/TR/2001/REC-SVG-20010904/DTD/svg10.dtd">
<svg version="1.0" xmlns="http://www.w3.org/2000/svg"
 width="68.000000pt" height="93.000000pt" viewBox="0 0 68.000000 93.000000"
 preserveAspectRatio="xMidYMid meet">
<metadata>
Created by potrace 1.16, written by Peter Selinger 2001-2019
</metadata>
<g transform="translate(0.000000,93.000000) scale(0.100000,-0.100000)"
fill="#000000" stroke="none">
<path d="M83 882 c-31 -20 -44 -135 -21 -189 6 -15 21 -36 32 -45 21 -17 21
-17 -14 -53 l-35 -36 1 -212 c0 -258 3 -277 45 -296 41 -18 468 -10 512 10 33
15 31 -11 27 364 -3 328 -6 347 -63 389 -27 20 -39 21 -218 18 l-190 -2 -27
30 c-29 32 -31 34 -49 22z m175 -151 c10 -6 5 -11 -19 -20 -54 -19 -91 -9 -74
19 8 12 75 13 93 1z m243 -8 c13 -15 11 -16 -25 -10 -54 9 -71 27 -24 27 21 0
41 -7 49 -17z m-15 -111 c38 -32 44 -57 44 -191 0 -128 0 -130 -26 -150 -24
-19 -40 -21 -173 -21 -106 0 -152 4 -165 13 -16 11 -19 31 -20 131 -2 143 14
188 79 217 57 26 230 26 261 1z m-166 -454 c58 0 130 3 160 7 47 6 53 6 42 -7
-9 -11 -48 -16 -164 -21 -162 -7 -198 -3 -198 20 0 11 7 13 28 8 15 -3 75 -6
132 -7z"/>
</g>
</svg>
