<?xml version="1.0" standalone="no"?>
<!DOCTYPE svg PUBLIC "-//W3C//DTD SVG 20010904//EN"
 "http://www.w3.org/TR/2001/REC-SVG-20010904/DTD/svg10.dtd">
<svg version="1.0" xmlns="http://www.w3.org/2000/svg"
 width="68.000000pt" height="125.000000pt" viewBox="0 0 68.000000 125.000000"
 preserveAspectRatio="xMidYMid meet">
<metadata>
Created by potrace 1.16, written by Peter Selinger 2001-2019
</metadata>
<g transform="translate(0.000000,125.000000) scale(0.100000,-0.100000)"
fill="#000000" stroke="none">
<path d="M61 1184 c-39 -49 -25 -106 35 -140 18 -10 18 -14 5 -60 -7 -27 -16
-100 -19 -161 -5 -127 5 -169 47 -185 14 -5 95 -9 180 -9 173 1 193 -5 209
-62 20 -71 -13 -128 -118 -205 -133 -98 -170 -143 -173 -212 -2 -52 19 -87 61
-101 67 -22 118 41 91 115 -14 40 -1 86 25 86 8 0 16 3 18 8 2 4 23 23 48 41
74 56 120 104 143 146 20 36 22 55 22 182 0 141 0 143 -26 169 -36 36 -79 42
-263 37 -183 -5 -192 -2 -182 62 4 22 18 62 32 89 32 62 37 135 11 164 -10 11
-35 22 -56 26 -22 3 -41 13 -45 21 -8 22 -22 18 -45 -11z m459 -459 c7 -9 10
-18 7 -21 -8 -8 -97 18 -97 28 0 15 77 8 90 -7z"/>
</g>
</svg>
