<?xml version="1.0" standalone="no"?>
<!DOCTYPE svg PUBLIC "-//W3C//DTD SVG 20010904//EN"
 "http://www.w3.org/TR/2001/REC-SVG-20010904/DTD/svg10.dtd">
<svg version="1.0" xmlns="http://www.w3.org/2000/svg"
 width="72.000000pt" height="92.000000pt" viewBox="0 0 72.000000 92.000000"
 preserveAspectRatio="xMidYMid meet">
<metadata>
Created by potrace 1.16, written by Peter Selinger 2001-2019
</metadata>
<g transform="translate(0.000000,92.000000) scale(0.100000,-0.100000)"
fill="#000000" stroke="none">
<path d="M66 857 c-24 -36 -31 -128 -13 -163 23 -44 43 -58 96 -64 55 -6 63
-24 28 -66 -13 -16 -32 -51 -42 -79 -9 -27 -21 -59 -25 -70 -24 -59 -46 -308
-31 -348 10 -26 34 -34 57 -19 7 4 16 66 23 147 16 206 53 307 137 378 42 36
95 44 173 27 78 -16 107 -46 122 -126 13 -69 7 -190 -10 -207 -11 -11 -45 -13
-278 -16 -29 -1 -33 -5 -43 -43 -7 -24 -19 -65 -27 -91 -11 -34 -13 -51 -5
-59 10 -10 142 -14 329 -10 68 2 83 5 87 20 11 34 29 289 29 393 -1 189 -65
309 -189 360 -30 11 -60 19 -68 16 -8 -3 -17 -25 -21 -48 -8 -47 -73 -127 -93
-115 -7 4 -12 29 -12 55 0 68 -20 89 -98 103 -42 8 -67 18 -73 30 -13 25 -35
23 -53 -5z m367 -714 c-7 -2 -21 -2 -30 0 -10 3 -4 5 12 5 17 0 24 -2 18 -5z"/>
</g>
</svg>
