<?xml version="1.0" standalone="no"?>
<!DOCTYPE svg PUBLIC "-//W3C//DTD SVG 20010904//EN"
 "http://www.w3.org/TR/2001/REC-SVG-20010904/DTD/svg10.dtd">
<svg version="1.0" xmlns="http://www.w3.org/2000/svg"
 width="25.000000pt" height="18.000000pt" viewBox="0 0 25.000000 18.000000"
 preserveAspectRatio="xMidYMid meet">
<metadata>
Created by potrace 1.16, written by Peter Selinger 2001-2019
</metadata>
<g transform="translate(0.000000,18.000000) scale(0.100000,-0.100000)"
fill="#000000" stroke="none">
<path d="M47 126 c-3 -8 -1 -31 4 -50 l10 -36 54 3 c30 1 55 5 55 10 0 4 9 7
20 7 11 0 20 4 20 9 0 13 -37 24 -51 16 -6 -4 -13 2 -16 14 -3 12 -13 21 -24
21 -11 0 -19 5 -19 10 0 16 -47 12 -53 -4z"/>
</g>
</svg>
