<?xml version="1.0" standalone="no"?>
<!DOCTYPE svg PUBLIC "-//W3C//DTD SVG 20010904//EN"
 "http://www.w3.org/TR/2001/REC-SVG-20010904/DTD/svg10.dtd">
<svg version="1.0" xmlns="http://www.w3.org/2000/svg"
 width="48.000000pt" height="46.000000pt" viewBox="0 0 48.000000 46.000000"
 preserveAspectRatio="xMidYMid meet">
<metadata>
Created by potrace 1.16, written by Peter Selinger 2001-2019
</metadata>
<g transform="translate(0.000000,46.000000) scale(0.100000,-0.100000)"
fill="#000000" stroke="none">
<path d="M220 450 c0 -5 5 -10 10 -10 6 0 10 5 10 10 0 6 -4 10 -10 10 -5 0
-10 -4 -10 -10z M290 445 c0 -8 5 -15 10 -15 6 0 10 7 10 15 0 8 -4 15 -10 15
-5 0 -10 -7 -10 -15z M251 436 c-9 -11 -10 -20 -1 -35 16 -31 26 -26 27 14 1
37 -7 44 -26 21z M57 413 c-29 -8 -15 -37 21 -44 18 -4 49 -18 70 -33 21 -14
43 -26 50 -26 20 0 72 -81 72 -112 0 -21 5 -28 20 -28 11 0 20 -4 20 -10 0 -5
-6 -7 -14 -4 -15 6 -33 -47 -21 -66 3 -5 1 -10 -4 -10 -6 0 -11 -4 -11 -10 0
-5 11 -10 24 -10 14 0 28 -5 31 -10 9 -15 87 0 109 21 17 16 18 22 7 41 -17
33 -60 51 -79 35 -13 -10 -14 -8 -9 14 5 19 2 31 -10 40 -13 11 -17 11 -20 1
-3 -6 -9 -10 -13 -7 -5 3 -7 12 -4 19 3 8 1 17 -5 21 -6 3 -9 17 -6 31 3 13 7
35 10 49 4 20 1 25 -15 25 -15 0 -20 -7 -21 -27 l0 -28 -16 23 c-8 12 -21 22
-29 22 -7 0 -16 9 -19 20 -4 11 -12 20 -18 19 -34 -4 -57 2 -57 16 0 11 -7 14
-27 10 -16 -3 -22 -2 -15 1 6 3 12 10 12 15 0 9 -3 10 -33 2z m323 -313 c0
-13 -7 -20 -19 -20 -11 0 -22 -6 -24 -12 -3 -8 -6 -6 -6 5 -1 11 -9 17 -23 17
-16 0 -19 3 -11 11 8 8 17 8 31 0 28 -15 42 -14 42 4 0 8 2 15 5 15 3 0 5 -9
5 -20z M140 410 c0 -5 5 -10 10 -10 6 0 10 5 10 10 0 6 -4 10 -10 10 -5 0 -10
-4 -10 -10z M104 263 c-3 -10 -16 -40 -29 -67 -14 -27 -24 -51 -22 -52 13 -11
66 -12 79 -2 16 12 16 20 5 76 -12 62 -23 78 -33 45z M170 206 c0 -15 18 -31
26 -23 7 7 -7 37 -17 37 -5 0 -9 -6 -9 -14z M420 181 c0 -17 12 -41 21 -41 5
0 9 11 9 25 0 16 -6 25 -15 25 -8 0 -15 -4 -15 -9z"/>
</g>
</svg>
