<?xml version="1.0" standalone="no"?>
<!DOCTYPE svg PUBLIC "-//W3C//DTD SVG 20010904//EN"
 "http://www.w3.org/TR/2001/REC-SVG-20010904/DTD/svg10.dtd">
<svg version="1.0" xmlns="http://www.w3.org/2000/svg"
 width="40.000000pt" height="59.000000pt" viewBox="0 0 40.000000 59.000000"
 preserveAspectRatio="xMidYMid meet">
<metadata>
Created by potrace 1.16, written by Peter Selinger 2001-2019
</metadata>
<g transform="translate(0.000000,59.000000) scale(0.100000,-0.100000)"
fill="#000000" stroke="none">
<path d="M56 503 c-22 -69 -13 -150 21 -185 24 -25 34 -28 89 -28 73 0 94 -15
94 -65 0 -24 -11 -48 -41 -85 -44 -56 -49 -93 -13 -98 26 -4 111 86 120 127 4
14 10 31 15 36 15 19 22 139 10 180 -6 23 -25 54 -41 70 -27 26 -41 31 -103
35 -66 5 -73 7 -85 33 -21 43 -48 35 -66 -20z"/>
</g>
</svg>
