<?xml version="1.0" standalone="no"?>
<!DOCTYPE svg PUBLIC "-//W3C//DTD SVG 20010904//EN"
 "http://www.w3.org/TR/2001/REC-SVG-20010904/DTD/svg10.dtd">
<svg version="1.0" xmlns="http://www.w3.org/2000/svg"
 width="149.000000pt" height="81.000000pt" viewBox="0 0 149.000000 81.000000"
 preserveAspectRatio="xMidYMid meet">
<metadata>
Created by potrace 1.16, written by Peter Selinger 2001-2019
</metadata>
<g transform="translate(0.000000,81.000000) scale(0.100000,-0.100000)"
fill="#000000" stroke="none">
<path d="M255 708 c-26 -35 -50 -70 -53 -78 -3 -8 -29 -45 -57 -82 -80 -106
-107 -155 -103 -185 l3 -28 113 -3 112 -3 0 -65 c0 -70 9 -81 55 -70 23 6 25
11 25 67 0 39 4 61 13 63 6 3 24 7 40 10 22 5 27 12 27 35 0 26 -4 30 -40 36
l-40 7 -2 141 c0 78 0 154 1 169 2 23 -20 48 -42 48 -3 0 -26 -28 -52 -62z
m13 -195 l-3 -107 -72 -3 c-45 -1 -73 1 -73 8 0 13 133 208 143 209 4 0 6 -48
5 -107z M625 737 c-83 -41 -119 -83 -140 -164 -42 -161 17 -315 145 -372 20
-9 54 -33 75 -55 53 -51 106 -77 185 -91 87 -15 150 -9 150 15 0 13 -11 19
-44 24 -46 7 -156 71 -156 91 0 6 16 17 36 24 132 48 191 251 120 407 -13 28
-33 60 -46 71 -43 41 -121 73 -189 79 -61 5 -72 2 -136 -29z m168 -33 c64 -22
102 -74 118 -166 24 -137 -20 -265 -103 -296 -79 -30 -153 2 -203 88 -27 47
-29 237 -2 286 20 39 72 84 97 84 10 0 22 5 25 10 8 13 13 13 68 -6z M1236
579 c-36 -19 -40 -20 -48 -4 -11 18 -49 14 -105 -13 -39 -18 -42 -33 -10 -47
22 -10 22 -11 22 -230 0 -219 0 -220 -22 -230 -60 -26 2 -47 121 -42 67 2 86
21 38 38 -31 10 -42 40 -42 114 l0 30 69 0 c66 0 72 2 107 35 125 119 90 340
-57 364 -24 4 -46 0 -73 -15z m77 -79 c39 -31 55 -118 33 -186 -11 -34 -26
-58 -43 -69 -24 -16 -31 -17 -67 -4 l-41 14 -3 117 -3 117 28 15 c38 21 66 20
96 -4z"/>
</g>
</svg>
