<?xml version="1.0" standalone="no"?>
<!DOCTYPE svg PUBLIC "-//W3C//DTD SVG 20010904//EN"
 "http://www.w3.org/TR/2001/REC-SVG-20010904/DTD/svg10.dtd">
<svg version="1.0" xmlns="http://www.w3.org/2000/svg"
 width="37.000000pt" height="93.000000pt" viewBox="0 0 37.000000 93.000000"
 preserveAspectRatio="xMidYMid meet">
<metadata>
Created by potrace 1.16, written by Peter Selinger 2001-2019
</metadata>
<g transform="translate(0.000000,93.000000) scale(0.100000,-0.100000)"
fill="#000000" stroke="none">
<path d="M60 866 c-18 -49 -22 -97 -10 -146 15 -63 46 -87 113 -87 78 0 76 8
82 -308 3 -153 8 -281 10 -284 3 -2 17 -1 32 5 19 6 29 19 36 44 14 54 4 670
-12 698 -16 31 -69 52 -126 52 -39 0 -47 3 -55 25 -13 34 -57 35 -70 1z"/>
</g>
</svg>
