<?xml version="1.0" standalone="no"?>
<!DOCTYPE svg PUBLIC "-//W3C//DTD SVG 20010904//EN"
 "http://www.w3.org/TR/2001/REC-SVG-20010904/DTD/svg10.dtd">
<svg version="1.0" xmlns="http://www.w3.org/2000/svg"
 width="108.000000pt" height="126.000000pt" viewBox="0 0 108.000000 126.000000"
 preserveAspectRatio="xMidYMid meet">
<metadata>
Created by potrace 1.16, written by Peter Selinger 2001-2019
</metadata>
<g transform="translate(0.000000,126.000000) scale(0.100000,-0.100000)"
fill="#000000" stroke="none">
<path d="M147 1238 c-8 -13 -27 -36 -41 -53 -14 -16 -25 -36 -24 -42 5 -23 83
-123 95 -123 14 0 103 109 103 126 0 6 -10 22 -22 35 -13 14 -31 37 -41 52
-21 33 -50 35 -70 5z M72 898 c-20 -25 -34 -101 -27 -149 10 -74 34 -97 106
-105 33 -4 67 -13 75 -21 15 -16 16 -20 18 -355 1 -119 5 -220 8 -224 4 -3 18
-4 31 0 46 11 49 38 48 381 -2 330 -4 359 -28 387 -17 19 -105 42 -133 35 -14
-4 -25 4 -39 29 -21 35 -41 43 -59 22z M406 868 c-24 -39 -30 -122 -11 -161
17 -37 68 -67 115 -67 36 0 39 -19 11 -59 -58 -81 -97 -250 -96 -416 l0 -100
33 -3 c21 -2 33 1 34 10 3 25 7 83 12 163 9 177 73 315 169 364 46 23 52 24
123 13 104 -16 129 -37 144 -119 14 -73 9 -186 -10 -208 -10 -12 -41 -15 -154
-15 -77 0 -146 -4 -153 -8 -14 -9 -56 -170 -49 -188 7 -19 398 -20 413 -1 15
18 38 236 44 407 5 114 -53 255 -126 310 -29 21 -128 61 -141 56 -6 -2 -16
-24 -22 -48 -12 -46 -77 -132 -93 -122 -5 3 -9 26 -9 52 0 27 -7 57 -15 69
-16 23 -70 43 -118 43 -20 0 -30 7 -37 25 -12 32 -45 33 -64 3z m474 -697 c0
-14 -29 -17 -100 -12 l-65 5 45 7 c70 10 120 10 120 0z"/>
</g>
</svg>
