<?xml version="1.0" standalone="no"?>
<!DOCTYPE svg PUBLIC "-//W3C//DTD SVG 20010904//EN"
 "http://www.w3.org/TR/2001/REC-SVG-20010904/DTD/svg10.dtd">
<svg version="1.0" xmlns="http://www.w3.org/2000/svg"
 width="51.000000pt" height="93.000000pt" viewBox="0 0 51.000000 93.000000"
 preserveAspectRatio="xMidYMid meet">
<metadata>
Created by potrace 1.16, written by Peter Selinger 2001-2019
</metadata>
<g transform="translate(0.000000,93.000000) scale(0.100000,-0.100000)"
fill="#000000" stroke="none">
<path d="M154 869 c-15 -17 -19 -37 -19 -105 0 -77 2 -86 27 -110 21 -21 39
-28 90 -33 l63 -6 2 -105 c1 -58 6 -128 11 -157 8 -45 4 -69 -13 -91 -2 -2
-52 -6 -111 -8 -60 -3 -112 -9 -116 -12 -3 -4 -15 -45 -26 -92 -15 -63 -17
-88 -9 -98 16 -20 375 -6 399 16 23 19 25 149 4 190 -28 55 -39 161 -27 257
22 184 11 268 -40 296 -12 6 -57 13 -100 16 -65 5 -79 9 -79 22 0 17 -18 41
-30 41 -4 0 -15 -9 -26 -21z m164 -158 c3 -10 -2 -11 -19 -6 -39 12 -48 27
-15 23 16 -2 31 -9 34 -17z m52 -534 c0 -28 -25 -37 -98 -37 -46 0 -71 4 -67
10 3 6 18 10 33 11 15 0 43 7 62 14 45 18 70 18 70 2z"/>
</g>
</svg>
