<?xml version="1.0" standalone="no"?>
<!DOCTYPE svg PUBLIC "-//W3C//DTD SVG 20010904//EN"
 "http://www.w3.org/TR/2001/REC-SVG-20010904/DTD/svg10.dtd">
<svg version="1.0" xmlns="http://www.w3.org/2000/svg"
 width="73.000000pt" height="92.000000pt" viewBox="0 0 73.000000 92.000000"
 preserveAspectRatio="xMidYMid meet">
<metadata>
Created by potrace 1.16, written by Peter Selinger 2001-2019
</metadata>
<g transform="translate(0.000000,92.000000) scale(0.100000,-0.100000)"
fill="#000000" stroke="none">
<path d="M441 848 c-34 -108 -22 -167 40 -194 l38 -17 -27 -36 c-15 -20 -32
-45 -38 -55 -6 -11 -15 -21 -21 -23 -10 -4 -99 92 -183 197 -19 24 -50 60 -67
81 -18 20 -33 42 -33 48 0 6 -6 14 -14 17 -25 10 -57 -16 -78 -62 -30 -70 -15
-113 74 -208 49 -53 56 -75 31 -95 -11 -9 -35 -37 -53 -64 -29 -41 -34 -55
-34 -110 0 -49 6 -71 27 -107 35 -59 34 -84 -3 -110 -19 -14 -30 -30 -30 -46
0 -24 0 -24 110 -24 l109 0 12 43 c13 50 3 90 -41 152 -42 61 -60 101 -60 133
0 31 26 92 40 92 4 0 83 -92 175 -205 104 -127 175 -205 186 -205 30 0 78 48
85 86 8 44 -7 80 -55 129 -75 79 -131 156 -131 180 0 36 36 107 70 140 15 15
43 30 61 34 30 6 34 12 42 50 19 96 -11 149 -93 162 -30 5 -62 17 -75 29 -31
29 -52 25 -64 -12z"/>
</g>
</svg>
