<?xml version="1.0" standalone="no"?>
<!DOCTYPE svg PUBLIC "-//W3C//DTD SVG 20010904//EN"
 "http://www.w3.org/TR/2001/REC-SVG-20010904/DTD/svg10.dtd">
<svg version="1.0" xmlns="http://www.w3.org/2000/svg"
 width="109.000000pt" height="92.000000pt" viewBox="0 0 109.000000 92.000000"
 preserveAspectRatio="xMidYMid meet">
<metadata>
Created by potrace 1.16, written by Peter Selinger 2001-2019
</metadata>
<g transform="translate(0.000000,92.000000) scale(0.100000,-0.100000)"
fill="#000000" stroke="none">
<path d="M143 848 c-13 -24 -18 -55 -18 -114 0 -86 10 -109 52 -125 l23 -8
-22 -37 c-21 -36 -24 -93 -15 -259 l2 -40 -42 -3 c-29 -2 -44 -8 -47 -20 -15
-46 -36 -184 -30 -193 9 -15 221 -6 237 10 17 17 37 90 37 136 0 21 -12 86
-26 143 -24 94 -26 108 -15 158 7 30 22 66 34 80 21 24 27 25 136 26 158 1
147 21 153 -286 2 -135 7 -249 11 -252 12 -13 77 7 88 27 7 13 10 114 10 288
-1 261 -2 270 -25 322 -45 101 -99 122 -301 117 -79 -1 -145 -1 -147 2 -2 3
-12 17 -21 33 -23 37 -52 35 -74 -5z m62 -54 c20 -13 57 -17 196 -18 l170 -1
39 -41 c21 -23 43 -59 49 -80 13 -47 15 -530 2 -538 -16 -10 -18 15 -20 234
-2 204 -3 217 -24 247 -30 44 -61 53 -187 53 -84 0 -110 -3 -120 -15 -12 -14
-15 -14 -30 0 -9 8 -34 15 -56 15 -22 0 -45 5 -52 12 -18 18 -14 148 4 148 3
0 16 -7 29 -16z m55 -228 c0 -8 -4 -17 -9 -21 -5 -3 -13 -29 -16 -58 -5 -40 0
-80 20 -166 26 -107 28 -166 8 -217 -6 -17 -158 -20 -168 -4 -4 6 -1 35 5 65
11 53 13 55 44 55 62 0 69 14 56 114 -7 49 -10 108 -6 131 8 64 66 151 66 101z
M786 864 c-23 -23 -29 -58 -23 -133 6 -57 11 -70 37 -93 17 -16 43 -29 58 -29
58 -3 74 -7 82 -19 11 -17 22 -212 20 -350 -2 -149 -1 -180 6 -191 9 -16 43
-10 65 12 20 20 20 29 18 332 -1 172 -4 328 -7 347 -5 46 -41 72 -106 78 -40
3 -57 11 -78 33 -30 33 -49 36 -72 13z m52 -59 c10 -22 18 -25 61 -25 65 0 97
-13 104 -42 3 -13 7 -156 7 -318 1 -354 2 -323 -10 -315 -6 4 -10 95 -10 239
0 141 -4 245 -11 264 -12 34 -63 58 -99 47 -65 -21 -105 61 -75 154 9 28 19
26 33 -4z"/>
</g>
</svg>
