<?xml version="1.0" standalone="no"?>
<!DOCTYPE svg PUBLIC "-//W3C//DTD SVG 20010904//EN"
 "http://www.w3.org/TR/2001/REC-SVG-20010904/DTD/svg10.dtd">
<svg version="1.0" xmlns="http://www.w3.org/2000/svg"
 width="64.000000pt" height="94.000000pt" viewBox="0 0 64.000000 94.000000"
 preserveAspectRatio="xMidYMid meet">
<metadata>
Created by potrace 1.16, written by Peter Selinger 2001-2019
</metadata>
<g transform="translate(0.000000,94.000000) scale(0.100000,-0.100000)"
fill="#000000" stroke="none">
<path d="M55 864 c-9 -22 -15 -67 -15 -114 0 -115 -3 -114 232 -120 173 -5
191 -7 204 -24 10 -15 14 -55 15 -150 1 -142 6 -396 8 -408 2 -16 41 -7 68 16
l28 24 -4 318 c-3 357 -7 377 -68 416 -33 20 -49 21 -216 22 l-181 1 -6 25
c-4 16 -14 26 -28 28 -16 3 -25 -5 -37 -34z m401 -129 c17 -13 5 -14 -116 -15
-139 0 -184 6 -174 21 3 5 65 9 138 9 101 0 137 -3 152 -15z"/>
</g>
</svg>
