<?xml version="1.0" standalone="no"?>
<!DOCTYPE svg PUBLIC "-//W3C//DTD SVG 20010904//EN"
 "http://www.w3.org/TR/2001/REC-SVG-20010904/DTD/svg10.dtd">
<svg version="1.0" xmlns="http://www.w3.org/2000/svg"
 width="142.000000pt" height="100.000000pt" viewBox="0 0 142.000000 100.000000"
 preserveAspectRatio="xMidYMid meet">
<metadata>
Created by potrace 1.16, written by Peter Selinger 2001-2019
</metadata>
<g transform="translate(0.000000,100.000000) scale(0.100000,-0.100000)"
fill="#000000" stroke="none">
<path d="M405 940 c-9 -17 -19 -60 -22 -95 -6 -63 -5 -65 27 -95 20 -19 43
-30 60 -30 64 0 73 -17 39 -77 -47 -83 -88 -171 -104 -220 -19 -59 -35 -69
-35 -22 0 35 -21 72 -93 168 -38 50 -47 70 -45 95 3 26 7 31 29 29 16 -1 30 6
38 19 15 25 17 113 2 150 -11 30 -65 58 -111 58 -15 0 -39 9 -54 21 -18 14
-35 19 -50 15 -28 -7 -42 -36 -24 -48 10 -7 9 -11 -4 -22 -26 -20 -24 -105 3
-140 11 -14 29 -26 39 -26 10 0 27 -8 38 -17 19 -16 20 -23 11 -68 -18 -90 -4
-119 115 -249 28 -31 36 -48 36 -77 0 -20 -6 -41 -13 -47 -7 -6 -58 -14 -113
-18 -54 -4 -105 -11 -112 -17 -14 -11 -15 -155 -2 -177 10 -16 41 -10 190 37
223 69 238 85 271 276 28 165 47 219 108 307 61 88 77 137 61 186 -15 44 -36
55 -129 65 -59 7 -79 13 -90 29 -20 29 -48 25 -66 -10z m-221 -116 c17 -6 23
-44 7 -44 -15 0 -42 31 -36 41 7 11 9 11 29 3z m380 0 c17 -7 22 -44 6 -44
-18 0 -59 23 -64 36 -6 15 29 19 58 8z M765 919 c-9 -17 -19 -54 -22 -83 -10
-92 38 -160 113 -160 40 0 42 -8 9 -61 -48 -78 -68 -135 -80 -230 -7 -55 -7
-233 -1 -244 9 -13 83 -15 91 -2 3 5 8 43 10 83 13 186 20 226 53 293 72 143
138 173 264 117 40 -18 48 -26 58 -62 6 -22 11 -78 12 -122 0 -108 0 -108
-163 -108 -121 0 -129 -1 -143 -22 -9 -12 -16 -31 -16 -41 0 -11 -8 -41 -17
-66 -29 -84 -31 -83 191 -79 117 2 199 7 205 13 27 27 62 415 42 454 -7 12 -9
26 -6 31 10 16 -27 113 -63 163 -46 63 -141 127 -191 127 -14 0 -20 -10 -25
-42 -9 -56 -37 -112 -57 -116 -13 -2 -18 8 -22 44 -7 63 -32 86 -101 92 -47 4
-55 8 -58 26 -2 16 -11 22 -35 24 -27 3 -34 -2 -48 -29z m66 -50 c16 -11 37
-19 46 -18 72 7 93 -13 93 -87 0 -30 5 -63 12 -73 10 -17 7 -26 -24 -63 -54
-66 -76 -117 -103 -232 -4 -19 -9 -26 -16 -19 -20 20 28 163 77 230 28 37 33
98 8 107 -9 3 -29 6 -45 6 -67 0 -103 49 -93 124 4 25 9 46 11 46 3 0 18 -9
34 -21z m365 -45 c62 -36 98 -88 120 -169 21 -76 25 -186 9 -192 -7 -2 -11 18
-11 50 -1 64 -18 118 -44 142 -25 23 -140 53 -179 47 -37 -5 -38 0 -7 41 13
18 30 49 37 70 7 20 17 37 22 37 5 0 28 -12 53 -26z m134 -420 c0 -14 -14
-116 -26 -191 l-5 -33 -159 0 -160 0 0 30 c0 16 5 41 12 55 10 23 17 25 72 26
179 2 209 6 228 31 9 12 18 40 18 61 0 20 5 37 10 37 6 0 10 -7 10 -16z m-482
-95 c-5 -34 -23 -33 -22 1 2 43 3 45 15 33 6 -6 9 -21 7 -34z"/>
</g>
</svg>
