<?xml version="1.0" standalone="no"?>
<!DOCTYPE svg PUBLIC "-//W3C//DTD SVG 20010904//EN"
 "http://www.w3.org/TR/2001/REC-SVG-20010904/DTD/svg10.dtd">
<svg version="1.0" xmlns="http://www.w3.org/2000/svg"
 width="36.000000pt" height="93.000000pt" viewBox="0 0 36.000000 93.000000"
 preserveAspectRatio="xMidYMid meet">
<metadata>
Created by potrace 1.16, written by Peter Selinger 2001-2019
</metadata>
<g transform="translate(0.000000,93.000000) scale(0.100000,-0.100000)"
fill="#000000" stroke="none">
<path d="M65 878 c-23 -75 -24 -85 -10 -148 15 -72 32 -90 85 -90 29 0 89 -14
102 -23 1 -1 5 -130 8 -287 l5 -285 24 0 c19 0 27 7 33 30 9 32 8 635 -1 693
-7 42 -55 72 -116 72 -45 0 -58 7 -68 33 -7 20 -56 24 -62 5z"/>
</g>
</svg>
