<?xml version="1.0" standalone="no"?>
<!DOCTYPE svg PUBLIC "-//W3C//DTD SVG 20010904//EN"
 "http://www.w3.org/TR/2001/REC-SVG-20010904/DTD/svg10.dtd">
<svg version="1.0" xmlns="http://www.w3.org/2000/svg"
 width="33.000000pt" height="66.000000pt" viewBox="0 0 33.000000 66.000000"
 preserveAspectRatio="xMidYMid meet">
<metadata>
Created by potrace 1.16, written by Peter Selinger 2001-2019
</metadata>
<g transform="translate(0.000000,66.000000) scale(0.100000,-0.100000)"
fill="#000000" stroke="none">
<path d="M113 585 c-45 -21 -73 -41 -73 -50 0 -13 7 -15 34 -10 45 9 46 3 46
-231 0 -200 -2 -207 -45 -216 -11 -2 -20 -10 -20 -18 0 -12 21 -16 109 -18 69
-2 113 1 120 8 13 13 -9 30 -40 30 -12 0 -24 7 -27 14 -3 8 -7 124 -8 258 -2
236 -4 268 -18 268 -3 -1 -39 -16 -78 -35z m47 -181 c0 -8 -5 -12 -10 -9 -6 4
-8 11 -5 16 9 14 15 11 15 -7z"/>
</g>
</svg>
