<?xml version="1.0" standalone="no"?>
<!DOCTYPE svg PUBLIC "-//W3C//DTD SVG 20010904//EN"
 "http://www.w3.org/TR/2001/REC-SVG-20010904/DTD/svg10.dtd">
<svg version="1.0" xmlns="http://www.w3.org/2000/svg"
 width="69.000000pt" height="93.000000pt" viewBox="0 0 69.000000 93.000000"
 preserveAspectRatio="xMidYMid meet">
<metadata>
Created by potrace 1.16, written by Peter Selinger 2001-2019
</metadata>
<g transform="translate(0.000000,93.000000) scale(0.100000,-0.100000)"
fill="#000000" stroke="none">
<path d="M73 871 c-25 -24 -38 -107 -23 -160 7 -28 20 -46 45 -61 19 -12 35
-24 35 -26 0 -3 -12 -21 -26 -39 -14 -19 -30 -51 -35 -72 -12 -52 -13 -453 -1
-465 6 -6 24 -3 50 7 52 21 66 53 59 137 -3 35 -7 133 -9 218 l-4 155 32 33
32 32 167 0 c155 0 167 -1 160 -17 -16 -36 -35 -118 -36 -152 -1 -20 1 -119 5
-221 6 -182 6 -185 28 -188 13 -1 37 6 55 17 25 16 33 28 37 63 7 50 2 144
-15 283 -11 88 -10 109 4 167 9 37 17 97 17 133 0 57 -3 69 -25 90 l-24 25
-220 0 c-186 0 -222 2 -235 16 -9 8 -16 22 -16 30 0 20 -33 17 -57 -5z m165
-140 c10 -6 8 -10 -10 -14 -38 -11 -58 -8 -58 8 0 17 46 21 68 6z"/>
</g>
</svg>
