<?xml version="1.0" standalone="no"?>
<!DOCTYPE svg PUBLIC "-//W3C//DTD SVG 20010904//EN"
 "http://www.w3.org/TR/2001/REC-SVG-20010904/DTD/svg10.dtd">
<svg version="1.0" xmlns="http://www.w3.org/2000/svg"
 width="40.000000pt" height="38.000000pt" viewBox="0 0 40.000000 38.000000"
 preserveAspectRatio="xMidYMid meet">
<metadata>
Created by potrace 1.16, written by Peter Selinger 2001-2019
</metadata>
<g transform="translate(0.000000,38.000000) scale(0.100000,-0.100000)"
fill="#000000" stroke="none">
<path d="M65 330 c-39 -78 -36 -84 49 -104 60 -14 81 -24 116 -58 l42 -41 -4
-63 -4 -64 33 0 c37 0 49 16 59 78 17 106 -84 232 -186 232 -34 0 -49 22 -30
45 8 9 37 15 88 18 67 3 63 3 -30 5 l-108 2 -25 -50z"/>
</g>
</svg>
