<?xml version="1.0" standalone="no"?>
<!DOCTYPE svg PUBLIC "-//W3C//DTD SVG 20010904//EN"
 "http://www.w3.org/TR/2001/REC-SVG-20010904/DTD/svg10.dtd">
<svg version="1.0" xmlns="http://www.w3.org/2000/svg"
 width="127.000000pt" height="70.000000pt" viewBox="0 0 127.000000 70.000000"
 preserveAspectRatio="xMidYMid meet">
<metadata>
Created by potrace 1.16, written by Peter Selinger 2001-2019
</metadata>
<g transform="translate(0.000000,70.000000) scale(0.100000,-0.100000)"
fill="#000000" stroke="none">
<path d="M782 642 c-32 -25 -27 -63 10 -76 22 -8 32 -6 48 9 26 23 25 39 -2
65 -26 24 -27 24 -56 2z M340 630 c-52 -20 -60 -36 -31 -56 20 -15 21 -23 21
-236 0 -214 -1 -223 -22 -245 -12 -13 -20 -25 -17 -27 5 -5 89 -9 147 -7 30 1
42 5 42 16 0 8 -6 15 -13 15 -8 0 -21 8 -30 18 -14 15 -17 40 -17 130 0 108 1
111 26 131 35 27 90 28 104 1 6 -12 9 -69 8 -142 -3 -117 -4 -124 -25 -133
-38 -16 -28 -35 20 -36 73 -3 132 2 142 12 6 6 0 18 -17 32 -27 22 -27 24 -30
155 l-3 134 -39 35 c-35 32 -43 35 -83 30 -24 -2 -52 -12 -62 -21 -35 -32 -40
-20 -43 96 -3 127 -4 128 -78 98z M127 511 c-15 -22 -40 -50 -57 -62 -37 -28
-37 -37 -5 -49 25 -9 25 -11 25 -131 0 -152 12 -197 58 -216 18 -8 42 -11 53
-8 28 9 79 55 79 71 0 17 -22 18 -37 3 -16 -16 -50 -2 -57 24 -3 12 -6 75 -6
139 l0 117 38 3 c49 4 51 31 2 38 -34 5 -35 7 -40 54 -3 27 -10 51 -16 53 -6
2 -23 -14 -37 -36z M1035 454 c-66 -34 -86 -76 -65 -139 9 -27 26 -45 73 -75
105 -66 108 -69 105 -98 -7 -60 -91 -49 -136 18 -13 19 -29 35 -35 35 -14 0
-21 -94 -9 -112 12 -19 172 -22 206 -3 48 25 72 102 46 151 -6 10 -47 40 -90
65 -90 51 -107 72 -88 104 10 16 21 20 48 18 28 -2 40 -11 59 -40 35 -55 51
-50 51 16 0 30 -3 57 -7 59 -5 2 -35 7 -68 11 -45 5 -67 2 -90 -10z M785 445
c-16 -7 -38 -16 -47 -19 -28 -8 -22 -36 7 -36 27 0 27 0 28 -150 1 -121 -1
-130 -33 -141 -16 -6 -30 -17 -30 -25 0 -11 16 -14 68 -14 123 0 175 18 117
40 -14 5 -26 17 -26 27 -1 10 -2 32 -4 48 -1 17 -3 87 -4 158 -1 125 -1 127
-23 126 -13 0 -36 -6 -53 -14z"/>
</g>
</svg>
