<?xml version="1.0" standalone="no"?>
<!DOCTYPE svg PUBLIC "-//W3C//DTD SVG 20010904//EN"
 "http://www.w3.org/TR/2001/REC-SVG-20010904/DTD/svg10.dtd">
<svg version="1.0" xmlns="http://www.w3.org/2000/svg"
 width="68.000000pt" height="95.000000pt" viewBox="0 0 68.000000 95.000000"
 preserveAspectRatio="xMidYMid meet">
<metadata>
Created by potrace 1.16, written by Peter Selinger 2001-2019
</metadata>
<g transform="translate(0.000000,95.000000) scale(0.100000,-0.100000)"
fill="#000000" stroke="none">
<path d="M82 902 c-47 -31 -36 -227 14 -246 12 -5 9 -15 -18 -52 l-33 -47 2
-233 c1 -134 6 -242 12 -252 15 -28 51 -32 286 -32 231 0 270 7 286 48 11 28
10 389 -1 569 -7 120 -18 148 -67 180 -23 16 -53 18 -216 19 l-190 0 -21 27
c-23 28 -33 32 -54 19z m427 -158 c25 -23 6 -26 -73 -13 -61 10 -87 10 -138 0
-115 -24 -127 -24 -134 -7 -16 42 -4 44 168 39 118 -4 167 -9 177 -19z m-33
-114 c43 -31 54 -71 54 -203 0 -174 8 -166 -192 -168 -115 -1 -162 2 -173 11
-12 10 -15 37 -15 134 1 134 13 173 63 210 45 33 223 44 263 16z m64 -467 c0
-26 -43 -33 -203 -33 -132 0 -167 3 -177 15 -6 8 -9 18 -7 22 3 4 91 8 196 8
144 0 191 -3 191 -12z"/>
</g>
</svg>
