<?xml version="1.0" standalone="no"?>
<!DOCTYPE svg PUBLIC "-//W3C//DTD SVG 20010904//EN"
 "http://www.w3.org/TR/2001/REC-SVG-20010904/DTD/svg10.dtd">
<svg version="1.0" xmlns="http://www.w3.org/2000/svg"
 width="68.000000pt" height="94.000000pt" viewBox="0 0 68.000000 94.000000"
 preserveAspectRatio="xMidYMid meet">
<metadata>
Created by potrace 1.16, written by Peter Selinger 2001-2019
</metadata>
<g transform="translate(0.000000,94.000000) scale(0.100000,-0.100000)"
fill="#000000" stroke="none">
<path d="M106 877 c-18 -27 -31 -125 -22 -162 4 -15 19 -38 33 -51 22 -20 25
-29 17 -42 -46 -75 -64 -119 -73 -182 -5 -40 -7 -78 -4 -86 6 -16 83 -20 83
-4 0 6 8 18 18 28 27 27 86 18 101 -15 9 -20 17 -24 44 -21 32 3 32 3 35 62 5
99 -16 125 -111 142 -36 6 -38 9 -32 33 4 14 11 31 16 36 12 12 190 23 241 14
45 -7 73 -38 87 -96 25 -95 7 -189 -47 -245 l-26 -28 -177 0 c-136 0 -179 -3
-188 -13 -11 -14 -61 -163 -61 -183 0 -7 6 -14 13 -16 6 -3 119 -4 250 -3 190
2 241 5 252 16 7 8 28 73 46 144 38 149 44 285 20 415 -16 84 -58 187 -86 210
-18 15 -83 19 -288 20 -73 0 -78 1 -89 25 -14 31 -33 32 -52 2z m338 -127 c51
-19 24 -28 -101 -32 -128 -4 -166 4 -149 31 9 14 214 15 250 1z m36 -589 c0
-17 -32 -21 -161 -21 -115 0 -155 8 -116 23 22 9 277 7 277 -2z"/>
</g>
</svg>
