<?xml version="1.0" standalone="no"?>
<!DOCTYPE svg PUBLIC "-//W3C//DTD SVG 20010904//EN"
 "http://www.w3.org/TR/2001/REC-SVG-20010904/DTD/svg10.dtd">
<svg version="1.0" xmlns="http://www.w3.org/2000/svg"
 width="40.000000pt" height="57.000000pt" viewBox="0 0 40.000000 57.000000"
 preserveAspectRatio="xMidYMid meet">
<metadata>
Created by potrace 1.16, written by Peter Selinger 2001-2019
</metadata>
<g transform="translate(0.000000,57.000000) scale(0.100000,-0.100000)"
fill="#000000" stroke="none">
<path d="M53 503 c-24 -58 -14 -147 20 -181 23 -23 38 -28 100 -32 66 -5 72
-7 81 -31 13 -38 2 -70 -44 -125 -44 -53 -47 -65 -25 -84 24 -20 57 3 101 73
56 87 65 114 67 187 3 118 -53 183 -158 187 -33 1 -63 2 -66 3 -4 0 -9 9 -12
20 -9 35 -46 25 -64 -17z"/>
</g>
</svg>
