<?xml version="1.0" standalone="no"?>
<!DOCTYPE svg PUBLIC "-//W3C//DTD SVG 20010904//EN"
 "http://www.w3.org/TR/2001/REC-SVG-20010904/DTD/svg10.dtd">
<svg version="1.0" xmlns="http://www.w3.org/2000/svg"
 width="72.000000pt" height="131.000000pt" viewBox="0 0 72.000000 131.000000"
 preserveAspectRatio="xMidYMid meet">
<metadata>
Created by potrace 1.16, written by Peter Selinger 2001-2019
</metadata>
<g transform="translate(0.000000,131.000000) scale(0.100000,-0.100000)"
fill="#000000" stroke="none">
<path d="M325 1262 c-38 -9 -82 -52 -94 -93 -10 -35 -10 -45 6 -76 27 -54 65
-78 125 -78 42 0 53 4 73 28 51 59 49 141 -4 190 -27 25 -71 37 -106 29z m72
-74 c31 -29 30 -71 -2 -92 -33 -21 -61 -20 -85 4 -26 26 -25 51 1 84 25 32 55
33 86 4z M67 852 c-10 -11 -20 -45 -23 -79 -11 -105 29 -153 129 -153 15 0 27
-5 27 -11 0 -6 -15 -38 -34 -72 -62 -112 -85 -208 -88 -370 -2 -113 3 -126 44
-127 25 0 27 9 33 106 12 208 48 323 124 402 52 54 108 65 201 42 70 -17 88
-36 101 -105 13 -71 7 -201 -10 -218 -8 -8 -52 -12 -124 -13 -197 -3 -172 10
-198 -99 -13 -52 -20 -98 -16 -102 11 -10 387 -8 396 3 13 14 44 309 43 414 0
81 -4 104 -27 155 -43 97 -88 150 -153 182 -31 15 -60 29 -63 31 -3 1 -13 -23
-23 -53 -17 -56 -67 -125 -91 -125 -8 0 -15 22 -19 60 -10 84 -38 107 -126
102 -22 -1 -50 17 -50 33 0 21 -34 19 -53 -3z"/>
</g>
</svg>
