<?xml version="1.0" standalone="no"?>
<!DOCTYPE svg PUBLIC "-//W3C//DTD SVG 20010904//EN"
 "http://www.w3.org/TR/2001/REC-SVG-20010904/DTD/svg10.dtd">
<svg version="1.0" xmlns="http://www.w3.org/2000/svg"
 width="186.000000pt" height="68.000000pt" viewBox="0 0 186.000000 68.000000"
 preserveAspectRatio="xMidYMid meet">
<metadata>
Created by potrace 1.16, written by Peter Selinger 2001-2019
</metadata>
<g transform="translate(0.000000,68.000000) scale(0.100000,-0.100000)"
fill="#000000" stroke="none">
<path d="M1370 626 c-65 -21 -79 -41 -35 -52 18 -4 25 -13 26 -30 4 -119 3
-120 -34 -103 -39 18 -108 3 -144 -30 -50 -45 -73 -101 -73 -174 0 -88 19
-130 75 -163 40 -23 52 -26 98 -19 29 4 71 6 93 6 43 -1 134 33 134 50 0 5
-11 14 -25 19 l-25 10 -1 147 c-2 143 -4 268 -7 326 -2 30 -20 34 -82 13z
m-34 -239 c26 -23 27 -29 32 -134 4 -122 -4 -143 -56 -143 -53 0 -71 12 -93
57 -18 37 -21 56 -16 111 7 84 13 99 46 117 37 20 56 18 87 -8z M1619 443
c-48 -19 -73 -63 -66 -115 7 -49 34 -80 109 -120 62 -35 84 -66 65 -91 -29
-38 -98 -20 -132 33 -36 57 -46 51 -43 -22 l3 -63 70 -8 c107 -12 173 19 189
87 11 47 -11 82 -78 126 -122 78 -137 98 -98 133 28 26 71 9 98 -39 12 -21 29
-40 38 -42 24 -5 23 104 -1 116 -35 18 -117 21 -154 5z M500 440 c-8 -5 -28
-10 -43 -10 -15 0 -30 -7 -33 -15 -4 -8 -12 -15 -19 -15 -18 0 -64 -109 -65
-155 -3 -77 32 -155 79 -179 99 -51 202 -11 261 103 9 17 9 26 0 35 -8 8 -20
0 -46 -31 -77 -92 -197 -52 -206 69 l-3 33 123 3 122 3 -7 41 c-7 45 -44 95
-81 109 -43 17 -67 19 -82 9z m54 -85 c16 -42 9 -48 -54 -43 -33 2 -63 7 -66
11 -12 12 15 57 38 66 27 10 72 -9 82 -34z M836 440 c-65 -21 -108 -94 -74
-128 29 -29 86 7 73 47 -4 14 1 24 19 36 21 14 29 15 53 3 23 -11 29 -20 31
-56 2 -33 0 -42 -13 -42 -26 0 -128 -56 -156 -87 -15 -15 -30 -45 -33 -65 -6
-34 -3 -41 30 -73 41 -40 62 -41 139 -4 39 19 40 19 55 0 27 -34 57 -36 101
-5 41 28 46 49 13 49 -40 1 -44 12 -45 128 -1 133 -6 154 -41 180 -30 22 -108
31 -152 17z m106 -202 c2 -13 2 -41 0 -64 -3 -35 -8 -42 -37 -52 -40 -15 -59
-9 -74 24 -14 32 -2 56 47 89 45 31 58 31 64 3z M95 421 c-52 -18 -75 -51 -36
-51 31 0 35 -16 38 -135 2 -130 0 -141 -32 -149 -14 -4 -25 -13 -25 -22 0 -12
17 -14 107 -12 74 2 108 7 111 16 2 7 -5 12 -15 12 -40 0 -56 23 -55 83 0 31
1 83 1 115 1 34 7 66 15 78 14 19 15 19 46 1 29 -17 33 -18 55 -3 31 20 32 50
3 70 -31 22 -75 20 -95 -4 -10 -11 -21 -20 -25 -20 -5 0 -8 9 -8 20 0 24 -18
25 -85 1z"/>
</g>
</svg>
