<?xml version="1.0" standalone="no"?>
<!DOCTYPE svg PUBLIC "-//W3C//DTD SVG 20010904//EN"
 "http://www.w3.org/TR/2001/REC-SVG-20010904/DTD/svg10.dtd">
<svg version="1.0" xmlns="http://www.w3.org/2000/svg"
 width="72.000000pt" height="94.000000pt" viewBox="0 0 72.000000 94.000000"
 preserveAspectRatio="xMidYMid meet">
<metadata>
Created by potrace 1.16, written by Peter Selinger 2001-2019
</metadata>
<g transform="translate(0.000000,94.000000) scale(0.100000,-0.100000)"
fill="#000000" stroke="none">
<path d="M429 884 c-16 -43 -22 -137 -11 -166 7 -17 24 -31 46 -39 20 -7 36
-18 36 -25 0 -16 -73 -114 -85 -114 -12 0 -85 74 -85 86 0 6 -26 36 -115 135
-13 15 -34 50 -46 78 -34 76 -62 78 -104 6 -14 -23 -25 -50 -25 -61 1 -40 29
-93 83 -161 53 -65 68 -97 50 -105 -24 -10 -84 -93 -93 -128 -14 -50 3 -142
31 -179 27 -34 24 -59 -11 -91 -33 -31 -39 -66 -12 -73 34 -10 171 -2 184 11
7 7 12 37 13 70 0 51 -6 66 -53 147 -28 49 -52 100 -52 113 0 33 31 83 50 80
14 -3 71 -70 252 -296 56 -70 97 -112 109 -112 21 0 66 44 80 79 12 29 -6 84
-39 120 -13 14 -29 33 -36 41 -6 8 -34 41 -60 72 -71 85 -66 136 23 231 21 22
41 35 51 32 30 -9 42 11 47 81 5 84 -16 128 -66 138 -17 3 -45 9 -61 12 -17 3
-35 14 -40 25 -16 28 -49 24 -61 -7z"/>
</g>
</svg>
