<?xml version="1.0" standalone="no"?>
<!DOCTYPE svg PUBLIC "-//W3C//DTD SVG 20010904//EN"
 "http://www.w3.org/TR/2001/REC-SVG-20010904/DTD/svg10.dtd">
<svg version="1.0" xmlns="http://www.w3.org/2000/svg"
 width="86.000000pt" height="67.000000pt" viewBox="0 0 86.000000 67.000000"
 preserveAspectRatio="xMidYMid meet">
<metadata>
Created by potrace 1.16, written by Peter Selinger 2001-2019
</metadata>
<g transform="translate(0.000000,67.000000) scale(0.100000,-0.100000)"
fill="#000000" stroke="none">
<path d="M288 613 c-28 -33 -158 -224 -158 -232 0 -5 -6 -11 -13 -14 -24 -9
-79 -126 -73 -153 6 -23 10 -24 94 -25 48 -1 96 -2 107 -3 17 -1 21 -10 25
-66 l5 -65 37 -3 c32 -3 38 0 43 21 4 13 5 34 4 48 -5 57 0 68 34 71 29 3 32
6 32 38 0 33 -2 35 -37 38 l-38 3 -2 177 c-3 170 -4 177 -24 180 -11 2 -27 -5
-36 -15z m-20 -239 l-3 -106 -72 -3 c-40 -1 -73 2 -73 8 0 8 37 65 50 77 10 9
65 95 72 113 4 9 12 17 18 17 7 0 10 -36 8 -106z M548 437 c-45 -21 -68 -48
-68 -82 0 -33 13 -45 50 -45 22 0 44 35 36 55 -9 23 23 47 53 40 31 -7 51 -31
51 -61 0 -26 -10 -34 -80 -63 -64 -26 -105 -68 -121 -122 -11 -35 -10 -41 15
-74 41 -54 95 -58 158 -13 l29 20 24 -26 c30 -33 55 -33 95 0 36 31 36 59 0
59 l-25 0 -5 126 c-5 136 -18 171 -66 189 -34 13 -113 11 -146 -3z m122 -232
c0 -53 -3 -66 -19 -75 -26 -14 -64 -13 -79 2 -15 15 -15 59 1 78 13 17 77 60
90 60 4 0 7 -29 7 -65z"/>
</g>
</svg>
