<?xml version="1.0" standalone="no"?>
<!DOCTYPE svg PUBLIC "-//W3C//DTD SVG 20010904//EN"
 "http://www.w3.org/TR/2001/REC-SVG-20010904/DTD/svg10.dtd">
<svg version="1.0" xmlns="http://www.w3.org/2000/svg"
 width="178.000000pt" height="79.000000pt" viewBox="0 0 178.000000 79.000000"
 preserveAspectRatio="xMidYMid meet">
<metadata>
Created by potrace 1.16, written by Peter Selinger 2001-2019
</metadata>
<g transform="translate(0.000000,79.000000) scale(0.100000,-0.100000)"
fill="#000000" stroke="none">
<path d="M172 758 c-37 -41 -38 -73 -3 -109 27 -26 37 -30 64 -25 75 15 89
114 20 145 -36 16 -57 13 -81 -11z m72 -51 c8 -13 7 -20 -4 -27 -8 -5 -19 -10
-23 -10 -12 0 -20 28 -13 46 7 19 25 15 40 -9z M59 554 c-7 -8 -14 -39 -17
-67 -3 -44 -1 -55 18 -72 19 -17 35 -19 148 -18 70 0 130 -1 134 -4 5 -2 1
-18 -8 -35 -14 -27 -15 -53 -9 -175 4 -79 9 -143 12 -143 2 0 17 7 33 15 36
19 45 49 35 118 -9 62 -9 156 0 252 3 41 2 76 -4 85 -8 12 -40 16 -151 18
-126 3 -141 5 -150 23 -13 23 -23 24 -41 3z M1146 544 c-3 -9 -6 -39 -6 -68 0
-62 19 -86 68 -86 17 0 34 -5 38 -11 3 -6 7 -51 8 -101 2 -100 -4 -111 -56
-107 -81 5 -85 3 -102 -53 -8 -29 -11 -57 -7 -61 12 -12 181 -18 217 -8 41 11
50 55 28 140 -10 40 -15 95 -14 141 5 133 3 151 -18 173 -13 12 -36 21 -62 22
-28 1 -46 8 -52 18 -11 21 -34 22 -42 1z M450 529 c-15 -27 -3 -114 17 -131 9
-7 35 -13 57 -13 37 0 41 -3 44 -26 2 -17 -6 -37 -23 -58 -39 -45 -22 -76 26
-50 23 12 69 107 69 141 0 43 -21 97 -43 113 -12 8 -38 15 -58 15 -24 0 -39 5
-43 15 -8 22 -33 18 -46 -6z M696 534 c-12 -30 -6 -100 10 -123 16 -22 16 -25
0 -53 -10 -16 -20 -53 -23 -83 -5 -47 -3 -56 12 -62 13 -4 23 0 33 15 18 28
39 28 68 1 34 -32 54 -19 54 34 0 49 -22 77 -59 77 -18 0 -22 5 -19 23 3 19
10 22 58 25 74 4 118 -5 130 -28 26 -49 13 -154 -21 -176 -8 -5 -65 -11 -128
-14 l-114 -5 -18 -54 c-10 -29 -16 -57 -13 -62 7 -11 294 -12 312 -1 31 20 63
196 51 282 -12 83 -37 161 -57 178 -10 8 -52 12 -119 12 -83 0 -105 3 -109 15
-8 20 -40 19 -48 -1z M1405 540 c-4 -6 -7 -36 -8 -66 -2 -76 10 -84 131 -84
51 0 102 -5 112 -10 35 -19 45 -99 21 -163 -12 -32 -53 -43 -161 -46 -41 -1
-78 -5 -82 -9 -12 -12 -32 -101 -25 -109 9 -8 231 -6 258 2 46 15 99 184 85
271 -14 93 -34 155 -58 181 -18 20 -30 22 -121 22 -63 0 -103 4 -105 10 -5 14
-39 14 -47 1z M66 272 c-9 -17 -15 -66 -17 -127 -3 -93 -2 -100 17 -103 10 -1
29 7 42 18 20 19 22 30 22 115 0 51 3 100 6 109 5 12 -1 16 -25 16 -23 0 -34
-7 -45 -28z"/>
</g>
</svg>
