<?xml version="1.0" standalone="no"?>
<!DOCTYPE svg PUBLIC "-//W3C//DTD SVG 20010904//EN"
 "http://www.w3.org/TR/2001/REC-SVG-20010904/DTD/svg10.dtd">
<svg version="1.0" xmlns="http://www.w3.org/2000/svg"
 width="35.000000pt" height="103.000000pt" viewBox="0 0 35.000000 103.000000"
 preserveAspectRatio="xMidYMid meet">
<metadata>
Created by potrace 1.16, written by Peter Selinger 2001-2019
</metadata>
<g transform="translate(0.000000,103.000000) scale(0.100000,-0.100000)"
fill="#000000" stroke="none">
<path d="M44 803 c3 -126 6 -342 7 -482 0 -140 3 -260 6 -268 4 -10 34 -13
123 -13 107 0 119 2 125 19 3 10 1 29 -3 42 -8 21 -16 24 -66 25 -30 0 -59 4
-63 8 -8 7 -9 83 -14 566 -2 157 -5 295 -7 308 -4 20 -10 22 -59 22 l-54 0 5
-227z"/>
</g>
</svg>
