<?xml version="1.0" standalone="no"?>
<!DOCTYPE svg PUBLIC "-//W3C//DTD SVG 20010904//EN"
 "http://www.w3.org/TR/2001/REC-SVG-20010904/DTD/svg10.dtd">
<svg version="1.0" xmlns="http://www.w3.org/2000/svg"
 width="127.000000pt" height="104.000000pt" viewBox="0 0 127.000000 104.000000"
 preserveAspectRatio="xMidYMid meet">
<metadata>
Created by potrace 1.16, written by Peter Selinger 2001-2019
</metadata>
<g transform="translate(0.000000,104.000000) scale(0.100000,-0.100000)"
fill="#000000" stroke="none">
<path d="M160 995 c-67 -16 -103 -52 -98 -99 3 -28 6 -31 38 -31 31 0 35 3 45
39 14 50 44 66 80 42 18 -12 25 -25 25 -50 0 -31 -3 -34 -61 -57 -78 -31 -126
-71 -138 -115 -12 -42 -7 -60 27 -96 32 -35 89 -38 139 -7 l34 21 20 -21 c26
-28 71 -27 105 2 29 26 28 65 -1 53 -18 -6 -38 35 -33 67 3 18 12 20 102 23
55 2 104 8 109 13 5 5 7 19 5 32 -3 24 -5 24 -109 24 l-107 0 -5 54 c-6 59
-25 87 -74 107 -37 16 -32 16 -103 -1z m90 -236 c0 -47 -4 -65 -17 -75 -22
-17 -65 -18 -81 -2 -16 16 -15 60 1 80 12 17 76 58 90 58 4 0 7 -28 7 -61z
M662 845 c-20 -23 -35 -113 -27 -170 6 -52 21 -75 58 -88 16 -6 16 -9 -5 -49
-18 -34 -22 -58 -21 -118 0 -41 4 -87 8 -102 4 -15 4 -39 1 -53 -5 -21 -12
-25 -41 -25 -42 0 -48 -9 -70 -119 -13 -65 -14 -85 -5 -91 7 -4 60 -7 117 -6
122 3 129 7 149 92 15 62 10 131 -11 174 -20 39 -28 150 -15 202 20 78 38 88
165 89 101 1 111 -1 127 -21 12 -15 18 -40 19 -74 3 -243 10 -431 18 -439 13
-13 81 14 93 36 6 11 7 122 3 294 -6 303 -8 310 -72 370 -52 49 -84 55 -254
50 l-151 -4 -11 26 c-19 43 -50 54 -75 26z m183 -95 c237 3 231 4 273 -34 27
-25 41 -48 49 -83 17 -69 28 -519 13 -528 -6 -4 -13 -5 -15 -3 -3 2 -5 94 -6
204 -1 245 -10 284 -70 308 -55 22 -235 22 -267 0 -12 -8 -22 -10 -22 -5 0 6
-19 11 -42 11 -24 0 -48 4 -55 8 -21 13 -34 65 -27 107 9 56 12 58 42 35 23
-18 39 -21 127 -20z m-65 -195 c0 -3 -7 -17 -16 -30 -22 -33 -27 -120 -10
-175 47 -154 47 -154 35 -208 -6 -29 -11 -52 -12 -53 -1 0 -40 -3 -86 -6 l-83
-5 7 54 c8 59 16 68 61 68 49 0 57 18 45 99 -20 128 -12 194 31 249 11 12 28
17 28 7z"/>
</g>
</svg>
