<?xml version="1.0" standalone="no"?>
<!DOCTYPE svg PUBLIC "-//W3C//DTD SVG 20010904//EN"
 "http://www.w3.org/TR/2001/REC-SVG-20010904/DTD/svg10.dtd">
<svg version="1.0" xmlns="http://www.w3.org/2000/svg"
 width="76.000000pt" height="94.000000pt" viewBox="0 0 76.000000 94.000000"
 preserveAspectRatio="xMidYMid meet">
<metadata>
Created by potrace 1.16, written by Peter Selinger 2001-2019
</metadata>
<g transform="translate(0.000000,94.000000) scale(0.100000,-0.100000)"
fill="#000000" stroke="none">
<path d="M158 893 c-22 -27 -30 -52 -35 -115 -5 -72 14 -112 62 -129 19 -7 34
-16 32 -19 -43 -74 -51 -108 -48 -195 1 -49 4 -110 4 -135 l2 -45 -47 -3 c-32
-2 -48 -8 -54 -20 -9 -23 -25 -108 -27 -152 l-2 -35 103 -3 c56 -1 110 2 120
7 13 7 23 32 32 79 14 75 9 144 -15 212 -35 99 -25 209 24 272 19 23 29 26
130 32 117 7 159 -2 177 -41 4 -10 11 -137 14 -283 4 -240 7 -265 22 -268 10
-2 29 8 43 22 l25 25 0 250 c0 329 -16 411 -93 466 l-42 30 -183 3 -182 4 -15
29 c-18 34 -26 36 -47 12z m247 -140 l40 -7 -65 -16 c-36 -9 -74 -19 -86 -23
-25 -9 -71 23 -60 41 8 13 106 16 171 5z"/>
</g>
</svg>
