<?xml version="1.0" standalone="no"?>
<!DOCTYPE svg PUBLIC "-//W3C//DTD SVG 20010904//EN"
 "http://www.w3.org/TR/2001/REC-SVG-20010904/DTD/svg10.dtd">
<svg version="1.0" xmlns="http://www.w3.org/2000/svg"
 width="28.000000pt" height="49.000000pt" viewBox="0 0 28.000000 49.000000"
 preserveAspectRatio="xMidYMid meet">
<metadata>
Created by potrace 1.16, written by Peter Selinger 2001-2019
</metadata>
<g transform="translate(0.000000,49.000000) scale(0.100000,-0.100000)"
fill="#000000" stroke="none">
<path d="M107 430 c-26 -9 -53 -22 -59 -28 -13 -13 -2 -32 21 -32 16 0 19 -14
25 -125 7 -132 1 -159 -34 -170 -11 -3 -20 -13 -20 -21 0 -11 19 -14 94 -14
52 0 98 4 101 10 3 5 -6 20 -20 32 -26 23 -26 25 -30 185 -2 89 -6 167 -10
173 -7 12 -7 12 -68 -10z"/>
</g>
</svg>
