<?xml version="1.0" standalone="no"?>
<!DOCTYPE svg PUBLIC "-//W3C//DTD SVG 20010904//EN"
 "http://www.w3.org/TR/2001/REC-SVG-20010904/DTD/svg10.dtd">
<svg version="1.0" xmlns="http://www.w3.org/2000/svg"
 width="69.000000pt" height="131.000000pt" viewBox="0 0 69.000000 131.000000"
 preserveAspectRatio="xMidYMid meet">
<metadata>
Created by potrace 1.16, written by Peter Selinger 2001-2019
</metadata>
<g transform="translate(0.000000,131.000000) scale(0.100000,-0.100000)"
fill="#000000" stroke="none">
<path d="M295 1223 c-49 -67 -52 -86 -21 -131 58 -82 64 -88 83 -76 26 16 93
117 88 132 -9 26 -90 122 -102 122 -7 0 -29 -21 -48 -47z M76 871 c-27 -30
-37 -82 -27 -137 7 -39 17 -56 47 -81 37 -31 38 -32 21 -51 -10 -11 -27 -42
-37 -69 -16 -42 -19 -82 -21 -267 -1 -119 0 -219 3 -221 8 -9 92 25 105 42 9
12 11 74 6 252 l-6 237 32 27 c31 25 39 27 134 28 56 0 128 2 160 4 31 2 59 0
61 -4 3 -3 -5 -33 -15 -65 -19 -54 -20 -77 -14 -285 l5 -226 28 2 c75 6 96 51
89 188 -7 110 -6 105 -24 188 -14 64 -14 73 6 146 12 42 21 105 21 140 0 54
-3 65 -26 86 -27 25 -27 25 -250 25 l-223 0 -16 30 c-18 35 -35 38 -59 11z
m163 -140 c10 -7 5 -11 -17 -16 -32 -7 -52 -1 -52 16 0 11 50 12 69 0z"/>
</g>
</svg>
