<?xml version="1.0" standalone="no"?>
<!DOCTYPE svg PUBLIC "-//W3C//DTD SVG 20010904//EN"
 "http://www.w3.org/TR/2001/REC-SVG-20010904/DTD/svg10.dtd">
<svg version="1.0" xmlns="http://www.w3.org/2000/svg"
 width="205.000000pt" height="51.000000pt" viewBox="0 0 205.000000 51.000000"
 preserveAspectRatio="xMidYMid meet">
<metadata>
Created by potrace 1.16, written by Peter Selinger 2001-2019
</metadata>
<g transform="translate(0.000000,51.000000) scale(0.100000,-0.100000)"
fill="#000000" stroke="none">
<path d="M1265 450 c-28 -10 -51 -25 -53 -34 -2 -9 0 -16 5 -16 31 -1 37 -21
40 -143 4 -128 0 -146 -39 -160 -10 -3 -10 -7 -1 -17 12 -13 165 -11 179 2 4
4 -5 19 -20 33 -26 24 -27 26 -24 137 l3 113 37 20 36 19 21 -24 c18 -22 20
-39 21 -135 0 -114 -3 -127 -32 -138 -26 -9 -22 -26 8 -33 26 -7 154 3 163 12
3 3 -7 15 -21 27 -26 21 -27 26 -30 147 -5 141 -15 171 -63 195 -45 21 -77 19
-109 -6 -27 -21 -46 -18 -46 7 0 17 -11 16 -75 -6z M1723 450 c-18 -10 -39
-30 -48 -44 -14 -21 -15 -29 -3 -53 24 -51 67 -39 77 22 3 21 13 42 22 48 24
15 68 0 81 -28 14 -31 3 -75 -20 -75 -32 -1 -107 -41 -144 -78 -32 -30 -38
-43 -38 -78 0 -35 5 -47 31 -68 37 -32 77 -33 138 -6 l44 20 22 -20 c27 -25
51 -25 93 0 40 24 40 53 0 58 l-26 3 -4 130 -3 131 -33 29 c-28 25 -40 29 -95
29 -44 0 -71 -6 -94 -20z m137 -219 c0 -51 -3 -61 -25 -75 -35 -23 -62 -20
-81 9 -21 33 -11 60 38 96 60 43 68 39 68 -30z M532 446 c-123 -40 -170 -184
-104 -314 35 -69 116 -95 195 -62 58 24 94 62 103 109 8 39 -12 42 -41 6 -11
-14 -38 -32 -59 -39 -34 -12 -44 -12 -70 1 -46 22 -69 60 -74 118 -5 63 16
113 56 136 38 21 66 9 88 -36 20 -43 31 -49 67 -36 21 8 27 17 27 40 0 63
-102 104 -188 77z M1008 452 c-32 -4 -39 -32 -8 -32 30 0 40 -38 40 -146 0
-90 -1 -96 -26 -119 -32 -30 -65 -32 -87 -7 -14 15 -17 42 -18 143 0 68 -3
132 -5 142 -4 14 -17 17 -70 17 -50 0 -64 -3 -64 -15 0 -8 6 -15 14 -15 25 0
28 -17 33 -153 5 -151 15 -178 75 -202 36 -14 42 -14 89 6 46 20 51 21 62 5
11 -15 16 -15 67 0 73 21 81 31 48 56 l-28 20 0 143 c0 104 -3 146 -12 152
-13 8 -62 10 -110 5z M135 439 c-87 -25 -119 -129 -40 -129 36 0 45 13 45 60
0 23 5 30 29 35 46 10 71 -9 71 -54 0 -36 -2 -38 -54 -60 -30 -12 -75 -40
-100 -63 -39 -34 -46 -45 -46 -77 0 -43 20 -75 59 -95 30 -16 72 -7 122 25 24
16 26 16 48 -7 27 -28 50 -30 90 -9 46 23 53 73 9 62 -26 -7 -28 0 -31 129 -4
125 -20 166 -70 184 -35 12 -90 12 -132 -1z m113 -229 c0 -53 -3 -63 -23 -76
-57 -37 -117 12 -85 71 7 14 18 25 23 25 5 0 20 9 34 20 43 33 51 26 51 -40z"/>
</g>
</svg>
