<?xml version="1.0" standalone="no"?>
<!DOCTYPE svg PUBLIC "-//W3C//DTD SVG 20010904//EN"
 "http://www.w3.org/TR/2001/REC-SVG-20010904/DTD/svg10.dtd">
<svg version="1.0" xmlns="http://www.w3.org/2000/svg"
 width="29.000000pt" height="67.000000pt" viewBox="0 0 29.000000 67.000000"
 preserveAspectRatio="xMidYMid meet">
<metadata>
Created by potrace 1.16, written by Peter Selinger 2001-2019
</metadata>
<g transform="translate(0.000000,67.000000) scale(0.100000,-0.100000)"
fill="#000000" stroke="none">
<path d="M100 611 c-61 -19 -83 -51 -35 -51 14 0 27 -6 30 -12 7 -22 15 -427
8 -444 -3 -8 -17 -20 -30 -25 -65 -24 33 -49 135 -34 47 7 57 29 17 39 -27 7
-27 10 -30 201 -4 348 -4 345 -22 344 -10 -1 -43 -9 -73 -18z"/>
</g>
</svg>
