<?xml version="1.0" standalone="no"?>
<!DOCTYPE svg PUBLIC "-//W3C//DTD SVG 20010904//EN"
 "http://www.w3.org/TR/2001/REC-SVG-20010904/DTD/svg10.dtd">
<svg version="1.0" xmlns="http://www.w3.org/2000/svg"
 width="170.000000pt" height="93.000000pt" viewBox="0 0 170.000000 93.000000"
 preserveAspectRatio="xMidYMid meet">
<metadata>
Created by potrace 1.16, written by Peter Selinger 2001-2019
</metadata>
<g transform="translate(0.000000,93.000000) scale(0.100000,-0.100000)"
fill="#000000" stroke="none">
<path d="M1103 868 c-55 -61 -54 -166 2 -226 l34 -37 200 2 c224 2 217 5 180
-66 -19 -37 -20 -51 -14 -173 4 -73 7 -172 8 -220 1 -47 5 -90 9 -94 5 -4 26
-1 48 6 79 26 99 112 65 287 -20 104 -19 148 5 219 42 125 19 254 -47 267 -15
3 -111 3 -211 0 l-184 -5 -28 31 c-34 37 -40 38 -67 9z m270 -79 c155 2 206
-1 220 -11 12 -9 20 -32 24 -71 l6 -57 -159 -1 c-221 -2 -306 2 -325 12 -28
14 -39 94 -22 152 5 18 6 17 29 -4 24 -22 28 -23 227 -20z m205 -262 c-10 -39
-9 -62 5 -139 34 -193 36 -211 21 -246 -7 -17 -19 -32 -27 -32 -21 0 -28 47
-33 222 -5 144 -3 162 16 205 25 57 35 52 18 -10z M74 845 c-44 -68 -37 -170
16 -217 35 -32 21 -31 257 -29 100 1 184 -2 187 -7 3 -5 -6 -32 -19 -60 -23
-48 -24 -59 -19 -164 3 -62 7 -160 8 -217 2 -69 6 -106 14 -109 23 -7 82 20
106 49 23 27 25 36 21 107 -2 42 -9 102 -14 132 -24 137 -24 143 3 228 14 46
26 103 26 128 0 50 -30 118 -57 129 -10 4 -111 6 -226 5 l-207 -1 -10 26 c-13
35 -63 35 -86 0z m290 -67 l216 2 15 -24 c10 -15 15 -40 13 -68 l-3 -43 -235
-3 c-278 -3 -271 -5 -278 87 -5 76 11 106 39 70 17 -23 19 -23 233 -21z m210
-270 c-13 -48 -12 -61 6 -133 26 -106 30 -239 8 -261 -26 -26 -35 -10 -42 78
-12 154 -8 300 9 341 22 54 35 37 19 -25z M736 851 c-9 -10 -21 -46 -27 -80
-10 -53 -9 -69 6 -107 20 -53 41 -64 119 -64 69 0 84 -15 67 -70 -7 -22 -26
-56 -42 -75 -40 -45 -38 -88 4 -93 51 -6 110 81 143 210 20 76 12 128 -26 190
-27 44 -32 47 -82 53 -29 4 -57 6 -63 5 -22 -5 -35 1 -35 15 0 8 -9 19 -19 25
-25 13 -25 13 -45 -9z m48 -66 c12 -9 42 -15 72 -15 94 0 136 -63 119 -176 -7
-48 -25 -60 -25 -17 0 45 -26 63 -91 63 -68 0 -105 14 -113 44 -12 44 -4 117
13 116 3 0 15 -7 25 -15z M1150 453 c-58 -30 -66 -58 -65 -239 l2 -159 37 1
c26 1 46 10 67 30 l30 29 -1 145 c-1 80 0 159 2 175 4 37 -21 44 -72 18z m23
-80 c9 -59 8 -211 -2 -218 -6 -3 -11 -15 -11 -26 0 -24 -30 -26 -31 -1 -5 90
1 233 10 250 16 30 29 28 34 -5z M126 440 c-48 -31 -54 -52 -57 -230 l-4 -165
23 -3 c35 -5 76 15 95 47 13 23 15 48 10 153 -4 103 -2 131 11 156 9 17 13 38
10 46 -8 22 -53 20 -88 -4z m29 -182 c0 -132 -8 -168 -36 -168 -14 0 -11 255
3 285 24 53 33 21 33 -117z"/>
</g>
</svg>
