<?xml version="1.0" standalone="no"?>
<!DOCTYPE svg PUBLIC "-//W3C//DTD SVG 20010904//EN"
 "http://www.w3.org/TR/2001/REC-SVG-20010904/DTD/svg10.dtd">
<svg version="1.0" xmlns="http://www.w3.org/2000/svg"
 width="95.000000pt" height="68.000000pt" viewBox="0 0 95.000000 68.000000"
 preserveAspectRatio="xMidYMid meet">
<metadata>
Created by potrace 1.16, written by Peter Selinger 2001-2019
</metadata>
<g transform="translate(0.000000,68.000000) scale(0.100000,-0.100000)"
fill="#000000" stroke="none">
<path d="M252 627 c-129 -26 -211 -141 -212 -298 0 -126 82 -240 195 -271 60
-16 70 -16 174 4 93 17 174 120 188 237 11 92 -40 230 -101 275 -76 56 -150
72 -244 53z m118 -53 c35 -10 66 -43 92 -100 33 -72 32 -210 0 -277 -62 -125
-212 -127 -283 -4 -21 37 -24 55 -24 142 0 82 5 108 22 145 31 63 53 85 98 97
40 11 49 11 95 -3z M685 436 c-63 -24 -77 -46 -35 -56 25 -6 25 -6 28 -138 l3
-132 -26 -10 c-14 -5 -25 -17 -25 -25 0 -13 15 -15 103 -13 82 2 102 6 102 18
0 8 -9 16 -20 18 -37 7 -45 31 -45 138 0 83 3 106 18 124 16 19 21 20 45 9 20
-9 33 -9 52 -1 31 14 32 44 3 72 -28 26 -48 25 -83 -1 -22 -18 -29 -20 -36 -8
-5 8 -9 17 -9 22 0 10 -8 9 -75 -17z"/>
</g>
</svg>
