<?xml version="1.0" standalone="no"?>
<!DOCTYPE svg PUBLIC "-//W3C//DTD SVG 20010904//EN"
 "http://www.w3.org/TR/2001/REC-SVG-20010904/DTD/svg10.dtd">
<svg version="1.0" xmlns="http://www.w3.org/2000/svg"
 width="87.000000pt" height="92.000000pt" viewBox="0 0 87.000000 92.000000"
 preserveAspectRatio="xMidYMid meet">
<metadata>
Created by potrace 1.16, written by Peter Selinger 2001-2019
</metadata>
<g transform="translate(0.000000,92.000000) scale(0.100000,-0.100000)"
fill="#000000" stroke="none">
<path d="M63 843 c-21 -49 -21 -139 1 -181 9 -17 20 -32 24 -32 26 -1 32 -17
17 -52 -10 -26 -13 -58 -10 -110 5 -87 67 -392 84 -412 9 -11 43 -13 172 -10
183 4 200 10 237 86 12 24 30 59 41 78 38 68 71 144 72 164 0 12 14 41 29 66
93 145 100 162 100 244 0 43 -5 86 -10 97 -11 20 -70 49 -101 49 -10 0 -20 9
-24 19 -6 21 -31 34 -46 25 -15 -9 -49 -81 -49 -104 0 -26 -6 -25 -34 6 -16
19 -43 32 -92 44 -61 15 -69 19 -66 38 4 28 -19 29 -42 3 -10 -11 -24 -37 -31
-57 -14 -42 -35 -57 -35 -26 0 31 -25 44 -96 50 -54 4 -68 9 -81 28 -22 34
-42 30 -60 -13z m142 -134 c-9 -14 -45 -11 -45 4 0 8 3 17 6 20 10 9 46 -12
39 -24z m263 -2 c3 -14 -1 -18 -20 -15 -12 2 -24 11 -26 21 -3 14 1 18 20 15
12 -2 24 -11 26 -21z m138 -9 c11 -37 35 -58 81 -70 32 -8 43 -15 43 -30 0
-10 -7 -21 -15 -24 -8 -4 -15 -12 -15 -19 0 -7 -3 -15 -7 -17 -8 -3 -68 -89
-108 -152 -11 -18 -37 -56 -57 -84 l-38 -52 -75 0 c-42 0 -75 4 -75 10 0 5 6
24 14 42 8 18 22 51 31 73 9 22 25 58 35 80 10 22 30 66 44 99 26 57 27 58 60
53 44 -7 56 7 56 65 0 50 14 64 26 26z m-276 -32 c0 -17 9 -27 30 -36 17 -7
30 -18 30 -25 0 -7 -19 -59 -41 -116 -79 -199 -109 -254 -109 -200 0 11 -4 22
-9 25 -16 10 -42 126 -44 201 -2 66 1 79 18 91 12 9 31 13 46 10 29 -6 66 24
54 44 -9 15 2 43 15 35 5 -3 10 -17 10 -29z m9 -490 c28 -12 48 -26 44 -30 -3
-3 -32 -6 -64 -6 -48 0 -60 3 -69 20 -24 45 13 52 89 16z"/>
</g>
</svg>
