<?xml version="1.0" standalone="no"?>
<!DOCTYPE svg PUBLIC "-//W3C//DTD SVG 20010904//EN"
 "http://www.w3.org/TR/2001/REC-SVG-20010904/DTD/svg10.dtd">
<svg version="1.0" xmlns="http://www.w3.org/2000/svg"
 width="127.000000pt" height="121.000000pt" viewBox="0 0 127.000000 121.000000"
 preserveAspectRatio="xMidYMid meet">
<metadata>
Created by potrace 1.16, written by Peter Selinger 2001-2019
</metadata>
<g transform="translate(0.000000,121.000000) scale(0.100000,-0.100000)"
fill="#000000" stroke="none">
<path d="M58 1159 c-14 -8 -18 -24 -18 -74 0 -57 3 -66 26 -84 l27 -21 -18
-91 c-30 -151 -10 -270 48 -284 12 -3 90 -7 174 -8 100 -1 156 -6 164 -14 6
-6 14 -32 16 -57 5 -44 4 -48 -38 -89 -54 -52 -110 -97 -121 -97 -4 0 -8 -7
-8 -15 0 -8 -13 -21 -30 -30 -41 -21 -73 -88 -72 -149 1 -59 25 -96 67 -108
24 -6 34 -3 57 19 37 35 42 57 27 110 l-12 45 36 31 c19 18 67 58 106 90 89
73 113 120 119 229 l4 78 44 -48 c58 -63 62 -77 27 -106 -37 -31 -73 -104 -73
-149 0 -19 14 -67 30 -107 l31 -71 -31 -36 c-19 -21 -30 -43 -28 -56 3 -21 8
-22 118 -22 l115 0 14 51 c13 51 13 53 -19 115 -17 35 -42 78 -55 94 -32 43
-39 73 -24 101 23 43 22 44 169 -131 44 -52 80 -99 80 -103 0 -4 8 -15 18 -23
9 -9 35 -37 57 -62 22 -26 45 -47 50 -47 19 0 84 68 91 94 14 56 -5 98 -92
201 -46 54 -84 106 -84 113 0 22 28 75 61 115 22 27 38 37 59 37 38 0 50 23
50 99 0 56 -3 63 -35 96 -20 19 -46 36 -58 36 -12 1 -30 2 -39 3 -9 1 -26 11
-38 24 -25 26 -29 27 -57 7 -23 -16 -43 -88 -43 -151 0 -36 35 -84 70 -96 12
-4 11 -9 -6 -29 -12 -13 -24 -32 -27 -42 -4 -9 -10 -17 -15 -17 -11 0 -199
223 -266 315 -14 20 -14 20 -52 0 -22 -12 -42 -33 -50 -52 l-14 -32 -25 25
-25 25 -182 -2 -183 -3 -3 32 c-2 17 6 53 18 79 12 26 25 71 30 98 12 72 -22
125 -80 125 -9 0 -23 7 -30 15 -14 17 -28 18 -52 4z m77 -59 c36 0 58 -28 51
-64 -11 -57 -39 -136 -47 -136 -12 0 -11 13 2 46 15 41 3 74 -31 86 -26 8 -30
15 -30 45 0 28 3 34 16 29 9 -3 26 -6 39 -6z m-1 -256 c-3 -13 -1 -38 6 -55
l13 -31 176 2 c215 2 197 4 221 -20 18 -18 20 -33 20 -131 0 -159 -15 -185
-175 -304 -77 -57 -80 -63 -80 -145 0 -69 -2 -75 -20 -72 -41 6 -45 11 -45 55
0 33 8 55 34 91 18 26 44 55 57 64 48 33 134 106 151 127 47 60 26 183 -34
204 -18 7 -94 11 -175 10 -78 0 -147 2 -152 5 -27 17 -37 163 -15 221 10 24
25 6 18 -21z m976 -64 c15 0 36 -11 49 -24 20 -21 22 -29 14 -67 -11 -55 -26
-58 -113 -27 l-65 23 -3 47 c-2 26 2 56 7 67 10 19 11 19 48 0 20 -10 49 -19
63 -19z m-430 18 c0 -7 19 -34 43 -60 23 -26 85 -97 137 -157 52 -60 101 -110
107 -110 7 -1 18 8 25 19 21 33 29 23 23 -27 -6 -46 -4 -51 39 -103 90 -108
136 -174 136 -195 0 -12 -12 -32 -26 -46 l-26 -24 -49 55 c-27 30 -59 68 -72
84 -97 124 -156 197 -189 231 -44 46 -58 43 -96 -21 -18 -31 -21 -48 -16 -84
3 -25 13 -54 23 -65 56 -65 90 -151 75 -189 -5 -13 -21 -16 -77 -16 l-71 0 23
21 c19 18 22 29 18 61 -3 22 -12 47 -20 56 -8 9 -21 36 -28 59 -17 60 0 111
57 170 24 26 44 54 44 64 0 16 -46 80 -63 87 -4 2 -21 23 -37 47 -32 46 -38
87 -18 130 12 26 38 35 38 13z"/>
</g>
</svg>
