<?xml version="1.0" standalone="no"?>
<!DOCTYPE svg PUBLIC "-//W3C//DTD SVG 20010904//EN"
 "http://www.w3.org/TR/2001/REC-SVG-20010904/DTD/svg10.dtd">
<svg version="1.0" xmlns="http://www.w3.org/2000/svg"
 width="33.000000pt" height="66.000000pt" viewBox="0 0 33.000000 66.000000"
 preserveAspectRatio="xMidYMid meet">
<metadata>
Created by potrace 1.16, written by Peter Selinger 2001-2019
</metadata>
<g transform="translate(0.000000,66.000000) scale(0.100000,-0.100000)"
fill="#000000" stroke="none">
<path d="M113 582 c-77 -39 -99 -69 -42 -57 22 5 34 3 40 -6 5 -8 9 -105 9
-215 0 -211 -1 -217 -45 -226 -11 -2 -21 -11 -23 -20 -3 -16 9 -17 117 -16
111 1 121 2 121 19 0 14 -7 19 -28 19 -51 0 -52 6 -52 266 0 228 -3 274 -19
274 -3 0 -39 -17 -78 -38z"/>
</g>
</svg>
