<?xml version="1.0" standalone="no"?>
<!DOCTYPE svg PUBLIC "-//W3C//DTD SVG 20010904//EN"
 "http://www.w3.org/TR/2001/REC-SVG-20010904/DTD/svg10.dtd">
<svg version="1.0" xmlns="http://www.w3.org/2000/svg"
 width="93.000000pt" height="65.000000pt" viewBox="0 0 93.000000 65.000000"
 preserveAspectRatio="xMidYMid meet">
<metadata>
Created by potrace 1.16, written by Peter Selinger 2001-2019
</metadata>
<g transform="translate(0.000000,65.000000) scale(0.100000,-0.100000)"
fill="#000000" stroke="none">
<path d="M320 610 c-48 -19 -67 -50 -31 -50 20 0 21 -6 23 -122 4 -358 6 -337
-22 -358 -14 -10 -22 -21 -20 -24 7 -6 64 -10 133 -8 62 2 77 20 32 40 -21 10
-25 19 -27 59 -6 205 -7 203 46 228 27 13 39 14 55 6 34 -19 41 -45 41 -158
-1 -112 -10 -143 -44 -143 -9 0 -16 -7 -16 -15 0 -12 17 -15 90 -15 94 0 107
7 70 38 -17 15 -20 32 -22 156 l-3 138 -40 34 c-36 32 -44 34 -85 28 -25 -3
-52 -12 -61 -20 -33 -29 -38 -17 -41 93 -3 122 -4 123 -78 93z M752 614 c-40
-27 -22 -74 28 -74 31 0 50 17 50 45 0 43 -38 57 -78 29z M130 509 c-19 -28
-73 -79 -82 -79 -5 0 -8 -9 -8 -20 0 -13 7 -20 19 -20 17 0 19 -11 23 -143 4
-129 6 -147 27 -175 30 -42 84 -45 130 -6 47 39 39 71 -10 42 -18 -11 -23 -10
-40 11 -16 20 -19 39 -19 142 0 87 3 121 13 123 6 3 24 7 40 10 41 9 34 34
-10 38 -38 3 -38 3 -41 51 -3 51 -18 61 -42 26z M741 422 c-51 -19 -66 -42
-28 -42 22 0 25 -5 31 -52 10 -84 7 -195 -6 -223 -6 -14 -19 -25 -30 -25 -10
0 -18 -7 -18 -15 0 -12 18 -15 100 -15 79 0 100 3 100 14 0 7 -11 21 -25 30
-24 16 -25 18 -27 179 l-3 162 -25 2 c-14 1 -45 -5 -69 -15z"/>
</g>
</svg>
