<?xml version="1.0" standalone="no"?>
<!DOCTYPE svg PUBLIC "-//W3C//DTD SVG 20010904//EN"
 "http://www.w3.org/TR/2001/REC-SVG-20010904/DTD/svg10.dtd">
<svg version="1.0" xmlns="http://www.w3.org/2000/svg"
 width="73.000000pt" height="130.000000pt" viewBox="0 0 73.000000 130.000000"
 preserveAspectRatio="xMidYMid meet">
<metadata>
Created by potrace 1.16, written by Peter Selinger 2001-2019
</metadata>
<g transform="translate(0.000000,130.000000) scale(0.100000,-0.100000)"
fill="#000000" stroke="none">
<path d="M322 1253 c-12 -2 -38 -19 -57 -37 -28 -26 -35 -41 -35 -70 0 -62 24
-104 72 -126 53 -24 61 -24 105 -4 42 21 83 78 83 119 0 34 -30 89 -57 103
-24 12 -82 20 -111 15z m76 -69 c27 -19 30 -71 5 -90 -23 -17 -77 -18 -91 -1
-22 27 -22 54 -1 80 23 30 54 34 87 11z M65 847 c-8 -13 -18 -51 -21 -85 -6
-55 -4 -66 19 -101 23 -35 31 -39 81 -45 31 -4 56 -12 56 -18 0 -5 -15 -35
-34 -67 -18 -31 -41 -80 -50 -107 -26 -80 -49 -301 -38 -362 4 -20 10 -23 40
-20 l35 3 4 100 c4 112 26 237 53 299 25 59 96 129 148 144 33 10 56 10 105 2
83 -15 122 -46 132 -102 11 -62 7 -210 -5 -222 -6 -6 -74 -13 -160 -16 -81 -3
-151 -8 -155 -11 -7 -7 -45 -163 -45 -185 0 -12 33 -14 198 -14 177 0 201 2
214 18 10 11 18 48 22 107 3 50 10 137 15 195 21 229 -32 366 -167 438 -74 39
-90 40 -98 5 -11 -51 -28 -87 -57 -120 -32 -36 -56 -43 -58 -15 -1 9 -3 26 -4
37 -1 11 -2 30 -3 42 -3 37 -39 61 -104 68 -50 6 -61 11 -68 31 -12 30 -35 31
-55 1z m469 -696 c10 -15 -51 -23 -107 -15 -52 8 -52 8 -17 15 54 10 118 10
124 0z"/>
</g>
</svg>
