<?xml version="1.0" standalone="no"?>
<!DOCTYPE svg PUBLIC "-//W3C//DTD SVG 20010904//EN"
 "http://www.w3.org/TR/2001/REC-SVG-20010904/DTD/svg10.dtd">
<svg version="1.0" xmlns="http://www.w3.org/2000/svg"
 width="42.000000pt" height="66.000000pt" viewBox="0 0 42.000000 66.000000"
 preserveAspectRatio="xMidYMid meet">
<metadata>
Created by potrace 1.16, written by Peter Selinger 2001-2019
</metadata>
<g transform="translate(0.000000,66.000000) scale(0.100000,-0.100000)"
fill="#000000" stroke="none">
<path d="M155 621 c-69 -22 -115 -73 -115 -126 0 -24 15 -18 58 25 31 31 47
40 75 40 50 0 79 -27 79 -73 0 -51 -25 -85 -78 -107 -67 -29 -56 -60 22 -60
25 0 43 -8 64 -30 61 -62 45 -159 -29 -181 -35 -10 -47 -9 -100 11 -68 25 -91
18 -91 -26 0 -34 36 -54 96 -54 157 0 267 122 232 256 -8 30 -25 56 -46 75
-34 30 -34 48 2 79 11 8 16 29 16 60 0 40 -5 53 -29 78 -38 38 -101 51 -156
33z"/>
</g>
</svg>
