<?xml version="1.0" standalone="no"?>
<!DOCTYPE svg PUBLIC "-//W3C//DTD SVG 20010904//EN"
 "http://www.w3.org/TR/2001/REC-SVG-20010904/DTD/svg10.dtd">
<svg version="1.0" xmlns="http://www.w3.org/2000/svg"
 width="78.000000pt" height="96.000000pt" viewBox="0 0 78.000000 96.000000"
 preserveAspectRatio="xMidYMid meet">
<metadata>
Created by potrace 1.16, written by Peter Selinger 2001-2019
</metadata>
<g transform="translate(0.000000,96.000000) scale(0.100000,-0.100000)"
fill="#000000" stroke="none">
<path d="M158 898 c-23 -35 -37 -133 -26 -184 7 -34 17 -48 38 -59 16 -8 36
-15 44 -15 11 0 8 -13 -14 -58 -32 -63 -39 -128 -23 -221 15 -83 8 -101 -37
-101 -21 0 -45 -6 -53 -14 -16 -16 -51 -181 -42 -196 10 -17 207 -12 232 5 31
22 50 137 35 208 -48 226 -46 207 -28 269 9 32 26 69 39 83 21 25 26 26 141
27 118 1 119 1 143 -26 14 -17 23 -41 24 -64 1 -20 2 -53 3 -72 1 -19 3 -124
4 -232 2 -214 1 -212 56 -187 43 20 47 47 42 299 -8 338 -16 387 -80 443 -51
46 -72 50 -250 52 -154 1 -170 3 -182 21 -36 51 -45 54 -66 22z m372 -145 c22
-9 -33 -20 -101 -22 -31 0 -76 -8 -99 -16 -23 -8 -49 -15 -56 -15 -17 0 -48
46 -40 59 7 10 267 5 296 -6z m-324 -598 c-7 -19 -36 -19 -36 0 0 17 33 38 38
24 2 -5 1 -16 -2 -24z"/>
</g>
</svg>
