<?xml version="1.0" standalone="no"?>
<!DOCTYPE svg PUBLIC "-//W3C//DTD SVG 20010904//EN"
 "http://www.w3.org/TR/2001/REC-SVG-20010904/DTD/svg10.dtd">
<svg version="1.0" xmlns="http://www.w3.org/2000/svg"
 width="35.000000pt" height="117.000000pt" viewBox="0 0 35.000000 117.000000"
 preserveAspectRatio="xMidYMid meet">
<metadata>
Created by potrace 1.16, written by Peter Selinger 2001-2019
</metadata>
<g transform="translate(0.000000,117.000000) scale(0.100000,-0.100000)"
fill="#000000" stroke="none">
<path d="M50 1110 c-7 -12 -7 -28 0 -44 9 -24 15 -26 64 -26 31 0 58 -5 63
-12 7 -8 13 -202 17 -499 7 -550 15 -499 -80 -499 -41 0 -54 -4 -54 -15 0 -13
21 -15 126 -15 l126 0 -6 557 c-4 307 -9 559 -12 562 -2 3 -56 6 -119 7 -103
2 -116 1 -125 -16z"/>
</g>
</svg>
