<?xml version="1.0" standalone="no"?>
<!DOCTYPE svg PUBLIC "-//W3C//DTD SVG 20010904//EN"
 "http://www.w3.org/TR/2001/REC-SVG-20010904/DTD/svg10.dtd">
<svg version="1.0" xmlns="http://www.w3.org/2000/svg"
 width="40.000000pt" height="42.000000pt" viewBox="0 0 40.000000 42.000000"
 preserveAspectRatio="xMidYMid meet">
<metadata>
Created by potrace 1.16, written by Peter Selinger 2001-2019
</metadata>
<g transform="translate(0.000000,42.000000) scale(0.100000,-0.100000)"
fill="#000000" stroke="none">
<path d="M140 365 c-98 -44 -131 -178 -65 -257 44 -52 65 -62 126 -63 49 0 63
4 95 30 21 18 43 48 51 70 17 46 12 131 -9 164 -34 56 -134 84 -198 56z m101
-78 c40 -27 55 -77 34 -118 -15 -29 -34 -39 -70 -39 -37 0 -53 10 -75 45 -17
27 -18 37 -9 65 10 27 59 70 80 70 3 0 21 -10 40 -23z"/>
</g>
</svg>
