<?xml version="1.0" standalone="no"?>
<!DOCTYPE svg PUBLIC "-//W3C//DTD SVG 20010904//EN"
 "http://www.w3.org/TR/2001/REC-SVG-20010904/DTD/svg10.dtd">
<svg version="1.0" xmlns="http://www.w3.org/2000/svg"
 width="27.000000pt" height="30.000000pt" viewBox="0 0 27.000000 30.000000"
 preserveAspectRatio="xMidYMid meet">
<metadata>
Created by potrace 1.16, written by Peter Selinger 2001-2019
</metadata>
<g transform="translate(0.000000,30.000000) scale(0.100000,-0.100000)"
fill="#000000" stroke="none">
<path d="M60 244 c-8 -8 -13 -38 -12 -67 1 -45 5 -55 31 -77 22 -19 27 -29 21
-40 -17 -27 -12 -60 9 -60 14 0 24 13 35 47 9 26 16 50 16 55 0 4 -18 17 -40
28 -30 15 -40 26 -40 44 0 29 14 35 60 25 63 -14 69 -47 29 -151 -18 -47 -18
-48 0 -48 36 0 73 137 51 194 -9 24 -32 37 -80 42 -13 1 -26 8 -28 13 -5 16
-38 13 -52 -5z"/>
</g>
</svg>
