<?xml version="1.0" standalone="no"?>
<!DOCTYPE svg PUBLIC "-//W3C//DTD SVG 20010904//EN"
 "http://www.w3.org/TR/2001/REC-SVG-20010904/DTD/svg10.dtd">
<svg version="1.0" xmlns="http://www.w3.org/2000/svg"
 width="77.000000pt" height="91.000000pt" viewBox="0 0 77.000000 91.000000"
 preserveAspectRatio="xMidYMid meet">
<metadata>
Created by potrace 1.16, written by Peter Selinger 2001-2019
</metadata>
<g transform="translate(0.000000,91.000000) scale(0.100000,-0.100000)"
fill="#000000" stroke="none">
<path d="M149 868 c-18 -33 -24 -170 -9 -197 6 -13 27 -29 46 -37 19 -8 34
-16 34 -19 0 -2 -12 -26 -27 -52 -28 -51 -27 -39 -20 -263 l2 -45 -42 -3 c-23
-2 -45 -8 -50 -15 -9 -12 -27 -81 -38 -149 l-6 -38 63 -1 c109 -3 163 2 176
15 7 7 18 44 23 82 10 70 8 87 -27 237 -17 78 -17 79 5 148 30 93 40 99 180
100 96 1 116 -2 133 -18 33 -30 37 -52 39 -259 2 -110 5 -221 7 -247 4 -47 5
-48 31 -42 62 15 63 17 51 375 -8 264 -17 303 -81 350 -51 38 -105 47 -256 45
-75 -2 -143 0 -151 2 -7 3 -18 16 -23 29 -11 31 -44 31 -60 2z m209 -137 c7
-4 -8 -14 -38 -25 -40 -15 -53 -16 -65 -6 -18 15 -19 37 -2 43 15 5 87 -3 105
-12z"/>
</g>
</svg>
