<?xml version="1.0" standalone="no"?>
<!DOCTYPE svg PUBLIC "-//W3C//DTD SVG 20010904//EN"
 "http://www.w3.org/TR/2001/REC-SVG-20010904/DTD/svg10.dtd">
<svg version="1.0" xmlns="http://www.w3.org/2000/svg"
 width="78.000000pt" height="125.000000pt" viewBox="0 0 78.000000 125.000000"
 preserveAspectRatio="xMidYMid meet">
<metadata>
Created by potrace 1.16, written by Peter Selinger 2001-2019
</metadata>
<g transform="translate(0.000000,125.000000) scale(0.100000,-0.100000)"
fill="#000000" stroke="none">
<path d="M328 1197 c-21 -28 -38 -58 -38 -65 0 -27 73 -122 95 -122 11 0 23
13 69 72 20 27 26 45 22 60 -8 30 -79 108 -97 107 -8 0 -31 -23 -51 -52z M148
847 c-8 -24 -14 -71 -14 -105 1 -50 5 -65 25 -86 14 -14 35 -26 48 -26 30 0
29 -11 -4 -62 -29 -48 -35 -115 -19 -245 l8 -73 -43 0 c-24 0 -50 -4 -57 -8
-15 -10 -54 -184 -43 -195 4 -4 61 -6 126 -5 l118 3 13 36 c24 70 23 135 -3
247 -27 116 -26 177 3 234 33 67 37 68 156 68 120 0 164 -13 173 -53 3 -12 6
-133 8 -269 1 -162 6 -251 13 -258 15 -15 73 18 80 47 3 11 4 144 2 295 -3
264 -4 275 -27 323 -28 59 -68 94 -119 106 -20 5 -110 9 -199 9 l-161 0 -11
30 c-7 22 -16 30 -34 30 -20 0 -27 -8 -39 -43z m210 -115 c9 -6 0 -14 -28 -27
-45 -20 -72 -14 -78 19 -3 13 5 16 45 16 26 0 54 -4 61 -8z m-138 -572 c0 -12
-28 -25 -36 -17 -9 9 6 27 22 27 8 0 14 -5 14 -10z"/>
</g>
</svg>
