<?xml version="1.0" standalone="no"?>
<!DOCTYPE svg PUBLIC "-//W3C//DTD SVG 20010904//EN"
 "http://www.w3.org/TR/2001/REC-SVG-20010904/DTD/svg10.dtd">
<svg version="1.0" xmlns="http://www.w3.org/2000/svg"
 width="197.000000pt" height="114.000000pt" viewBox="0 0 197.000000 114.000000"
 preserveAspectRatio="xMidYMid meet">
<metadata>
Created by potrace 1.16, written by Peter Selinger 2001-2019
</metadata>
<g transform="translate(0.000000,114.000000) scale(0.100000,-0.100000)"
fill="#000000" stroke="none">
<path d="M1691 1103 c-25 -20 -40 -76 -41 -145 0 -42 4 -49 40 -80 l40 -33
-33 -39 -33 -39 -42 44 c-23 24 -42 49 -42 56 0 7 -6 16 -13 20 -7 4 -30 31
-52 58 -22 28 -50 61 -63 75 -13 13 -30 37 -38 52 -19 36 -45 36 -86 -1 -31
-28 -33 -33 -32 -98 0 -64 3 -73 41 -124 22 -29 47 -60 56 -68 23 -18 21 -28
-7 -54 -39 -37 -76 -115 -76 -163 0 -25 12 -69 30 -110 l31 -68 -26 -20 c-14
-12 -28 -36 -31 -53 l-6 -33 116 0 c116 0 117 0 126 26 23 59 4 131 -57 212
-37 50 -47 87 -33 122 11 27 40 42 40 21 0 -4 12 -21 27 -37 24 -26 131 -153
150 -179 5 -6 24 -29 43 -51 19 -23 46 -55 60 -72 33 -42 45 -45 90 -22 67 34
79 139 22 198 -51 53 -127 144 -136 163 -13 28 8 88 45 132 24 28 39 37 64 37
41 0 55 29 55 111 0 56 -3 64 -33 94 -22 22 -46 35 -77 40 -25 4 -53 16 -63
26 -22 23 -29 24 -56 2z m44 -52 c3 -6 26 -13 52 -17 67 -10 97 -44 89 -103
-3 -25 -8 -47 -11 -49 -6 -7 -110 12 -147 27 -20 7 -29 19 -33 45 -12 61 26
134 50 97z m-333 -43 c22 -24 60 -70 84 -102 25 -33 58 -73 74 -89 17 -17 40
-45 52 -63 12 -17 30 -37 41 -44 17 -10 23 -8 43 17 l24 28 -6 -56 -6 -56 79
-94 c126 -149 128 -154 74 -203 -21 -19 -22 -19 -47 5 -15 13 -47 51 -72 84
-56 74 -63 82 -100 122 -16 18 -45 52 -63 75 -69 88 -87 104 -106 92 -33 -20
-63 -76 -63 -115 0 -29 11 -54 47 -106 39 -57 47 -77 51 -125 l4 -58 -72 0
c-69 0 -72 1 -57 18 29 32 30 64 1 117 -14 28 -30 68 -34 90 -7 34 -4 47 20
90 16 28 42 63 59 79 17 17 31 35 31 42 0 7 -24 41 -53 76 -73 86 -87 109 -87
136 0 24 26 82 37 82 3 0 24 -19 45 -42z M735 1081 c-38 -75 -24 -213 25 -238
17 -9 78 -12 190 -12 151 0 166 -2 181 -19 13 -17 16 -60 18 -268 1 -137 5
-252 9 -256 11 -11 78 10 93 29 18 21 14 596 -4 651 -22 66 -56 76 -254 80
-137 3 -173 6 -173 17 0 20 -28 45 -50 45 -11 0 -26 -12 -35 -29z m55 -51 c18
-18 33 -20 188 -20 148 0 171 -2 199 -20 17 -10 36 -27 40 -37 11 -21 18 -572
8 -602 -3 -12 -13 -21 -21 -21 -11 0 -14 21 -15 103 -1 105 -3 234 -7 344 -3
101 -7 103 -229 103 -170 0 -183 1 -193 19 -11 22 -13 73 -4 120 8 37 8 37 34
11z M92 1088 c-29 -14 -53 -93 -43 -140 12 -49 38 -96 64 -109 12 -7 47 -14
77 -15 30 -1 56 -8 58 -14 2 -6 -3 -38 -13 -71 -14 -52 -16 -102 -11 -389 2
-181 7 -334 11 -340 9 -14 44 -3 72 22 12 11 30 41 41 66 16 39 18 58 11 117
-41 375 -46 489 -23 550 41 103 49 150 34 195 -18 55 -47 73 -134 79 -65 6
-72 8 -84 34 -14 29 -24 32 -60 15z m136 -88 c41 -1 74 -6 85 -14 24 -18 32
-72 18 -124 -13 -46 -28 -55 -33 -19 -3 19 -9 22 -58 24 -98 5 -120 12 -139
44 -14 24 -17 39 -10 67 4 20 6 40 3 44 -3 4 -2 13 1 18 4 6 18 0 37 -15 25
-21 40 -25 96 -25z m57 -477 c3 -49 10 -99 15 -113 15 -42 30 -223 21 -260 -4
-19 -14 -45 -22 -58 -33 -53 -37 -28 -38 248 -1 160 2 270 8 270 5 0 12 -39
16 -87z M432 1091 c-36 -23 -38 -183 -2 -230 14 -20 29 -25 79 -29 33 -2 65
-9 70 -16 18 -22 35 -398 19 -442 -7 -20 -8 -44 -2 -70 8 -32 14 -40 36 -42
20 -2 31 4 44 23 15 23 16 60 15 356 -1 211 -6 339 -13 354 -13 29 -55 45
-114 45 -35 0 -46 4 -55 23 -19 36 -48 47 -77 28z m112 -87 c41 8 92 -13 100
-41 10 -36 11 -628 1 -633 -6 -3 -12 84 -15 248 -5 252 -5 254 -29 273 -16 13
-39 19 -76 19 -71 0 -88 20 -87 100 1 79 8 88 42 55 24 -23 34 -26 64 -21z"/>
</g>
</svg>
