<?xml version="1.0" standalone="no"?>
<!DOCTYPE svg PUBLIC "-//W3C//DTD SVG 20010904//EN"
 "http://www.w3.org/TR/2001/REC-SVG-20010904/DTD/svg10.dtd">
<svg version="1.0" xmlns="http://www.w3.org/2000/svg"
 width="41.000000pt" height="42.000000pt" viewBox="0 0 41.000000 42.000000"
 preserveAspectRatio="xMidYMid meet">
<metadata>
Created by potrace 1.16, written by Peter Selinger 2001-2019
</metadata>
<g transform="translate(0.000000,42.000000) scale(0.100000,-0.100000)"
fill="#000000" stroke="none">
<path d="M155 372 c-73 -26 -110 -86 -108 -176 1 -53 4 -62 39 -97 73 -75 158
-75 230 -2 33 34 45 55 50 89 8 58 -17 126 -59 159 -34 25 -115 40 -152 27z
m110 -97 c35 -34 34 -88 -1 -120 -37 -34 -87 -34 -119 1 -53 57 -16 144 60
144 25 0 44 -8 60 -25z"/>
</g>
</svg>
