<?xml version="1.0" standalone="no"?>
<!DOCTYPE svg PUBLIC "-//W3C//DTD SVG 20010904//EN"
 "http://www.w3.org/TR/2001/REC-SVG-20010904/DTD/svg10.dtd">
<svg version="1.0" xmlns="http://www.w3.org/2000/svg"
 width="90.000000pt" height="79.000000pt" viewBox="0 0 90.000000 79.000000"
 preserveAspectRatio="xMidYMid meet">
<metadata>
Created by potrace 1.16, written by Peter Selinger 2001-2019
</metadata>
<g transform="translate(0.000000,79.000000) scale(0.100000,-0.100000)"
fill="#000000" stroke="none">
<path d="M654 713 c-15 -21 -52 -63 -82 -95 -55 -57 -60 -78 -17 -78 13 0 26
-4 29 -8 3 -5 6 -87 8 -183 1 -96 7 -192 13 -213 30 -102 146 -116 230 -27 27
29 28 32 12 48 -16 16 -18 15 -41 -6 -28 -27 -69 -23 -85 7 -5 10 -11 99 -12
197 l-3 180 54 5 c35 3 57 11 64 22 17 27 -7 42 -67 43 l-52 0 -1 50 c-1 111
-7 117 -50 58z M185 602 c-42 -15 -84 -43 -104 -68 -28 -36 -28 -88 1 -108 48
-34 77 -13 93 68 10 48 13 52 47 60 65 16 116 -38 102 -109 -4 -26 -13 -36
-37 -45 -125 -47 -160 -66 -197 -106 -45 -49 -55 -78 -47 -136 6 -48 47 -94
94 -107 48 -14 96 0 159 46 35 26 44 28 44 10 0 -7 10 -24 21 -36 19 -20 29
-23 72 -18 41 3 56 11 79 36 43 49 34 82 -17 59 -16 -7 -29 -8 -35 -2 -5 5
-11 84 -13 175 -4 186 -16 227 -76 263 -34 20 -149 31 -186 18z m143 -331 c3
-99 -7 -117 -76 -127 -42 -6 -48 -4 -70 21 -20 23 -23 36 -19 68 6 46 34 78
91 106 66 32 71 28 74 -68z"/>
</g>
</svg>
