<?xml version="1.0" standalone="no"?>
<!DOCTYPE svg PUBLIC "-//W3C//DTD SVG 20010904//EN"
 "http://www.w3.org/TR/2001/REC-SVG-20010904/DTD/svg10.dtd">
<svg version="1.0" xmlns="http://www.w3.org/2000/svg"
 width="225.000000pt" height="70.000000pt" viewBox="0 0 225.000000 70.000000"
 preserveAspectRatio="xMidYMid meet">
<metadata>
Created by potrace 1.16, written by Peter Selinger 2001-2019
</metadata>
<g transform="translate(0.000000,70.000000) scale(0.100000,-0.100000)"
fill="#000000" stroke="none">
<path d="M1288 638 c-59 -20 -76 -44 -35 -50 20 -3 22 -9 25 -70 l3 -68 -59 6
c-70 8 -95 -3 -146 -64 -20 -24 -36 -45 -36 -46 0 -1 -5 -28 -11 -60 -8 -47
-7 -66 7 -109 9 -29 24 -62 33 -74 25 -34 92 -57 143 -48 24 4 60 7 81 6 39
-1 137 41 137 58 0 6 -10 13 -22 17 -13 4 -26 11 -29 16 -4 6 -7 118 -8 251
-1 132 -4 244 -7 249 -7 10 -9 10 -76 -14z m-34 -244 c25 -26 26 -31 26 -141
0 -113 0 -114 -26 -123 -41 -16 -62 -12 -94 18 -25 22 -33 38 -39 87 -12 87 4
143 49 166 45 25 52 24 84 -7z M1508 649 c-29 -16 -23 -67 8 -81 33 -15 58 -1
62 38 5 43 -32 66 -70 43z M2130 634 c-11 -12 -11 -33 -1 -107 7 -51 16 -96
21 -101 19 -19 38 17 50 95 10 70 9 84 -5 105 -18 27 -47 31 -65 8z M52 622
c-18 -12 -4 -42 23 -52 21 -8 70 -69 170 -210 37 -52 39 -59 43 -145 4 -78 2
-92 -14 -106 -11 -10 -28 -19 -39 -21 -11 -2 -20 -10 -20 -18 0 -13 22 -15
130 -15 109 0 130 2 130 15 0 8 -15 20 -33 26 -51 16 -54 24 -53 133 l1 101
40 53 c22 28 40 56 40 60 0 18 96 129 122 143 15 8 28 21 28 29 0 12 -18 15
-94 15 -105 0 -126 -11 -83 -42 34 -25 34 -30 -3 -85 -17 -24 -39 -62 -50 -84
-11 -21 -25 -39 -30 -39 -15 0 -122 169 -118 188 2 9 12 17 23 17 13 0 20 7
20 20 0 19 -7 20 -110 22 -60 2 -116 -1 -123 -5z M1510 445 c-63 -26 -72 -41
-36 -55 26 -9 26 -10 26 -127 0 -140 -4 -159 -36 -167 -13 -4 -24 -13 -24 -22
0 -13 16 -15 102 -12 105 3 137 18 84 38 -14 5 -27 11 -28 12 -1 2 -4 81 -7
177 -4 103 -10 175 -16 177 -5 1 -35 -8 -65 -21z M1745 452 c-72 -31 -80 -41
-42 -57 21 -10 22 -16 25 -135 2 -113 1 -127 -18 -152 -12 -16 -18 -33 -15
-39 8 -12 164 -8 172 4 3 4 -7 20 -21 34 -25 25 -26 30 -26 139 0 105 1 114
22 128 31 22 75 20 88 -3 5 -11 10 -69 10 -130 0 -98 -2 -113 -20 -131 -27
-27 -25 -37 8 -44 41 -8 128 -5 143 5 11 7 9 13 -11 28 -24 19 -25 26 -30 154
-5 127 -7 136 -33 170 -42 55 -102 62 -147 17 -25 -25 -28 -25 -32 2 -4 29
-23 31 -73 10z M778 453 c-34 -5 -98 -65 -98 -92 0 -36 12 -51 41 -51 30 0 49
23 49 58 0 32 26 46 63 36 30 -9 32 -13 32 -53 l0 -43 -65 -24 c-76 -29 -93
-43 -120 -99 -19 -40 -20 -46 -6 -78 14 -36 59 -67 93 -67 10 0 38 12 63 26
37 21 46 23 55 11 16 -22 52 -37 72 -30 50 17 91 93 43 80 -11 -3 -23 -1 -26
4 -3 5 -8 58 -10 117 -6 132 -15 161 -57 190 -32 21 -63 25 -129 15z m95 -219
c9 -57 -1 -91 -33 -104 -40 -17 -63 -9 -74 23 -14 37 8 76 54 99 46 24 46 24
53 -18z"/>
</g>
</svg>
