<?xml version="1.0" standalone="no"?>
<!DOCTYPE svg PUBLIC "-//W3C//DTD SVG 20010904//EN"
 "http://www.w3.org/TR/2001/REC-SVG-20010904/DTD/svg10.dtd">
<svg version="1.0" xmlns="http://www.w3.org/2000/svg"
 width="52.000000pt" height="93.000000pt" viewBox="0 0 52.000000 93.000000"
 preserveAspectRatio="xMidYMid meet">
<metadata>
Created by potrace 1.16, written by Peter Selinger 2001-2019
</metadata>
<g transform="translate(0.000000,93.000000) scale(0.100000,-0.100000)"
fill="#000000" stroke="none">
<path d="M163 882 c-31 -20 -46 -154 -22 -205 16 -36 60 -57 117 -57 29 0 54
-5 58 -12 4 -7 9 -66 10 -132 1 -67 5 -133 9 -148 4 -14 2 -35 -4 -46 -9 -18
-25 -21 -129 -27 l-119 -7 -22 -97 c-12 -53 -21 -100 -21 -104 0 -5 90 -7 201
-6 200 2 200 2 216 26 23 35 19 121 -11 243 -26 105 -26 105 -12 240 16 155
10 210 -27 248 -22 22 -37 26 -107 30 -80 5 -82 6 -92 33 -10 29 -23 35 -45
21z m141 -152 c29 -10 35 -30 10 -30 -23 0 -55 20 -49 31 8 11 8 11 39 -1z
m66 -559 c0 -33 -24 -42 -101 -39 -97 4 -100 21 -7 40 102 21 108 21 108 -1z"/>
</g>
</svg>
