<?xml version="1.0" standalone="no"?>
<!DOCTYPE svg PUBLIC "-//W3C//DTD SVG 20010904//EN"
 "http://www.w3.org/TR/2001/REC-SVG-20010904/DTD/svg10.dtd">
<svg version="1.0" xmlns="http://www.w3.org/2000/svg"
 width="40.000000pt" height="105.000000pt" viewBox="0 0 40.000000 105.000000"
 preserveAspectRatio="xMidYMid meet">
<metadata>
Created by potrace 1.16, written by Peter Selinger 2001-2019
</metadata>
<g transform="translate(0.000000,105.000000) scale(0.100000,-0.100000)"
fill="#000000" stroke="none">
<path d="M84 1002 c-32 -21 -50 -106 -34 -159 22 -71 43 -87 123 -91 40 -2 76
-7 80 -12 5 -4 2 -34 -7 -66 -18 -73 -19 -96 -17 -416 l1 -258 55 0 c41 0 57
4 62 16 3 8 1 57 -5 107 -6 51 -13 124 -17 162 -3 39 -7 84 -9 100 -8 73 -19
181 -18 195 0 26 19 103 41 162 26 72 27 114 1 156 -25 40 -54 52 -130 52 -55
0 -59 2 -72 30 -13 29 -32 37 -54 22z"/>
</g>
</svg>
