<?xml version="1.0" standalone="no"?>
<!DOCTYPE svg PUBLIC "-//W3C//DTD SVG 20010904//EN"
 "http://www.w3.org/TR/2001/REC-SVG-20010904/DTD/svg10.dtd">
<svg version="1.0" xmlns="http://www.w3.org/2000/svg"
 width="183.000000pt" height="50.000000pt" viewBox="0 0 183.000000 50.000000"
 preserveAspectRatio="xMidYMid meet">
<metadata>
Created by potrace 1.16, written by Peter Selinger 2001-2019
</metadata>
<g transform="translate(0.000000,50.000000) scale(0.100000,-0.100000)"
fill="#000000" stroke="none">
<path d="M1226 450 c-113 -35 -107 -154 11 -220 65 -36 103 -68 103 -85 0 -20
-35 -45 -62 -45 -31 0 -73 31 -90 67 -26 53 -48 32 -48 -48 0 -47 12 -55 88
-62 123 -10 172 24 172 123 l0 57 -47 30 c-27 17 -67 42 -90 57 -30 18 -43 33
-43 49 0 54 57 63 101 16 16 -17 29 -38 29 -46 0 -34 25 -3 31 38 8 59 3 69
-36 69 -18 0 -45 2 -61 5 -16 2 -42 0 -58 -5z M1579 453 c-43 -7 -105 -71
-119 -123 -22 -83 -15 -142 25 -200 36 -52 73 -73 130 -74 72 -2 175 93 175
160 0 22 -30 16 -41 -9 -5 -12 -26 -33 -45 -46 -41 -28 -94 -24 -130 10 -23
21 -59 108 -49 117 4 5 35 6 212 11 42 1 42 1 37 34 -9 46 -44 94 -81 112 -30
14 -59 16 -114 8z m70 -67 c13 -14 21 -30 19 -36 -3 -11 -60 -16 -115 -11 -21
2 -15 39 9 55 32 23 61 20 87 -8z M605 441 c-81 -32 -84 -34 -111 -101 -21
-54 -25 -74 -20 -119 7 -59 38 -119 78 -150 30 -24 107 -30 149 -13 59 24 134
131 109 156 -9 8 -19 2 -41 -26 -76 -93 -187 -62 -214 61 -6 30 -6 31 32 32
140 2 203 6 208 11 14 13 -9 79 -39 113 -26 30 -39 36 -81 40 -27 2 -59 1 -70
-4z m63 -57 c12 -8 22 -24 22 -35 0 -17 -7 -19 -65 -19 -36 0 -65 3 -65 6 0 3
9 19 21 35 23 33 53 37 87 13z M872 429 c-46 -20 -52 -42 -14 -47 21 -3 22 -9
23 -90 2 -166 0 -175 -29 -199 -16 -14 -23 -26 -17 -31 15 -13 198 1 202 15 3
7 -7 15 -22 19 -15 4 -30 17 -36 31 -15 41 -11 191 7 229 9 19 18 34 19 34 1
0 16 -7 31 -15 16 -8 34 -15 39 -15 34 1 54 50 30 74 -21 20 -88 21 -105 1 -7
-8 -16 -15 -21 -15 -5 0 -9 7 -9 15 0 21 -45 18 -98 -6z M45 431 c-3 -5 5 -20
18 -33 13 -13 39 -57 59 -98 36 -74 44 -93 97 -223 14 -36 42 -32 56 8 5 17
16 36 22 43 7 7 13 20 13 28 0 26 91 239 106 247 8 4 14 15 14 22 0 12 -15 15
-65 15 -51 0 -65 -3 -65 -15 0 -8 6 -15 14 -15 22 0 25 -22 10 -65 -8 -22 -22
-60 -30 -85 -20 -56 -31 -69 -39 -44 -4 10 -20 51 -36 89 -30 73 -36 105 -19
105 6 0 10 7 10 15 0 12 -15 15 -79 15 -44 0 -82 -4 -86 -9z"/>
</g>
</svg>
