<?xml version="1.0" standalone="no"?>
<!DOCTYPE svg PUBLIC "-//W3C//DTD SVG 20010904//EN"
 "http://www.w3.org/TR/2001/REC-SVG-20010904/DTD/svg10.dtd">
<svg version="1.0" xmlns="http://www.w3.org/2000/svg"
 width="49.000000pt" height="80.000000pt" viewBox="0 0 49.000000 80.000000"
 preserveAspectRatio="xMidYMid meet">
<metadata>
Created by potrace 1.16, written by Peter Selinger 2001-2019
</metadata>
<g transform="translate(0.000000,80.000000) scale(0.100000,-0.100000)"
fill="#000000" stroke="none">
<path d="M215 750 c-95 -7 -141 -29 -161 -76 -17 -40 -17 -126 -1 -171 15 -40
71 -83 109 -83 40 0 48 -28 48 -168 0 -130 -11 -162 -56 -162 -24 0 -28 -7
-19 -32 6 -14 113 -17 135 -3 8 5 11 99 9 328 -1 233 1 322 10 325 8 3 11 -43
13 -160 3 -307 5 -463 7 -481 1 -16 10 -18 69 -15 76 3 91 23 35 47 l-33 15 0
150 c-1 83 -3 206 -5 273 -5 135 2 170 37 175 15 2 23 10 23 23 0 18 -7 20
-70 20 -38 1 -106 -2 -150 -5z m-13 -127 c2 -116 0 -154 -6 -160 -10 -10 -57
28 -66 53 -6 14 -10 51 -10 83 0 50 4 62 26 85 46 45 54 36 56 -61z"/>
</g>
</svg>
