<?xml version="1.0" standalone="no"?>
<!DOCTYPE svg PUBLIC "-//W3C//DTD SVG 20010904//EN"
 "http://www.w3.org/TR/2001/REC-SVG-20010904/DTD/svg10.dtd">
<svg version="1.0" xmlns="http://www.w3.org/2000/svg"
 width="63.000000pt" height="105.000000pt" viewBox="0 0 63.000000 105.000000"
 preserveAspectRatio="xMidYMid meet">
<metadata>
Created by potrace 1.16, written by Peter Selinger 2001-2019
</metadata>
<g transform="translate(0.000000,105.000000) scale(0.100000,-0.100000)"
fill="#000000" stroke="none">
<path d="M67 1039 c7 -7 5 -31 -8 -82 -21 -80 -25 -206 -8 -258 24 -69 24 -69
209 -69 188 0 201 -5 214 -75 11 -57 -23 -111 -119 -186 -44 -35 -93 -72 -108
-82 -15 -10 -31 -26 -34 -35 -3 -9 -13 -25 -21 -34 -8 -10 -15 -39 -15 -67 -1
-40 4 -56 22 -75 66 -70 157 -11 131 85 -6 22 -8 48 -5 58 3 10 34 38 68 62
87 61 162 138 178 184 9 27 14 85 14 177 l0 138 -31 31 -32 31 -194 -1 c-164
-2 -197 1 -208 13 -16 20 -6 75 26 138 13 26 24 50 24 53 0 3 -26 5 -57 5 -40
0 -54 -3 -46 -11z m408 -305 c25 -25 4 -38 -41 -25 -22 6 -76 11 -120 11 -92
0 -146 8 -138 21 3 5 68 9 144 9 115 0 141 -3 155 -16z"/>
</g>
</svg>
