<?xml version="1.0" standalone="no"?>
<!DOCTYPE svg PUBLIC "-//W3C//DTD SVG 20010904//EN"
 "http://www.w3.org/TR/2001/REC-SVG-20010904/DTD/svg10.dtd">
<svg version="1.0" xmlns="http://www.w3.org/2000/svg"
 width="69.000000pt" height="93.000000pt" viewBox="0 0 69.000000 93.000000"
 preserveAspectRatio="xMidYMid meet">
<metadata>
Created by potrace 1.16, written by Peter Selinger 2001-2019
</metadata>
<g transform="translate(0.000000,93.000000) scale(0.100000,-0.100000)"
fill="#000000" stroke="none">
<path d="M69 864 c-20 -22 -24 -36 -24 -89 0 -67 18 -106 61 -129 10 -6 21
-12 23 -13 2 -2 -3 -11 -11 -20 -47 -56 -53 -88 -58 -328 -3 -126 -3 -234 1
-238 9 -12 52 2 85 28 33 26 31 3 19 316 -9 240 -10 238 226 243 90 2 167 2
170 0 4 -2 -3 -23 -15 -46 -20 -41 -21 -56 -19 -288 l1 -245 24 -3 c13 -1 36
8 53 22 l30 24 0 124 c0 67 -6 156 -14 196 -14 69 -13 79 7 161 30 121 29 191
-2 228 l-24 28 -209 1 c-114 1 -218 2 -231 3 -14 1 -26 10 -32 26 -12 32 -30
32 -61 -1z m199 -135 c-26 -15 -90 -16 -95 -1 -3 9 11 12 54 12 43 -1 54 -3
41 -11z"/>
</g>
</svg>
