<?xml version="1.0" standalone="no"?>
<!DOCTYPE svg PUBLIC "-//W3C//DTD SVG 20010904//EN"
 "http://www.w3.org/TR/2001/REC-SVG-20010904/DTD/svg10.dtd">
<svg version="1.0" xmlns="http://www.w3.org/2000/svg"
 width="108.000000pt" height="93.000000pt" viewBox="0 0 108.000000 93.000000"
 preserveAspectRatio="xMidYMid meet">
<metadata>
Created by potrace 1.16, written by Peter Selinger 2001-2019
</metadata>
<g transform="translate(0.000000,93.000000) scale(0.100000,-0.100000)"
fill="#000000" stroke="none">
<path d="M81 877 c-6 -8 -18 -34 -26 -58 -29 -80 1 -165 65 -185 14 -4 121 -7
238 -5 217 2 223 1 202 -37 -30 -56 -40 -95 -42 -167 -3 -115 4 -228 14 -242
6 -7 5 -33 0 -65 -6 -29 -8 -57 -5 -61 9 -14 76 3 101 26 19 18 22 30 22 106
0 47 -7 134 -17 193 -18 112 -17 118 23 233 8 23 14 66 14 97 0 46 -5 62 -26
87 l-25 31 -232 2 -232 3 -13 28 c-14 29 -42 36 -61 14z M731 848 c-14 -33
-16 -57 -11 -105 8 -89 30 -109 127 -118 65 -7 76 -10 83 -30 13 -33 2 -63
-42 -123 -43 -58 -47 -95 -12 -100 29 -4 96 71 119 134 10 27 22 54 26 59 19
26 20 104 3 159 -26 81 -74 116 -159 116 -56 0 -63 2 -73 25 -17 37 -40 31
-61 -17z m167 -126 c5 -15 -13 -15 -39 -1 -11 5 -17 14 -14 19 7 11 48 -3 53
-18z M118 434 c-50 -27 -57 -54 -52 -223 2 -84 7 -157 10 -162 9 -15 57 1 84
27 25 24 25 27 23 166 -2 111 1 147 12 165 8 12 15 27 15 33 0 15 -61 11 -92
-6z"/>
</g>
</svg>
