<?xml version="1.0" standalone="no"?>
<!DOCTYPE svg PUBLIC "-//W3C//DTD SVG 20010904//EN"
 "http://www.w3.org/TR/2001/REC-SVG-20010904/DTD/svg10.dtd">
<svg version="1.0" xmlns="http://www.w3.org/2000/svg"
 width="40.000000pt" height="40.000000pt" viewBox="0 0 40.000000 40.000000"
 preserveAspectRatio="xMidYMid meet">
<metadata>
Created by potrace 1.16, written by Peter Selinger 2001-2019
</metadata>
<g transform="translate(0.000000,40.000000) scale(0.100000,-0.100000)"
fill="#000000" stroke="none">
<path d="M95 316 c-50 -52 -59 -90 -38 -164 13 -46 21 -58 61 -84 39 -25 55
-29 93 -25 83 7 142 75 143 162 1 97 -64 155 -171 155 -42 0 -51 -4 -88 -44z
m139 -33 c88 -41 61 -163 -35 -163 -39 0 -70 27 -84 72 -10 30 13 75 48 92 39
19 30 19 71 -1z"/>
</g>
</svg>
