<?xml version="1.0" standalone="no"?>
<!DOCTYPE svg PUBLIC "-//W3C//DTD SVG 20010904//EN"
 "http://www.w3.org/TR/2001/REC-SVG-20010904/DTD/svg10.dtd">
<svg version="1.0" xmlns="http://www.w3.org/2000/svg"
 width="100.000000pt" height="94.000000pt" viewBox="0 0 100.000000 94.000000"
 preserveAspectRatio="xMidYMid meet">
<metadata>
Created by potrace 1.16, written by Peter Selinger 2001-2019
</metadata>
<g transform="translate(0.000000,94.000000) scale(0.100000,-0.100000)"
fill="#000000" stroke="none">
<path d="M688 883 c-23 -27 -31 -95 -18 -158 10 -46 17 -60 43 -76 18 -10 50
-19 73 -19 74 0 71 8 78 -304 3 -154 9 -283 15 -289 10 -10 41 3 61 28 20 24
15 674 -5 722 -16 37 -42 50 -120 59 -42 5 -56 11 -66 30 -15 28 -40 31 -61 7z
m137 -144 c4 -6 5 -13 2 -16 -8 -7 -47 7 -47 18 0 13 37 11 45 -2z M74 865
c-42 -65 -37 -171 11 -212 25 -22 34 -23 196 -23 l170 0 25 -27 c35 -37 47
-88 43 -181 -3 -62 -9 -87 -25 -108 -45 -61 -55 -64 -225 -65 -85 0 -160 -4
-167 -8 -15 -9 -62 -135 -62 -165 0 -13 7 -26 15 -29 8 -4 96 -4 197 -1 227 7
250 15 295 101 37 70 67 206 65 288 -5 160 -41 314 -88 372 l-22 28 -182 3
c-181 4 -181 4 -192 28 -14 31 -33 31 -54 -1z m201 -122 l40 -7 -44 -6 c-49
-7 -91 -2 -91 11 0 11 40 11 95 2z m152 -54 c-14 -8 -22 -8 -30 0 -8 8 -3 11
19 11 25 -1 27 -2 11 -11z"/>
</g>
</svg>
