<?xml version="1.0" standalone="no"?>
<!DOCTYPE svg PUBLIC "-//W3C//DTD SVG 20010904//EN"
 "http://www.w3.org/TR/2001/REC-SVG-20010904/DTD/svg10.dtd">
<svg version="1.0" xmlns="http://www.w3.org/2000/svg"
 width="40.000000pt" height="61.000000pt" viewBox="0 0 40.000000 61.000000"
 preserveAspectRatio="xMidYMid meet">
<metadata>
Created by potrace 1.16, written by Peter Selinger 2001-2019
</metadata>
<g transform="translate(0.000000,61.000000) scale(0.100000,-0.100000)"
fill="#000000" stroke="none">
<path d="M66 538 c-17 -39 -20 -63 -18 -131 2 -39 8 -54 31 -78 27 -26 36 -29
94 -29 74 0 91 -12 91 -65 0 -23 -12 -49 -43 -89 -76 -101 -35 -147 50 -55
102 111 119 313 32 389 -30 27 -41 30 -103 30 -65 0 -70 2 -82 27 -19 39 -36
39 -52 1z m154 -138 c0 -5 -6 -10 -14 -10 -8 0 -18 5 -21 10 -3 6 3 10 14 10
12 0 21 -4 21 -10z"/>
</g>
</svg>
