<?xml version="1.0" standalone="no"?>
<!DOCTYPE svg PUBLIC "-//W3C//DTD SVG 20010904//EN"
 "http://www.w3.org/TR/2001/REC-SVG-20010904/DTD/svg10.dtd">
<svg version="1.0" xmlns="http://www.w3.org/2000/svg"
 width="98.000000pt" height="95.000000pt" viewBox="0 0 98.000000 95.000000"
 preserveAspectRatio="xMidYMid meet">
<metadata>
Created by potrace 1.16, written by Peter Selinger 2001-2019
</metadata>
<g transform="translate(0.000000,95.000000) scale(0.100000,-0.100000)"
fill="#000000" stroke="none">
<path d="M50 881 c-7 -38 -11 -103 -8 -146 4 -66 9 -80 32 -103 26 -27 27 -27
193 -29 193 -3 198 -5 198 -82 0 -58 -6 -66 -110 -145 -125 -95 -161 -135
-169 -188 -17 -110 63 -176 139 -116 27 21 27 24 21 89 l-6 67 75 59 c41 32
86 66 100 76 14 10 37 41 52 70 23 45 28 67 31 161 5 123 -7 176 -46 207 -22
17 -42 19 -212 19 -182 0 -188 1 -193 21 -3 11 1 39 9 61 17 50 18 48 -5 48
-32 0 -54 -118 -28 -154 11 -15 33 -17 200 -17 186 1 188 1 213 -24 23 -23 24
-30 24 -137 0 -90 -4 -122 -20 -155 -19 -42 -95 -123 -116 -123 -5 0 -35 -22
-65 -49 l-54 -49 0 -73 c0 -73 0 -74 -27 -77 -20 -2 -31 4 -43 22 -39 59 12
136 153 235 35 24 74 58 87 75 53 70 38 183 -29 211 -21 9 -81 13 -178 13 -98
0 -153 3 -162 11 -36 30 -36 181 1 277 4 10 -2 14 -20 14 -23 0 -26 -5 -37
-69z M673 860 c-13 -11 -25 -39 -29 -66 -8 -53 10 -146 31 -164 7 -6 42 -15
76 -20 34 -5 65 -13 70 -17 13 -14 22 -150 23 -353 1 -188 2 -195 21 -198 32
-4 65 33 66 76 1 55 -3 539 -5 600 -3 73 -26 94 -106 100 -53 4 -63 8 -81 33
-24 34 -38 36 -66 9z m49 -55 c16 -21 28 -25 69 -25 40 0 55 -5 74 -25 25 -24
25 -25 26 -237 0 -117 2 -257 4 -310 4 -80 2 -98 -10 -98 -12 0 -15 42 -17
250 -3 290 -1 281 -97 288 -77 6 -94 23 -92 93 1 53 8 89 18 89 3 0 14 -11 25
-25z"/>
</g>
</svg>
