<?xml version="1.0" standalone="no"?>
<!DOCTYPE svg PUBLIC "-//W3C//DTD SVG 20010904//EN"
 "http://www.w3.org/TR/2001/REC-SVG-20010904/DTD/svg10.dtd">
<svg version="1.0" xmlns="http://www.w3.org/2000/svg"
 width="29.000000pt" height="67.000000pt" viewBox="0 0 29.000000 67.000000"
 preserveAspectRatio="xMidYMid meet">
<metadata>
Created by potrace 1.16, written by Peter Selinger 2001-2019
</metadata>
<g transform="translate(0.000000,67.000000) scale(0.100000,-0.100000)"
fill="#000000" stroke="none">
<path d="M106 617 c-25 -18 -17 -58 16 -76 24 -14 28 -14 47 3 26 24 26 41 1
66 -23 23 -39 25 -64 7z M115 426 c-16 -8 -38 -17 -47 -20 -26 -8 -22 -34 4
-38 23 -3 23 -5 23 -143 0 -139 0 -139 -24 -145 -27 -6 -39 -25 -19 -31 7 -3
55 -3 106 -1 94 3 117 16 70 37 -31 14 -36 40 -37 208 -1 146 -1 147 -23 147
-13 0 -36 -7 -53 -14z"/>
</g>
</svg>
