<?xml version="1.0" standalone="no"?>
<!DOCTYPE svg PUBLIC "-//W3C//DTD SVG 20010904//EN"
 "http://www.w3.org/TR/2001/REC-SVG-20010904/DTD/svg10.dtd">
<svg version="1.0" xmlns="http://www.w3.org/2000/svg"
 width="37.000000pt" height="95.000000pt" viewBox="0 0 37.000000 95.000000"
 preserveAspectRatio="xMidYMid meet">
<metadata>
Created by potrace 1.16, written by Peter Selinger 2001-2019
</metadata>
<g transform="translate(0.000000,95.000000) scale(0.100000,-0.100000)"
fill="#000000" stroke="none">
<path d="M71 907 c-19 -24 -34 -112 -27 -162 10 -63 40 -91 107 -97 89 -9 88
-7 90 -278 0 -129 3 -257 6 -283 4 -42 8 -48 27 -45 12 2 28 17 39 38 16 32
17 61 12 364 -4 181 -10 338 -15 350 -15 40 -48 60 -109 64 -51 4 -62 8 -80
33 -24 32 -33 35 -50 16z m129 -157 c0 -5 -6 -10 -14 -10 -8 0 -18 5 -21 10
-3 6 3 10 14 10 12 0 21 -4 21 -10z"/>
</g>
</svg>
