<?xml version="1.0" standalone="no"?>
<!DOCTYPE svg PUBLIC "-//W3C//DTD SVG 20010904//EN"
 "http://www.w3.org/TR/2001/REC-SVG-20010904/DTD/svg10.dtd">
<svg version="1.0" xmlns="http://www.w3.org/2000/svg"
 width="67.000000pt" height="92.000000pt" viewBox="0 0 67.000000 92.000000"
 preserveAspectRatio="xMidYMid meet">
<metadata>
Created by potrace 1.16, written by Peter Selinger 2001-2019
</metadata>
<g transform="translate(0.000000,92.000000) scale(0.100000,-0.100000)"
fill="#000000" stroke="none">
<path d="M96 851 c-38 -72 -28 -162 21 -200 l25 -20 -36 -58 c-28 -46 -39 -77
-48 -141 -14 -92 -9 -102 44 -102 18 0 29 6 33 20 16 51 92 59 122 14 10 -16
25 -24 44 -24 l29 0 0 74 c0 91 -13 110 -90 129 -45 11 -54 17 -52 33 9 48 28
54 157 54 146 0 165 -10 190 -92 30 -102 10 -204 -51 -257 l-34 -31 -171 1
c-131 1 -175 -2 -184 -13 -15 -15 -55 -146 -55 -178 0 -21 0 -21 243 -19 133
1 249 4 258 6 10 3 20 24 27 56 6 29 21 93 33 142 16 64 22 123 23 205 1 130
-14 216 -54 306 -36 80 -49 84 -251 84 -148 0 -159 1 -169 20 -15 28 -37 25
-54 -9z m343 -117 c2 -2 2 -6 0 -8 -7 -7 -238 -10 -245 -3 -3 3 -3 11 1 18 6
9 38 10 124 5 63 -4 117 -9 120 -12z m21 -583 c0 -12 -220 -26 -250 -16 -18 6
-20 9 -9 16 18 12 259 12 259 0z"/>
</g>
</svg>
