<?xml version="1.0" standalone="no"?>
<!DOCTYPE svg PUBLIC "-//W3C//DTD SVG 20010904//EN"
 "http://www.w3.org/TR/2001/REC-SVG-20010904/DTD/svg10.dtd">
<svg version="1.0" xmlns="http://www.w3.org/2000/svg"
 width="68.000000pt" height="91.000000pt" viewBox="0 0 68.000000 91.000000"
 preserveAspectRatio="xMidYMid meet">
<metadata>
Created by potrace 1.16, written by Peter Selinger 2001-2019
</metadata>
<g transform="translate(0.000000,91.000000) scale(0.100000,-0.100000)"
fill="#000000" stroke="none">
<path d="M74 859 c-15 -17 -19 -36 -19 -93 0 -65 3 -77 29 -110 l29 -38 -31
-29 c-40 -37 -46 -94 -37 -327 9 -244 -19 -224 302 -220 227 3 254 5 270 21
16 16 18 45 19 330 2 280 0 316 -16 352 -35 79 -37 80 -265 83 -203 3 -204 4
-220 28 -19 30 -36 30 -61 3z m194 -128 c10 -6 5 -11 -19 -20 -57 -20 -102
-10 -84 19 8 12 85 13 103 1z m237 -11 c3 -5 -3 -10 -14 -10 -11 0 -23 5 -26
10 -3 6 3 10 14 10 11 0 23 -4 26 -10z m-10 -120 c35 -37 42 -77 35 -216 -4
-74 -9 -108 -20 -118 -12 -13 -47 -16 -175 -17 -141 0 -161 1 -172 17 -18 25
-18 234 1 277 29 68 68 84 212 86 88 1 91 0 119 -29z m35 -444 c0 -8 -8 -17
-17 -20 -14 -4 -248 -2 -340 3 -7 1 -13 6 -13 12 0 7 30 8 93 4 50 -3 124 -2
162 3 105 14 115 14 115 -2z"/>
</g>
</svg>
