<?xml version="1.0" standalone="no"?>
<!DOCTYPE svg PUBLIC "-//W3C//DTD SVG 20010904//EN"
 "http://www.w3.org/TR/2001/REC-SVG-20010904/DTD/svg10.dtd">
<svg version="1.0" xmlns="http://www.w3.org/2000/svg"
 width="38.000000pt" height="97.000000pt" viewBox="0 0 38.000000 97.000000"
 preserveAspectRatio="xMidYMid meet">
<metadata>
Created by potrace 1.16, written by Peter Selinger 2001-2019
</metadata>
<g transform="translate(0.000000,97.000000) scale(0.100000,-0.100000)"
fill="#000000" stroke="none">
<path d="M72 917 c-23 -27 -30 -95 -17 -162 6 -36 17 -71 23 -77 6 -6 39 -15
74 -20 34 -4 69 -15 78 -24 13 -12 16 -61 18 -297 2 -155 7 -286 12 -290 15
-17 52 5 66 39 16 38 19 236 7 544 -6 169 -8 185 -28 208 -19 22 -33 27 -88
30 -58 4 -67 7 -86 33 -23 31 -42 36 -59 16z m132 -143 c17 -7 22 -34 7 -34
-21 0 -41 13 -41 26 0 15 10 17 34 8z"/>
</g>
</svg>
