<?xml version="1.0" standalone="no"?>
<!DOCTYPE svg PUBLIC "-//W3C//DTD SVG 20010904//EN"
 "http://www.w3.org/TR/2001/REC-SVG-20010904/DTD/svg10.dtd">
<svg version="1.0" xmlns="http://www.w3.org/2000/svg"
 width="255.000000pt" height="67.000000pt" viewBox="0 0 255.000000 67.000000"
 preserveAspectRatio="xMidYMid meet">
<metadata>
Created by potrace 1.16, written by Peter Selinger 2001-2019
</metadata>
<g transform="translate(0.000000,67.000000) scale(0.100000,-0.100000)"
fill="#000000" stroke="none">
<path d="M1506 614 c-22 -22 -20 -41 8 -59 44 -29 100 13 73 55 -14 24 -59 26
-81 4z M1818 449 c-70 -40 -111 -111 -112 -195 -2 -112 55 -184 156 -198 127
-19 212 61 212 201 0 64 -3 77 -29 115 -17 23 -44 50 -60 59 -35 21 -142 32
-167 18z m114 -47 c15 -2 26 -8 23 -12 -2 -4 5 -30 15 -59 44 -114 6 -241 -71
-241 -34 0 -50 16 -80 77 -32 65 -34 180 -4 213 24 27 55 41 75 33 8 -3 27 -8
42 -11z M2314 446 c-18 -8 -35 -19 -38 -25 -11 -18 -26 -13 -26 9 0 16 -7 20
-34 20 -19 0 -38 -4 -41 -10 -3 -5 -15 -10 -26 -10 -30 0 -37 -31 -11 -48 21
-14 22 -22 22 -143 0 -118 -2 -130 -20 -141 -43 -27 -23 -38 65 -38 87 0 104
9 68 36 -15 10 -19 32 -21 129 -4 130 0 141 56 151 54 10 62 -8 62 -146 0
-104 -2 -119 -20 -135 -11 -10 -20 -22 -20 -27 0 -4 41 -8 90 -8 73 0 90 3 90
15 0 8 -7 15 -15 15 -26 0 -35 37 -35 143 0 126 -5 154 -33 188 -27 33 -72 43
-113 25z M925 443 c-11 -3 -24 -9 -30 -13 -5 -4 -25 -11 -42 -15 -41 -8 -43
-30 -5 -43 l28 -10 3 -106 c3 -122 -10 -176 -41 -176 -11 0 -18 -5 -16 -12 3
-9 36 -14 107 -16 94 -2 102 -1 99 15 -2 10 -12 19 -23 22 -31 5 -35 19 -35
137 0 136 9 156 64 136 44 -16 76 -2 76 33 0 49 -73 72 -110 35 -11 -11 -24
-20 -30 -20 -5 0 -10 9 -10 20 0 21 -1 21 -35 13z M1215 441 c-42 -18 -75 -59
-75 -93 1 -61 29 -98 108 -142 75 -42 96 -71 72 -101 -18 -21 -73 -19 -102 5
-14 10 -31 33 -38 50 -7 16 -19 30 -27 30 -11 0 -13 -14 -11 -67 l3 -68 65 -6
c112 -11 182 24 196 97 10 52 -19 90 -104 138 -84 48 -99 67 -83 102 8 17 19
24 40 24 28 0 54 -22 88 -76 10 -17 13 -17 22 -4 12 17 14 80 3 96 -9 15 -131
26 -157 15z M1502 428 c-55 -22 -62 -38 -21 -48 24 -6 24 -8 27 -134 3 -133
-3 -156 -39 -156 -19 0 -35 -17 -25 -27 6 -7 174 -11 199 -5 23 6 22 32 -3 32
-33 0 -40 32 -40 199 0 185 4 179 -98 139z M558 421 c-14 -12 -30 -21 -35 -21
-13 0 -60 -92 -67 -132 -12 -69 30 -180 79 -206 37 -20 100 -25 140 -12 55 19
125 99 125 145 0 25 -16 18 -57 -25 -47 -50 -93 -60 -139 -31 -35 21 -64 71
-64 108 0 21 5 23 48 24 26 1 52 2 57 4 6 1 38 3 73 3 62 2 62 2 62 31 0 33
-34 92 -64 111 -11 7 -44 14 -75 17 -47 4 -60 2 -83 -16z m103 -57 c30 -32 18
-41 -54 -46 -53 -3 -57 -1 -57 19 0 26 46 62 71 56 9 -3 28 -16 40 -29z M50
420 c-12 -8 -11 -13 10 -37 25 -27 80 -138 137 -276 28 -68 41 -79 62 -53 11
13 58 128 111 271 10 27 28 56 39 64 41 27 26 41 -44 41 -51 0 -65 -3 -65 -15
0 -8 7 -15 15 -15 8 0 15 -9 15 -19 0 -25 -60 -191 -68 -191 -4 0 -25 43 -46
96 -29 71 -36 98 -27 107 27 27 12 37 -56 37 -38 0 -75 -5 -83 -10z"/>
</g>
</svg>
