<?xml version="1.0" standalone="no"?>
<!DOCTYPE svg PUBLIC "-//W3C//DTD SVG 20010904//EN"
 "http://www.w3.org/TR/2001/REC-SVG-20010904/DTD/svg10.dtd">
<svg version="1.0" xmlns="http://www.w3.org/2000/svg"
 width="68.000000pt" height="125.000000pt" viewBox="0 0 68.000000 125.000000"
 preserveAspectRatio="xMidYMid meet">
<metadata>
Created by potrace 1.16, written by Peter Selinger 2001-2019
</metadata>
<g transform="translate(0.000000,125.000000) scale(0.100000,-0.100000)"
fill="#000000" stroke="none">
<path d="M56 1191 c-12 -14 -16 -32 -14 -67 3 -44 6 -51 35 -64 38 -17 41 -36
17 -101 -22 -61 -27 -192 -9 -255 20 -70 33 -74 233 -72 109 1 167 -3 174 -10
6 -6 17 -28 24 -49 25 -71 -5 -126 -114 -204 -31 -23 -82 -67 -113 -99 -47
-47 -57 -65 -63 -103 -15 -97 69 -165 132 -107 24 22 28 56 13 108 -6 18 -8
39 -5 46 3 7 32 35 66 62 188 151 201 174 201 351 0 212 -2 213 -273 213
l-200 0 0 43 c0 23 11 65 24 92 30 66 38 112 26 154 -11 40 -24 51 -62 51 -15
0 -33 7 -42 15 -19 20 -29 19 -50 -4z m457 -460 c19 -19 -1 -24 -47 -12 -25 6
-93 11 -151 11 -58 0 -104 3 -102 8 8 12 287 6 300 -7z"/>
</g>
</svg>
