<?xml version="1.0" standalone="no"?>
<!DOCTYPE svg PUBLIC "-//W3C//DTD SVG 20010904//EN"
 "http://www.w3.org/TR/2001/REC-SVG-20010904/DTD/svg10.dtd">
<svg version="1.0" xmlns="http://www.w3.org/2000/svg"
 width="24.000000pt" height="35.000000pt" viewBox="0 0 24.000000 35.000000"
 preserveAspectRatio="xMidYMid meet">
<metadata>
Created by potrace 1.16, written by Peter Selinger 2001-2019
</metadata>
<g transform="translate(0.000000,35.000000) scale(0.100000,-0.100000)"
fill="#000000" stroke="none">
<path d="M7 313 c-10 -10 -8 -43 2 -43 9 0 21 24 21 41 0 11 -14 12 -23 2z
M49 308 c-1 -2 -3 -14 -5 -28 -4 -37 4 -57 26 -63 12 -3 18 -11 15 -19 -3 -8
-2 -25 3 -39 7 -17 4 -36 -9 -67 -23 -52 -23 -52 -5 -52 8 0 17 11 20 24 6 23
36 45 36 26 0 -6 5 -10 11 -10 6 0 9 9 6 20 -3 11 -1 23 4 26 5 3 9 14 9 24 0
10 9 22 20 25 11 3 20 11 20 17 0 5 -7 8 -15 5 -8 -4 -17 -2 -20 3 -17 27 -47
-21 -39 -61 2 -13 -2 -8 -10 11 -19 45 -19 50 -2 50 30 0 27 23 -8 53 -20 18
-36 38 -36 45 0 10 -17 18 -21 10z M140 44 c0 -9 5 -14 12 -12 18 6 21 28 4
28 -9 0 -16 -7 -16 -16z"/>
</g>
</svg>
