<?xml version="1.0" standalone="no"?>
<!DOCTYPE svg PUBLIC "-//W3C//DTD SVG 20010904//EN"
 "http://www.w3.org/TR/2001/REC-SVG-20010904/DTD/svg10.dtd">
<svg version="1.0" xmlns="http://www.w3.org/2000/svg"
 width="72.000000pt" height="91.000000pt" viewBox="0 0 72.000000 91.000000"
 preserveAspectRatio="xMidYMid meet">
<metadata>
Created by potrace 1.16, written by Peter Selinger 2001-2019
</metadata>
<g transform="translate(0.000000,91.000000) scale(0.100000,-0.100000)"
fill="#000000" stroke="none">
<path d="M61 851 c-19 -34 -25 -128 -11 -161 14 -33 55 -60 93 -60 13 0 32 -6
42 -14 19 -13 18 -15 -6 -52 -53 -82 -107 -265 -96 -323 3 -14 2 -60 -3 -101
-5 -49 -5 -79 2 -88 14 -16 57 -16 63 1 2 6 9 69 14 139 15 175 36 251 90 325
33 45 88 79 136 84 46 5 137 -19 168 -44 21 -17 30 -36 38 -82 15 -81 8 -203
-11 -215 -8 -5 -79 -10 -157 -10 -128 0 -143 -2 -152 -18 -16 -30 -43 -161
-37 -177 4 -12 39 -15 199 -15 144 0 197 3 204 13 25 31 49 370 35 481 -19
145 -81 233 -205 290 -46 21 -67 15 -67 -19 0 -32 -24 -81 -58 -117 -39 -42
-49 -36 -54 33 -5 75 -25 95 -100 105 -30 4 -57 14 -67 25 -20 24 -48 24 -60
0z m369 -161 c0 -5 -4 -10 -10 -10 -5 0 -10 5 -10 10 0 6 5 10 10 10 6 0 10
-4 10 -10z m94 -539 c10 -16 -23 -21 -87 -14 -61 7 -61 8 -22 14 63 10 103 10
109 0z"/>
</g>
</svg>
