<?xml version="1.0" standalone="no"?>
<!DOCTYPE svg PUBLIC "-//W3C//DTD SVG 20010904//EN"
 "http://www.w3.org/TR/2001/REC-SVG-20010904/DTD/svg10.dtd">
<svg version="1.0" xmlns="http://www.w3.org/2000/svg"
 width="51.000000pt" height="94.000000pt" viewBox="0 0 51.000000 94.000000"
 preserveAspectRatio="xMidYMid meet">
<metadata>
Created by potrace 1.16, written by Peter Selinger 2001-2019
</metadata>
<g transform="translate(0.000000,94.000000) scale(0.100000,-0.100000)"
fill="#000000" stroke="none">
<path d="M151 886 c-21 -25 -33 -143 -19 -188 17 -57 48 -78 119 -78 70 0 72
-4 68 -123 -2 -45 1 -114 5 -152 7 -56 6 -73 -6 -82 -8 -7 -58 -13 -123 -15
l-109 -3 -12 -35 c-25 -72 -38 -150 -27 -161 7 -7 78 -9 203 -7 176 3 193 5
206 22 22 30 17 118 -12 225 -27 95 -27 97 -14 236 15 168 8 248 -25 280 -21
22 -46 28 -160 37 -21 2 -34 11 -43 31 -14 30 -33 35 -51 13z m153 -146 c30
-11 35 -40 7 -40 -33 0 -71 19 -71 35 0 17 27 19 64 5z m66 -575 c0 -8 -9 -19
-19 -25 -23 -12 -117 -12 -146 0 -17 6 -13 9 20 14 22 4 54 11 70 15 48 14 75
13 75 -4z"/>
</g>
</svg>
