<?xml version="1.0" standalone="no"?>
<!DOCTYPE svg PUBLIC "-//W3C//DTD SVG 20010904//EN"
 "http://www.w3.org/TR/2001/REC-SVG-20010904/DTD/svg10.dtd">
<svg version="1.0" xmlns="http://www.w3.org/2000/svg"
 width="45.000000pt" height="67.000000pt" viewBox="0 0 45.000000 67.000000"
 preserveAspectRatio="xMidYMid meet">
<metadata>
Created by potrace 1.16, written by Peter Selinger 2001-2019
</metadata>
<g transform="translate(0.000000,67.000000) scale(0.100000,-0.100000)"
fill="#000000" stroke="none">
<path d="M164 622 l-81 -3 -21 -49 c-37 -84 -22 -121 24 -62 21 26 27 27 123
30 78 3 101 1 101 -9 0 -14 -39 -140 -102 -330 -47 -142 -48 -159 -10 -159 40
0 47 8 66 85 10 39 33 115 51 170 63 195 86 272 88 301 l2 29 -80 0 c-44 1
-116 -1 -161 -3z"/>
</g>
</svg>
