<?xml version="1.0" standalone="no"?>
<!DOCTYPE svg PUBLIC "-//W3C//DTD SVG 20010904//EN"
 "http://www.w3.org/TR/2001/REC-SVG-20010904/DTD/svg10.dtd">
<svg version="1.0" xmlns="http://www.w3.org/2000/svg"
 width="37.000000pt" height="94.000000pt" viewBox="0 0 37.000000 94.000000"
 preserveAspectRatio="xMidYMid meet">
<metadata>
Created by potrace 1.16, written by Peter Selinger 2001-2019
</metadata>
<g transform="translate(0.000000,94.000000) scale(0.100000,-0.100000)"
fill="#000000" stroke="none">
<path d="M53 873 c-19 -48 -11 -147 16 -183 14 -20 30 -26 76 -31 96 -11 93 0
99 -328 4 -157 8 -287 10 -289 11 -11 48 13 62 40 15 28 16 70 9 367 -5 250
-10 342 -20 361 -17 33 -54 50 -111 50 -35 0 -49 5 -66 25 -31 36 -56 32 -75
-12z M320 840 c0 -5 5 -10 10 -10 6 0 10 5 10 10 0 6 -4 10 -10 10 -5 0 -10
-4 -10 -10z"/>
</g>
</svg>
