<?xml version="1.0" standalone="no"?>
<!DOCTYPE svg PUBLIC "-//W3C//DTD SVG 20010904//EN"
 "http://www.w3.org/TR/2001/REC-SVG-20010904/DTD/svg10.dtd">
<svg version="1.0" xmlns="http://www.w3.org/2000/svg"
 width="68.000000pt" height="93.000000pt" viewBox="0 0 68.000000 93.000000"
 preserveAspectRatio="xMidYMid meet">
<metadata>
Created by potrace 1.16, written by Peter Selinger 2001-2019
</metadata>
<g transform="translate(0.000000,93.000000) scale(0.100000,-0.100000)"
fill="#000000" stroke="none">
<path d="M112 877 c-20 -24 -34 -106 -27 -154 5 -33 15 -55 34 -72 l28 -25
-33 -56 c-34 -57 -64 -189 -51 -224 13 -33 84 -9 98 33 5 15 59 22 81 10 9 -5
20 -18 23 -29 5 -15 15 -20 41 -20 l34 0 0 54 c0 98 -7 113 -58 130 -25 9 -56
16 -69 16 -31 0 -31 33 2 65 23 24 30 25 143 25 110 0 120 -2 139 -22 33 -36
53 -95 53 -156 0 -71 -15 -119 -50 -162 -32 -39 -16 -37 -245 -39 -151 -1
-156 -2 -164 -23 -16 -42 -51 -163 -51 -175 0 -19 505 -19 517 0 11 16 29 83
55 197 38 173 26 366 -33 497 -40 91 -56 97 -241 89 -139 -5 -150 -4 -168 14
-11 11 -20 25 -20 30 0 14 -26 12 -38 -3z m168 -146 c0 -10 -58 -23 -71 -15
-21 13 -6 24 31 24 22 0 40 -4 40 -9z m170 -2 c0 -7 -19 -8 -57 -3 -78 9 -79
14 -5 14 38 0 62 -4 62 -11z m25 -568 c12 -20 -37 -31 -137 -30 -57 0 -112 4
-123 9 -27 12 -26 12 110 20 66 3 125 7 132 8 6 1 14 -2 18 -7z"/>
</g>
</svg>
