<?xml version="1.0" standalone="no"?>
<!DOCTYPE svg PUBLIC "-//W3C//DTD SVG 20010904//EN"
 "http://www.w3.org/TR/2001/REC-SVG-20010904/DTD/svg10.dtd">
<svg version="1.0" xmlns="http://www.w3.org/2000/svg"
 width="33.000000pt" height="67.000000pt" viewBox="0 0 33.000000 67.000000"
 preserveAspectRatio="xMidYMid meet">
<metadata>
Created by potrace 1.16, written by Peter Selinger 2001-2019
</metadata>
<g transform="translate(0.000000,67.000000) scale(0.100000,-0.100000)"
fill="#000000" stroke="none">
<path d="M160 623 c-8 -3 -17 -9 -20 -12 -3 -3 -26 -17 -52 -31 -57 -29 -65
-54 -14 -45 29 6 34 4 39 -17 9 -33 8 -401 -1 -415 -4 -6 -20 -16 -35 -22 -43
-17 -32 -29 31 -33 97 -6 182 3 182 18 0 9 -11 14 -28 14 -51 0 -52 6 -52 256
0 291 -2 305 -50 287z"/>
</g>
</svg>
