<?xml version="1.0" standalone="no"?>
<!DOCTYPE svg PUBLIC "-//W3C//DTD SVG 20010904//EN"
 "http://www.w3.org/TR/2001/REC-SVG-20010904/DTD/svg10.dtd">
<svg version="1.0" xmlns="http://www.w3.org/2000/svg"
 width="49.000000pt" height="78.000000pt" viewBox="0 0 49.000000 78.000000"
 preserveAspectRatio="xMidYMid meet">
<metadata>
Created by potrace 1.16, written by Peter Selinger 2001-2019
</metadata>
<g transform="translate(0.000000,78.000000) scale(0.100000,-0.100000)"
fill="#000000" stroke="none">
<path d="M135 722 c-52 -21 -71 -46 -83 -108 -11 -52 -3 -101 26 -151 13 -24
68 -56 115 -67 l28 -7 -3 -141 -3 -141 -35 -18 c-55 -30 -45 -44 30 -44 l65 0
1 324 c0 242 3 326 12 329 8 2 12 -8 12 -30 1 -143 12 -606 16 -616 6 -20 129
-12 129 8 0 8 -10 19 -21 24 -12 5 -26 17 -32 26 -13 21 -21 559 -9 578 5 6
19 12 33 12 17 0 24 5 24 20 0 19 -6 20 -132 19 -100 0 -143 -4 -173 -17z m79
-47 c9 -36 5 -225 -6 -231 -4 -3 -21 4 -36 15 -61 43 -63 193 -3 226 35 19 38
19 45 -10z"/>
</g>
</svg>
