<?xml version="1.0" standalone="no"?>
<!DOCTYPE svg PUBLIC "-//W3C//DTD SVG 20010904//EN"
 "http://www.w3.org/TR/2001/REC-SVG-20010904/DTD/svg10.dtd">
<svg version="1.0" xmlns="http://www.w3.org/2000/svg"
 width="198.000000pt" height="92.000000pt" viewBox="0 0 198.000000 92.000000"
 preserveAspectRatio="xMidYMid meet">
<metadata>
Created by potrace 1.16, written by Peter Selinger 2001-2019
</metadata>
<g transform="translate(0.000000,92.000000) scale(0.100000,-0.100000)"
fill="#000000" stroke="none">
<path d="M1685 876 c-9 -13 -18 -36 -20 -52 -3 -16 -8 -44 -11 -62 -8 -43 12
-90 47 -108 37 -18 36 -31 -1 -74 l-30 -35 -20 25 c-11 14 -26 32 -33 40 -47
53 -186 229 -196 248 -24 44 -83 22 -112 -43 -15 -34 -17 -52 -10 -89 5 -26
16 -55 25 -65 9 -10 16 -21 16 -26 0 -4 16 -25 35 -46 19 -22 35 -44 35 -50 0
-6 -17 -32 -38 -58 -22 -25 -44 -61 -50 -78 -15 -45 -1 -120 33 -179 l28 -48
-31 -26 c-24 -20 -32 -35 -32 -58 l0 -32 109 0 c126 0 132 4 138 83 4 47 1 58
-36 117 -71 112 -76 124 -61 159 7 17 16 31 20 31 4 0 24 -19 45 -42 20 -24
51 -59 69 -78 18 -19 40 -45 48 -58 43 -64 175 -202 193 -202 12 0 36 13 54
28 30 25 35 36 39 85 4 50 2 59 -22 84 -91 97 -136 149 -146 169 -16 29 -8 57
32 119 24 37 40 51 61 53 15 2 27 9 27 17 0 8 9 17 20 20 17 5 20 15 20 68 0
55 -4 67 -30 99 -24 29 -40 38 -75 43 -24 4 -52 16 -61 26 -24 26 -60 24 -79
-5z m51 -46 c6 -6 34 -13 63 -17 65 -7 97 -43 88 -100 -9 -54 -17 -58 -88 -42
-96 21 -110 41 -95 127 8 43 14 50 32 32z m-216 -177 c79 -95 149 -173 156
-173 8 0 20 13 29 30 9 17 18 30 21 30 3 0 2 -26 -1 -57 -7 -61 -2 -73 73
-155 111 -122 126 -160 75 -193 l-27 -18 -43 49 c-24 27 -97 112 -162 189 -65
77 -125 146 -134 154 -22 17 -35 6 -70 -57 -32 -60 -29 -78 36 -179 46 -71 64
-128 50 -150 -9 -13 -133 -25 -133 -12 0 4 8 21 17 37 17 29 16 31 -15 99 -18
38 -32 84 -32 102 0 42 29 98 74 140 20 19 36 41 36 49 0 8 -24 42 -53 75 -73
84 -87 107 -87 140 0 29 27 80 40 75 4 -2 72 -81 150 -175z M703 868 c-46 -52
-52 -69 -42 -133 8 -45 17 -68 40 -91 l31 -32 -29 -43 -28 -42 -3 -233 c-3
-221 -2 -233 16 -238 26 -9 62 7 91 38 28 30 29 36 16 277 -4 86 -5 167 -2
180 12 47 55 59 209 59 l140 0 -7 -22 c-19 -65 -23 -100 -20 -173 2 -44 6
-141 9 -215 l5 -135 37 1 c30 1 44 9 66 35 25 31 27 41 28 122 0 49 -5 109
-10 135 -6 26 -15 67 -21 92 -7 35 -6 56 6 95 25 83 31 197 11 239 -9 19 -26
38 -37 41 -11 4 -98 6 -192 5 -256 -4 -243 -5 -250 30 -8 37 -35 40 -64 8z
m41 -66 c15 -17 33 -19 225 -16 152 1 214 -1 226 -10 19 -14 33 -100 18 -109
-6 -4 -78 -7 -161 -8 -83 0 -168 -5 -189 -9 -27 -6 -53 -5 -89 6 -42 12 -52
20 -62 47 -11 32 -6 117 8 117 4 0 14 -8 24 -18z m448 -258 c-7 -42 -4 -83 11
-169 27 -146 19 -255 -19 -255 -14 0 -20 63 -26 255 -4 124 6 199 26 192 6 -2
10 -13 8 -23z m-437 -151 c10 -195 9 -236 -4 -262 -15 -28 -31 -27 -31 2 0 12
-3 90 -6 172 -6 144 4 235 25 235 4 0 11 -66 16 -147z M78 863 c-38 -44 -45
-151 -13 -200 36 -55 64 -62 232 -59 85 1 156 -1 159 -6 3 -5 -1 -17 -10 -26
-39 -44 -44 -80 -41 -298 1 -117 6 -217 9 -223 4 -6 14 -11 22 -11 19 0 91 37
100 51 24 39 23 115 -5 329 -11 91 1 131 55 175 l44 36 0 73 c0 112 4 110
-253 116 l-212 5 -13 28 c-15 32 -51 36 -74 10z m62 -68 c10 -12 48 -15 219
-15 148 0 210 -3 219 -12 7 -7 12 -35 12 -63 0 -40 -5 -56 -21 -71 -19 -17
-21 -18 -30 -1 -9 15 -31 17 -205 17 l-195 0 -24 26 c-16 17 -25 39 -25 58 0
69 22 95 50 61z m343 -294 c-3 -22 2 -84 11 -138 27 -164 27 -211 -2 -244 -13
-16 -28 -29 -32 -29 -5 0 -8 35 -8 77 1 43 -2 122 -6 175 -7 91 -6 105 19 186
10 29 23 9 18 -27z"/>
</g>
</svg>
