<?xml version="1.0" standalone="no"?>
<!DOCTYPE svg PUBLIC "-//W3C//DTD SVG 20010904//EN"
 "http://www.w3.org/TR/2001/REC-SVG-20010904/DTD/svg10.dtd">
<svg version="1.0" xmlns="http://www.w3.org/2000/svg"
 width="25.000000pt" height="79.000000pt" viewBox="0 0 25.000000 79.000000"
 preserveAspectRatio="xMidYMid meet">
<metadata>
Created by potrace 1.16, written by Peter Selinger 2001-2019
</metadata>
<g transform="translate(0.000000,79.000000) scale(0.100000,-0.100000)"
fill="#000000" stroke="none">
<path d="M51 736 c-19 -23 -2 -46 34 -46 31 0 33 -2 37 -42 2 -24 4 -155 4
-293 l-1 -250 -30 -3 c-39 -4 -49 -15 -40 -41 6 -20 13 -22 78 -19 l72 3 3
326 c1 198 -2 337 -8 353 -9 24 -14 26 -74 26 -42 0 -67 -5 -75 -14z"/>
</g>
</svg>
