<?xml version="1.0" standalone="no"?>
<!DOCTYPE svg PUBLIC "-//W3C//DTD SVG 20010904//EN"
 "http://www.w3.org/TR/2001/REC-SVG-20010904/DTD/svg10.dtd">
<svg version="1.0" xmlns="http://www.w3.org/2000/svg"
 width="49.000000pt" height="79.000000pt" viewBox="0 0 49.000000 79.000000"
 preserveAspectRatio="xMidYMid meet">
<metadata>
Created by potrace 1.16, written by Peter Selinger 2001-2019
</metadata>
<g transform="translate(0.000000,79.000000) scale(0.100000,-0.100000)"
fill="#000000" stroke="none">
<path d="M165 741 c-96 -35 -109 -49 -119 -126 -11 -77 6 -134 50 -172 21 -19
49 -33 63 -33 48 0 51 -7 52 -152 1 -75 -2 -142 -6 -148 -4 -7 -23 -19 -42
-26 -51 -22 -36 -39 38 -42 49 -2 66 1 75 13 8 11 10 102 6 337 -4 271 -3 320
9 316 11 -4 15 -65 19 -334 3 -181 7 -330 8 -331 4 -6 88 -3 110 3 29 8 25 38
-5 42 -12 2 -25 11 -29 20 -5 9 -10 142 -12 295 -4 293 -2 303 41 309 12 2 22
10 22 18 0 12 -22 15 -130 17 -72 1 -139 -2 -150 -6z m45 -166 c0 -133 -3
-141 -46 -110 -49 34 -56 188 -11 220 12 8 29 15 39 15 16 0 18 -12 18 -125z"/>
</g>
</svg>
