<?xml version="1.0" standalone="no"?>
<!DOCTYPE svg PUBLIC "-//W3C//DTD SVG 20010904//EN"
 "http://www.w3.org/TR/2001/REC-SVG-20010904/DTD/svg10.dtd">
<svg version="1.0" xmlns="http://www.w3.org/2000/svg"
 width="44.000000pt" height="50.000000pt" viewBox="0 0 44.000000 50.000000"
 preserveAspectRatio="xMidYMid meet">
<metadata>
Created by potrace 1.16, written by Peter Selinger 2001-2019
</metadata>
<g transform="translate(0.000000,50.000000) scale(0.100000,-0.100000)"
fill="#000000" stroke="none">
<path d="M171 450 c-64 -10 -103 -36 -115 -78 -10 -37 5 -62 38 -62 29 0 46
18 46 50 0 31 17 50 45 50 31 0 52 -21 59 -58 5 -31 3 -34 -32 -48 -155 -62
-207 -137 -150 -220 35 -52 85 -52 159 -2 26 18 27 17 43 -7 24 -36 73 -34
110 4 31 32 28 51 -10 51 -13 0 -24 6 -24 13 -2 63 -14 227 -20 246 -7 26 -42
57 -75 64 -11 2 -44 1 -74 -3z m77 -247 c3 -49 1 -53 -29 -68 -43 -23 -76 -13
-84 26 -6 24 -2 36 17 56 26 28 55 43 78 40 11 -2 16 -17 18 -54z"/>
</g>
</svg>
