<?xml version="1.0" standalone="no"?>
<!DOCTYPE svg PUBLIC "-//W3C//DTD SVG 20010904//EN"
 "http://www.w3.org/TR/2001/REC-SVG-20010904/DTD/svg10.dtd">
<svg version="1.0" xmlns="http://www.w3.org/2000/svg"
 width="127.000000pt" height="61.000000pt" viewBox="0 0 127.000000 61.000000"
 preserveAspectRatio="xMidYMid meet">
<metadata>
Created by potrace 1.16, written by Peter Selinger 2001-2019
</metadata>
<g transform="translate(0.000000,61.000000) scale(0.100000,-0.100000)"
fill="#000000" stroke="none">
<path d="M1071 556 c-6 -8 -13 -37 -14 -66 -2 -44 1 -54 23 -70 l24 -18 -19
-24 c-11 -13 -21 -25 -22 -27 -5 -8 -147 166 -155 190 -7 20 -45 0 -58 -31
-15 -37 -8 -67 25 -103 32 -33 35 -79 9 -108 -23 -26 -25 -98 -3 -147 13 -31
12 -35 -4 -47 -10 -7 -17 -22 -15 -32 5 -26 98 -31 123 -7 22 22 14 76 -15
117 -25 33 -37 91 -22 101 13 8 32 -11 129 -131 41 -51 81 -93 89 -93 45 0 72
47 54 94 -5 14 -28 44 -51 68 -56 58 -64 82 -41 122 10 17 31 37 48 45 37 18
44 28 44 69 0 40 -38 82 -73 82 -14 0 -30 7 -37 15 -15 19 -24 19 -39 1z M62
548 c-19 -25 -23 -59 -12 -93 18 -56 41 -65 136 -58 46 3 90 3 99 -1 14 -5 14
-9 -1 -38 -13 -24 -16 -53 -13 -117 1 -48 2 -112 1 -144 -1 -54 0 -57 23 -57
15 0 32 11 45 30 23 32 23 28 4 197 -8 78 -1 107 31 121 22 10 25 18 25 63 0
74 -9 78 -156 79 -96 0 -124 3 -134 15 -15 18 -34 19 -48 3z M445 540 c-27
-29 -25 -93 4 -123 22 -25 22 -26 4 -53 -15 -23 -18 -53 -21 -171 l-3 -143 25
0 c15 0 33 11 46 27 20 25 21 34 14 93 -13 105 -9 178 11 200 16 17 31 20 112
20 85 0 93 -2 93 -19 0 -11 -4 -23 -10 -26 -6 -3 -7 -48 -4 -113 3 -59 7 -121
7 -139 1 -17 5 -34 9 -38 9 -9 64 21 72 40 11 29 7 105 -9 164 -11 42 -12 67
-5 92 6 18 10 60 10 91 0 46 -4 59 -19 68 -11 5 -78 10 -150 10 -120 0 -131 2
-141 20 -13 25 -22 25 -45 0z"/>
</g>
</svg>
