<?xml version="1.0" standalone="no"?>
<!DOCTYPE svg PUBLIC "-//W3C//DTD SVG 20010904//EN"
 "http://www.w3.org/TR/2001/REC-SVG-20010904/DTD/svg10.dtd">
<svg version="1.0" xmlns="http://www.w3.org/2000/svg"
 width="88.000000pt" height="77.000000pt" viewBox="0 0 88.000000 77.000000"
 preserveAspectRatio="xMidYMid meet">
<metadata>
Created by potrace 1.16, written by Peter Selinger 2001-2019
</metadata>
<g transform="translate(0.000000,77.000000) scale(0.100000,-0.100000)"
fill="#000000" stroke="none">
<path d="M50 711 c-14 -28 -12 -56 5 -71 12 -10 14 -31 8 -115 -5 -96 -5 -103
16 -124 19 -19 31 -21 118 -20 104 1 123 -8 123 -55 0 -29 -7 -36 -75 -91 -79
-63 -95 -83 -95 -123 0 -49 16 -72 50 -72 36 0 55 30 46 72 -6 31 -7 30 83
106 62 52 79 99 71 190 -10 103 -15 106 -150 107 -60 0 -113 5 -118 10 -6 6
-2 35 11 78 19 65 19 68 2 87 -10 11 -26 20 -36 20 -10 0 -21 5 -24 10 -10 16
-23 12 -35 -9z M677 553 c-3 -5 -8 -29 -12 -55 -6 -42 -4 -49 19 -73 25 -25
26 -27 9 -50 -10 -13 -21 -23 -24 -22 -4 1 -33 34 -65 72 -33 39 -62 72 -66
73 -5 2 -8 9 -8 17 0 20 -27 37 -48 31 -21 -7 -42 -46 -42 -78 0 -12 18 -45
40 -74 39 -52 39 -52 21 -76 -10 -12 -26 -38 -36 -57 -17 -33 -17 -36 5 -88
21 -51 21 -55 5 -73 -32 -35 -16 -55 47 -58 49 -3 58 0 72 20 22 31 20 42 -14
110 -30 58 -38 102 -21 112 10 7 63 -51 136 -146 73 -97 100 -106 130 -48 19
37 8 69 -42 125 -24 25 -47 54 -52 63 -15 28 16 88 54 106 71 34 53 146 -23
146 -11 0 -25 7 -32 15 -13 16 -46 20 -53 8z"/>
</g>
</svg>
