<?xml version="1.0" standalone="no"?>
<!DOCTYPE svg PUBLIC "-//W3C//DTD SVG 20010904//EN"
 "http://www.w3.org/TR/2001/REC-SVG-20010904/DTD/svg10.dtd">
<svg version="1.0" xmlns="http://www.w3.org/2000/svg"
 width="42.000000pt" height="67.000000pt" viewBox="0 0 42.000000 67.000000"
 preserveAspectRatio="xMidYMid meet">
<metadata>
Created by potrace 1.16, written by Peter Selinger 2001-2019
</metadata>
<g transform="translate(0.000000,67.000000) scale(0.100000,-0.100000)"
fill="#000000" stroke="none">
<path d="M348 625 c-5 -5 -75 -12 -155 -14 l-41 -1 -41 -86 c-60 -125 -60
-124 26 -144 74 -17 133 -53 154 -92 19 -35 6 -124 -22 -154 -41 -44 -63 -47
-125 -18 -64 30 -98 29 -102 -4 -5 -31 10 -46 58 -62 34 -11 48 -11 105 5 79
21 107 42 145 109 72 124 8 253 -145 296 -50 14 -64 32 -45 55 9 11 34 15 95
15 l83 0 21 34 c24 38 27 66 8 66 -8 0 -16 -2 -19 -5z"/>
</g>
</svg>
