<?xml version="1.0" standalone="no"?>
<!DOCTYPE svg PUBLIC "-//W3C//DTD SVG 20010904//EN"
 "http://www.w3.org/TR/2001/REC-SVG-20010904/DTD/svg10.dtd">
<svg version="1.0" xmlns="http://www.w3.org/2000/svg"
 width="69.000000pt" height="130.000000pt" viewBox="0 0 69.000000 130.000000"
 preserveAspectRatio="xMidYMid meet">
<metadata>
Created by potrace 1.16, written by Peter Selinger 2001-2019
</metadata>
<g transform="translate(0.000000,130.000000) scale(0.100000,-0.100000)"
fill="#000000" stroke="none">
<path d="M308 1218 c-66 -85 -66 -82 -13 -160 26 -38 51 -67 55 -66 5 2 29 31
54 66 36 49 45 68 40 87 -3 14 -9 25 -13 25 -4 0 -22 20 -40 45 -18 25 -36 45
-41 45 -5 0 -24 -19 -42 -42z M75 864 c-55 -59 -41 -181 25 -215 31 -17 60
-19 247 -19 135 0 213 -4 213 -10 0 -5 -9 -36 -20 -69 -12 -32 -21 -85 -22
-117 -2 -84 10 -386 16 -391 9 -10 76 27 92 51 14 23 16 45 12 152 -3 75 -10
130 -16 136 -19 19 -14 128 8 195 15 44 20 80 18 133 -3 67 -5 75 -31 94 -27
20 -42 21 -230 22 -111 1 -210 2 -219 3 -10 1 -24 15 -33 31 -19 37 -29 37
-60 4z M130 452 c-58 -28 -67 -60 -69 -242 0 -87 3 -161 7 -164 15 -9 62 7 87
30 25 23 25 25 25 182 0 104 4 162 11 169 14 14 5 43 -13 43 -7 -1 -29 -9 -48
-18z"/>
</g>
</svg>
