<?xml version="1.0" standalone="no"?>
<!DOCTYPE svg PUBLIC "-//W3C//DTD SVG 20010904//EN"
 "http://www.w3.org/TR/2001/REC-SVG-20010904/DTD/svg10.dtd">
<svg version="1.0" xmlns="http://www.w3.org/2000/svg"
 width="31.000000pt" height="80.000000pt" viewBox="0 0 31.000000 80.000000"
 preserveAspectRatio="xMidYMid meet">
<metadata>
Created by potrace 1.16, written by Peter Selinger 2001-2019
</metadata>
<g transform="translate(0.000000,80.000000) scale(0.100000,-0.100000)"
fill="#000000" stroke="none">
<path d="M44 746 c-3 -8 16 -35 44 -64 50 -51 54 -61 83 -194 14 -64 8 -187
-12 -261 -8 -29 -33 -73 -61 -108 -51 -63 -58 -79 -33 -79 26 0 62 29 103 84
56 73 79 122 92 197 26 142 -20 279 -127 384 -57 56 -79 66 -89 41z"/>
</g>
</svg>
