<?xml version="1.0" standalone="no"?>
<!DOCTYPE svg PUBLIC "-//W3C//DTD SVG 20010904//EN"
 "http://www.w3.org/TR/2001/REC-SVG-20010904/DTD/svg10.dtd">
<svg version="1.0" xmlns="http://www.w3.org/2000/svg"
 width="105.000000pt" height="66.000000pt" viewBox="0 0 105.000000 66.000000"
 preserveAspectRatio="xMidYMid meet">
<metadata>
Created by potrace 1.16, written by Peter Selinger 2001-2019
</metadata>
<g transform="translate(0.000000,66.000000) scale(0.100000,-0.100000)"
fill="#000000" stroke="none">
<path d="M717 603 c-63 -24 -110 -63 -144 -121 -26 -44 -28 -55 -28 -157 0
-116 10 -150 59 -203 54 -58 140 -82 218 -62 50 14 135 75 144 104 4 11 16 33
27 47 20 27 17 49 -7 49 -7 0 -27 -18 -44 -40 -24 -29 -46 -43 -86 -56 -54
-17 -55 -17 -103 7 -58 29 -88 71 -104 147 -27 128 23 220 135 248 26 6 66
-27 66 -54 0 -9 11 -30 26 -49 57 -75 133 -7 92 82 -27 59 -162 90 -251 58z
M164 590 c-111 -56 -137 -154 -47 -176 35 -9 63 25 63 76 0 46 20 65 71 65 52
0 71 -22 77 -87 l4 -54 -96 -38 c-105 -41 -166 -92 -187 -154 -23 -70 19 -152
91 -173 31 -10 46 -8 86 6 27 10 61 29 76 43 27 24 48 23 48 -3 0 -8 11 -22
25 -31 36 -24 99 -13 137 22 46 45 31 82 -24 59 -29 -12 -38 34 -38 192 0 131
-2 150 -22 190 -28 57 -64 75 -153 80 -57 3 -78 0 -111 -17z m170 -317 c2 -44
1 -85 -3 -90 -25 -37 -92 -54 -131 -33 -24 13 -44 83 -31 107 22 42 138 120
153 105 5 -5 10 -44 12 -89z"/>
</g>
</svg>
