<?xml version="1.0" standalone="no"?>
<!DOCTYPE svg PUBLIC "-//W3C//DTD SVG 20010904//EN"
 "http://www.w3.org/TR/2001/REC-SVG-20010904/DTD/svg10.dtd">
<svg version="1.0" xmlns="http://www.w3.org/2000/svg"
 width="78.000000pt" height="94.000000pt" viewBox="0 0 78.000000 94.000000"
 preserveAspectRatio="xMidYMid meet">
<metadata>
Created by potrace 1.16, written by Peter Selinger 2001-2019
</metadata>
<g transform="translate(0.000000,94.000000) scale(0.100000,-0.100000)"
fill="#000000" stroke="none">
<path d="M150 868 c-19 -32 -25 -76 -21 -148 3 -39 44 -90 73 -90 23 0 23 -5
-2 -40 -32 -45 -42 -116 -31 -211 16 -124 18 -117 -39 -125 -44 -6 -51 -10
-56 -33 -4 -14 -12 -45 -20 -69 -21 -65 -18 -99 9 -105 27 -7 179 -1 205 7 44
14 62 186 28 276 -20 55 -31 146 -22 192 3 19 22 53 40 74 l34 40 117 -2 c170
-2 159 19 165 -308 3 -146 8 -267 11 -270 10 -10 52 9 72 32 17 19 19 40 18
261 -2 328 -19 405 -99 456 l-47 30 -178 3 -177 4 -21 29 c-26 37 -35 36 -59
-3z m245 -128 c17 -4 22 -8 13 -9 -10 0 -45 -10 -78 -22 -65 -22 -90 -16 -90
22 0 17 8 19 63 18 34 -1 76 -5 92 -9z m-187 -572 c-3 -7 -13 -15 -24 -17 -16
-3 -17 -1 -5 13 16 19 34 21 29 4z"/>
</g>
</svg>
