<?xml version="1.0" standalone="no"?>
<!DOCTYPE svg PUBLIC "-//W3C//DTD SVG 20010904//EN"
 "http://www.w3.org/TR/2001/REC-SVG-20010904/DTD/svg10.dtd">
<svg version="1.0" xmlns="http://www.w3.org/2000/svg"
 width="40.000000pt" height="41.000000pt" viewBox="0 0 40.000000 41.000000"
 preserveAspectRatio="xMidYMid meet">
<metadata>
Created by potrace 1.16, written by Peter Selinger 2001-2019
</metadata>
<g transform="translate(0.000000,41.000000) scale(0.100000,-0.100000)"
fill="#000000" stroke="none">
<path d="M160 360 c-44 -11 -105 -77 -113 -124 -9 -59 8 -108 52 -147 64 -57
132 -61 197 -13 62 46 79 124 45 200 -32 70 -102 103 -181 84z m80 -76 c61
-41 69 -97 19 -138 -53 -45 -119 -25 -138 41 -14 49 31 109 84 112 6 1 22 -6
35 -15z"/>
</g>
</svg>
