<?xml version="1.0" standalone="no"?>
<!DOCTYPE svg PUBLIC "-//W3C//DTD SVG 20010904//EN"
 "http://www.w3.org/TR/2001/REC-SVG-20010904/DTD/svg10.dtd">
<svg version="1.0" xmlns="http://www.w3.org/2000/svg"
 width="64.000000pt" height="92.000000pt" viewBox="0 0 64.000000 92.000000"
 preserveAspectRatio="xMidYMid meet">
<metadata>
Created by potrace 1.16, written by Peter Selinger 2001-2019
</metadata>
<g transform="translate(0.000000,92.000000) scale(0.100000,-0.100000)"
fill="#000000" stroke="none">
<path d="M58 853 c-6 -16 -13 -63 -16 -105 -4 -72 -2 -78 22 -102 16 -17 37
-26 58 -27 18 0 102 -1 186 -2 139 -2 155 -4 168 -21 11 -16 14 -71 14 -282 0
-169 4 -265 10 -269 38 -24 108 41 96 89 -3 13 -6 146 -6 297 -1 399 3 393
-280 395 l-175 1 -13 27 c-17 35 -49 34 -64 -1z m387 -133 c4 -6 -41 -10 -129
-10 -79 0 -137 4 -141 10 -4 6 41 10 129 10 79 0 137 -4 141 -10z"/>
</g>
</svg>
