<?xml version="1.0" standalone="no"?>
<!DOCTYPE svg PUBLIC "-//W3C//DTD SVG 20010904//EN"
 "http://www.w3.org/TR/2001/REC-SVG-20010904/DTD/svg10.dtd">
<svg version="1.0" xmlns="http://www.w3.org/2000/svg"
 width="73.000000pt" height="92.000000pt" viewBox="0 0 73.000000 92.000000"
 preserveAspectRatio="xMidYMid meet">
<metadata>
Created by potrace 1.16, written by Peter Selinger 2001-2019
</metadata>
<g transform="translate(0.000000,92.000000) scale(0.100000,-0.100000)"
fill="#000000" stroke="none">
<path d="M66 858 c-24 -38 -31 -130 -12 -166 24 -47 42 -60 96 -67 55 -8 59
-14 31 -53 -34 -49 -66 -135 -87 -237 -5 -22 -9 -96 -9 -165 0 -119 1 -125 21
-128 35 -5 44 20 48 129 5 128 26 224 65 304 34 68 70 100 138 120 40 12 55
12 112 -1 83 -19 107 -41 122 -113 13 -63 7 -197 -9 -213 -7 -7 -68 -13 -154
-15 -179 -5 -172 1 -194 -166 l-7 -48 199 5 c218 5 223 6 225 70 1 17 3 40 5
51 5 28 15 130 18 190 2 28 7 67 11 87 4 20 3 42 -1 49 -4 8 -9 29 -11 49 -6
64 -43 157 -80 199 -33 40 -135 101 -167 101 -9 0 -21 -21 -31 -57 -17 -57
-75 -131 -93 -119 -5 3 -12 31 -14 62 -6 69 -22 85 -102 103 -36 8 -60 19 -66
32 -14 25 -36 24 -54 -3z m454 -708 c0 -5 -9 -10 -21 -10 -11 0 -17 5 -14 10
3 6 13 10 21 10 8 0 14 -4 14 -10z m-92 -7 c-10 -2 -26 -2 -35 0 -10 3 -2 5
17 5 19 0 27 -2 18 -5z"/>
</g>
</svg>
