<?xml version="1.0" standalone="no"?>
<!DOCTYPE svg PUBLIC "-//W3C//DTD SVG 20010904//EN"
 "http://www.w3.org/TR/2001/REC-SVG-20010904/DTD/svg10.dtd">
<svg version="1.0" xmlns="http://www.w3.org/2000/svg"
 width="299.000000pt" height="68.000000pt" viewBox="0 0 299.000000 68.000000"
 preserveAspectRatio="xMidYMid meet">
<metadata>
Created by potrace 1.16, written by Peter Selinger 2001-2019
</metadata>
<g transform="translate(0.000000,68.000000) scale(0.100000,-0.100000)"
fill="#000000" stroke="none">
<path d="M1778 629 c-21 -12 -24 -49 -6 -67 7 -7 25 -12 40 -12 22 0 29 6 34
27 12 47 -27 77 -68 52z M2040 543 c0 -5 -22 -32 -50 -61 -27 -29 -50 -56 -50
-61 0 -5 9 -11 20 -14 18 -4 20 -14 21 -79 4 -207 8 -229 50 -259 22 -15 37
-19 60 -14 31 7 79 51 79 72 0 15 -26 17 -35 3 -10 -17 -44 -11 -55 9 -5 11
-10 76 -10 145 l0 125 38 3 c51 4 51 32 0 36 -36 3 -37 4 -40 49 -2 26 -9 48
-15 51 -7 2 -13 0 -13 -5z M2656 462 c-3 -6 -21 -13 -40 -16 -19 -4 -40 -14
-47 -22 -11 -13 -10 -18 9 -32 19 -15 22 -27 23 -107 1 -154 0 -164 -21 -182
-11 -10 -20 -21 -20 -25 0 -5 41 -8 90 -8 95 0 108 7 68 40 -21 17 -23 28 -26
132 -4 127 -1 135 61 145 48 7 55 -9 59 -146 2 -107 1 -114 -20 -131 -40 -33
-27 -40 68 -40 95 0 108 7 68 40 -21 17 -23 27 -25 132 -1 66 -7 129 -16 152
-25 71 -109 94 -163 45 -26 -24 -32 -24 -36 3 -3 23 -22 35 -32 20z M633 450
c-18 -4 -44 -15 -58 -24 -26 -17 -27 -17 -32 3 -5 18 -11 20 -47 15 -87 -14
-137 -52 -80 -62 10 -2 23 -7 27 -12 9 -8 17 -223 9 -253 -2 -9 -15 -20 -29
-23 -15 -4 -23 -12 -21 -23 3 -13 18 -16 88 -17 47 -1 91 1 98 4 19 7 14 32
-7 32 -11 0 -23 5 -27 12 -6 9 -9 204 -5 250 1 11 58 38 80 38 11 0 25 -9 30
-19 12 -21 17 -254 6 -271 -3 -5 -15 -10 -26 -10 -14 0 -19 -6 -17 -17 3 -19
5 -19 153 -14 33 1 45 5 45 16 0 8 -6 15 -14 15 -8 0 -22 10 -30 22 -20 29
-23 226 -3 249 32 39 99 41 111 2 4 -15 10 -210 7 -250 -1 -6 -10 -15 -21 -18
-11 -3 -20 -13 -20 -21 0 -12 16 -14 92 -12 56 2 93 7 95 14 2 6 -5 14 -16 17
-30 7 -38 39 -40 160 -2 120 -17 166 -58 188 -37 20 -98 13 -140 -15 -32 -22
-39 -23 -46 -11 -7 13 -60 47 -69 44 -2 -1 -18 -4 -35 -9z M1166 450 c-39 -12
-86 -59 -86 -86 0 -24 24 -54 43 -54 24 0 37 17 45 55 7 36 11 40 41 43 43 4
61 -12 61 -57 0 -36 -1 -37 -65 -61 -124 -46 -177 -139 -116 -204 38 -40 82
-43 137 -11 l47 28 18 -24 c24 -33 84 -32 110 2 25 33 24 49 -5 49 -30 0 -36
20 -36 138 0 115 -15 157 -64 177 -39 16 -85 18 -130 5z m106 -236 c4 -66 -10
-84 -64 -84 -30 0 -38 4 -46 28 -12 37 1 64 46 90 54 32 60 29 64 -34z M1475
442 c-55 -19 -73 -48 -33 -54 22 -3 23 -6 26 -123 3 -140 0 -161 -29 -168 -12
-3 -19 -12 -17 -19 4 -10 31 -13 103 -13 104 0 130 12 76 34 -34 15 -41 39
-41 153 0 51 5 89 15 108 18 34 23 36 51 15 26 -20 40 -19 64 5 25 25 25 34
-2 60 -28 25 -58 26 -91 0 -14 -11 -27 -20 -30 -20 -3 0 -7 9 -10 20 -6 24
-16 24 -82 2z M1773 438 c-55 -22 -69 -44 -30 -50 22 -3 22 -5 22 -143 l0
-139 -25 -6 c-14 -3 -26 -12 -28 -21 -2 -11 14 -15 83 -17 89 -3 125 2 125 19
0 5 -11 14 -25 19 -14 5 -26 13 -26 17 -1 5 -5 82 -8 173 -7 187 -4 182 -88
148z M2286 450 c-17 -5 -40 -21 -53 -36 -40 -47 -26 -94 29 -94 25 0 28 4 34
41 8 49 35 66 77 50 23 -9 27 -16 27 -51 0 -30 -5 -42 -17 -46 -130 -41 -207
-114 -187 -177 8 -29 44 -67 71 -78 24 -9 84 11 114 38 15 13 20 11 42 -11 15
-14 37 -26 50 -26 32 0 77 36 77 62 0 16 -4 19 -25 14 -31 -8 -33 1 -37 151
-3 108 -4 113 -33 142 -26 28 -35 31 -84 30 -31 0 -69 -5 -85 -9z m116 -226
c1 -30 0 -62 -5 -69 -11 -20 -74 -30 -92 -15 -18 15 -20 60 -2 82 11 15 74 56
89 57 3 1 8 -24 10 -55z M140 443 c-61 -12 -112 -97 -78 -131 29 -29 78 5 78
55 0 27 33 47 63 37 29 -9 37 -22 37 -62 0 -26 -5 -35 -27 -43 -133 -53 -173
-90 -173 -160 0 -40 4 -50 32 -73 40 -32 64 -33 124 -1 47 25 48 25 65 6 31
-34 57 -35 94 -6 41 31 46 55 10 55 -14 0 -25 1 -26 3 0 1 -4 62 -8 135 -7
125 -9 135 -34 159 -20 21 -37 27 -79 29 -29 1 -64 0 -78 -3z m91 -306 c-5 -5
-27 -10 -47 -11 -33 -1 -39 3 -48 26 -13 38 6 70 57 95 l42 20 3 -60 c2 -33
-1 -64 -7 -70z"/>
</g>
</svg>
