<?xml version="1.0" standalone="no"?>
<!DOCTYPE svg PUBLIC "-//W3C//DTD SVG 20010904//EN"
 "http://www.w3.org/TR/2001/REC-SVG-20010904/DTD/svg10.dtd">
<svg version="1.0" xmlns="http://www.w3.org/2000/svg"
 width="46.000000pt" height="67.000000pt" viewBox="0 0 46.000000 67.000000"
 preserveAspectRatio="xMidYMid meet">
<metadata>
Created by potrace 1.16, written by Peter Selinger 2001-2019
</metadata>
<g transform="translate(0.000000,67.000000) scale(0.100000,-0.100000)"
fill="#000000" stroke="none">
<path d="M166 620 c-38 -12 -94 -66 -112 -109 -16 -38 -19 -81 -5 -81 12 0 61
63 61 78 0 28 90 43 131 22 25 -14 49 -62 49 -98 0 -40 -25 -107 -52 -143 -13
-16 -62 -71 -110 -122 -49 -51 -88 -98 -88 -104 0 -15 -3 -14 140 -15 212 -1
198 -4 220 44 34 74 21 101 -26 57 -20 -19 -34 -21 -110 -20 -49 1 -89 3 -90
4 -3 3 53 69 114 136 63 69 86 123 86 203 0 65 -1 69 -36 102 -34 32 -92 57
-128 55 -8 0 -28 -5 -44 -9z"/>
</g>
</svg>
