<?xml version="1.0" standalone="no"?>
<!DOCTYPE svg PUBLIC "-//W3C//DTD SVG 20010904//EN"
 "http://www.w3.org/TR/2001/REC-SVG-20010904/DTD/svg10.dtd">
<svg version="1.0" xmlns="http://www.w3.org/2000/svg"
 width="88.000000pt" height="49.000000pt" viewBox="0 0 88.000000 49.000000"
 preserveAspectRatio="xMidYMid meet">
<metadata>
Created by potrace 1.16, written by Peter Selinger 2001-2019
</metadata>
<g transform="translate(0.000000,49.000000) scale(0.100000,-0.100000)"
fill="#000000" stroke="none">
<path d="M142 429 c-67 -33 -96 -87 -96 -174 0 -52 6 -81 21 -111 22 -42 95
-100 112 -90 5 4 12 2 16 -4 18 -29 119 1 160 47 46 51 59 84 59 159 1 66 -1
74 -34 117 -37 50 -66 64 -145 72 -39 4 -60 1 -93 -16z m103 -29 c36 -14 61
-47 74 -97 15 -58 14 -114 -4 -156 -17 -41 -40 -57 -84 -57 -57 0 -107 110
-98 214 5 51 10 64 34 83 32 26 41 27 78 13z M511 431 c-62 -19 -74 -36 -37
-51 l26 -10 0 -130 c0 -117 -2 -132 -20 -150 -11 -11 -20 -24 -20 -28 0 -11
103 -15 142 -7 33 8 35 18 8 45 -18 18 -20 33 -20 134 0 121 3 129 53 141 20
5 33 2 47 -10 18 -16 20 -32 20 -130 0 -99 -2 -115 -21 -139 -12 -15 -19 -29
-16 -32 7 -7 137 -12 155 -6 16 6 15 32 -2 32 -18 0 -26 45 -26 156 0 118 -18
170 -67 191 -38 15 -95 9 -114 -13 -16 -19 -27 -17 -34 6 -7 23 -4 23 -74 1z"/>
</g>
</svg>
