<?xml version="1.0" standalone="no"?>
<!DOCTYPE svg PUBLIC "-//W3C//DTD SVG 20010904//EN"
 "http://www.w3.org/TR/2001/REC-SVG-20010904/DTD/svg10.dtd">
<svg version="1.0" xmlns="http://www.w3.org/2000/svg"
 width="40.000000pt" height="102.000000pt" viewBox="0 0 40.000000 102.000000"
 preserveAspectRatio="xMidYMid meet">
<metadata>
Created by potrace 1.16, written by Peter Selinger 2001-2019
</metadata>
<g transform="translate(0.000000,102.000000) scale(0.100000,-0.100000)"
fill="#000000" stroke="none">
<path d="M92 973 c-7 -3 -18 -17 -26 -31 -33 -67 -26 -147 17 -198 21 -24 31
-27 98 -29 89 -3 89 -4 60 -113 -12 -47 -19 -96 -17 -127 2 -27 5 -146 5 -262
l1 -213 60 0 c72 0 68 -24 39 230 -11 102 -22 208 -25 235 -2 28 -6 55 -9 62
-5 16 21 119 41 158 8 17 18 59 21 95 4 56 2 69 -16 92 -23 28 -100 52 -138
42 -28 -8 -62 12 -73 42 -10 24 -15 27 -38 17z"/>
</g>
</svg>
