<?xml version="1.0" standalone="no"?>
<!DOCTYPE svg PUBLIC "-//W3C//DTD SVG 20010904//EN"
 "http://www.w3.org/TR/2001/REC-SVG-20010904/DTD/svg10.dtd">
<svg version="1.0" xmlns="http://www.w3.org/2000/svg"
 width="73.000000pt" height="101.000000pt" viewBox="0 0 73.000000 101.000000"
 preserveAspectRatio="xMidYMid meet">
<metadata>
Created by potrace 1.16, written by Peter Selinger 2001-2019
</metadata>
<g transform="translate(0.000000,101.000000) scale(0.100000,-0.100000)"
fill="#000000" stroke="none">
<path d="M401 927 c-25 -51 -27 -116 -6 -157 14 -27 37 -39 108 -54 15 -4 27
-10 27 -15 0 -5 -21 -49 -47 -97 -49 -91 -67 -131 -86 -196 -14 -48 -27 -49
-27 -2 0 28 -14 57 -66 130 -37 54 -68 109 -71 129 -5 34 -4 35 25 35 40 0 56
28 54 98 -2 85 -25 110 -110 118 -31 3 -53 12 -64 25 -47 55 -101 -14 -96
-119 4 -69 18 -89 70 -107 33 -10 33 -11 33 -75 0 -101 10 -126 84 -202 76
-79 88 -105 69 -145 -16 -33 -36 -40 -153 -50 l-90 -8 -3 -85 c-1 -47 2 -91 6
-98 9 -13 8 -14 256 54 28 8 70 25 95 38 62 32 84 80 116 249 28 156 39 186
96 270 52 76 69 116 69 165 0 57 -28 78 -125 92 -55 8 -85 18 -97 31 -25 30
-44 23 -67 -24z m-217 -103 c17 -7 21 -29 7 -39 -12 -7 -43 24 -36 36 7 11 9
11 29 3z m386 -9 c9 -11 10 -19 3 -26 -12 -12 -41 0 -63 25 -11 14 -8 16 18
16 16 0 35 -7 42 -15z"/>
</g>
</svg>
