<?xml version="1.0" standalone="no"?>
<!DOCTYPE svg PUBLIC "-//W3C//DTD SVG 20010904//EN"
 "http://www.w3.org/TR/2001/REC-SVG-20010904/DTD/svg10.dtd">
<svg version="1.0" xmlns="http://www.w3.org/2000/svg"
 width="128.000000pt" height="62.000000pt" viewBox="0 0 128.000000 62.000000"
 preserveAspectRatio="xMidYMid meet">
<metadata>
Created by potrace 1.16, written by Peter Selinger 2001-2019
</metadata>
<g transform="translate(0.000000,62.000000) scale(0.100000,-0.100000)"
fill="#000000" stroke="none">
<path d="M57 562 c-25 -27 -22 -103 4 -136 20 -26 20 -26 146 -22 l125 3 -8
-26 c-11 -39 -15 -329 -4 -336 16 -10 67 23 74 47 10 39 7 104 -9 165 -14 53
-13 63 4 119 23 78 16 133 -19 151 -16 8 -68 13 -142 13 -107 0 -118 2 -128
20 -13 25 -22 25 -43 2z M673 568 c-6 -7 -13 -34 -16 -59 -7 -49 11 -89 39
-89 21 0 17 -14 -12 -41 l-26 -24 -20 25 c-11 14 -29 36 -41 50 -12 14 -39 49
-60 78 -21 28 -46 52 -55 52 -18 0 -52 -51 -52 -78 0 -17 41 -84 67 -110 17
-18 17 -20 -12 -58 -35 -46 -40 -83 -20 -144 16 -48 16 -52 0 -70 -31 -35 -16
-53 48 -56 52 -3 59 -1 73 22 15 21 15 31 4 67 -6 23 -20 56 -31 73 -23 37
-25 84 -5 84 8 0 36 -27 63 -61 117 -148 136 -169 152 -169 27 0 48 22 54 55
6 37 -2 53 -58 113 -25 26 -47 55 -50 64 -9 26 22 77 60 99 37 22 51 58 39
103 -6 26 -48 56 -79 56 -9 0 -18 7 -21 15 -7 18 -28 20 -41 3z M852 543 c-3
-10 -6 -38 -6 -62 1 -47 28 -81 65 -81 27 0 31 -15 11 -41 -20 -27 -35 -74
-51 -165 -20 -107 -13 -144 25 -144 27 0 27 -1 29 97 2 89 37 186 79 216 35
24 106 26 141 3 15 -10 27 -30 31 -51 7 -39 0 -103 -13 -116 -4 -4 -37 -9 -73
-9 -36 -1 -73 -4 -83 -7 -21 -5 -47 -64 -47 -105 l0 -29 127 3 127 3 8 45 c5
25 9 99 11 165 2 132 -6 167 -56 222 -49 54 -117 69 -117 26 0 -21 -27 -63
-40 -63 -5 0 -11 13 -15 29 -8 36 -25 51 -60 55 -14 2 -31 8 -37 14 -18 18
-48 14 -56 -5z M79 291 c-20 -16 -24 -30 -29 -122 -4 -57 -5 -110 -2 -117 7
-19 31 -14 57 13 23 22 25 32 25 112 0 48 3 98 6 111 5 17 2 22 -14 22 -11 0
-30 -8 -43 -19z"/>
</g>
</svg>
