<?xml version="1.0" standalone="no"?>
<!DOCTYPE svg PUBLIC "-//W3C//DTD SVG 20010904//EN"
 "http://www.w3.org/TR/2001/REC-SVG-20010904/DTD/svg10.dtd">
<svg version="1.0" xmlns="http://www.w3.org/2000/svg"
 width="71.000000pt" height="93.000000pt" viewBox="0 0 71.000000 93.000000"
 preserveAspectRatio="xMidYMid meet">
<metadata>
Created by potrace 1.16, written by Peter Selinger 2001-2019
</metadata>
<g transform="translate(0.000000,93.000000) scale(0.100000,-0.100000)"
fill="#000000" stroke="none">
<path d="M93 893 c-45 -18 -65 -172 -28 -214 40 -44 71 -49 296 -49 116 1 213
-1 215 -3 2 -1 -6 -21 -17 -44 -33 -68 -41 -150 -29 -315 5 -82 7 -168 3 -190
-6 -40 -6 -41 20 -34 59 15 78 27 92 61 16 36 21 186 8 199 -5 4 -8 17 -9 29
0 12 -6 51 -14 87 -12 62 -11 70 14 149 17 56 26 107 26 152 0 63 -2 69 -31
93 l-31 26 -220 -1 c-196 -1 -221 1 -239 17 -10 9 -19 23 -19 31 0 13 -14 16
-37 6z m456 -159 c2 -2 2 -5 0 -7 -8 -6 -369 5 -369 12 0 6 362 2 369 -5z
M142 453 c-12 -2 -34 -20 -49 -40 -26 -34 -27 -36 -26 -201 1 -186 1 -188 67
-157 50 24 59 54 54 199 -4 90 -1 133 9 156 19 48 10 55 -55 43z"/>
</g>
</svg>
