<?xml version="1.0" standalone="no"?>
<!DOCTYPE svg PUBLIC "-//W3C//DTD SVG 20010904//EN"
 "http://www.w3.org/TR/2001/REC-SVG-20010904/DTD/svg10.dtd">
<svg version="1.0" xmlns="http://www.w3.org/2000/svg"
 width="73.000000pt" height="92.000000pt" viewBox="0 0 73.000000 92.000000"
 preserveAspectRatio="xMidYMid meet">
<metadata>
Created by potrace 1.16, written by Peter Selinger 2001-2019
</metadata>
<g transform="translate(0.000000,92.000000) scale(0.100000,-0.100000)"
fill="#000000" stroke="none">
<path d="M72 855 c-33 -41 -38 -116 -12 -169 22 -47 55 -66 111 -66 16 0 29
-3 29 -8 0 -4 -18 -43 -41 -87 -51 -101 -67 -177 -71 -345 l-3 -135 33 -3 c20
-2 34 2 37 10 2 7 9 76 14 153 11 157 34 241 82 301 16 20 29 40 29 44 0 5 17
18 38 30 32 20 47 22 115 17 118 -8 148 -35 167 -150 13 -85 4 -164 -21 -177
-10 -6 -78 -10 -151 -10 -73 0 -138 -4 -145 -8 -14 -9 -58 -191 -48 -200 4 -4
93 -7 199 -7 144 0 197 3 209 13 11 9 17 39 22 100 3 48 10 137 15 198 17 188
-14 316 -92 394 -36 36 -144 94 -163 87 -7 -3 -18 -27 -24 -54 -11 -44 -71
-123 -93 -123 -4 0 -8 20 -8 45 0 50 -20 99 -45 108 -8 4 -37 9 -65 13 -37 5
-53 13 -65 30 -20 30 -29 30 -53 -1z m478 -699 c0 -7 -10 -16 -22 -20 -37 -9
-146 -7 -153 4 -14 22 10 30 91 30 65 0 84 -3 84 -14z"/>
</g>
</svg>
