<?xml version="1.0" standalone="no"?>
<!DOCTYPE svg PUBLIC "-//W3C//DTD SVG 20010904//EN"
 "http://www.w3.org/TR/2001/REC-SVG-20010904/DTD/svg10.dtd">
<svg version="1.0" xmlns="http://www.w3.org/2000/svg"
 width="189.000000pt" height="50.000000pt" viewBox="0 0 189.000000 50.000000"
 preserveAspectRatio="xMidYMid meet">
<metadata>
Created by potrace 1.16, written by Peter Selinger 2001-2019
</metadata>
<g transform="translate(0.000000,50.000000) scale(0.100000,-0.100000)"
fill="#000000" stroke="none">
<path d="M920 453 c-36 -13 -91 -58 -111 -92 -17 -27 -22 -53 -23 -101 -1 -91
35 -156 103 -188 89 -40 161 -25 223 49 43 50 64 122 48 164 -6 15 -10 35 -10
47 0 11 -19 39 -41 63 -36 38 -50 45 -104 54 -34 6 -64 11 -66 10 -2 0 -11 -3
-19 -6z m106 -74 c41 -38 58 -158 31 -221 -31 -73 -90 -84 -136 -26 -88 110
-56 290 48 274 19 -3 44 -15 57 -27z M1260 444 c-30 -8 -59 -19 -64 -24 -12
-12 2 -30 24 -30 10 0 22 -5 25 -10 3 -6 8 -64 10 -130 5 -124 5 -124 -39
-154 -38 -26 -9 -38 87 -34 76 2 92 6 95 20 2 11 -5 18 -20 20 -23 3 -23 6
-26 133 -3 125 -2 130 20 147 32 25 74 23 92 -4 12 -17 16 -49 16 -134 0 -108
-1 -113 -25 -132 -35 -27 -31 -42 10 -43 19 -1 50 -2 68 -4 46 -3 87 6 87 18
0 6 -11 20 -25 32 -23 19 -25 26 -27 133 -2 125 3 137 59 148 24 5 36 1 52
-15 19 -19 21 -32 21 -141 0 -109 -2 -121 -20 -132 -44 -28 -23 -38 76 -38 85
0 95 2 92 17 -2 9 -14 20 -28 23 -25 6 -25 7 -30 140 -7 177 -26 210 -123 210
-31 0 -56 -8 -82 -26 l-39 -26 -16 22 c-25 33 -95 38 -144 11 -38 -22 -38 -22
-43 -1 -6 23 -10 24 -83 4z M478 438 c-16 -5 -28 -13 -28 -17 0 -4 -11 -13
-25 -19 -14 -6 -25 -17 -25 -23 0 -7 -8 -21 -17 -31 -13 -14 -17 -38 -18 -91
0 -61 4 -79 28 -120 34 -58 63 -78 130 -88 73 -12 121 5 164 58 41 50 56 112
46 187 -5 43 -13 58 -53 97 -38 37 -55 47 -95 52 -59 9 -73 8 -107 -5z m124
-67 c53 -62 62 -190 18 -251 -17 -24 -29 -30 -58 -30 -31 1 -42 7 -65 37 -35
47 -50 104 -45 172 4 44 10 59 32 78 39 33 88 31 118 -6z M92 418 c-55 -22
-62 -38 -21 -48 24 -6 24 -7 27 -138 l3 -133 -31 -17 c-16 -9 -30 -20 -30 -24
0 -5 50 -8 110 -8 111 0 138 10 83 31 -15 6 -31 16 -35 22 -4 7 -8 60 -8 118
0 91 3 110 19 130 17 21 22 22 40 12 30 -18 55 -16 76 7 18 20 18 21 -5 45
-27 28 -66 32 -96 10 -25 -19 -44 -19 -44 0 0 20 -24 18 -88 -7z"/>
</g>
</svg>
