<?xml version="1.0" standalone="no"?>
<!DOCTYPE svg PUBLIC "-//W3C//DTD SVG 20010904//EN"
 "http://www.w3.org/TR/2001/REC-SVG-20010904/DTD/svg10.dtd">
<svg version="1.0" xmlns="http://www.w3.org/2000/svg"
 width="89.000000pt" height="79.000000pt" viewBox="0 0 89.000000 79.000000"
 preserveAspectRatio="xMidYMid meet">
<metadata>
Created by potrace 1.16, written by Peter Selinger 2001-2019
</metadata>
<g transform="translate(0.000000,79.000000) scale(0.100000,-0.100000)"
fill="#000000" stroke="none">
<path d="M45 740 c-7 -11 4 -680 12 -692 5 -9 115 -11 137 -2 25 10 19 43 -9
54 -14 5 -32 7 -40 4 -13 -5 -15 7 -16 72 0 44 -1 176 -2 294 l-2 215 35 5
c29 4 35 9 35 30 0 24 -3 25 -72 28 -43 2 -74 -1 -78 -8z M249 593 c-13 -34
-3 -107 16 -123 7 -6 31 -12 52 -13 l38 -3 6 -169 c3 -94 6 -171 7 -172 5 -8
28 -1 43 13 15 14 16 35 13 202 -3 103 -7 197 -9 209 -8 33 -33 53 -69 53 -19
0 -39 7 -46 15 -19 23 -39 18 -51 -12z M471 607 c-20 -25 -23 -72 -7 -110 13
-31 20 -37 45 -37 38 0 42 -26 11 -68 -20 -27 -50 -156 -50 -217 0 -48 9 -65
35 -65 28 0 35 17 35 80 0 105 35 201 85 234 50 33 146 11 159 -36 11 -44 7
-115 -9 -128 -9 -7 -46 -12 -90 -13 -90 0 -106 -12 -108 -84 l-2 -48 117 -3
c113 -3 118 -2 131 20 15 23 23 115 21 243 -1 68 -18 119 -56 165 -20 25 -87
62 -98 55 -5 -3 -19 -27 -30 -52 -22 -49 -29 -49 -46 0 -9 26 -18 34 -52 42
-23 6 -47 16 -54 23 -15 15 -23 15 -37 -1z"/>
</g>
</svg>
