<?xml version="1.0" standalone="no"?>
<!DOCTYPE svg PUBLIC "-//W3C//DTD SVG 20010904//EN"
 "http://www.w3.org/TR/2001/REC-SVG-20010904/DTD/svg10.dtd">
<svg version="1.0" xmlns="http://www.w3.org/2000/svg"
 width="47.000000pt" height="68.000000pt" viewBox="0 0 47.000000 68.000000"
 preserveAspectRatio="xMidYMid meet">
<metadata>
Created by potrace 1.16, written by Peter Selinger 2001-2019
</metadata>
<g transform="translate(0.000000,68.000000) scale(0.100000,-0.100000)"
fill="#000000" stroke="none">
<path d="M191 625 c-92 -29 -137 -105 -148 -250 -10 -145 38 -274 117 -315 52
-27 100 -25 158 4 79 41 119 152 109 301 -10 138 -56 226 -132 253 -16 5 -37
12 -45 15 -8 3 -35 0 -59 -8z m80 -54 c45 -35 64 -111 63 -251 -1 -114 -4
-130 -27 -177 -18 -35 -34 -53 -52 -57 -31 -8 -81 16 -90 43 -32 101 -38 327
-10 383 23 45 55 78 75 78 10 0 28 -8 41 -19z"/>
</g>
</svg>
