<?xml version="1.0" standalone="no"?>
<!DOCTYPE svg PUBLIC "-//W3C//DTD SVG 20010904//EN"
 "http://www.w3.org/TR/2001/REC-SVG-20010904/DTD/svg10.dtd">
<svg version="1.0" xmlns="http://www.w3.org/2000/svg"
 width="342.000000pt" height="92.000000pt" viewBox="0 0 342.000000 92.000000"
 preserveAspectRatio="xMidYMid meet">
<metadata>
Created by potrace 1.16, written by Peter Selinger 2001-2019
</metadata>
<g transform="translate(0.000000,92.000000) scale(0.100000,-0.100000)"
fill="#000000" stroke="none">
<path d="M3115 869 c-9 -14 -1 -21 38 -34 57 -18 66 -54 67 -265 2 -227 2
-222 -9 -218 -6 2 -41 42 -78 89 -183 231 -291 365 -320 396 l-31 34 -94 -3
c-75 -2 -93 -6 -93 -18 0 -8 10 -16 21 -18 12 -2 33 -15 48 -31 l26 -27 7
-290 c7 -328 4 -341 -62 -365 -55 -20 -43 -35 33 -41 70 -6 192 -2 200 6 11
12 -9 36 -30 36 -35 1 -59 24 -69 67 -11 48 -12 483 -1 483 11 0 61 -55 125
-135 26 -33 62 -78 80 -99 18 -21 36 -46 41 -55 5 -9 27 -37 50 -63 81 -94
111 -131 131 -164 25 -40 71 -78 86 -69 7 5 9 105 6 339 -6 375 -4 392 53 411
19 7 36 19 38 28 3 15 -11 17 -127 17 -81 0 -132 -4 -136 -11z M2310 850 c-11
-11 -20 -26 -20 -34 0 -8 -19 -54 -41 -103 -23 -48 -49 -110 -59 -138 -43
-121 -111 -267 -128 -273 -5 -1 -22 26 -37 60 -16 35 -52 113 -80 173 -29 61
-74 155 -99 210 -26 55 -53 103 -59 107 -15 9 -162 10 -206 2 -41 -9 -34 -27
13 -35 72 -12 70 -5 76 -336 6 -336 4 -344 -60 -371 -42 -18 -51 -36 -24 -46
20 -8 101 -8 187 1 76 7 88 24 29 41 -66 20 -72 45 -72 313 0 137 4 228 9 224
14 -8 58 -90 92 -170 30 -70 55 -124 122 -266 20 -41 41 -87 46 -102 6 -15 18
-27 28 -27 17 0 27 19 106 200 11 25 28 63 38 86 11 22 19 43 19 47 0 7 46
113 61 140 5 9 19 42 30 73 37 99 44 69 47 -206 3 -281 1 -292 -61 -308 -17
-4 -32 -15 -32 -23 0 -11 21 -15 100 -16 196 -5 283 16 185 46 -21 6 -43 17
-47 24 -12 19 -23 615 -12 644 6 15 24 31 49 40 65 26 44 38 -73 41 -96 2
-108 1 -127 -18z M1368 853 c-96 -3 -118 -6 -118 -18 0 -8 7 -15 15 -15 27 0
63 -22 74 -47 18 -38 26 -469 11 -532 -19 -82 -98 -133 -205 -134 -92 -1 -149
47 -173 145 -15 59 -16 501 -2 528 5 10 26 24 45 30 20 7 34 17 32 23 -3 9
-50 12 -158 12 -127 0 -154 -2 -154 -14 0 -8 15 -19 32 -23 58 -15 61 -28 67
-303 5 -253 10 -284 49 -359 53 -100 263 -136 403 -69 61 29 106 88 123 163 6
25 11 149 11 277 0 254 5 280 52 290 15 3 33 11 39 19 12 15 4 35 -14 32 -7
-1 -65 -4 -129 -5z M103 842 c-47 -2 -63 -7 -63 -17 0 -8 9 -15 19 -15 11 0
32 -10 46 -22 l26 -23 6 -303 c7 -341 6 -345 -59 -363 -29 -7 -38 -15 -36 -27
3 -16 30 -17 318 -17 l315 0 22 90 c12 50 22 100 22 113 1 37 -26 25 -49 -22
-25 -52 -70 -89 -125 -105 -57 -16 -250 -14 -263 2 -11 13 -26 592 -16 632 5
22 36 40 79 47 11 2 20 10 20 18 0 12 -18 15 -100 15 -55 0 -128 -1 -162 -3z"/>
</g>
</svg>
