<?xml version="1.0" standalone="no"?>
<!DOCTYPE svg PUBLIC "-//W3C//DTD SVG 20010904//EN"
 "http://www.w3.org/TR/2001/REC-SVG-20010904/DTD/svg10.dtd">
<svg version="1.0" xmlns="http://www.w3.org/2000/svg"
 width="37.000000pt" height="92.000000pt" viewBox="0 0 37.000000 92.000000"
 preserveAspectRatio="xMidYMid meet">
<metadata>
Created by potrace 1.16, written by Peter Selinger 2001-2019
</metadata>
<g transform="translate(0.000000,92.000000) scale(0.100000,-0.100000)"
fill="#000000" stroke="none">
<path d="M63 854 c-25 -25 -25 -29 -20 -111 6 -105 20 -123 104 -134 34 -5 62
-14 69 -24 17 -22 28 -245 20 -396 -6 -130 -2 -149 35 -149 10 0 27 14 39 30
21 30 21 34 15 348 -3 174 -8 329 -11 344 -7 33 -56 58 -116 58 -38 0 -48 5
-66 30 -28 37 -36 37 -69 4z m120 -74 c58 -1 81 -14 97 -54 13 -36 14 -616 0
-616 -6 0 -11 53 -11 138 -3 222 -7 331 -13 356 -7 27 -50 46 -106 46 -20 0
-44 6 -54 13 -23 17 -32 100 -16 142 l11 30 21 -27 c17 -24 27 -28 71 -28z"/>
</g>
</svg>
