<?xml version="1.0" standalone="no"?>
<!DOCTYPE svg PUBLIC "-//W3C//DTD SVG 20010904//EN"
 "http://www.w3.org/TR/2001/REC-SVG-20010904/DTD/svg10.dtd">
<svg version="1.0" xmlns="http://www.w3.org/2000/svg"
 width="40.000000pt" height="41.000000pt" viewBox="0 0 40.000000 41.000000"
 preserveAspectRatio="xMidYMid meet">
<metadata>
Created by potrace 1.16, written by Peter Selinger 2001-2019
</metadata>
<g transform="translate(0.000000,41.000000) scale(0.100000,-0.100000)"
fill="#000000" stroke="none">
<path d="M164 361 c-41 -10 -72 -33 -93 -68 -44 -71 -33 -151 30 -214 35 -35
44 -39 92 -39 67 0 115 25 144 76 42 73 18 196 -44 227 -38 19 -91 27 -129 18z
m108 -103 c42 -52 -1 -137 -69 -138 -41 0 -83 47 -83 95 0 70 107 100 152 43z"/>
</g>
</svg>
