<?xml version="1.0" standalone="no"?>
<!DOCTYPE svg PUBLIC "-//W3C//DTD SVG 20010904//EN"
 "http://www.w3.org/TR/2001/REC-SVG-20010904/DTD/svg10.dtd">
<svg version="1.0" xmlns="http://www.w3.org/2000/svg"
 width="78.000000pt" height="93.000000pt" viewBox="0 0 78.000000 93.000000"
 preserveAspectRatio="xMidYMid meet">
<metadata>
Created by potrace 1.16, written by Peter Selinger 2001-2019
</metadata>
<g transform="translate(0.000000,93.000000) scale(0.100000,-0.100000)"
fill="#000000" stroke="none">
<path d="M150 845 c-44 -104 -14 -215 59 -215 26 0 26 -2 -2 -53 -33 -58 -39
-113 -26 -218 13 -106 7 -119 -52 -119 -34 0 -41 -4 -50 -27 -18 -48 -38 -158
-30 -166 4 -4 61 -6 127 -5 l119 3 13 39 c19 58 17 173 -3 226 -27 72 -31 170
-9 231 29 80 47 89 175 89 100 0 110 -2 136 -24 l28 -24 3 -264 c2 -144 7
-267 11 -271 12 -12 68 19 82 44 8 15 9 96 5 278 -8 339 -15 368 -94 425 l-44
31 -184 5 c-185 5 -185 5 -197 30 -21 42 -45 37 -67 -15z m280 -94 c0 -6 -4
-13 -10 -16 -5 -3 -10 1 -10 9 0 9 5 16 10 16 6 0 10 -4 10 -9z m-100 -21 c13
-9 12 -12 -4 -25 -27 -21 -63 -19 -75 4 -6 10 -7 21 -4 25 10 10 66 7 83 -4z"/>
</g>
</svg>
