<?xml version="1.0" standalone="no"?>
<!DOCTYPE svg PUBLIC "-//W3C//DTD SVG 20010904//EN"
 "http://www.w3.org/TR/2001/REC-SVG-20010904/DTD/svg10.dtd">
<svg version="1.0" xmlns="http://www.w3.org/2000/svg"
 width="75.000000pt" height="93.000000pt" viewBox="0 0 75.000000 93.000000"
 preserveAspectRatio="xMidYMid meet">
<metadata>
Created by potrace 1.16, written by Peter Selinger 2001-2019
</metadata>
<g transform="translate(0.000000,93.000000) scale(0.100000,-0.100000)"
fill="#000000" stroke="none">
<path d="M65 870 c-16 -18 -19 -36 -19 -110 1 -98 8 -114 62 -137 37 -15 37
-13 16 -61 -19 -45 -22 -183 -5 -262 6 -30 13 -93 15 -140 7 -131 -12 -120
205 -120 102 0 191 4 196 8 15 11 70 125 110 227 75 193 80 356 15 470 -39 68
-68 88 -128 89 -89 2 -148 -46 -173 -139 -6 -22 -15 -44 -19 -50 -4 -5 -11
-43 -15 -82 -7 -73 -7 -73 18 -73 19 0 27 8 41 43 19 50 58 83 110 92 32 6 40
3 69 -26 29 -29 35 -43 41 -100 11 -98 -18 -200 -66 -233 -18 -13 -52 -16
-160 -16 -132 0 -138 1 -152 23 -27 43 -40 179 -24 260 11 55 29 77 63 77 35
0 48 32 43 107 -5 84 -24 103 -107 110 -53 5 -63 9 -74 32 -16 33 -38 37 -62
11z m119 -136 c20 -8 21 -44 2 -44 -18 0 -39 27 -31 40 7 12 8 12 29 4z m211
-583 l60 -6 -87 -8 c-86 -7 -118 -3 -118 14 0 10 55 10 145 0z"/>
</g>
</svg>
