<?xml version="1.0" standalone="no"?>
<!DOCTYPE svg PUBLIC "-//W3C//DTD SVG 20010904//EN"
 "http://www.w3.org/TR/2001/REC-SVG-20010904/DTD/svg10.dtd">
<svg version="1.0" xmlns="http://www.w3.org/2000/svg"
 width="44.000000pt" height="49.000000pt" viewBox="0 0 44.000000 49.000000"
 preserveAspectRatio="xMidYMid meet">
<metadata>
Created by potrace 1.16, written by Peter Selinger 2001-2019
</metadata>
<g transform="translate(0.000000,49.000000) scale(0.100000,-0.100000)"
fill="#000000" stroke="none">
<path d="M146 434 c-75 -28 -115 -108 -66 -134 22 -12 59 2 61 23 1 7 3 23 4
36 3 31 23 42 60 35 36 -8 45 -19 45 -62 0 -22 -5 -34 -17 -38 -43 -14 -130
-58 -151 -77 -30 -28 -46 -90 -31 -119 31 -61 87 -73 161 -35 l46 23 21 -24
c17 -20 28 -23 53 -18 60 12 97 76 44 76 -32 0 -36 14 -36 133 0 115 -9 140
-59 174 -38 26 -77 28 -135 7z m104 -237 c0 -59 -2 -65 -25 -75 -53 -24 -85
-6 -85 48 0 30 64 86 103 89 4 1 7 -28 7 -62z"/>
</g>
</svg>
