<?xml version="1.0" standalone="no"?>
<!DOCTYPE svg PUBLIC "-//W3C//DTD SVG 20010904//EN"
 "http://www.w3.org/TR/2001/REC-SVG-20010904/DTD/svg10.dtd">
<svg version="1.0" xmlns="http://www.w3.org/2000/svg"
 width="41.000000pt" height="67.000000pt" viewBox="0 0 41.000000 67.000000"
 preserveAspectRatio="xMidYMid meet">
<metadata>
Created by potrace 1.16, written by Peter Selinger 2001-2019
</metadata>
<g transform="translate(0.000000,67.000000) scale(0.100000,-0.100000)"
fill="#000000" stroke="none">
<path d="M134 615 c-53 -27 -76 -60 -82 -113 -5 -54 23 -122 58 -144 27 -17
25 -23 -13 -62 -46 -45 -60 -103 -41 -161 24 -70 51 -88 142 -93 73 -4 80 -3
110 23 43 36 62 75 62 125 0 52 -21 92 -72 140 l-40 37 37 30 c21 18 42 48 51
73 13 38 13 45 -3 78 -10 20 -30 44 -44 54 -36 27 -125 33 -165 13z m121 -57
c22 -26 26 -39 21 -66 -6 -39 -30 -80 -52 -89 -32 -12 -86 45 -99 104 -5 27
-2 37 19 58 36 36 77 33 111 -7z m-14 -306 c47 -43 52 -52 51 -88 -2 -52 -41
-89 -86 -80 -73 15 -106 98 -67 175 12 22 28 41 36 41 7 0 37 -22 66 -48z"/>
</g>
</svg>
