<?xml version="1.0" standalone="no"?>
<!DOCTYPE svg PUBLIC "-//W3C//DTD SVG 20010904//EN"
 "http://www.w3.org/TR/2001/REC-SVG-20010904/DTD/svg10.dtd">
<svg version="1.0" xmlns="http://www.w3.org/2000/svg"
 width="73.000000pt" height="100.000000pt" viewBox="0 0 73.000000 100.000000"
 preserveAspectRatio="xMidYMid meet">
<metadata>
Created by potrace 1.16, written by Peter Selinger 2001-2019
</metadata>
<g transform="translate(0.000000,100.000000) scale(0.100000,-0.100000)"
fill="#000000" stroke="none">
<path d="M415 934 c-9 -14 -21 -49 -27 -78 -10 -46 -9 -57 8 -90 15 -31 29
-42 71 -56 76 -26 76 -27 54 -63 -40 -66 -101 -191 -101 -208 0 -10 -4 -20 -9
-23 -4 -3 -11 -19 -14 -36 -9 -40 -27 -38 -27 3 0 34 -27 82 -102 182 -25 33
-38 61 -38 82 0 28 3 32 32 35 37 3 45 22 47 102 1 42 -3 52 -32 80 -25 25
-44 34 -84 40 -37 5 -56 12 -63 26 -41 76 -110 -79 -78 -175 10 -30 20 -42 43
-48 60 -18 60 -19 57 -94 -5 -89 8 -118 92 -211 67 -74 78 -101 56 -142 -14
-26 -63 -40 -144 -40 -43 0 -77 -5 -84 -12 -8 -8 -12 -46 -12 -106 l0 -94 28
5 c37 7 203 63 280 94 102 42 120 75 163 308 24 132 32 152 94 240 68 95 81
179 34 221 -18 16 -66 28 -153 38 -17 2 -36 13 -44 25 -19 27 -26 27 -47 -5z
m143 -130 c22 -15 22 -34 -2 -34 -21 0 -49 26 -42 38 10 16 17 15 44 -4z
m-369 -7 c6 -8 8 -16 5 -20 -10 -9 -34 4 -34 19 0 18 14 18 29 1z"/>
</g>
</svg>
