<?xml version="1.0" standalone="no"?>
<!DOCTYPE svg PUBLIC "-//W3C//DTD SVG 20010904//EN"
 "http://www.w3.org/TR/2001/REC-SVG-20010904/DTD/svg10.dtd">
<svg version="1.0" xmlns="http://www.w3.org/2000/svg"
 width="176.000000pt" height="66.000000pt" viewBox="0 0 176.000000 66.000000"
 preserveAspectRatio="xMidYMid meet">
<metadata>
Created by potrace 1.16, written by Peter Selinger 2001-2019
</metadata>
<g transform="translate(0.000000,66.000000) scale(0.100000,-0.100000)"
fill="#000000" stroke="none">
<path d="M323 633 c-30 -10 -43 -20 -43 -34 0 -12 7 -19 20 -19 23 0 22 5 23
-304 0 -166 -1 -169 -24 -187 -13 -10 -21 -21 -17 -24 10 -10 175 -12 184 -2
5 4 -4 18 -19 30 -27 22 -27 24 -28 139 -2 126 3 142 50 160 67 25 91 -16 91
-156 0 -112 -6 -135 -37 -147 -14 -5 -23 -15 -20 -22 3 -8 30 -11 97 -10 51 1
95 5 99 8 3 4 -5 15 -19 25 -24 18 -25 24 -30 160 l-5 142 -39 35 c-36 33 -41
35 -89 30 -27 -4 -57 -13 -67 -22 -28 -25 -39 -18 -38 28 1 23 0 75 0 115 -2
68 -3 72 -24 71 -13 0 -42 -7 -65 -16z M106 500 c-20 -28 -43 -53 -51 -56 -23
-9 -19 -44 5 -44 18 0 20 -7 21 -87 2 -192 14 -244 60 -263 39 -16 97 5 119
42 18 34 8 45 -25 28 -46 -25 -56 -1 -61 148 l-5 132 41 6 c52 8 52 37 0 44
-29 4 -35 9 -36 30 -2 58 -5 70 -18 70 -8 0 -30 -23 -50 -50z M1187 463 c-4
-3 -28 -14 -54 -22 -54 -18 -63 -32 -31 -46 22 -10 23 -14 23 -150 0 -136 -1
-140 -23 -150 -44 -19 -15 -30 83 -30 68 0 100 4 102 12 3 7 -7 15 -22 19 -38
9 -45 32 -45 147 0 87 3 109 19 128 16 20 21 21 48 10 31 -12 83 -1 83 18 0
59 -60 87 -109 52 -36 -26 -37 -26 -44 -1 -5 20 -18 26 -30 13z M1509 461
c-98 -32 -158 -149 -128 -252 17 -57 52 -114 84 -135 19 -12 41 -15 86 -12 55
4 65 8 100 44 35 35 69 92 69 115 0 17 -29 9 -40 -10 -16 -31 -69 -64 -100
-63 -64 2 -115 50 -122 118 l-3 29 120 5 120 5 3 30 c3 34 -26 87 -60 109 -29
19 -95 28 -129 17z m81 -85 c4 -11 6 -24 3 -28 -6 -12 -121 -10 -128 2 -8 13
23 58 43 63 28 6 73 -14 82 -37z M832 446 c-84 -30 -130 -118 -118 -223 16
-137 116 -207 229 -159 65 27 144 156 96 156 -5 0 -27 -18 -48 -40 -44 -46
-85 -53 -138 -20 -37 22 -48 41 -58 92 l-7 37 123 3 124 3 -3 39 c-8 96 -101
148 -200 112z m78 -56 c11 -11 20 -28 20 -39 0 -16 -9 -18 -65 -19 -58 -1 -65
1 -65 18 0 28 35 60 65 60 14 0 34 -9 45 -20z"/>
</g>
</svg>
