<?xml version="1.0" standalone="no"?>
<!DOCTYPE svg PUBLIC "-//W3C//DTD SVG 20010904//EN"
 "http://www.w3.org/TR/2001/REC-SVG-20010904/DTD/svg10.dtd">
<svg version="1.0" xmlns="http://www.w3.org/2000/svg"
 width="165.000000pt" height="89.000000pt" viewBox="0 0 165.000000 89.000000"
 preserveAspectRatio="xMidYMid meet">
<metadata>
Created by potrace 1.16, written by Peter Selinger 2001-2019
</metadata>
<g transform="translate(0.000000,89.000000) scale(0.100000,-0.100000)"
fill="#000000" stroke="none">
<path d="M683 843 c-71 -3 -93 -7 -93 -18 0 -7 16 -19 35 -25 57 -19 56 -37
-5 -200 -63 -168 -92 -246 -103 -278 -16 -50 -37 -36 -73 48 -65 149 -95 217
-148 332 -29 63 -26 85 13 94 46 10 53 14 48 27 -3 9 -43 12 -158 12 -138 0
-154 -2 -157 -17 -2 -13 3 -18 17 -18 29 0 65 -43 107 -130 20 -41 45 -91 54
-110 10 -19 51 -109 90 -200 98 -225 138 -307 151 -315 18 -12 31 9 65 107 18
51 47 129 64 173 17 44 41 109 54 145 89 244 130 330 161 330 7 0 18 7 26 16
10 13 10 17 -2 25 -8 5 -23 8 -34 7 -11 -1 -62 -4 -112 -5z M879 840 c-21 -14
-2 -40 29 -40 34 0 58 -23 66 -65 3 -16 7 -159 8 -317 3 -319 4 -313 -63 -327
-21 -4 -35 -14 -37 -24 -3 -16 10 -17 165 -15 139 3 168 5 168 18 0 8 -16 18
-39 23 -62 15 -64 28 -65 374 -1 334 -3 326 64 339 26 4 35 11 35 25 0 19 -8
19 -159 18 -88 -1 -165 -5 -172 -9z M1265 840 c-10 -16 3 -27 39 -34 66 -13
63 10 66 -424 2 -270 1 -273 -64 -290 -17 -5 -31 -15 -31 -23 0 -11 20 -14
100 -16 156 -2 237 7 233 26 -2 10 -15 17 -35 19 -53 5 -68 33 -69 126 -6 336
-4 538 6 556 6 11 23 22 38 26 47 10 52 13 52 29 0 13 -23 15 -164 15 -99 0
-167 -4 -171 -10z"/>
</g>
</svg>
