<?xml version="1.0" standalone="no"?>
<!DOCTYPE svg PUBLIC "-//W3C//DTD SVG 20010904//EN"
 "http://www.w3.org/TR/2001/REC-SVG-20010904/DTD/svg10.dtd">
<svg version="1.0" xmlns="http://www.w3.org/2000/svg"
 width="111.000000pt" height="67.000000pt" viewBox="0 0 111.000000 67.000000"
 preserveAspectRatio="xMidYMid meet">
<metadata>
Created by potrace 1.16, written by Peter Selinger 2001-2019
</metadata>
<g transform="translate(0.000000,67.000000) scale(0.100000,-0.100000)"
fill="#000000" stroke="none">
<path d="M360 623 c-39 -13 -80 -35 -80 -42 0 -5 11 -12 25 -15 28 -7 25 24
26 -326 1 -144 1 -138 -21 -157 -11 -10 -20 -21 -20 -25 0 -5 43 -8 95 -8 78
0 95 3 95 15 0 8 -8 15 -18 15 -30 0 -39 38 -38 152 1 120 8 135 67 144 50 8
69 -13 70 -79 1 -29 2 -77 4 -107 3 -77 -4 -100 -31 -110 -50 -19 -24 -30 71
-30 52 0 95 3 95 8 0 4 -11 17 -24 29 -22 22 -24 29 -23 140 0 65 -3 128 -7
140 -4 12 -23 36 -43 54 -33 28 -41 31 -82 25 -24 -3 -54 -15 -66 -26 -12 -11
-25 -17 -28 -13 -4 3 -7 55 -7 115 0 106 -1 108 -22 107 -13 0 -30 -3 -38 -6z
M150 531 c0 -5 -25 -35 -55 -66 -55 -57 -61 -75 -24 -75 18 0 19 -8 19 -139 0
-128 2 -141 23 -172 21 -31 27 -34 74 -34 54 1 93 23 93 52 0 12 -9 13 -39 8
-55 -9 -61 7 -61 159 l0 126 35 0 c23 0 38 6 42 15 8 21 0 27 -39 29 -32 1
-33 3 -38 50 -3 27 -11 51 -17 54 -7 2 -13 -1 -13 -7z M855 439 c-107 -31
-158 -205 -96 -328 17 -32 28 -41 76 -55 72 -23 115 -15 167 32 34 31 68 84
68 107 0 17 -36 0 -64 -29 -41 -45 -76 -53 -125 -32 -26 12 -42 29 -54 57 -35
82 -36 81 88 84 61 1 116 3 123 4 18 2 15 39 -9 89 -32 66 -99 93 -174 71z
m81 -81 c9 -16 13 -32 11 -35 -3 -3 -33 -7 -66 -10 -58 -5 -61 -5 -61 16 0 12
11 32 23 45 32 32 72 24 93 -16z"/>
</g>
</svg>
