<?xml version="1.0" standalone="no"?>
<!DOCTYPE svg PUBLIC "-//W3C//DTD SVG 20010904//EN"
 "http://www.w3.org/TR/2001/REC-SVG-20010904/DTD/svg10.dtd">
<svg version="1.0" xmlns="http://www.w3.org/2000/svg"
 width="66.000000pt" height="49.000000pt" viewBox="0 0 66.000000 49.000000"
 preserveAspectRatio="xMidYMid meet">
<metadata>
Created by potrace 1.16, written by Peter Selinger 2001-2019
</metadata>
<g transform="translate(0.000000,49.000000) scale(0.100000,-0.100000)"
fill="#000000" stroke="none">
<path d="M135 440 c-69 -23 -106 -88 -70 -123 32 -33 75 -8 75 43 0 39 30 56
68 38 21 -10 28 -21 30 -51 3 -32 0 -38 -22 -47 -121 -45 -166 -86 -173 -154
-5 -41 -2 -48 26 -77 29 -29 36 -31 77 -25 25 3 57 15 72 27 l26 20 19 -25
c25 -34 66 -34 106 0 34 28 35 32 22 53 -8 12 -12 12 -25 2 -22 -19 -24 -8
-30 138 -5 122 -5 125 -35 154 -24 25 -39 31 -83 33 -29 2 -66 -1 -83 -6z
m115 -232 c0 -59 -5 -70 -37 -87 -26 -13 -67 -1 -77 24 -14 38 -5 56 41 85 66
42 73 40 73 -22z M399 274 c-6 -7 -8 -25 -5 -39 6 -25 8 -25 105 -25 111 0
129 9 111 54 -9 25 -11 26 -104 25 -69 0 -98 -5 -107 -15z"/>
</g>
</svg>
