<?xml version="1.0" standalone="no"?>
<!DOCTYPE svg PUBLIC "-//W3C//DTD SVG 20010904//EN"
 "http://www.w3.org/TR/2001/REC-SVG-20010904/DTD/svg10.dtd">
<svg version="1.0" xmlns="http://www.w3.org/2000/svg"
 width="37.000000pt" height="94.000000pt" viewBox="0 0 37.000000 94.000000"
 preserveAspectRatio="xMidYMid meet">
<metadata>
Created by potrace 1.16, written by Peter Selinger 2001-2019
</metadata>
<g transform="translate(0.000000,94.000000) scale(0.100000,-0.100000)"
fill="#000000" stroke="none">
<path d="M59 884 c-15 -18 -25 -139 -15 -176 13 -46 32 -59 101 -68 37 -5 72
-13 77 -18 13 -13 15 -43 17 -329 1 -241 2 -253 20 -253 10 0 29 9 42 19 l24
19 -3 342 c-1 250 -5 349 -15 369 -14 31 -57 53 -106 56 -20 1 -43 3 -51 4 -8
0 -20 11 -25 24 -12 27 -47 34 -66 11z"/>
</g>
</svg>
