<?xml version="1.0" standalone="no"?>
<!DOCTYPE svg PUBLIC "-//W3C//DTD SVG 20010904//EN"
 "http://www.w3.org/TR/2001/REC-SVG-20010904/DTD/svg10.dtd">
<svg version="1.0" xmlns="http://www.w3.org/2000/svg"
 width="32.000000pt" height="66.000000pt" viewBox="0 0 32.000000 66.000000"
 preserveAspectRatio="xMidYMid meet">
<metadata>
Created by potrace 1.16, written by Peter Selinger 2001-2019
</metadata>
<g transform="translate(0.000000,66.000000) scale(0.100000,-0.100000)"
fill="#000000" stroke="none">
<path d="M135 598 c-22 -12 -51 -27 -65 -34 -14 -7 -27 -20 -28 -29 -3 -14 1
-16 26 -10 17 3 33 2 35 -3 5 -7 11 -355 8 -414 -1 -10 -15 -21 -36 -28 -19
-6 -35 -15 -35 -20 0 -12 115 -23 175 -17 28 3 53 6 58 6 4 1 7 8 7 16 0 10
-10 15 -29 15 -18 0 -31 6 -35 17 -4 9 -9 127 -12 262 -3 135 -8 249 -11 254
-6 10 -13 9 -58 -15z"/>
</g>
</svg>
