<?xml version="1.0" standalone="no"?>
<!DOCTYPE svg PUBLIC "-//W3C//DTD SVG 20010904//EN"
 "http://www.w3.org/TR/2001/REC-SVG-20010904/DTD/svg10.dtd">
<svg version="1.0" xmlns="http://www.w3.org/2000/svg"
 width="71.000000pt" height="94.000000pt" viewBox="0 0 71.000000 94.000000"
 preserveAspectRatio="xMidYMid meet">
<metadata>
Created by potrace 1.16, written by Peter Selinger 2001-2019
</metadata>
<g transform="translate(0.000000,94.000000) scale(0.100000,-0.100000)"
fill="#000000" stroke="none">
<path d="M81 883 c-32 -27 -48 -117 -30 -173 23 -75 44 -80 302 -80 119 0 217
-3 217 -7 0 -3 -12 -31 -27 -62 -27 -55 -28 -58 -23 -216 2 -88 4 -193 4 -233
l-1 -74 35 7 c83 15 97 46 89 198 -3 62 -11 138 -18 170 -12 53 -11 66 11 155
37 146 31 225 -20 256 -28 16 -52 18 -218 16 -263 -3 -249 -5 -267 30 -18 35
-25 36 -54 13z m458 -148 c13 -14 -19 -16 -130 -8 l-124 8 85 6 c82 6 159 3
169 -6z m-316 -2 c-7 -2 -21 -2 -30 0 -10 3 -4 5 12 5 17 0 24 -2 18 -5z M124
443 c-59 -29 -65 -53 -63 -238 3 -182 1 -177 66 -155 46 16 53 45 53 210 0 88
4 151 10 155 6 3 10 15 10 26 0 23 -31 25 -76 2z"/>
</g>
</svg>
