<?xml version="1.0" standalone="no"?>
<!DOCTYPE svg PUBLIC "-//W3C//DTD SVG 20010904//EN"
 "http://www.w3.org/TR/2001/REC-SVG-20010904/DTD/svg10.dtd">
<svg version="1.0" xmlns="http://www.w3.org/2000/svg"
 width="47.000000pt" height="61.000000pt" viewBox="0 0 47.000000 61.000000"
 preserveAspectRatio="xMidYMid meet">
<metadata>
Created by potrace 1.16, written by Peter Selinger 2001-2019
</metadata>
<g transform="translate(0.000000,61.000000) scale(0.100000,-0.100000)"
fill="#000000" stroke="none">
<path d="M282 558 c-5 -7 -13 -34 -16 -60 -6 -43 -4 -50 18 -73 25 -25 25 -27
10 -50 -9 -14 -20 -25 -24 -25 -9 0 -131 153 -144 181 -12 26 -51 24 -70 -3
-32 -46 -13 -108 49 -160 17 -14 18 -20 7 -35 -59 -84 -65 -115 -35 -178 16
-34 16 -35 -7 -60 -19 -20 -21 -27 -10 -40 16 -19 113 -21 128 -2 25 30 23 63
-7 121 -33 62 -40 106 -17 106 7 0 43 -37 79 -82 36 -46 81 -98 100 -116 34
-33 35 -34 61 -17 20 14 26 25 26 54 0 30 -9 47 -50 92 -27 29 -52 62 -56 71
-8 27 26 90 57 101 38 15 52 42 44 88 -7 41 -41 69 -83 69 -11 0 -22 7 -26 15
-7 18 -20 19 -34 3z"/>
</g>
</svg>
