<?xml version="1.0" standalone="no"?>
<!DOCTYPE svg PUBLIC "-//W3C//DTD SVG 20010904//EN"
 "http://www.w3.org/TR/2001/REC-SVG-20010904/DTD/svg10.dtd">
<svg version="1.0" xmlns="http://www.w3.org/2000/svg"
 width="70.000000pt" height="91.000000pt" viewBox="0 0 70.000000 91.000000"
 preserveAspectRatio="xMidYMid meet">
<metadata>
Created by potrace 1.16, written by Peter Selinger 2001-2019
</metadata>
<g transform="translate(0.000000,91.000000) scale(0.100000,-0.100000)"
fill="#000000" stroke="none">
<path d="M93 858 c-30 -39 -39 -133 -18 -186 27 -66 44 -72 204 -72 137 0 141
-1 156 -24 9 -13 19 -36 24 -52 11 -40 -4 -163 -26 -210 l-18 -39 -155 -10
c-85 -5 -160 -13 -166 -17 -6 -4 -16 -36 -23 -70 -6 -35 -16 -76 -21 -92 -7
-22 -6 -32 3 -38 14 -9 514 -2 540 8 9 3 20 18 23 33 3 14 13 53 21 86 24 95
26 90 -39 88 -51 -2 -58 0 -58 17 0 10 4 21 9 24 31 20 45 264 22 389 -7 37
-17 67 -22 67 -5 0 -9 6 -9 14 0 7 -12 21 -26 31 -22 14 -48 16 -177 13 l-152
-3 -13 28 c-10 20 -20 27 -41 27 -16 0 -33 -6 -38 -12z m67 -80 c0 -5 67 -8
149 -8 82 0 160 -4 173 -9 17 -7 27 -22 37 -59 38 -149 30 -301 -22 -409 -12
-27 -33 -31 -22 -5 14 32 24 87 30 162 5 62 3 83 -13 121 -32 74 -45 79 -204
79 -166 0 -178 6 -178 93 0 30 3 56 6 60 7 7 44 -14 44 -25z m427 -562 c4 -4
-15 -115 -20 -117 -1 0 -104 -3 -229 -6 l-228 -5 1 29 c0 15 5 44 12 63 l12
35 145 5 c154 5 300 4 307 -4z"/>
</g>
</svg>
