<?xml version="1.0" standalone="no"?>
<!DOCTYPE svg PUBLIC "-//W3C//DTD SVG 20010904//EN"
 "http://www.w3.org/TR/2001/REC-SVG-20010904/DTD/svg10.dtd">
<svg version="1.0" xmlns="http://www.w3.org/2000/svg"
 width="174.000000pt" height="116.000000pt" viewBox="0 0 174.000000 116.000000"
 preserveAspectRatio="xMidYMid meet">
<metadata>
Created by potrace 1.16, written by Peter Selinger 2001-2019
</metadata>
<g transform="translate(0.000000,116.000000) scale(0.100000,-0.100000)"
fill="#000000" stroke="none">
<path d="M90 1153 c0 -6 39 -59 70 -95 8 -10 19 -18 25 -18 9 0 55 56 88 108
6 9 -14 12 -88 12 -52 0 -95 -3 -95 -7z M73 918 c-23 -31 -32 -90 -22 -149 14
-90 31 -109 100 -109 14 0 40 -5 57 -11 41 -14 42 -18 45 -339 2 -288 3 -292
57 -250 l25 19 -2 355 c-1 321 -3 358 -19 385 -20 34 -58 51 -113 51 -42 0
-54 7 -70 38 -13 24 -43 29 -58 10z m127 -148 c8 -5 11 -12 8 -16 -10 -9 -38
3 -38 16 0 12 10 13 30 0z M1451 892 c-16 -12 -25 -36 -33 -89 -14 -86 -5
-114 46 -144 l35 -20 -31 -44 c-31 -44 -49 -48 -64 -15 -9 19 -68 89 -141 170
-24 26 -43 52 -43 57 0 6 -7 17 -16 24 -9 7 -20 23 -25 36 -19 50 -100 12
-118 -55 -6 -20 -8 -54 -5 -77 7 -41 55 -125 93 -159 28 -25 27 -30 -14 -80
-72 -88 -81 -151 -35 -242 16 -32 30 -65 30 -72 0 -8 -13 -27 -30 -42 -31 -29
-39 -63 -18 -76 17 -11 210 -4 224 7 7 6 15 32 19 59 8 57 -13 115 -62 171
-34 38 -47 83 -37 123 9 38 37 33 67 -12 13 -21 53 -67 87 -103 34 -35 69 -75
78 -89 30 -46 126 -160 134 -160 5 0 22 7 38 15 39 20 70 74 70 123 0 42 -9
56 -90 142 -82 87 -92 104 -87 142 5 34 44 98 77 125 8 7 25 13 37 13 33 0 47
36 44 110 -2 57 -6 69 -33 97 -22 23 -44 34 -74 39 -24 3 -51 15 -60 25 -21
24 -36 24 -63 1z m52 -57 c11 -7 38 -17 60 -20 57 -10 77 -30 77 -77 0 -50
-16 -81 -38 -74 -9 3 -43 12 -74 21 -70 20 -83 46 -65 133 7 35 13 38 40 17z
m-331 -47 c22 -24 51 -60 65 -80 14 -21 29 -38 34 -38 4 0 10 -8 13 -17 8 -25
138 -163 154 -163 7 0 18 11 24 25 19 42 28 28 22 -33 -6 -56 -5 -59 35 -109
22 -29 55 -67 73 -85 18 -18 42 -49 52 -70 19 -34 19 -37 2 -63 -26 -39 -46
-43 -70 -11 -26 34 -99 121 -151 182 -22 25 -47 57 -55 69 -9 13 -27 34 -40
47 -14 13 -33 35 -43 51 -9 15 -26 27 -35 27 -34 0 -89 -101 -78 -142 3 -13
25 -53 49 -89 43 -65 70 -139 61 -164 -6 -16 -82 -28 -118 -19 -24 6 -25 8
-11 27 21 30 18 65 -10 122 -44 90 -31 156 46 240 40 43 40 44 25 74 -9 16
-22 34 -30 38 -28 17 -96 119 -96 145 0 32 19 78 33 78 5 0 27 -19 49 -42z
M421 871 c-11 -11 -23 -33 -27 -48 -3 -16 -7 -34 -10 -41 -2 -7 -1 -33 3 -58
8 -63 56 -114 106 -114 47 0 54 -14 24 -53 -36 -48 -44 -66 -67 -153 -26 -96
-39 -316 -20 -339 15 -18 74 -20 87 -3 6 7 13 65 16 128 6 122 23 201 56 272
25 54 46 77 94 107 42 26 94 25 161 -3 46 -19 63 -48 73 -126 11 -80 -3 -150
-32 -160 -11 -4 -74 -8 -140 -9 -79 -1 -124 -6 -131 -14 -14 -15 -56 -188 -48
-196 7 -8 316 -11 371 -4 l42 5 16 72 c8 39 17 119 19 178 2 59 6 111 9 115 8
12 -11 147 -28 206 -27 91 -85 157 -182 206 -56 28 -71 27 -78 -6 -17 -81 -29
-110 -51 -126 -23 -17 -24 -17 -24 0 0 32 -27 96 -46 110 -10 7 -32 13 -48 13
-51 0 -75 11 -78 34 -4 29 -41 33 -67 7z m49 -61 c12 -12 33 -20 53 -20 77 0
97 -24 97 -115 0 -30 5 -55 10 -55 21 0 9 -30 -21 -52 -55 -41 -119 -217 -119
-330 0 -22 -5 -38 -11 -38 -15 0 -4 124 18 200 18 64 59 150 72 150 12 0 20
62 10 81 -5 11 -26 18 -60 21 -57 6 -73 19 -88 74 -7 26 5 104 16 104 2 0 12
-9 23 -20z m375 -51 c104 -63 141 -170 131 -374 -4 -71 -11 -150 -15 -174 -5
-25 -7 -50 -4 -57 2 -7 0 -22 -7 -33 -10 -20 -19 -21 -170 -21 l-160 0 6 43
c15 91 7 87 157 87 177 0 172 -5 172 174 0 111 -3 136 -18 160 -25 37 -75 57
-164 63 -40 3 -73 7 -73 9 0 2 14 23 30 47 17 25 30 47 30 50 0 14 20 57 27
57 4 0 30 -14 58 -31z"/>
</g>
</svg>
