<?xml version="1.0" standalone="no"?>
<!DOCTYPE svg PUBLIC "-//W3C//DTD SVG 20010904//EN"
 "http://www.w3.org/TR/2001/REC-SVG-20010904/DTD/svg10.dtd">
<svg version="1.0" xmlns="http://www.w3.org/2000/svg"
 width="37.000000pt" height="97.000000pt" viewBox="0 0 37.000000 97.000000"
 preserveAspectRatio="xMidYMid meet">
<metadata>
Created by potrace 1.16, written by Peter Selinger 2001-2019
</metadata>
<g transform="translate(0.000000,97.000000) scale(0.100000,-0.100000)"
fill="#000000" stroke="none">
<path d="M66 908 c-33 -53 -27 -199 10 -229 9 -7 43 -16 77 -20 41 -5 65 -13
74 -25 9 -13 13 -62 14 -168 1 -83 3 -180 4 -216 2 -36 4 -98 4 -137 1 -64 3
-73 19 -73 11 0 27 9 38 21 18 20 19 42 20 368 2 388 0 401 -60 426 -20 8 -55
15 -78 15 -37 0 -45 4 -60 30 -20 36 -42 38 -62 8z m144 -153 c0 -3 -9 -5 -20
-5 -11 0 -20 7 -20 15 0 13 4 14 20 5 11 -6 20 -13 20 -15z"/>
</g>
</svg>
