<?xml version="1.0" standalone="no"?>
<!DOCTYPE svg PUBLIC "-//W3C//DTD SVG 20010904//EN"
 "http://www.w3.org/TR/2001/REC-SVG-20010904/DTD/svg10.dtd">
<svg version="1.0" xmlns="http://www.w3.org/2000/svg"
 width="108.000000pt" height="95.000000pt" viewBox="0 0 108.000000 95.000000"
 preserveAspectRatio="xMidYMid meet">
<metadata>
Created by potrace 1.16, written by Peter Selinger 2001-2019
</metadata>
<g transform="translate(0.000000,95.000000) scale(0.100000,-0.100000)"
fill="#000000" stroke="none">
<path d="M773 898 c-18 -21 -31 -115 -23 -159 12 -62 40 -85 113 -92 42 -4 65
-11 74 -23 10 -14 13 -84 13 -295 0 -160 4 -280 9 -284 19 -11 61 19 72 52 14
42 5 656 -10 696 -14 35 -59 57 -120 57 -45 0 -51 3 -63 28 -14 30 -49 40 -65
20z M75 860 c-26 -29 -38 -115 -20 -156 16 -40 68 -74 111 -74 17 0 33 -3 36
-6 4 -3 -14 -44 -38 -92 -54 -106 -71 -189 -76 -352 l-3 -125 35 0 35 0 7 105
c19 260 64 376 166 426 46 24 60 26 115 20 77 -9 124 -31 142 -65 19 -37 29
-138 21 -205 -9 -70 -14 -72 -244 -75 -94 -1 -89 5 -115 -116 -12 -52 -13 -73
-4 -83 9 -11 49 -13 204 -10 106 3 196 8 200 11 17 17 55 409 43 441 -4 12 -6
34 -3 48 7 36 -57 167 -102 211 -36 35 -137 82 -158 74 -7 -2 -18 -25 -24 -50
-12 -44 -70 -117 -93 -117 -6 0 -10 20 -10 45 0 69 -21 101 -72 111 -42 8 -61
11 -84 13 -7 1 -14 10 -17 21 -7 26 -29 26 -52 0z m471 -699 c-8 -12 -127 -24
-150 -15 -14 5 -15 9 -4 15 17 12 161 11 154 0z"/>
</g>
</svg>
