<?xml version="1.0" standalone="no"?>
<!DOCTYPE svg PUBLIC "-//W3C//DTD SVG 20010904//EN"
 "http://www.w3.org/TR/2001/REC-SVG-20010904/DTD/svg10.dtd">
<svg version="1.0" xmlns="http://www.w3.org/2000/svg"
 width="85.000000pt" height="67.000000pt" viewBox="0 0 85.000000 67.000000"
 preserveAspectRatio="xMidYMid meet">
<metadata>
Created by potrace 1.16, written by Peter Selinger 2001-2019
</metadata>
<g transform="translate(0.000000,67.000000) scale(0.100000,-0.100000)"
fill="#000000" stroke="none">
<path d="M750 621 c-19 -4 -63 -6 -98 -5 -58 2 -63 0 -82 -26 -11 -15 -20 -33
-20 -39 0 -7 -13 -38 -30 -71 -29 -58 -31 -90 -5 -90 7 0 43 -9 79 -20 46 -15
77 -32 102 -57 34 -34 36 -39 32 -90 -5 -61 -30 -102 -71 -116 -21 -7 -39 -3
-83 18 -71 34 -98 31 -102 -12 -2 -25 2 -35 21 -48 77 -50 221 -13 281 73 23
34 26 47 26 129 l0 91 -41 41 c-29 29 -59 46 -102 60 -64 19 -77 32 -57 56 9
11 35 15 96 15 91 0 95 2 107 68 7 35 7 35 -53 23z M160 613 c-28 -5 -88 -58
-100 -88 -4 -11 -11 -35 -15 -52 -10 -47 15 -43 50 8 34 48 52 59 100 59 53 0
95 -44 95 -100 0 -82 -43 -149 -203 -312 -27 -27 -47 -54 -44 -61 3 -9 50 -13
170 -15 l167 -2 10 27 c5 16 16 41 25 56 24 46 1 63 -35 27 -17 -17 -33 -20
-110 -20 -49 0 -90 3 -90 6 0 4 33 43 73 88 107 119 121 146 122 232 0 66 -2
74 -30 102 -47 48 -99 60 -185 45z"/>
</g>
</svg>
