<?xml version="1.0" standalone="no"?>
<!DOCTYPE svg PUBLIC "-//W3C//DTD SVG 20010904//EN"
 "http://www.w3.org/TR/2001/REC-SVG-20010904/DTD/svg10.dtd">
<svg version="1.0" xmlns="http://www.w3.org/2000/svg"
 width="72.000000pt" height="90.000000pt" viewBox="0 0 72.000000 90.000000"
 preserveAspectRatio="xMidYMid meet">
<metadata>
Created by potrace 1.16, written by Peter Selinger 2001-2019
</metadata>
<g transform="translate(0.000000,90.000000) scale(0.100000,-0.100000)"
fill="#000000" stroke="none">
<path d="M61 842 c-5 -10 -13 -41 -16 -68 -12 -92 36 -154 120 -154 19 0 35
-5 35 -10 0 -6 -16 -42 -36 -81 -64 -128 -77 -187 -78 -344 l-1 -140 30 0 c29
0 30 1 36 60 4 33 7 87 8 119 2 88 37 207 82 277 31 47 50 65 87 81 44 20 52
20 122 9 93 -16 103 -21 126 -68 21 -45 27 -234 7 -253 -7 -8 -67 -14 -157
-17 -163 -7 -160 -5 -172 -82 -4 -23 -11 -44 -15 -47 -5 -3 -9 -20 -9 -39 0
-26 5 -34 23 -38 34 -9 362 -6 377 3 15 9 26 80 37 230 23 313 -20 446 -168
520 -32 17 -65 30 -73 30 -9 0 -20 -20 -30 -52 -19 -65 -65 -124 -89 -115 -13
5 -17 19 -17 54 0 26 -7 56 -14 66 -14 18 -111 52 -125 43 -5 -3 -16 3 -26 14
-23 25 -51 26 -64 2z m474 -692 c-3 -5 -41 -9 -83 -9 -57 1 -69 3 -47 9 46 12
137 12 130 0z"/>
</g>
</svg>
