<?xml version="1.0" standalone="no"?>
<!DOCTYPE svg PUBLIC "-//W3C//DTD SVG 20010904//EN"
 "http://www.w3.org/TR/2001/REC-SVG-20010904/DTD/svg10.dtd">
<svg version="1.0" xmlns="http://www.w3.org/2000/svg"
 width="158.000000pt" height="67.000000pt" viewBox="0 0 158.000000 67.000000"
 preserveAspectRatio="xMidYMid meet">
<metadata>
Created by potrace 1.16, written by Peter Selinger 2001-2019
</metadata>
<g transform="translate(0.000000,67.000000) scale(0.100000,-0.100000)"
fill="#000000" stroke="none">
<path d="M443 611 c-59 -18 -68 -35 -23 -44 30 -6 30 -7 31 -79 0 -40 2 -138
3 -218 2 -80 1 -151 -2 -158 -3 -8 -15 -18 -28 -23 -26 -9 -32 -28 -11 -30 45
-6 127 -7 155 -3 38 6 43 29 7 38 -24 6 -25 10 -26 89 -1 45 -3 141 -5 212 -1
72 -3 154 -3 183 -1 60 -6 62 -98 33z M627 614 c-14 -14 -6 -25 22 -35 16 -6
32 -17 35 -25 3 -8 6 -107 6 -220 1 -214 -2 -234 -41 -234 -12 0 -19 -7 -19
-20 0 -23 -11 -22 278 -21 89 0 166 3 171 5 12 8 43 113 39 133 -6 34 -35 26
-59 -17 -28 -49 -77 -66 -184 -66 l-70 1 -9 62 c-5 33 -6 81 -2 106 l7 44 74
-3 c83 -3 101 -10 119 -45 6 -13 18 -24 26 -24 12 0 15 19 15 100 0 82 -3 100
-15 100 -8 0 -21 -13 -29 -30 -8 -16 -19 -33 -25 -37 -6 -4 -48 -8 -94 -8
l-83 0 3 93 3 92 94 3 c104 3 136 -9 147 -54 4 -16 12 -24 23 -22 13 3 16 16
16 63 l0 60 -221 3 c-121 1 -223 -1 -227 -4z M137 436 c-69 -26 -95 -63 -78
-110 7 -18 18 -26 35 -26 29 0 43 16 48 54 4 40 35 59 68 43 20 -10 26 -21 28
-55 2 -29 -1 -42 -10 -42 -7 0 -40 -13 -73 -29 -106 -50 -139 -116 -95 -188
31 -51 99 -56 162 -12 31 23 38 23 38 5 0 -22 52 -39 83 -27 46 18 67 85 25
79 -21 -3 -24 2 -30 52 -4 30 -5 63 -2 72 10 35 -17 145 -42 169 -29 27 -104
35 -157 15z m103 -210 c0 -19 3 -41 6 -49 8 -23 -31 -57 -66 -57 -24 0 -33 6
-41 28 -14 35 4 68 51 93 47 25 50 24 50 -15z M1157 443 c-12 -12 -7 -22 13
-28 23 -7 110 -131 110 -155 0 -19 -83 -138 -110 -157 -37 -26 -25 -43 33 -43
66 0 83 10 67 37 -11 16 -8 26 15 61 15 23 31 42 34 42 10 0 61 -82 61 -97 0
-7 -4 -13 -10 -13 -5 0 -10 -7 -10 -15 0 -12 16 -15 84 -15 89 0 115 12 80 36
-41 29 -144 166 -144 193 0 23 57 102 83 113 15 7 27 21 27 30 0 15 -10 18
-64 18 -67 0 -86 -10 -65 -36 13 -16 -2 -64 -21 -64 -16 0 -33 51 -20 64 27
27 10 36 -73 36 -46 0 -87 -3 -90 -7z"/>
</g>
</svg>
