<?xml version="1.0" standalone="no"?>
<!DOCTYPE svg PUBLIC "-//W3C//DTD SVG 20010904//EN"
 "http://www.w3.org/TR/2001/REC-SVG-20010904/DTD/svg10.dtd">
<svg version="1.0" xmlns="http://www.w3.org/2000/svg"
 width="63.000000pt" height="93.000000pt" viewBox="0 0 63.000000 93.000000"
 preserveAspectRatio="xMidYMid meet">
<metadata>
Created by potrace 1.16, written by Peter Selinger 2001-2019
</metadata>
<g transform="translate(0.000000,93.000000) scale(0.100000,-0.100000)"
fill="#000000" stroke="none">
<path d="M53 851 c-14 -43 -17 -158 -7 -186 15 -38 57 -46 236 -44 167 1 172
1 190 -21 16 -20 18 -47 18 -286 0 -156 4 -265 10 -269 5 -3 20 -3 34 1 27 6
61 66 52 90 -3 7 -6 139 -6 293 -2 298 -7 335 -51 369 -41 32 -89 40 -224 37
-155 -5 -178 -1 -190 28 -6 12 -19 23 -30 25 -16 2 -23 -6 -32 -37z m371 -117
c42 -16 5 -24 -108 -24 -124 0 -156 4 -156 21 0 10 239 13 264 3z"/>
</g>
</svg>
