<?xml version="1.0" standalone="no"?>
<!DOCTYPE svg PUBLIC "-//W3C//DTD SVG 20010904//EN"
 "http://www.w3.org/TR/2001/REC-SVG-20010904/DTD/svg10.dtd">
<svg version="1.0" xmlns="http://www.w3.org/2000/svg"
 width="46.000000pt" height="67.000000pt" viewBox="0 0 46.000000 67.000000"
 preserveAspectRatio="xMidYMid meet">
<metadata>
Created by potrace 1.16, written by Peter Selinger 2001-2019
</metadata>
<g transform="translate(0.000000,67.000000) scale(0.100000,-0.100000)"
fill="#000000" stroke="none">
<path d="M136 607 c-48 -27 -73 -66 -86 -136 -9 -46 -7 -60 13 -108 28 -71 63
-98 125 -98 26 0 62 3 80 7 43 10 43 -12 -1 -69 -44 -57 -86 -89 -143 -110
-27 -10 -50 -26 -52 -35 -3 -14 4 -15 40 -11 82 9 164 51 217 110 63 71 86
139 85 250 -1 69 -6 89 -28 127 -39 66 -87 96 -156 96 -38 0 -67 -7 -94 -23z
m137 -42 c35 -36 47 -73 47 -150 0 -60 -8 -79 -40 -93 -48 -22 -91 -4 -117 48
-40 77 -23 198 29 220 37 14 45 12 81 -25z"/>
</g>
</svg>
