<?xml version="1.0" standalone="no"?>
<!DOCTYPE svg PUBLIC "-//W3C//DTD SVG 20010904//EN"
 "http://www.w3.org/TR/2001/REC-SVG-20010904/DTD/svg10.dtd">
<svg version="1.0" xmlns="http://www.w3.org/2000/svg"
 width="86.000000pt" height="68.000000pt" viewBox="0 0 86.000000 68.000000"
 preserveAspectRatio="xMidYMid meet">
<metadata>
Created by potrace 1.16, written by Peter Selinger 2001-2019
</metadata>
<g transform="translate(0.000000,68.000000) scale(0.100000,-0.100000)"
fill="#000000" stroke="none">
<path d="M163 627 c-18 -7 -50 -29 -72 -49 -31 -29 -41 -48 -47 -83 -3 -25 -3
-49 1 -53 8 -9 55 44 55 63 0 21 41 45 77 45 105 0 141 -86 84 -204 -12 -24
-66 -94 -121 -156 -55 -62 -100 -118 -100 -126 0 -11 31 -14 168 -14 l168 0
23 55 c12 30 20 59 16 65 -8 13 -35 13 -35 0 0 -19 -41 -30 -125 -36 -60 -3
-85 -1 -85 7 0 6 35 50 79 98 101 111 125 157 125 237 0 50 -5 67 -28 96 -28
37 -88 68 -129 67 -12 0 -36 -5 -54 -12z M674 633 l-91 -4 -48 -110 c-51 -117
-51 -128 3 -129 46 0 104 -26 149 -67 l45 -42 -4 -60 c-5 -64 -29 -104 -75
-122 -23 -8 -105 20 -118 41 -11 18 -44 10 -60 -14 -49 -75 119 -114 223 -53
98 58 134 150 102 267 -13 48 -75 100 -150 125 -70 24 -74 28 -61 54 10 19 21
21 94 21 45 0 87 4 94 8 11 7 43 72 43 87 0 3 -12 4 -27 3 -16 -1 -69 -4 -119
-5z"/>
</g>
</svg>
