<?xml version="1.0" standalone="no"?>
<!DOCTYPE svg PUBLIC "-//W3C//DTD SVG 20010904//EN"
 "http://www.w3.org/TR/2001/REC-SVG-20010904/DTD/svg10.dtd">
<svg version="1.0" xmlns="http://www.w3.org/2000/svg"
 width="74.000000pt" height="92.000000pt" viewBox="0 0 74.000000 92.000000"
 preserveAspectRatio="xMidYMid meet">
<metadata>
Created by potrace 1.16, written by Peter Selinger 2001-2019
</metadata>
<g transform="translate(0.000000,92.000000) scale(0.100000,-0.100000)"
fill="#000000" stroke="none">
<path d="M78 863 c-33 -38 -39 -137 -11 -183 18 -31 65 -62 91 -59 29 2 42 -1
42 -10 0 -5 -18 -48 -40 -95 -51 -106 -68 -187 -72 -341 l-3 -120 38 -3 c20
-2 37 0 38 5 0 4 2 53 5 108 7 155 37 271 89 343 60 83 105 102 205 88 123
-18 144 -47 145 -203 0 -90 -3 -116 -15 -123 -8 -5 -79 -10 -156 -10 -101 0
-144 -4 -151 -12 -13 -17 -55 -189 -48 -196 8 -8 409 -2 416 6 11 11 41 310
41 402 0 123 -41 241 -104 300 -25 23 -134 80 -154 80 -8 0 -20 -23 -29 -55
-25 -86 -95 -154 -95 -92 0 34 -19 95 -35 110 -8 8 -36 18 -62 21 -70 10 -80
15 -86 36 -6 25 -29 26 -49 3z m466 -702 c12 -18 -110 -30 -150 -14 -16 6 -16
7 2 14 27 11 142 11 148 0z"/>
</g>
</svg>
