<?xml version="1.0" standalone="no"?>
<!DOCTYPE svg PUBLIC "-//W3C//DTD SVG 20010904//EN"
 "http://www.w3.org/TR/2001/REC-SVG-20010904/DTD/svg10.dtd">
<svg version="1.0" xmlns="http://www.w3.org/2000/svg"
 width="66.000000pt" height="94.000000pt" viewBox="0 0 66.000000 94.000000"
 preserveAspectRatio="xMidYMid meet">
<metadata>
Created by potrace 1.16, written by Peter Selinger 2001-2019
</metadata>
<g transform="translate(0.000000,94.000000) scale(0.100000,-0.100000)"
fill="#000000" stroke="none">
<path d="M75 871 c-39 -76 -24 -208 26 -222 13 -4 95 -7 182 -8 93 -1 167 -6
179 -12 29 -16 68 -111 68 -167 0 -60 -27 -137 -62 -174 l-26 -28 -166 0
c-162 0 -166 0 -181 -23 -25 -39 -60 -166 -48 -178 11 -11 368 -14 400 -3 81
29 134 129 158 299 22 150 -20 382 -81 454 l-32 36 -175 3 c-174 3 -174 3
-185 28 -15 32 -38 30 -57 -5z m298 -121 c26 0 47 -4 47 -10 0 -11 -158 -14
-209 -4 -57 12 -21 27 48 20 36 -3 87 -6 114 -6z m12 -589 c20 -8 -70 -21
-146 -21 -40 0 -61 15 -32 23 30 8 157 6 178 -2z"/>
</g>
</svg>
