<?xml version="1.0" standalone="no"?>
<!DOCTYPE svg PUBLIC "-//W3C//DTD SVG 20010904//EN"
 "http://www.w3.org/TR/2001/REC-SVG-20010904/DTD/svg10.dtd">
<svg version="1.0" xmlns="http://www.w3.org/2000/svg"
 width="71.000000pt" height="93.000000pt" viewBox="0 0 71.000000 93.000000"
 preserveAspectRatio="xMidYMid meet">
<metadata>
Created by potrace 1.16, written by Peter Selinger 2001-2019
</metadata>
<g transform="translate(0.000000,93.000000) scale(0.100000,-0.100000)"
fill="#000000" stroke="none">
<path d="M95 892 c-49 -35 -64 -142 -30 -201 32 -55 69 -63 302 -59 111 2 204
0 207 -3 4 -3 -7 -35 -23 -70 -28 -63 -29 -69 -25 -185 2 -65 6 -166 8 -224 3
-69 8 -105 15 -104 6 1 17 2 25 3 8 0 28 15 45 32 30 30 31 32 31 127 0 53 -7
128 -15 167 -20 94 -19 135 5 203 30 84 36 161 16 200 -31 59 -38 61 -259 56
-215 -5 -253 0 -259 39 -3 23 -25 32 -43 19z M133 450 c-13 -5 -32 -24 -43
-42 -18 -29 -20 -51 -20 -196 0 -134 3 -164 15 -168 23 -9 82 33 90 64 4 15 8
90 9 167 1 77 5 150 10 163 7 19 5 22 -15 21 -13 0 -34 -4 -46 -9z"/>
</g>
</svg>
