<?xml version="1.0" standalone="no"?>
<!DOCTYPE svg PUBLIC "-//W3C//DTD SVG 20010904//EN"
 "http://www.w3.org/TR/2001/REC-SVG-20010904/DTD/svg10.dtd">
<svg version="1.0" xmlns="http://www.w3.org/2000/svg"
 width="62.000000pt" height="65.000000pt" viewBox="0 0 62.000000 65.000000"
 preserveAspectRatio="xMidYMid meet">
<metadata>
Created by potrace 1.16, written by Peter Selinger 2001-2019
</metadata>
<g transform="translate(0.000000,65.000000) scale(0.100000,-0.100000)"
fill="#000000" stroke="none">
<path d="M423 603 c-20 -8 -15 -25 13 -48 l25 -20 -22 -65 c-23 -67 -49 -141
-69 -197 -7 -18 -15 -33 -19 -33 -3 0 -19 35 -35 78 -16 42 -32 82 -36 87 -9
13 -50 123 -50 134 0 5 14 14 31 20 18 6 29 16 27 23 -4 10 -36 13 -124 13
-104 0 -119 -2 -122 -17 -2 -10 8 -23 26 -32 20 -10 38 -36 61 -88 19 -40 42
-91 52 -113 11 -22 43 -98 72 -170 34 -82 60 -131 70 -133 17 -4 43 46 83 158
19 54 75 201 123 322 5 15 19 33 31 40 11 7 20 21 20 30 0 16 -10 18 -72 17
-40 0 -79 -3 -85 -6z"/>
</g>
</svg>
