<?xml version="1.0" standalone="no"?>
<!DOCTYPE svg PUBLIC "-//W3C//DTD SVG 20010904//EN"
 "http://www.w3.org/TR/2001/REC-SVG-20010904/DTD/svg10.dtd">
<svg version="1.0" xmlns="http://www.w3.org/2000/svg"
 width="71.000000pt" height="59.000000pt" viewBox="0 0 71.000000 59.000000"
 preserveAspectRatio="xMidYMid meet">
<metadata>
Created by potrace 1.16, written by Peter Selinger 2001-2019
</metadata>
<g transform="translate(0.000000,59.000000) scale(0.100000,-0.100000)"
fill="#000000" stroke="none">
<path d="M133 526 c-13 -13 -23 -29 -23 -34 0 -6 -16 -24 -35 -39 -42 -33 -43
-40 -10 -53 25 -9 25 -10 25 -145 0 -192 18 -226 110 -210 46 8 91 58 71 78
-8 8 -14 8 -23 -1 -17 -17 -55 -15 -62 4 -3 9 -6 73 -6 144 l0 129 32 3 c22 2
34 9 36 21 3 14 -4 17 -32 17 -34 0 -36 2 -36 33 0 38 -10 77 -19 77 -3 0 -16
-11 -28 -24z M435 448 c-22 -5 -53 -18 -70 -29 -28 -19 -66 -84 -80 -135 -6
-22 14 -110 35 -156 28 -61 141 -102 212 -79 39 13 88 60 113 110 47 93 5 235
-79 271 -58 25 -85 29 -131 18z m77 -58 c77 -60 79 -277 3 -296 -45 -11 -69 0
-98 48 -30 48 -46 141 -34 190 18 71 79 98 129 58z"/>
</g>
</svg>
