<?xml version="1.0" standalone="no"?>
<!DOCTYPE svg PUBLIC "-//W3C//DTD SVG 20010904//EN"
 "http://www.w3.org/TR/2001/REC-SVG-20010904/DTD/svg10.dtd">
<svg version="1.0" xmlns="http://www.w3.org/2000/svg"
 width="69.000000pt" height="95.000000pt" viewBox="0 0 69.000000 95.000000"
 preserveAspectRatio="xMidYMid meet">
<metadata>
Created by potrace 1.16, written by Peter Selinger 2001-2019
</metadata>
<g transform="translate(0.000000,95.000000) scale(0.100000,-0.100000)"
fill="#000000" stroke="none">
<path d="M82 902 c-29 -19 -42 -140 -21 -201 6 -17 20 -36 31 -42 20 -11 20
-11 -1 -32 -48 -52 -52 -81 -45 -320 3 -122 10 -230 15 -239 5 -9 26 -20 45
-24 44 -8 472 2 497 12 34 13 38 53 37 359 -1 308 -5 354 -41 398 -30 40 -82
48 -271 46 l-171 -2 -19 27 c-20 27 -34 31 -56 18z m418 -145 c14 -7 26 -21
28 -31 3 -16 0 -18 -19 -12 -86 25 -169 25 -301 0 -30 -5 -38 -3 -47 15 -7 12
-9 26 -6 31 9 15 314 13 345 -3z m-13 -129 c36 -30 46 -71 47 -200 1 -171 11
-162 -193 -166 -130 -3 -161 -1 -173 12 -11 11 -15 43 -17 126 -2 127 14 187
58 217 44 30 246 38 278 11z m49 -449 c3 -6 -1 -18 -9 -26 -21 -22 -338 -33
-362 -13 -35 29 -10 35 141 32 82 -2 163 1 179 7 40 13 43 13 51 0z"/>
</g>
</svg>
