<?xml version="1.0" standalone="no"?>
<!DOCTYPE svg PUBLIC "-//W3C//DTD SVG 20010904//EN"
 "http://www.w3.org/TR/2001/REC-SVG-20010904/DTD/svg10.dtd">
<svg version="1.0" xmlns="http://www.w3.org/2000/svg"
 width="202.000000pt" height="68.000000pt" viewBox="0 0 202.000000 68.000000"
 preserveAspectRatio="xMidYMid meet">
<metadata>
Created by potrace 1.16, written by Peter Selinger 2001-2019
</metadata>
<g transform="translate(0.000000,68.000000) scale(0.100000,-0.100000)"
fill="#000000" stroke="none">
<path d="M1840 628 c-59 -17 -79 -44 -37 -50 19 -3 23 -10 27 -66 3 -35 3 -65
2 -67 -2 -2 -16 1 -31 6 -38 15 -106 2 -140 -27 -47 -40 -69 -84 -77 -155 -11
-114 42 -200 133 -215 26 -4 52 -1 77 10 30 12 41 13 56 3 20 -12 22 -11 110
33 23 11 25 40 2 40 -11 0 -23 7 -26 16 -3 9 -6 114 -6 234 0 120 -3 225 -6
234 -7 18 -32 19 -84 4z m-10 -268 c6 -14 10 -68 8 -120 -3 -93 -3 -95 -32
-109 -73 -34 -131 28 -131 141 0 72 19 111 65 135 30 15 74 -8 90 -47z M209
614 c-60 -18 -74 -36 -91 -114 -12 -52 -18 -65 -34 -66 -41 -2 -45 -5 -42 -21
2 -11 15 -20 33 -23 l30 -5 3 -139 c3 -144 -2 -166 -39 -166 -11 0 -19 -7 -19
-15 0 -12 19 -15 115 -15 93 0 115 3 115 14 0 9 -12 16 -27 18 -43 5 -53 37
-53 181 l0 127 44 0 c25 0 48 5 51 10 11 19 -17 42 -44 37 -43 -8 -51 1 -51
58 0 29 3 60 6 69 9 23 37 19 64 -9 36 -38 90 -29 90 15 0 44 -78 67 -151 44z
M460 442 c-41 -20 -74 -49 -98 -86 -49 -77 -27 -220 42 -277 28 -24 115 -43
158 -35 49 9 124 83 138 136 18 66 3 156 -33 197 -16 19 -42 40 -58 48 -32 17
-127 28 -149 17z m103 -60 c63 -55 74 -211 19 -274 -24 -28 -78 -23 -108 9
-52 56 -68 191 -28 250 27 42 78 48 117 15z M1215 434 c-58 -21 -65 -32 -32
-56 27 -20 27 -20 27 -139 0 -106 -2 -121 -20 -139 -34 -34 -24 -40 65 -40 89
0 99 6 65 40 -18 18 -20 33 -20 134 0 123 3 131 57 142 50 10 63 -20 63 -147
0 -93 -2 -108 -20 -124 -40 -36 -26 -45 65 -45 89 0 99 6 65 40 -16 16 -20 34
-20 98 -1 163 -15 218 -62 243 -29 15 -109 5 -124 -16 -14 -19 -34 -12 -34 11
0 17 -23 17 -75 -2z M730 428 c0 -7 10 -18 23 -23 21 -10 22 -17 27 -159 l6
-148 29 -24 c35 -28 104 -32 149 -9 35 18 36 18 36 0 0 -19 19 -19 81 1 52 17
62 37 32 60 -15 10 -19 35 -23 161 l-5 148 -73 3 c-57 2 -73 0 -70 -10 3 -7
13 -15 24 -17 30 -5 34 -19 34 -136 0 -117 -3 -125 -37 -144 -29 -15 -45 -14
-69 3 -17 13 -20 31 -24 158 l-5 143 -67 3 c-51 2 -68 0 -68 -10z"/>
</g>
</svg>
