<?xml version="1.0" standalone="no"?>
<!DOCTYPE svg PUBLIC "-//W3C//DTD SVG 20010904//EN"
 "http://www.w3.org/TR/2001/REC-SVG-20010904/DTD/svg10.dtd">
<svg version="1.0" xmlns="http://www.w3.org/2000/svg"
 width="65.000000pt" height="96.000000pt" viewBox="0 0 65.000000 96.000000"
 preserveAspectRatio="xMidYMid meet">
<metadata>
Created by potrace 1.16, written by Peter Selinger 2001-2019
</metadata>
<g transform="translate(0.000000,96.000000) scale(0.100000,-0.100000)"
fill="#000000" stroke="none">
<path d="M51 916 c-15 -63 -14 -190 3 -231 8 -18 23 -38 34 -44 13 -7 86 -11
185 -11 202 0 212 -4 212 -97 0 -76 -36 -120 -145 -182 -13 -8 -50 -39 -81
-70 -47 -47 -57 -63 -63 -102 -7 -51 2 -86 30 -110 31 -26 55 -31 81 -14 35
24 47 61 33 111 -16 54 -6 72 67 120 75 50 140 110 160 148 29 55 40 136 33
242 -5 81 -10 104 -25 121 -39 40 -54 42 -246 36 -215 -7 -220 -5 -200 71 6
25 11 47 11 50 0 3 -17 6 -39 6 -37 0 -39 -1 -50 -44z m436 -191 c9 -24 -2
-28 -44 -15 -59 19 -62 30 -10 30 34 0 49 -5 54 -15z M480 110 c0 -5 5 -10 10
-10 6 0 10 5 10 10 0 6 -4 10 -10 10 -5 0 -10 -4 -10 -10z"/>
</g>
</svg>
