<?xml version="1.0" standalone="no"?>
<!DOCTYPE svg PUBLIC "-//W3C//DTD SVG 20010904//EN"
 "http://www.w3.org/TR/2001/REC-SVG-20010904/DTD/svg10.dtd">
<svg version="1.0" xmlns="http://www.w3.org/2000/svg"
 width="37.000000pt" height="131.000000pt" viewBox="0 0 37.000000 131.000000"
 preserveAspectRatio="xMidYMid meet">
<metadata>
Created by potrace 1.16, written by Peter Selinger 2001-2019
</metadata>
<g transform="translate(0.000000,131.000000) scale(0.100000,-0.100000)"
fill="#000000" stroke="none">
<path d="M123 1213 c-24 -31 -43 -62 -43 -68 0 -23 81 -125 99 -125 19 0 91
96 91 121 0 19 -81 129 -94 129 -6 -1 -30 -26 -53 -57z M60 875 c-19 -50 -22
-76 -15 -130 9 -78 28 -97 105 -106 43 -5 68 -13 77 -25 9 -13 13 -64 13 -183
1 -371 2 -386 27 -389 12 -2 31 6 43 18 20 20 21 28 19 357 0 202 -5 348 -11
365 -12 35 -58 58 -115 58 -44 0 -55 6 -72 38 -17 31 -59 30 -71 -3z"/>
</g>
</svg>
