<?xml version="1.0" standalone="no"?>
<!DOCTYPE svg PUBLIC "-//W3C//DTD SVG 20010904//EN"
 "http://www.w3.org/TR/2001/REC-SVG-20010904/DTD/svg10.dtd">
<svg version="1.0" xmlns="http://www.w3.org/2000/svg"
 width="64.000000pt" height="92.000000pt" viewBox="0 0 64.000000 92.000000"
 preserveAspectRatio="xMidYMid meet">
<metadata>
Created by potrace 1.16, written by Peter Selinger 2001-2019
</metadata>
<g transform="translate(0.000000,92.000000) scale(0.100000,-0.100000)"
fill="#000000" stroke="none">
<path d="M49 858 c-4 -144 8 -193 48 -209 13 -5 92 -9 174 -9 89 0 159 -4 171
-11 29 -16 50 -73 42 -117 -7 -41 -77 -122 -129 -149 -16 -9 -46 -31 -65 -49
-19 -19 -37 -34 -41 -34 -11 0 -44 -61 -57 -107 -15 -49 -5 -81 34 -112 33
-26 55 -27 85 -2 22 18 24 26 22 95 l-2 75 57 45 c141 112 152 122 178 176 23
46 28 71 30 149 4 131 -8 189 -48 225 l-31 29 -173 -6 c-95 -3 -182 -3 -193 0
-16 4 -21 13 -21 39 0 33 -1 34 -40 34 l-40 0 -1 -62z m420 -114 c32 -23 13
-39 -31 -26 -18 6 -58 14 -88 18 l-55 8 40 7 c71 11 110 9 134 -7z"/>
</g>
</svg>
