<?xml version="1.0" standalone="no"?>
<!DOCTYPE svg PUBLIC "-//W3C//DTD SVG 20010904//EN"
 "http://www.w3.org/TR/2001/REC-SVG-20010904/DTD/svg10.dtd">
<svg version="1.0" xmlns="http://www.w3.org/2000/svg"
 width="128.000000pt" height="62.000000pt" viewBox="0 0 128.000000 62.000000"
 preserveAspectRatio="xMidYMid meet">
<metadata>
Created by potrace 1.16, written by Peter Selinger 2001-2019
</metadata>
<g transform="translate(0.000000,62.000000) scale(0.100000,-0.100000)"
fill="#000000" stroke="none">
<path d="M1090 565 c-6 -8 -13 -37 -13 -66 -2 -42 2 -54 21 -70 23 -18 23 -19
5 -43 -10 -14 -21 -26 -24 -26 -7 0 -134 152 -149 179 -14 27 -45 27 -64 -1
-28 -40 -18 -85 30 -137 29 -31 30 -45 4 -82 -40 -55 -44 -82 -19 -138 l21
-51 -22 -18 c-30 -24 -21 -51 17 -53 53 -3 98 3 105 15 16 24 7 75 -22 130
-31 58 -33 96 -4 96 8 0 14 -3 14 -7 0 -5 15 -24 33 -44 17 -20 58 -69 90
-108 62 -76 85 -86 111 -49 28 40 20 76 -30 132 -65 71 -71 87 -48 128 11 18
34 40 51 48 32 15 43 35 43 78 0 29 -46 72 -77 72 -13 0 -26 7 -29 15 -8 19
-28 19 -44 0z M54 545 c-22 -34 -13 -103 16 -127 18 -15 42 -18 122 -18 91 0
100 -2 93 -17 -19 -46 -22 -78 -20 -203 3 -143 7 -154 50 -126 33 22 40 72 25
183 -15 110 -10 138 30 158 27 14 30 20 30 65 0 67 -14 74 -162 75 -95 1 -121
5 -136 18 -24 22 -29 22 -48 -8z M456 555 c-34 -34 -32 -107 4 -140 18 -16 18
-18 2 -43 -14 -21 -18 -55 -20 -169 l-4 -143 26 0 c16 0 31 9 42 25 14 21 15
43 9 154 l-7 129 30 16 c21 11 58 16 118 16 85 0 86 0 78 -22 -9 -23 -8 -307
1 -316 2 -3 18 1 34 8 42 17 52 53 38 142 -12 77 -12 113 -2 218 3 38 2 71 -4
80 -8 12 -40 16 -155 18 -133 3 -146 5 -151 23 -8 23 -18 24 -39 4z"/>
</g>
</svg>
