<?xml version="1.0" standalone="no"?>
<!DOCTYPE svg PUBLIC "-//W3C//DTD SVG 20010904//EN"
 "http://www.w3.org/TR/2001/REC-SVG-20010904/DTD/svg10.dtd">
<svg version="1.0" xmlns="http://www.w3.org/2000/svg"
 width="64.000000pt" height="95.000000pt" viewBox="0 0 64.000000 95.000000"
 preserveAspectRatio="xMidYMid meet">
<metadata>
Created by potrace 1.16, written by Peter Selinger 2001-2019
</metadata>
<g transform="translate(0.000000,95.000000) scale(0.100000,-0.100000)"
fill="#000000" stroke="none">
<path d="M74 873 c-12 -27 -18 -60 -18 -111 1 -62 4 -77 23 -95 20 -21 32 -22
184 -25 89 -1 171 -4 182 -7 11 -2 25 -17 32 -32 39 -93 40 -98 32 -171 -10
-96 -14 -106 -55 -141 l-35 -31 -159 0 -158 0 -15 -43 c-8 -23 -20 -58 -27
-77 -7 -19 -15 -50 -17 -68 l-5 -34 203 4 c223 3 240 8 269 66 8 15 22 36 31
47 10 11 22 43 28 70 5 28 14 68 20 90 16 64 6 278 -17 365 -47 177 -52 180
-275 180 l-154 0 -11 25 c-16 35 -37 31 -58 -12z m340 -113 c54 -20 26 -30
-86 -30 -125 0 -158 6 -158 26 0 11 23 14 109 14 60 0 121 -4 135 -10z m106
-570 c0 -5 -4 -10 -10 -10 -5 0 -10 5 -10 10 0 6 5 10 10 10 6 0 10 -4 10 -10z
m-110 -30 c0 -19 -50 -30 -135 -30 -82 0 -114 12 -84 31 20 13 219 11 219 -1z"/>
</g>
</svg>
