<?xml version="1.0" standalone="no"?>
<!DOCTYPE svg PUBLIC "-//W3C//DTD SVG 20010904//EN"
 "http://www.w3.org/TR/2001/REC-SVG-20010904/DTD/svg10.dtd">
<svg version="1.0" xmlns="http://www.w3.org/2000/svg"
 width="47.000000pt" height="66.000000pt" viewBox="0 0 47.000000 66.000000"
 preserveAspectRatio="xMidYMid meet">
<metadata>
Created by potrace 1.16, written by Peter Selinger 2001-2019
</metadata>
<g transform="translate(0.000000,66.000000) scale(0.100000,-0.100000)"
fill="#000000" stroke="none">
<path d="M274 583 c-19 -21 -41 -48 -47 -60 -7 -12 -52 -80 -100 -151 -69
-102 -88 -136 -85 -158 l3 -29 110 -5 110 -5 5 -65 c5 -61 7 -65 31 -68 36 -4
47 14 51 83 3 58 4 60 30 60 36 1 52 17 43 44 -5 16 -15 21 -41 21 -19 0 -35
1 -36 3 -1 1 -4 83 -7 181 -5 133 -9 180 -19 184 -7 2 -28 -13 -48 -35z m-12
-125 c3 -7 6 -57 7 -110 l2 -98 -80 0 c-45 0 -81 3 -81 8 2 22 127 212 140
212 5 0 10 -6 12 -12z"/>
</g>
</svg>
