<?xml version="1.0" standalone="no"?>
<!DOCTYPE svg PUBLIC "-//W3C//DTD SVG 20010904//EN"
 "http://www.w3.org/TR/2001/REC-SVG-20010904/DTD/svg10.dtd">
<svg version="1.0" xmlns="http://www.w3.org/2000/svg"
 width="81.000000pt" height="66.000000pt" viewBox="0 0 81.000000 66.000000"
 preserveAspectRatio="xMidYMid meet">
<metadata>
Created by potrace 1.16, written by Peter Selinger 2001-2019
</metadata>
<g transform="translate(0.000000,66.000000) scale(0.100000,-0.100000)"
fill="#000000" stroke="none">
<path d="M620 621 c-62 -20 -91 -64 -102 -151 -2 -20 -9 -26 -35 -28 -24 -2
-33 -8 -33 -22 0 -14 9 -20 33 -22 l32 -3 3 -130 c3 -154 0 -173 -33 -181 -14
-3 -25 -13 -25 -20 0 -12 20 -14 112 -12 71 2 113 7 115 14 2 6 -9 14 -25 17
-42 8 -52 46 -52 193 l0 123 48 3 c34 2 47 7 47 18 0 11 -13 16 -47 18 l-46 3
-4 50 c-6 95 26 124 75 69 28 -32 31 -33 56 -19 30 17 39 50 18 68 -19 15
-104 23 -137 12z M165 442 c-70 -25 -114 -90 -122 -181 -4 -45 0 -67 20 -112
33 -74 74 -101 162 -103 57 -1 67 2 102 30 21 17 48 45 59 62 60 88 25 240
-66 287 -33 17 -126 27 -155 17z m112 -63 c53 -50 69 -176 30 -244 -42 -75
-105 -68 -147 16 -42 81 -34 210 14 245 26 19 72 11 103 -17z"/>
</g>
</svg>
