<?xml version="1.0" standalone="no"?>
<!DOCTYPE svg PUBLIC "-//W3C//DTD SVG 20010904//EN"
 "http://www.w3.org/TR/2001/REC-SVG-20010904/DTD/svg10.dtd">
<svg version="1.0" xmlns="http://www.w3.org/2000/svg"
 width="72.000000pt" height="93.000000pt" viewBox="0 0 72.000000 93.000000"
 preserveAspectRatio="xMidYMid meet">
<metadata>
Created by potrace 1.16, written by Peter Selinger 2001-2019
</metadata>
<g transform="translate(0.000000,93.000000) scale(0.100000,-0.100000)"
fill="#000000" stroke="none">
<path d="M440 875 c-6 -7 -17 -43 -23 -79 -14 -83 5 -133 53 -143 37 -7 47
-20 27 -36 -8 -7 -27 -31 -41 -55 -17 -28 -33 -42 -44 -40 -23 4 -247 275
-258 312 -7 25 -14 31 -38 31 -25 0 -33 -7 -52 -45 -39 -74 -31 -101 59 -220
54 -72 54 -77 -3 -153 -60 -78 -65 -136 -20 -222 38 -71 37 -86 -1 -114 -20
-15 -29 -29 -27 -44 3 -21 8 -22 103 -22 l99 0 9 38 c13 55 2 96 -47 173 -25
38 -47 81 -51 95 -9 35 18 99 42 98 15 0 214 -229 323 -371 27 -36 54 -35 90
1 52 51 49 106 -9 169 -73 80 -118 137 -134 173 l-18 39 33 62 c34 63 80 102
110 92 25 -7 38 25 38 95 0 79 -30 117 -105 130 -30 6 -56 17 -66 30 -20 25
-32 26 -49 6z"/>
</g>
</svg>
