<?xml version="1.0" standalone="no"?>
<!DOCTYPE svg PUBLIC "-//W3C//DTD SVG 20010904//EN"
 "http://www.w3.org/TR/2001/REC-SVG-20010904/DTD/svg10.dtd">
<svg version="1.0" xmlns="http://www.w3.org/2000/svg"
 width="49.000000pt" height="79.000000pt" viewBox="0 0 49.000000 79.000000"
 preserveAspectRatio="xMidYMid meet">
<metadata>
Created by potrace 1.16, written by Peter Selinger 2001-2019
</metadata>
<g transform="translate(0.000000,79.000000) scale(0.100000,-0.100000)"
fill="#000000" stroke="none">
<path d="M205 742 c-16 -2 -51 -10 -77 -18 -39 -13 -50 -22 -67 -58 -26 -52
-27 -134 -4 -183 19 -41 59 -68 114 -77 l39 -6 0 -143 c0 -148 -5 -167 -42
-167 -17 0 -36 -25 -27 -35 2 -2 32 -6 67 -9 57 -5 64 -4 71 16 4 11 5 159 3
329 -3 196 -1 309 5 309 11 0 19 -186 23 -475 1 -93 3 -171 4 -172 1 -2 28 -4
59 -5 65 -3 96 15 63 36 -58 35 -55 21 -57 291 -2 336 -4 312 31 330 17 9 30
22 30 30 0 13 -17 15 -102 13 -57 -2 -116 -4 -133 -6z m5 -165 c0 -68 -3 -127
-6 -130 -13 -12 -63 27 -74 56 -23 67 -5 167 34 186 45 21 46 17 46 -112z"/>
</g>
</svg>
