<?xml version="1.0" standalone="no"?>
<!DOCTYPE svg PUBLIC "-//W3C//DTD SVG 20010904//EN"
 "http://www.w3.org/TR/2001/REC-SVG-20010904/DTD/svg10.dtd">
<svg version="1.0" xmlns="http://www.w3.org/2000/svg"
 width="21.000000pt" height="57.000000pt" viewBox="0 0 21.000000 57.000000"
 preserveAspectRatio="xMidYMid meet">
<metadata>
Created by potrace 1.16, written by Peter Selinger 2001-2019
</metadata>
<g transform="translate(0.000000,57.000000) scale(0.100000,-0.100000)"
fill="#000000" stroke="none">
<path d="M52 518 c-18 -18 -15 -63 6 -81 24 -21 71 -11 84 19 23 49 -52 100
-90 62z M66 229 c-14 -11 -26 -28 -26 -38 0 -22 31 -51 53 -51 24 0 21 -21 -8
-52 -31 -34 -32 -48 -2 -48 38 0 77 49 84 107 5 46 3 54 -20 77 -32 31 -46 32
-81 5z"/>
</g>
</svg>
