<?xml version="1.0" standalone="no"?>
<!DOCTYPE svg PUBLIC "-//W3C//DTD SVG 20010904//EN"
 "http://www.w3.org/TR/2001/REC-SVG-20010904/DTD/svg10.dtd">
<svg version="1.0" xmlns="http://www.w3.org/2000/svg"
 width="37.000000pt" height="95.000000pt" viewBox="0 0 37.000000 95.000000"
 preserveAspectRatio="xMidYMid meet">
<metadata>
Created by potrace 1.16, written by Peter Selinger 2001-2019
</metadata>
<g transform="translate(0.000000,95.000000) scale(0.100000,-0.100000)"
fill="#000000" stroke="none">
<path d="M74 902 c-22 -15 -36 -101 -24 -158 14 -66 41 -90 115 -99 86 -11 81
12 83 -357 2 -239 3 -248 22 -248 10 0 29 10 40 22 20 22 21 31 19 345 0 177
-5 339 -9 359 -12 51 -39 75 -91 80 -76 9 -89 14 -99 39 -9 24 -34 32 -56 17z"/>
</g>
</svg>
