<?xml version="1.0" standalone="no"?>
<!DOCTYPE svg PUBLIC "-//W3C//DTD SVG 20010904//EN"
 "http://www.w3.org/TR/2001/REC-SVG-20010904/DTD/svg10.dtd">
<svg version="1.0" xmlns="http://www.w3.org/2000/svg"
 width="213.000000pt" height="69.000000pt" viewBox="0 0 213.000000 69.000000"
 preserveAspectRatio="xMidYMid meet">
<metadata>
Created by potrace 1.16, written by Peter Selinger 2001-2019
</metadata>
<g transform="translate(0.000000,69.000000) scale(0.100000,-0.100000)"
fill="#000000" stroke="none">
<path d="M1298 632 c-26 -9 -52 -22 -59 -29 -16 -16 -1 -35 22 -28 21 7 22 6
24 -77 l1 -56 -68 5 c-62 5 -70 4 -101 -20 -51 -39 -79 -100 -84 -182 -3 -60
-1 -76 19 -109 13 -22 35 -48 49 -59 37 -27 109 -33 150 -13 24 12 35 13 40 5
7 -13 31 -9 94 14 44 17 61 47 25 47 -11 0 -23 6 -25 13 -2 6 -7 120 -9 252
-3 132 -5 243 -5 248 -1 10 -20 8 -73 -11z m-38 -244 c28 -31 31 -48 28 -162
l-3 -100 -30 -8 c-42 -11 -92 8 -110 42 -22 42 -29 131 -15 176 22 71 88 97
130 52z M1521 631 c-26 -26 -26 -36 0 -62 22 -22 51 -19 79 7 13 13 13 18 0
42 -20 34 -53 39 -79 13z M443 623 c-31 -6 -29 -31 2 -43 31 -12 31 -14 3 -59
-38 -60 -42 -67 -66 -110 -12 -22 -24 -41 -27 -41 -6 0 -111 162 -118 183 -5
13 0 20 18 27 14 5 25 16 25 25 0 13 -19 15 -120 15 -114 0 -120 -1 -120 -20
0 -12 10 -24 23 -29 33 -14 60 -44 142 -164 l75 -108 0 -88 c0 -93 -8 -111
-47 -111 -18 0 -23 -6 -23 -25 l0 -26 128 3 c123 3 127 4 130 26 3 19 -1 22
-32 22 -47 0 -56 19 -56 119 0 89 2 95 84 221 59 91 104 140 128 140 19 0 36
26 24 37 -7 7 -140 11 -173 6z M1895 451 c-12 -5 -27 -16 -34 -25 -18 -21 -28
-20 -34 4 -6 25 -34 26 -82 3 -39 -18 -42 -27 -20 -49 21 -22 22 -251 0 -280
-30 -39 -20 -45 67 -42 56 2 83 7 86 16 2 7 -5 16 -17 19 -28 7 -32 29 -29
152 l3 105 32 19 c25 14 37 16 52 8 29 -16 34 -43 32 -161 -1 -96 -3 -107 -24
-122 -12 -9 -18 -20 -14 -24 9 -9 167 -7 176 2 3 3 -6 14 -20 24 -25 19 -26
23 -28 132 -2 131 -12 177 -44 199 -29 21 -77 30 -102 20z M768 442 c-83 -21
-123 -132 -47 -132 31 0 49 23 49 63 0 28 29 41 68 30 22 -5 43 -55 34 -81 -2
-7 -36 -28 -76 -47 -88 -42 -110 -61 -125 -108 -12 -34 -11 -41 9 -70 41 -59
84 -64 167 -20 32 17 33 17 49 -5 23 -33 73 -30 109 8 31 32 28 45 -13 45
l-25 0 -2 115 c-2 121 -9 153 -44 184 -23 21 -104 30 -153 18z m111 -249 c1
-32 -4 -45 -21 -57 -31 -22 -75 -20 -88 3 -23 44 -2 81 65 113 36 17 43 7 44
-59z M1510 432 c-43 -17 -62 -47 -30 -47 36 -1 40 -14 40 -140 0 -127 -8 -155
-46 -155 -8 0 -14 -7 -14 -15 0 -12 18 -15 105 -15 87 0 105 3 105 15 0 8 -6
15 -14 15 -34 0 -41 31 -46 194 l-5 161 -25 2 c-14 1 -45 -6 -70 -15z"/>
</g>
</svg>
