<?xml version="1.0" standalone="no"?>
<!DOCTYPE svg PUBLIC "-//W3C//DTD SVG 20010904//EN"
 "http://www.w3.org/TR/2001/REC-SVG-20010904/DTD/svg10.dtd">
<svg version="1.0" xmlns="http://www.w3.org/2000/svg"
 width="37.000000pt" height="97.000000pt" viewBox="0 0 37.000000 97.000000"
 preserveAspectRatio="xMidYMid meet">
<metadata>
Created by potrace 1.16, written by Peter Selinger 2001-2019
</metadata>
<g transform="translate(0.000000,97.000000) scale(0.100000,-0.100000)"
fill="#000000" stroke="none">
<path d="M66 908 c-34 -55 -30 -181 8 -224 16 -19 33 -26 75 -29 93 -7 90 3
92 -318 2 -302 5 -315 53 -283 15 9 28 30 31 49 4 19 5 182 3 363 -3 247 -7
335 -16 352 -17 30 -69 52 -124 52 -37 0 -45 4 -60 30 -20 36 -42 38 -62 8z
m128 -134 c17 -7 22 -34 7 -34 -21 0 -41 13 -41 26 0 15 10 17 34 8z"/>
</g>
</svg>
