<?xml version="1.0" standalone="no"?>
<!DOCTYPE svg PUBLIC "-//W3C//DTD SVG 20010904//EN"
 "http://www.w3.org/TR/2001/REC-SVG-20010904/DTD/svg10.dtd">
<svg version="1.0" xmlns="http://www.w3.org/2000/svg"
 width="71.000000pt" height="92.000000pt" viewBox="0 0 71.000000 92.000000"
 preserveAspectRatio="xMidYMid meet">
<metadata>
Created by potrace 1.16, written by Peter Selinger 2001-2019
</metadata>
<g transform="translate(0.000000,92.000000) scale(0.100000,-0.100000)"
fill="#000000" stroke="none">
<path d="M70 848 c-48 -79 -30 -175 40 -211 32 -17 55 -18 247 -13 116 2 213
2 216 0 3 -3 -8 -31 -23 -62 -36 -73 -43 -140 -29 -277 10 -109 13 -181 7
-220 -7 -45 94 -16 113 32 13 34 7 204 -12 320 -12 79 -12 85 11 149 23 66 30
168 14 217 -10 32 -50 37 -275 37 l-220 0 -17 30 c-22 39 -47 38 -72 -2z M131
447 c-13 -6 -33 -24 -44 -39 -18 -24 -20 -44 -21 -197 l-1 -171 28 0 c18 0 39
11 58 29 l29 29 0 153 c0 126 3 156 16 170 31 34 -14 53 -65 26z"/>
</g>
</svg>
