<?xml version="1.0" standalone="no"?>
<!DOCTYPE svg PUBLIC "-//W3C//DTD SVG 20010904//EN"
 "http://www.w3.org/TR/2001/REC-SVG-20010904/DTD/svg10.dtd">
<svg version="1.0" xmlns="http://www.w3.org/2000/svg"
 width="65.000000pt" height="43.000000pt" viewBox="0 0 65.000000 43.000000"
 preserveAspectRatio="xMidYMid meet">
<metadata>
Created by potrace 1.16, written by Peter Selinger 2001-2019
</metadata>
<g transform="translate(0.000000,43.000000) scale(0.100000,-0.100000)"
fill="#000000" stroke="none">
<path d="M293 413 c-17 -11 -23 -25 -23 -55 0 -43 14 -54 55 -44 21 5 25 12
25 45 0 31 5 40 25 49 47 21 85 -7 85 -64 0 -20 -11 -29 -63 -52 -84 -39 -133
-83 -142 -128 -8 -47 10 -91 46 -109 39 -21 59 -19 114 11 48 25 49 25 64 6
22 -27 45 -33 79 -21 30 10 61 53 48 66 -4 5 -18 8 -29 8 -21 0 -22 5 -27 125
-4 98 -9 132 -23 153 -17 26 -20 27 -115 26 -71 0 -103 -4 -119 -16z m167
-202 c0 -68 -15 -91 -60 -91 -40 0 -68 40 -52 75 11 25 77 73 100 74 8 1 12
-17 12 -58z M52 281 c-8 -5 -12 -21 -10 -37 l3 -29 103 -3 102 -3 0 41 0 40
-92 0 c-51 0 -99 -4 -106 -9z"/>
</g>
</svg>
