<?xml version="1.0" standalone="no"?>
<!DOCTYPE svg PUBLIC "-//W3C//DTD SVG 20010904//EN"
 "http://www.w3.org/TR/2001/REC-SVG-20010904/DTD/svg10.dtd">
<svg version="1.0" xmlns="http://www.w3.org/2000/svg"
 width="254.000000pt" height="92.000000pt" viewBox="0 0 254.000000 92.000000"
 preserveAspectRatio="xMidYMid meet">
<metadata>
Created by potrace 1.16, written by Peter Selinger 2001-2019
</metadata>
<g transform="translate(0.000000,92.000000) scale(0.100000,-0.100000)"
fill="#000000" stroke="none">
<path d="M1133 868 c-41 -51 -42 -192 -2 -234 12 -13 29 -24 37 -24 13 0 13
-2 -1 -17 -29 -34 -39 -101 -32 -215 l7 -108 -39 0 -40 0 -18 -105 c-10 -58
-16 -107 -14 -110 3 -2 48 -5 101 -7 90 -2 99 -1 122 21 31 29 51 115 41 180
-6 41 -19 93 -44 172 -10 31 19 141 44 169 16 18 31 20 132 20 159 0 153 8
154 -212 1 -95 0 -177 -1 -183 -1 -5 1 -40 5 -77 l7 -68 32 0 c20 0 40 8 51
20 17 19 18 41 16 283 -1 144 -5 273 -8 287 -7 32 -42 90 -68 113 -45 41 -78
47 -247 47 l-164 0 -11 30 c-12 32 -42 40 -60 18z m220 -91 c168 2 202 -4 239
-45 53 -57 59 -94 56 -362 -4 -318 -21 -331 -28 -20 -6 258 -9 269 -78 295
-37 15 -62 16 -146 11 -55 -4 -107 -13 -115 -19 -11 -9 -15 -9 -18 1 -3 7 -23
12 -54 12 -43 0 -50 3 -63 28 -11 21 -12 39 -3 85 l10 57 24 -22 c23 -22 31
-23 176 -21z m-122 -211 c-6 -7 -14 -41 -17 -74 -5 -49 -1 -82 20 -166 25 -94
27 -110 16 -160 l-11 -55 -63 -6 c-96 -11 -101 -8 -98 49 3 58 15 76 51 76 15
0 35 6 45 13 16 12 16 20 5 102 -15 115 -7 177 28 223 15 20 29 30 31 23 2 -6
-1 -18 -7 -25z M2285 855 c-14 -13 -25 -33 -25 -44 0 -30 -15 -34 -52 -11 -18
11 -47 20 -65 20 -30 0 -57 17 -65 40 -4 13 -58 -4 -58 -17 0 -5 -8 -18 -18
-31 -17 -22 -19 -22 -47 -8 -17 9 -51 16 -78 16 -41 0 -49 3 -57 25 -12 33
-45 32 -66 0 -20 -30 -28 -158 -13 -189 6 -11 20 -28 31 -37 19 -15 19 -19 8
-54 -15 -45 -9 -128 21 -290 11 -60 23 -126 26 -145 12 -74 5 -72 193 -68 197
4 191 1 250 118 103 205 130 260 130 266 0 4 10 21 23 38 53 71 69 116 69 197
0 43 -6 87 -12 99 -13 24 -66 50 -104 50 -17 0 -26 7 -30 25 -8 32 -30 32 -61
0z m120 -77 c49 -16 62 -52 49 -130 -10 -57 -27 -70 -32 -26 -3 21 -10 29 -30
34 -48 10 -87 27 -99 42 -17 21 -16 63 2 89 16 23 18 23 110 -9z m-556 6 c73
-5 87 -11 97 -46 17 -56 5 -79 -48 -93 -53 -13 -89 -3 -122 33 -15 17 -17 30
-11 72 6 43 10 50 24 44 9 -4 36 -8 60 -10z m286 -9 c66 -15 82 -29 79 -72 -1
-15 -3 -34 -3 -40 -1 -7 -14 -13 -29 -13 -33 0 -51 -17 -82 -80 -13 -25 -25
-40 -27 -33 -2 7 0 21 6 32 21 38 14 71 -18 82 -34 12 -47 49 -36 102 10 44
14 49 34 41 9 -3 43 -12 76 -19z m222 -155 c32 0 29 -25 -4 -45 -31 -18 -77
-82 -119 -162 -14 -29 -43 -71 -64 -93 -33 -36 -42 -40 -83 -40 -25 0 -48 4
-51 8 -2 4 4 27 15 51 10 24 19 47 19 52 0 5 14 37 30 71 17 34 30 69 30 77 0
9 9 27 19 40 15 20 24 23 50 18 29 -6 33 -4 46 27 l14 34 38 -19 c20 -10 48
-19 60 -19z m-307 -15 c0 -5 -82 -201 -106 -254 -11 -24 -18 -31 -26 -23 -17
17 -38 122 -38 193 0 77 12 94 59 84 23 -5 32 -2 40 14 10 18 13 18 41 5 16
-9 30 -17 30 -19z m-210 -105 c0 -81 18 -151 58 -228 25 -50 37 -50 57 0 48
123 97 223 102 211 2 -6 -7 -36 -20 -65 -38 -84 -67 -156 -67 -167 0 -7 31
-11 84 -11 73 0 88 3 122 26 21 15 41 30 42 35 6 15 140 212 166 244 32 40 46
24 16 -18 -20 -27 -120 -220 -185 -360 -10 -21 -26 -42 -36 -47 -29 -16 -285
-22 -296 -7 -28 36 -82 411 -66 454 13 34 23 5 23 -67z M75 840 c-26 -28 -28
-164 -3 -202 16 -24 16 -28 -5 -69 -21 -41 -22 -57 -21 -256 1 -238 6 -257 66
-268 18 -3 133 -5 254 -3 203 3 224 5 243 22 22 20 22 24 19 330 -4 435 6 420
-290 415 l-180 -4 -14 28 c-17 32 -44 35 -69 7z m60 -56 l27 -27 170 6 c203 6
231 -1 247 -60 16 -57 15 -588 -2 -601 -7 -5 -111 -12 -239 -15 -211 -5 -227
-4 -243 13 -14 16 -16 43 -13 230 l3 212 48 43 c26 24 47 46 47 49 0 3 -11 6
-25 6 -14 0 -37 11 -51 25 -22 22 -24 31 -19 73 7 53 12 72 19 72 3 0 17 -12
31 -26z M253 640 c-50 -7 -88 -39 -114 -95 -15 -32 -19 -65 -19 -161 0 -172
-7 -166 210 -162 162 3 169 4 194 27 25 24 26 27 26 158 0 206 -22 237 -170
238 -47 1 -104 -2 -127 -5z m231 -65 c26 -24 26 -26 26 -153 0 -108 -3 -132
-17 -143 -12 -11 -54 -14 -172 -14 l-156 0 -5 95 c-6 109 4 165 34 199 31 35
51 40 162 40 94 1 103 -1 128 -24z M693 848 c-4 -7 -13 -35 -19 -62 -10 -40
-9 -59 2 -98 18 -58 40 -74 118 -81 33 -3 65 -12 73 -19 20 -21 6 -71 -32
-115 -40 -47 -49 -74 -32 -97 21 -29 76 -7 104 41 74 126 94 208 69 285 -29
90 -53 108 -144 108 -53 0 -62 3 -76 25 -18 27 -50 33 -63 13z m61 -63 c12 -9
41 -15 71 -15 29 0 60 -6 72 -15 47 -33 67 -120 41 -182 l-11 -28 -7 39 c-10
52 -31 66 -105 66 -81 0 -105 17 -105 75 0 45 7 75 19 75 3 0 15 -7 25 -15z"/>
</g>
</svg>
