<?xml version="1.0" standalone="no"?>
<!DOCTYPE svg PUBLIC "-//W3C//DTD SVG 20010904//EN"
 "http://www.w3.org/TR/2001/REC-SVG-20010904/DTD/svg10.dtd">
<svg version="1.0" xmlns="http://www.w3.org/2000/svg"
 width="40.000000pt" height="61.000000pt" viewBox="0 0 40.000000 61.000000"
 preserveAspectRatio="xMidYMid meet">
<metadata>
Created by potrace 1.16, written by Peter Selinger 2001-2019
</metadata>
<g transform="translate(0.000000,61.000000) scale(0.100000,-0.100000)"
fill="#000000" stroke="none">
<path d="M54 533 c-12 -28 -14 -56 -11 -105 9 -109 29 -128 137 -128 63 0 80
-13 80 -59 0 -25 -34 -87 -66 -122 -27 -29 -30 -51 -10 -68 40 -33 149 105
160 201 1 15 6 31 9 35 12 12 7 67 -10 118 -24 70 -64 105 -122 106 -25 1 -56
2 -69 3 -13 1 -28 11 -35 26 -20 39 -44 37 -63 -7z m150 -119 c9 -3 16 -10 16
-16 0 -14 -43 -5 -48 10 -4 13 7 15 32 6z"/>
</g>
</svg>
