<?xml version="1.0" standalone="no"?>
<!DOCTYPE svg PUBLIC "-//W3C//DTD SVG 20010904//EN"
 "http://www.w3.org/TR/2001/REC-SVG-20010904/DTD/svg10.dtd">
<svg version="1.0" xmlns="http://www.w3.org/2000/svg"
 width="217.000000pt" height="92.000000pt" viewBox="0 0 217.000000 92.000000"
 preserveAspectRatio="xMidYMid meet">
<metadata>
Created by potrace 1.16, written by Peter Selinger 2001-2019
</metadata>
<g transform="translate(0.000000,92.000000) scale(0.100000,-0.100000)"
fill="#000000" stroke="none">
<path d="M76 849 c-33 -39 -40 -68 -33 -132 5 -41 14 -58 42 -87 l35 -35 205
2 c230 3 219 7 184 -72 -20 -44 -21 -58 -14 -174 4 -69 8 -166 9 -216 1 -96
-2 -92 54 -87 10 1 33 16 50 33 30 30 32 35 32 104 0 40 -7 109 -15 152 -20
103 -19 169 4 219 29 64 36 155 16 198 -31 65 -36 66 -270 66 l-210 0 -17 30
c-22 38 -40 38 -72 -1z m56 -56 c17 -15 44 -17 232 -15 244 3 237 6 244 -84
l4 -54 -245 0 c-243 0 -246 0 -261 22 -10 14 -16 44 -16 79 0 72 8 83 42 52z
m437 -282 c-10 -34 -10 -57 4 -129 9 -48 19 -125 22 -172 6 -85 6 -86 -19
-100 -14 -7 -29 -10 -32 -7 -4 4 -7 96 -8 205 -1 176 1 201 17 226 25 37 31
27 16 -23z M1915 855 c-14 -13 -25 -33 -25 -44 0 -30 -14 -33 -56 -11 -22 11
-55 22 -75 25 -25 4 -38 12 -42 25 -3 11 -13 20 -22 20 -20 0 -65 -44 -65 -65
0 -19 -17 -19 -50 0 -14 8 -46 14 -71 15 -39 0 -47 4 -57 25 -13 27 -43 33
-61 12 -6 -8 -16 -36 -22 -64 -15 -65 1 -160 31 -183 18 -14 19 -19 9 -49 -15
-42 -6 -146 26 -306 13 -66 26 -137 30 -157 4 -29 12 -39 30 -44 46 -11 298 1
330 17 24 11 49 52 135 219 58 113 118 230 134 260 24 46 28 65 28 131 0 42
-5 86 -11 98 -12 22 -70 51 -102 51 -12 0 -23 10 -29 25 -12 32 -34 32 -65 0z
m96 -71 c63 -19 73 -34 72 -108 0 -54 -5 -70 -42 -131 -22 -39 -56 -101 -75
-140 -20 -38 -42 -81 -50 -95 -8 -14 -24 -50 -36 -80 -12 -30 -28 -62 -36 -71
-8 -8 -14 -21 -14 -27 0 -6 -8 -16 -18 -21 -25 -13 -289 -18 -301 -6 -5 6 -14
39 -20 75 -6 36 -21 117 -32 180 -13 73 -18 132 -13 163 9 69 24 47 24 -37 0
-45 7 -93 19 -127 21 -62 59 -129 72 -129 9 0 30 42 43 83 3 10 10 16 15 12 6
-3 4 -20 -5 -42 -13 -30 -13 -37 -2 -45 19 -13 167 1 195 19 13 9 55 64 93
122 38 58 88 128 110 155 32 38 40 55 38 80 -3 29 -6 31 -47 37 -53 7 -91 45
-91 90 0 38 21 71 40 63 8 -3 36 -12 61 -20z m-516 -4 c55 -5 61 -8 76 -36 9
-18 13 -47 11 -68 -4 -33 -7 -36 -36 -36 -18 0 -37 -5 -43 -11 -14 -14 -77 15
-98 45 -26 36 -11 137 17 119 7 -4 40 -10 73 -13z m269 -5 c64 -15 78 -30 81
-80 2 -43 -4 -55 -29 -55 -32 0 -60 -24 -81 -69 -17 -39 -45 -60 -30 -23 4 9
9 33 12 52 5 33 3 36 -28 45 -32 9 -34 13 -37 57 -3 54 11 88 36 88 9 -1 44
-7 76 -15z m184 -154 c29 -10 55 -20 58 -23 3 -3 -7 -15 -22 -27 -27 -22 -104
-119 -104 -132 0 -16 -74 -131 -94 -144 -26 -19 -131 -21 -123 -2 35 79 97
234 97 240 0 5 9 22 20 38 18 25 24 27 47 18 30 -11 53 3 53 32 0 23 2 23 68
0z m-296 -10 c15 -14 19 -27 14 -45 -13 -53 -100 -246 -110 -243 -17 6 -36 78
-43 163 -7 99 2 118 53 108 26 -5 35 -2 46 15 16 25 14 25 40 2z m48 -128 c0
-5 -4 -15 -10 -23 -11 -18 -25 -7 -17 15 6 15 27 21 27 8z M722 858 c-5 -7
-15 -31 -21 -53 -33 -120 15 -215 109 -215 36 0 37 -12 8 -53 -27 -37 -58
-103 -58 -123 0 -7 -7 -33 -15 -58 -18 -52 -28 -272 -14 -298 11 -21 74 -25
85 -6 8 13 16 74 15 118 -1 47 18 165 35 220 18 58 83 154 117 172 26 13 134
5 173 -13 46 -22 59 -61 58 -172 0 -53 -4 -100 -8 -105 -4 -4 -69 -9 -144 -12
-75 -3 -142 -8 -148 -12 -6 -4 -11 -21 -12 -37 0 -16 -5 -38 -11 -48 -5 -11
-11 -41 -13 -69 l-3 -49 197 1 c109 0 200 3 204 6 9 9 23 122 35 284 10 140 9
156 -10 238 -12 49 -31 101 -44 117 -12 16 -32 41 -43 56 -19 25 -138 93 -161
93 -5 0 -14 -26 -21 -59 -12 -55 -43 -111 -62 -111 -5 0 -12 21 -16 47 -9 64
-40 93 -97 93 -46 0 -67 13 -67 42 0 21 -51 26 -68 6z m51 -68 c12 -14 29 -20
60 -20 65 0 80 -16 85 -91 2 -35 9 -70 14 -76 7 -9 1 -23 -21 -48 -62 -71
-111 -199 -111 -290 0 -51 -8 -77 -21 -69 -12 7 -2 112 18 184 9 30 33 88 55
129 53 100 50 113 -30 127 -71 13 -75 15 -90 62 -9 25 -9 43 1 73 14 45 16 46
40 19z m389 -62 c51 -40 73 -72 97 -146 21 -63 30 -212 12 -212 -4 0 -11 32
-15 72 -4 40 -14 86 -24 103 -24 40 -83 67 -157 71 -33 1 -64 3 -68 3 -4 1 3
16 17 34 15 19 26 37 26 41 0 4 7 23 15 42 12 30 18 34 37 28 13 -3 40 -20 60
-36z m113 -418 c3 -11 4 -23 2 -28 -3 -4 -8 -34 -11 -67 -4 -34 -10 -74 -14
-90 l-8 -30 -154 -3 c-84 -1 -157 1 -161 5 -9 9 9 92 22 108 5 5 51 10 102 11
50 1 107 2 125 3 43 1 72 32 72 76 0 38 15 47 25 15z M123 441 c-53 -33 -57
-50 -59 -234 l-2 -167 34 0 c24 0 42 9 66 33 l32 32 2 145 c0 80 3 159 5 175
3 26 1 30 -21 33 -14 1 -39 -6 -57 -17z m29 -108 c3 -66 -7 -221 -15 -230 -4
-3 -13 -3 -21 0 -20 8 -18 246 3 270 23 28 30 19 33 -40z"/>
</g>
</svg>
