<?xml version="1.0" standalone="no"?>
<!DOCTYPE svg PUBLIC "-//W3C//DTD SVG 20010904//EN"
 "http://www.w3.org/TR/2001/REC-SVG-20010904/DTD/svg10.dtd">
<svg version="1.0" xmlns="http://www.w3.org/2000/svg"
 width="51.000000pt" height="92.000000pt" viewBox="0 0 51.000000 92.000000"
 preserveAspectRatio="xMidYMid meet">
<metadata>
Created by potrace 1.16, written by Peter Selinger 2001-2019
</metadata>
<g transform="translate(0.000000,92.000000) scale(0.100000,-0.100000)"
fill="#000000" stroke="none">
<path d="M156 864 c-31 -31 -40 -128 -17 -179 25 -56 45 -69 108 -72 30 -1 61
-7 68 -13 11 -9 14 -44 15 -138 1 -70 2 -144 2 -164 1 -21 -1 -40 -5 -44 -6
-6 -38 -8 -183 -12 -39 -2 -54 -6 -59 -19 -16 -41 -44 -166 -39 -174 3 -5 92
-9 198 -9 163 0 196 2 207 16 25 30 23 117 -6 230 -26 102 -27 112 -16 206 12
107 13 219 2 257 -12 43 -52 64 -132 68 -81 4 -87 6 -99 39 -11 28 -22 30 -44
8z m159 -154 c3 -5 -3 -10 -14 -10 -11 0 -23 5 -26 10 -3 6 3 10 14 10 11 0
23 -4 26 -10z m50 -549 c11 -19 -35 -32 -83 -25 l-47 7 40 13 c50 15 82 17 90
5z"/>
</g>
</svg>
