<?xml version="1.0" standalone="no"?>
<!DOCTYPE svg PUBLIC "-//W3C//DTD SVG 20010904//EN"
 "http://www.w3.org/TR/2001/REC-SVG-20010904/DTD/svg10.dtd">
<svg version="1.0" xmlns="http://www.w3.org/2000/svg"
 width="88.000000pt" height="49.000000pt" viewBox="0 0 88.000000 49.000000"
 preserveAspectRatio="xMidYMid meet">
<metadata>
Created by potrace 1.16, written by Peter Selinger 2001-2019
</metadata>
<g transform="translate(0.000000,49.000000) scale(0.100000,-0.100000)"
fill="#000000" stroke="none">
<path d="M158 439 c-16 -6 -28 -14 -28 -19 0 -5 -9 -12 -20 -15 -33 -10 -63
-82 -64 -150 -2 -121 56 -198 159 -210 66 -9 87 -2 137 43 56 51 68 79 68 165
0 66 -3 78 -30 115 -16 23 -42 48 -57 56 -38 19 -132 28 -165 15z m124 -67
c23 -27 48 -104 48 -148 0 -22 -10 -60 -22 -84 -20 -40 -27 -45 -61 -48 -31
-3 -42 2 -66 29 -53 58 -68 203 -25 250 37 41 92 41 126 1z M633 440 c-12 -5
-26 -16 -31 -26 -10 -19 -32 -11 -32 12 0 18 -38 18 -83 -1 -48 -20 -53 -32
-23 -56 25 -20 26 -23 26 -140 0 -106 -2 -121 -20 -139 -34 -34 -24 -40 59
-40 87 0 105 10 72 41 -19 18 -21 31 -21 139 l0 119 35 17 c68 32 85 1 85
-151 0 -100 -1 -104 -27 -123 -44 -32 -22 -44 75 -40 57 2 87 7 90 15 2 7 -5
16 -15 20 -30 11 -33 23 -33 133 0 121 -10 167 -44 199 -26 25 -80 35 -113 21z"/>
</g>
</svg>
