<?xml version="1.0" standalone="no"?>
<!DOCTYPE svg PUBLIC "-//W3C//DTD SVG 20010904//EN"
 "http://www.w3.org/TR/2001/REC-SVG-20010904/DTD/svg10.dtd">
<svg version="1.0" xmlns="http://www.w3.org/2000/svg"
 width="357.000000pt" height="78.000000pt" viewBox="0 0 357.000000 78.000000"
 preserveAspectRatio="xMidYMid meet">
<metadata>
Created by potrace 1.16, written by Peter Selinger 2001-2019
</metadata>
<g transform="translate(0.000000,78.000000) scale(0.100000,-0.100000)"
fill="#000000" stroke="none">
<path d="M2727 718 c-60 -21 -69 -38 -26 -48 22 -5 24 -12 30 -80 3 -41 7
-143 8 -226 2 -128 0 -154 -14 -168 -9 -9 -21 -16 -26 -16 -5 0 -9 -6 -9 -14
0 -9 19 -15 63 -18 111 -9 164 12 102 40 -20 9 -25 19 -25 49 -1 166 -11 487
-16 494 -7 12 -20 10 -87 -13z M2972 721 c-29 -10 -55 -21 -58 -24 -11 -11 8
-27 32 -27 13 0 24 -1 25 -2 0 -2 3 -105 6 -230 l4 -227 -25 -16 c-14 -10 -26
-24 -26 -32 0 -11 18 -13 97 -11 100 3 126 15 73 35 l-30 11 -1 114 c-1 62 -3
140 -4 173 -2 33 -3 104 -4 158 -1 111 1 108 -89 78z M2118 705 c-9 -21 -8
-28 7 -45 20 -23 45 -26 63 -8 17 17 15 44 -4 62 -23 24 -53 20 -66 -9z M583
688 c-5 -7 -18 -33 -27 -58 -10 -25 -24 -58 -31 -75 -7 -16 -33 -77 -57 -135
-25 -57 -50 -106 -56 -108 -6 -2 -41 59 -78 135 -36 76 -77 162 -91 191 l-25
52 -89 0 c-82 0 -89 -2 -89 -20 0 -15 7 -20 25 -20 50 0 56 -27 53 -256 l-3
-209 -37 -18 c-45 -22 -48 -34 -10 -48 27 -11 178 -7 190 6 11 11 -14 40 -37
43 -34 5 -42 43 -39 201 2 119 5 141 14 121 27 -58 137 -288 154 -320 32 -60
50 -47 100 70 25 58 50 114 57 125 6 11 23 52 38 90 15 39 32 74 36 80 6 6 8
-65 7 -175 l-3 -184 -25 -6 c-16 -4 -25 -13 -25 -25 0 -19 8 -20 110 -20 104
0 110 1 113 21 2 17 -4 23 -26 27 -19 4 -31 14 -36 29 -3 13 -6 113 -6 224 0
215 1 219 53 237 10 4 17 13 15 20 -6 17 -161 22 -175 5z M1231 565 c-23 -30
-46 -55 -51 -55 -6 0 -10 -7 -10 -15 0 -8 9 -15 20 -15 11 0 20 -6 20 -12 11
-295 14 -318 56 -337 36 -16 90 -4 114 26 25 33 27 58 3 48 -68 -28 -75 -14
-81 146 l-5 129 24 1 c49 3 54 4 57 21 2 13 -5 17 -35 20 -38 3 -38 3 -41 51
-4 62 -19 61 -71 -8z M3448 543 c-42 -5 -45 -9 -23 -33 14 -15 13 -26 -14
-105 -17 -48 -33 -90 -36 -93 -8 -8 -25 19 -25 40 0 9 -5 20 -11 24 -16 9 -49
85 -49 112 0 13 6 22 15 22 8 0 15 7 15 15 0 12 -16 15 -84 15 -47 0 -87 -4
-90 -9 -3 -5 10 -25 29 -44 19 -19 35 -43 35 -53 0 -11 10 -35 21 -54 31 -50
89 -188 89 -211 0 -23 -28 -81 -44 -91 -6 -5 -23 -5 -38 -2 -36 7 -66 -3 -78
-26 -20 -37 -3 -50 69 -50 65 0 66 1 94 40 15 22 41 77 57 122 16 46 39 108
50 138 12 30 31 83 42 117 11 34 29 72 40 83 22 24 17 51 -9 48 -10 -1 -35 -3
-55 -5z M1540 520 c-56 -19 -69 -31 -100 -90 -37 -72 -35 -127 7 -216 30 -64
113 -101 178 -81 59 18 135 103 135 152 0 26 -21 17 -60 -28 -34 -38 -42 -42
-83 -42 -56 0 -92 30 -108 88 -17 63 -10 69 79 67 42 -1 94 -2 115 -1 l39 1
-7 42 c-10 58 -29 83 -79 108 -50 24 -46 24 -116 0z m91 -77 c5 -14 7 -28 5
-32 -7 -11 -116 -5 -128 7 -8 8 -2 20 20 41 28 28 33 30 62 20 18 -7 35 -22
41 -36z M1952 520 c-39 -24 -42 -24 -42 -4 0 14 -7 15 -40 10 -52 -8 -90 -26
-90 -43 0 -7 9 -13 19 -13 23 0 29 -32 30 -168 1 -86 -1 -95 -24 -118 -14 -14
-25 -29 -25 -34 0 -6 43 -10 100 -10 84 0 100 3 100 16 0 8 -13 20 -30 25 -28
10 -30 14 -32 67 -4 161 -2 182 19 204 20 19 22 20 44 4 29 -20 43 -20 63 0
21 21 20 40 -4 64 -25 25 -46 25 -88 0z M2135 521 c-51 -18 -75 -51 -37 -51
11 0 23 -7 26 -16 9 -22 7 -247 -2 -260 -4 -7 -16 -13 -27 -15 -11 -3 -21 -12
-23 -22 -3 -15 7 -17 92 -17 62 0 97 4 102 12 4 6 2 14 -4 16 -6 2 -21 11 -32
20 -18 16 -20 30 -21 172 -1 150 -4 180 -18 180 -3 -1 -28 -9 -56 -19z M2404
532 c-62 -20 -101 -94 -65 -126 10 -9 22 -16 28 -16 19 0 43 37 43 67 0 24 5
32 24 37 32 8 73 -8 78 -31 6 -30 -4 -64 -21 -70 -119 -41 -181 -96 -181 -164
0 -30 7 -43 37 -69 30 -27 42 -31 70 -27 18 3 45 15 60 26 27 22 53 27 53 11
0 -5 11 -17 24 -25 25 -17 64 -9 92 20 21 20 14 50 -11 50 -18 0 -20 9 -25
115 -6 120 -14 150 -49 188 -18 18 -32 22 -79 21 -31 -1 -66 -4 -78 -7z m114
-243 c3 -54 2 -57 -27 -68 -46 -20 -74 -11 -85 26 -10 37 0 55 49 85 48 29 60
21 63 -43z M917 522 c-15 -4 -43 -20 -62 -35 -27 -22 -35 -35 -35 -61 0 -35
13 -46 51 -46 21 0 42 40 33 64 -3 9 5 21 19 31 23 15 28 15 56 0 27 -13 31
-21 31 -55 0 -25 -5 -40 -12 -40 -27 0 -134 -59 -163 -89 -40 -43 -40 -99 0
-141 41 -43 66 -45 130 -10 64 35 65 35 65 15 0 -38 76 -46 108 -12 30 31 29
57 -2 57 -23 0 -24 3 -30 98 -11 166 -13 176 -48 202 -33 24 -93 33 -141 22z
m95 -232 c0 -77 -1 -78 -37 -90 -44 -15 -62 -8 -75 25 -13 34 0 57 48 90 51
35 65 30 64 -25z"/>
</g>
</svg>
