<?xml version="1.0" standalone="no"?>
<!DOCTYPE svg PUBLIC "-//W3C//DTD SVG 20010904//EN"
 "http://www.w3.org/TR/2001/REC-SVG-20010904/DTD/svg10.dtd">
<svg version="1.0" xmlns="http://www.w3.org/2000/svg"
 width="32.000000pt" height="66.000000pt" viewBox="0 0 32.000000 66.000000"
 preserveAspectRatio="xMidYMid meet">
<metadata>
Created by potrace 1.16, written by Peter Selinger 2001-2019
</metadata>
<g transform="translate(0.000000,66.000000) scale(0.100000,-0.100000)"
fill="#000000" stroke="none">
<path d="M130 602 c-91 -44 -120 -84 -57 -80 l32 3 3 -209 c3 -218 0 -232 -41
-238 -12 -2 -22 -10 -22 -18 0 -12 19 -16 95 -18 52 -2 105 0 117 3 31 7 30
35 -1 35 -44 0 -47 15 -52 272 -3 134 -7 249 -9 256 -6 16 -22 14 -65 -6z"/>
</g>
</svg>
