<?xml version="1.0" standalone="no"?>
<!DOCTYPE svg PUBLIC "-//W3C//DTD SVG 20010904//EN"
 "http://www.w3.org/TR/2001/REC-SVG-20010904/DTD/svg10.dtd">
<svg version="1.0" xmlns="http://www.w3.org/2000/svg"
 width="131.000000pt" height="99.000000pt" viewBox="0 0 131.000000 99.000000"
 preserveAspectRatio="xMidYMid meet">
<metadata>
Created by potrace 1.16, written by Peter Selinger 2001-2019
</metadata>
<g transform="translate(0.000000,99.000000) scale(0.100000,-0.100000)"
fill="#000000" stroke="none">
<path d="M657 932 c-24 -26 -41 -102 -33 -146 8 -43 45 -86 74 -86 34 0 45
-25 39 -83 -10 -80 7 -123 80 -206 81 -93 89 -110 72 -147 -17 -34 -36 -41
-154 -51 l-90 -8 0 -95 0 -95 40 3 c22 2 44 7 50 11 5 4 44 18 85 30 165 50
210 73 235 121 9 17 29 97 45 178 36 182 42 200 100 287 56 83 74 133 65 178
-11 50 -42 77 -89 77 -58 1 -119 16 -132 34 -31 43 -74 -19 -74 -104 0 -77 14
-96 86 -120 35 -12 64 -23 64 -25 0 -2 -22 -47 -50 -98 -27 -52 -60 -126 -72
-163 -13 -38 -28 -71 -33 -72 -6 -2 -13 14 -17 36 -4 25 -31 75 -72 135 -78
112 -87 153 -35 164 36 7 49 33 49 103 0 68 -27 97 -105 111 -33 7 -69 20 -81
30 -25 23 -27 23 -47 1z m107 -128 c23 -9 20 -24 -4 -24 -11 0 -20 7 -20 15 0
17 2 18 24 9z m383 -9 c3 -9 3 -18 0 -21 -7 -8 -47 15 -47 26 0 16 40 11 47
-5z M388 923 c-20 -22 -38 -158 -27 -197 5 -16 16 -37 25 -47 15 -17 14 -21
-13 -56 -16 -21 -40 -55 -53 -75 -36 -54 -50 -49 -50 16 0 39 7 68 25 102 28
53 32 99 11 148 -18 44 -52 66 -100 66 -28 0 -45 7 -62 25 -13 14 -29 25 -37
25 -41 0 -79 -107 -59 -163 7 -18 12 -43 12 -54 0 -31 36 -57 80 -57 21 -1 41
-4 45 -8 4 -3 7 -149 8 -324 2 -299 3 -319 20 -322 17 -4 18 9 15 235 -2 153
1 239 7 241 6 1 14 -11 18 -28 7 -27 37 -44 37 -20 0 6 5 10 10 10 13 0 13
-33 1 -46 -13 -12 -33 -177 -24 -200 3 -9 7 -56 7 -103 1 -80 3 -86 22 -89 21
-3 22 -2 16 127 -8 218 14 308 111 437 50 66 79 85 120 77 32 -6 42 13 50 101
9 90 -24 135 -100 136 -31 0 -43 4 -43 14 0 14 -36 46 -51 46 -3 0 -13 -8 -21
-17z m106 -84 c65 -12 76 -23 76 -75 0 -34 -5 -46 -21 -54 -28 -16 -125 -15
-144 0 -18 15 -21 113 -5 155 l10 27 18 -22 c11 -13 36 -25 66 -31z m-367 21
c4 -16 14 -20 52 -20 39 0 52 -5 75 -29 23 -24 27 -36 24 -71 l-3 -44 -45 -1
c-25 -1 -55 -5 -65 -9 -12 -3 -33 2 -53 14 -30 19 -32 23 -32 77 0 32 3 68 6
81 8 27 34 29 41 2z m113 -332 c0 -16 -3 -19 -11 -11 -6 6 -8 16 -5 22 11 17
16 13 16 -11z"/>
</g>
</svg>
