<?xml version="1.0" standalone="no"?>
<!DOCTYPE svg PUBLIC "-//W3C//DTD SVG 20010904//EN"
 "http://www.w3.org/TR/2001/REC-SVG-20010904/DTD/svg10.dtd">
<svg version="1.0" xmlns="http://www.w3.org/2000/svg"
 width="37.000000pt" height="93.000000pt" viewBox="0 0 37.000000 93.000000"
 preserveAspectRatio="xMidYMid meet">
<metadata>
Created by potrace 1.16, written by Peter Selinger 2001-2019
</metadata>
<g transform="translate(0.000000,93.000000) scale(0.100000,-0.100000)"
fill="#000000" stroke="none">
<path d="M50 840 c-15 -61 -6 -151 18 -180 12 -15 36 -24 82 -30 42 -6 69 -15
77 -26 10 -13 13 -77 14 -233 1 -119 3 -232 4 -251 1 -19 3 -45 4 -57 2 -32
36 -30 58 3 19 29 18 19 15 407 -2 152 -8 280 -14 297 -13 39 -39 52 -113 59
-53 5 -61 9 -73 34 -9 18 -21 27 -37 27 -19 0 -25 -8 -35 -50z"/>
</g>
</svg>
