<?xml version="1.0" standalone="no"?>
<!DOCTYPE svg PUBLIC "-//W3C//DTD SVG 20010904//EN"
 "http://www.w3.org/TR/2001/REC-SVG-20010904/DTD/svg10.dtd">
<svg version="1.0" xmlns="http://www.w3.org/2000/svg"
 width="68.000000pt" height="95.000000pt" viewBox="0 0 68.000000 95.000000"
 preserveAspectRatio="xMidYMid meet">
<metadata>
Created by potrace 1.16, written by Peter Selinger 2001-2019
</metadata>
<g transform="translate(0.000000,95.000000) scale(0.100000,-0.100000)"
fill="#000000" stroke="none">
<path d="M79 893 c-9 -10 -15 -49 -17 -103 -4 -81 -2 -89 21 -116 l25 -29 157
0 158 0 21 -28 c19 -26 21 -41 20 -155 0 -139 -14 -187 -57 -197 -12 -3 -89
-6 -172 -8 l-149 -2 -23 -95 c-13 -52 -21 -101 -18 -108 4 -10 50 -13 212 -11
115 1 239 5 277 8 l69 6 18 70 c10 39 19 85 19 103 0 30 -2 32 -37 34 -21 0
-48 0 -60 -1 -28 -2 -28 0 -3 71 42 120 47 233 18 393 -13 71 -31 111 -57 125
-11 6 -90 10 -184 10 l-164 0 -11 25 c-13 29 -43 33 -63 8z m226 -130 c55 -9
20 -21 -62 -22 -57 -1 -81 7 -66 23 8 8 77 8 128 -1z m200 -577 c29 -21 12
-44 -37 -51 -24 -3 -97 -5 -163 -3 -99 2 -120 6 -120 18 0 12 22 16 115 21 63
3 126 11 140 17 34 15 43 14 65 -2z"/>
</g>
</svg>
