<?xml version="1.0" standalone="no"?>
<!DOCTYPE svg PUBLIC "-//W3C//DTD SVG 20010904//EN"
 "http://www.w3.org/TR/2001/REC-SVG-20010904/DTD/svg10.dtd">
<svg version="1.0" xmlns="http://www.w3.org/2000/svg"
 width="41.000000pt" height="41.000000pt" viewBox="0 0 41.000000 41.000000"
 preserveAspectRatio="xMidYMid meet">
<metadata>
Created by potrace 1.16, written by Peter Selinger 2001-2019
</metadata>
<g transform="translate(0.000000,41.000000) scale(0.100000,-0.100000)"
fill="#000000" stroke="none">
<path d="M156 355 c-22 -8 -55 -30 -75 -49 -32 -32 -35 -39 -35 -100 -1 -72
15 -103 75 -144 29 -20 43 -23 90 -19 94 8 153 69 153 157 -1 116 -103 193
-208 155z m108 -96 c30 -35 32 -58 11 -98 -39 -76 -155 -41 -155 46 0 78 94
112 144 52z"/>
</g>
</svg>
