<?xml version="1.0" standalone="no"?>
<!DOCTYPE svg PUBLIC "-//W3C//DTD SVG 20010904//EN"
 "http://www.w3.org/TR/2001/REC-SVG-20010904/DTD/svg10.dtd">
<svg version="1.0" xmlns="http://www.w3.org/2000/svg"
 width="75.000000pt" height="92.000000pt" viewBox="0 0 75.000000 92.000000"
 preserveAspectRatio="xMidYMid meet">
<metadata>
Created by potrace 1.16, written by Peter Selinger 2001-2019
</metadata>
<g transform="translate(0.000000,92.000000) scale(0.100000,-0.100000)"
fill="#000000" stroke="none">
<path d="M152 868 c-24 -30 -36 -104 -26 -174 8 -64 11 -70 40 -83 l30 -13
-24 -47 c-22 -44 -23 -52 -17 -163 l7 -118 -35 0 c-19 0 -39 -6 -45 -12 -13
-17 -46 -197 -38 -206 4 -3 54 -6 111 -6 128 1 137 6 155 104 12 65 12 76 -10
162 -36 142 -28 234 23 276 9 8 56 13 127 14 154 2 150 7 151 -201 1 -133 5
-305 8 -335 2 -16 66 4 84 25 15 19 17 49 17 294 0 272 0 272 -25 320 -27 50
-51 75 -100 102 -25 14 -56 17 -192 14 l-161 -2 -14 28 c-15 31 -48 42 -66 21z
m50 -69 c23 -21 33 -22 190 -20 l167 2 39 -35 c63 -58 71 -100 73 -378 0 -130
-2 -242 -6 -248 -19 -31 -25 20 -25 218 -1 249 -8 278 -70 299 -49 16 -219 16
-250 0 -14 -7 -32 -10 -40 -6 -8 5 -36 11 -62 14 -43 5 -48 9 -58 41 -13 39
-3 134 15 134 2 0 14 -10 27 -21z m58 -223 c0 -2 -7 -20 -15 -39 -8 -20 -15
-57 -15 -82 0 -37 31 -167 55 -226 3 -9 -1 -42 -10 -73 l-16 -56 -86 0 -85 0
7 47 c10 69 20 83 59 83 53 0 57 13 44 131 -12 112 -10 136 22 187 16 26 40
43 40 28z"/>
</g>
</svg>
