<?xml version="1.0" standalone="no"?>
<!DOCTYPE svg PUBLIC "-//W3C//DTD SVG 20010904//EN"
 "http://www.w3.org/TR/2001/REC-SVG-20010904/DTD/svg10.dtd">
<svg version="1.0" xmlns="http://www.w3.org/2000/svg"
 width="259.000000pt" height="83.000000pt" viewBox="0 0 259.000000 83.000000"
 preserveAspectRatio="xMidYMid meet">
<metadata>
Created by potrace 1.16, written by Peter Selinger 2001-2019
</metadata>
<g transform="translate(0.000000,83.000000) scale(0.100000,-0.100000)"
fill="#000000" stroke="none">
<path d="M1360 772 c-77 -29 -89 -45 -45 -62 23 -9 25 -15 25 -69 l0 -60 -49
6 c-67 8 -98 -2 -137 -42 -51 -52 -67 -91 -68 -165 -1 -74 27 -137 77 -174 33
-24 134 -29 160 -8 10 9 17 10 22 2 10 -16 36 -12 90 15 53 28 64 48 28 53
-13 2 -24 4 -25 5 -1 1 -4 116 -7 256 -4 157 -10 255 -16 257 -5 1 -30 -5 -55
-14z m-65 -232 c6 0 18 -13 28 -29 13 -23 17 -53 17 -135 0 -105 0 -107 -26
-116 -40 -15 -60 -12 -93 15 -62 53 -64 201 -3 252 16 14 35 21 47 18 11 -3
25 -5 30 -5z M1566 774 c-25 -25 -20 -63 10 -74 44 -17 85 21 64 60 -17 31
-50 38 -74 14z M2301 597 c-100 -38 -130 -158 -59 -235 l22 -22 -29 -30 c-27
-28 -28 -32 -17 -64 12 -32 11 -36 -18 -64 -46 -47 -38 -93 22 -130 54 -32 99
-35 173 -11 113 36 170 105 142 172 -8 17 -21 38 -30 45 -13 11 -136 28 -221
32 -5 0 -3 6 3 14 6 8 33 17 59 21 58 9 113 36 131 67 8 13 15 48 16 78 2 52
3 55 29 58 23 3 27 8 24 30 -3 25 -7 27 -63 33 -33 3 -80 9 -105 12 -27 4 -58
2 -79 -6z m93 -81 c9 -19 16 -55 16 -80 0 -40 -4 -48 -25 -58 -34 -15 -68 9
-83 60 -18 58 -15 80 13 108 31 30 54 21 79 -30z m97 -332 c21 -13 7 -42 -32
-63 -35 -20 -51 -23 -110 -19 -77 6 -103 20 -93 52 13 42 21 45 126 40 55 -2
104 -7 109 -10z M1580 582 c-25 -9 -51 -21 -58 -25 -19 -13 -14 -37 7 -37 11
0 22 -4 25 -8 8 -14 10 -248 2 -261 -5 -7 -19 -16 -33 -22 -13 -5 -23 -15 -20
-22 4 -14 190 -18 203 -4 5 4 -5 18 -21 31 l-30 24 -5 168 c-3 99 -9 168 -15
170 -5 1 -30 -5 -55 -14z M1805 581 c-54 -19 -68 -43 -36 -61 20 -10 21 -20
21 -140 0 -119 -2 -131 -20 -142 -43 -27 -23 -38 70 -38 73 0 90 3 90 15 0 8
-7 15 -15 15 -22 0 -30 43 -30 160 l0 105 37 20 c36 19 37 19 57 1 19 -17 21
-30 21 -142 0 -113 -2 -125 -20 -136 -11 -7 -20 -19 -20 -26 0 -10 21 -12 87
-10 91 3 112 15 68 38 -24 13 -25 16 -25 124 0 120 -10 171 -39 208 -16 19
-28 23 -70 22 -32 0 -57 -6 -69 -17 -24 -22 -29 -21 -35 3 -6 24 -8 24 -72 1z
M464 571 c-57 -26 -92 -67 -110 -128 -18 -62 -11 -134 17 -175 11 -14 19 -30
19 -35 0 -4 13 -17 27 -27 19 -14 44 -20 92 -20 61 -1 69 2 108 34 46 38 81
106 64 123 -12 12 -41 -8 -41 -27 0 -15 -71 -56 -96 -56 -52 0 -114 71 -114
130 0 19 6 20 108 20 59 0 113 4 121 9 27 17 -6 107 -52 138 -47 32 -94 37
-143 14z m74 -57 c12 -8 22 -24 22 -35 0 -17 -7 -19 -65 -19 -36 0 -65 3 -65
6 0 3 9 19 21 35 23 33 53 37 87 13z M814 576 c-84 -37 -101 -152 -20 -132 19
5 27 15 32 44 8 41 18 52 51 52 30 0 53 -26 53 -61 0 -27 -6 -32 -72 -63 -91
-42 -119 -71 -126 -131 -4 -41 -1 -50 24 -76 26 -28 34 -30 75 -26 27 2 58 13
74 25 l28 22 23 -25 c28 -30 53 -32 88 -4 34 27 35 59 1 59 -30 0 -33 10 -38
150 -4 110 -19 158 -54 172 -30 11 -106 8 -139 -6z m116 -240 l0 -64 -35 -12
c-47 -16 -63 -8 -71 35 -5 27 -2 41 12 56 17 19 66 46 87 48 4 1 7 -28 7 -63z
M90 560 c-50 -20 -65 -47 -28 -52 23 -3 23 -6 26 -135 3 -131 3 -131 -24 -152
-14 -11 -23 -25 -19 -31 4 -6 48 -10 106 -10 81 0 99 3 99 15 0 8 -11 17 -24
21 -14 3 -27 13 -31 22 -10 26 -18 188 -11 216 9 38 34 58 56 46 55 -30 107 8
75 56 -18 28 -69 33 -101 9 -25 -19 -34 -19 -34 0 0 20 -33 18 -90 -5z M1870
10 c0 -5 5 -10 10 -10 6 0 10 5 10 10 0 6 -4 10 -10 10 -5 0 -10 -4 -10 -10z"/>
</g>
</svg>
