<?xml version="1.0" standalone="no"?>
<!DOCTYPE svg PUBLIC "-//W3C//DTD SVG 20010904//EN"
 "http://www.w3.org/TR/2001/REC-SVG-20010904/DTD/svg10.dtd">
<svg version="1.0" xmlns="http://www.w3.org/2000/svg"
 width="70.000000pt" height="93.000000pt" viewBox="0 0 70.000000 93.000000"
 preserveAspectRatio="xMidYMid meet">
<metadata>
Created by potrace 1.16, written by Peter Selinger 2001-2019
</metadata>
<g transform="translate(0.000000,93.000000) scale(0.100000,-0.100000)"
fill="#000000" stroke="none">
<path d="M65 854 c-22 -41 -25 -127 -6 -163 24 -44 63 -51 301 -51 121 0 220
-2 220 -5 0 -2 -9 -22 -20 -43 -36 -69 -43 -142 -31 -317 7 -88 9 -175 5 -192
-6 -32 -5 -33 24 -33 18 0 42 10 59 24 26 23 28 30 31 113 3 59 -3 125 -17
201 l-20 112 24 75 c43 131 29 244 -31 259 -15 4 -124 6 -241 5 -222 -2 -232
0 -233 39 0 6 -10 12 -23 12 -16 0 -28 -11 -42 -36z M143 453 c-40 -8 -73 -59
-74 -114 -2 -268 -1 -294 14 -297 18 -4 72 22 84 40 4 7 11 85 14 173 3 88 9
170 14 183 8 23 1 25 -52 15z"/>
</g>
</svg>
