<?xml version="1.0" standalone="no"?>
<!DOCTYPE svg PUBLIC "-//W3C//DTD SVG 20010904//EN"
 "http://www.w3.org/TR/2001/REC-SVG-20010904/DTD/svg10.dtd">
<svg version="1.0" xmlns="http://www.w3.org/2000/svg"
 width="89.000000pt" height="50.000000pt" viewBox="0 0 89.000000 50.000000"
 preserveAspectRatio="xMidYMid meet">
<metadata>
Created by potrace 1.16, written by Peter Selinger 2001-2019
</metadata>
<g transform="translate(0.000000,50.000000) scale(0.100000,-0.100000)"
fill="#000000" stroke="none">
<path d="M147 453 c-4 -3 -28 -14 -54 -23 -51 -17 -65 -36 -36 -47 30 -11 33
-23 33 -150 0 -110 -2 -125 -20 -143 -28 -28 -25 -37 13 -42 50 -5 137 3 137
13 0 6 -9 19 -20 31 -18 19 -20 36 -20 134 0 104 2 115 22 134 27 25 60 26 81
2 14 -15 17 -41 17 -134 0 -102 -2 -117 -20 -133 -32 -29 -25 -43 28 -47 96
-8 162 14 110 37 -22 10 -23 17 -28 150 -6 141 -11 165 -49 199 -29 26 -95 25
-125 -3 -28 -26 -34 -26 -38 1 -3 22 -19 33 -31 21z M596 453 c-10 -3 -40 -27
-66 -54 -40 -41 -48 -57 -54 -99 -18 -137 50 -239 169 -255 60 -7 102 8 137
50 47 57 62 96 61 168 0 59 -4 74 -29 109 -16 23 -44 50 -62 60 -34 18 -123
31 -156 21z m105 -64 c32 -22 59 -97 59 -161 0 -46 -33 -123 -56 -132 -40 -15
-63 -6 -98 39 -28 37 -36 58 -41 109 -9 81 0 121 32 146 33 26 67 25 104 -1z"/>
</g>
</svg>
