<?xml version="1.0" standalone="no"?>
<!DOCTYPE svg PUBLIC "-//W3C//DTD SVG 20010904//EN"
 "http://www.w3.org/TR/2001/REC-SVG-20010904/DTD/svg10.dtd">
<svg version="1.0" xmlns="http://www.w3.org/2000/svg"
 width="129.000000pt" height="122.000000pt" viewBox="0 0 129.000000 122.000000"
 preserveAspectRatio="xMidYMid meet">
<metadata>
Created by potrace 1.16, written by Peter Selinger 2001-2019
</metadata>
<g transform="translate(0.000000,122.000000) scale(0.100000,-0.100000)"
fill="#000000" stroke="none">
<path d="M686 1167 c-38 -28 -28 -143 14 -154 24 -6 24 -2 5 -100 -15 -80 -18
-189 -6 -233 4 -14 21 -34 39 -46 30 -20 41 -22 181 -18 179 5 192 -1 194 -81
2 -61 -15 -86 -97 -147 -32 -24 -85 -68 -116 -99 -63 -60 -78 -99 -66 -161 10
-49 30 -69 74 -75 35 -5 44 -1 68 22 25 25 26 30 20 90 l-6 64 98 81 c71 58
107 95 128 133 28 50 29 57 27 179 -2 206 -12 214 -261 205 -92 -4 -173 -3
-181 2 -16 10 -8 55 20 117 10 22 21 63 25 92 6 48 5 53 -24 82 -17 17 -41 30
-55 30 -14 0 -30 7 -37 15 -15 18 -21 19 -44 2z m116 -73 c14 -9 9 -72 -12
-124 -11 -28 -23 -74 -26 -103 -10 -87 -5 -89 199 -83 181 4 217 -2 236 -38
19 -34 8 -262 -13 -285 -9 -10 -16 -22 -16 -28 0 -11 -94 -92 -139 -120 -14
-9 -41 -33 -59 -53 -32 -37 -32 -39 -21 -89 8 -40 8 -55 -1 -66 -17 -21 -44
-19 -65 5 -43 48 9 146 115 215 25 16 69 52 99 81 53 51 54 52 55 110 0 70
-23 120 -62 135 -15 6 -92 9 -178 8 -82 -1 -155 1 -161 4 -6 4 -13 21 -16 39
-3 18 -9 46 -13 61 -4 18 3 69 22 143 25 103 27 117 13 124 -42 24 -62 47 -56
65 6 14 14 16 49 11 22 -4 45 -9 50 -12z M71 849 c-25 -27 -37 -98 -25 -158 7
-35 16 -50 43 -68 19 -13 49 -23 67 -23 19 0 34 -4 34 -9 0 -5 -16 -37 -36
-70 -50 -84 -75 -191 -79 -336 -2 -73 1 -125 7 -132 14 -17 77 -17 83 0 2 6
11 81 20 166 9 85 19 160 24 165 4 6 15 32 25 57 17 48 85 124 119 135 31 10
121 -5 155 -26 47 -29 63 -78 60 -183 -1 -49 -7 -92 -13 -96 -5 -5 -70 -11
-144 -14 -94 -3 -137 -9 -145 -18 -16 -18 -50 -165 -42 -184 8 -21 377 -22
398 -1 18 17 42 252 42 396 0 193 -57 297 -201 369 -49 25 -73 27 -73 6 0 -43
-49 -145 -69 -145 -4 0 -12 19 -18 43 -19 70 -41 89 -106 95 -48 4 -56 8 -59
26 -4 29 -41 32 -67 5z m59 -56 c14 -7 47 -15 73 -18 56 -7 67 -25 67 -110 0
-31 5 -55 11 -57 7 -2 -3 -24 -25 -53 -42 -54 -90 -144 -82 -152 3 -3 1 -14
-5 -24 -5 -10 -12 -45 -15 -76 -7 -78 -12 -103 -24 -103 -16 0 0 125 26 210
13 41 37 95 54 120 32 48 38 84 18 97 -7 4 -38 13 -68 18 -50 9 -57 13 -73 47
-15 33 -15 43 -5 78 7 22 15 39 18 37 3 -1 16 -8 30 -14z m382 -61 c69 -42
118 -162 118 -288 0 -97 -16 -102 -24 -8 -11 139 -43 171 -183 181 -40 3 -73
8 -73 10 0 2 11 19 25 37 14 18 25 35 25 38 0 3 7 22 15 43 15 35 17 36 38 23
12 -8 39 -24 59 -36z m108 -434 c-1 -47 -24 -195 -32 -203 -3 -3 -75 -7 -160
-7 l-153 -1 2 43 c4 79 12 84 158 87 148 3 165 11 165 75 0 21 5 38 10 38 6 0
10 -15 10 -32z"/>
</g>
</svg>
