<?xml version="1.0" standalone="no"?>
<!DOCTYPE svg PUBLIC "-//W3C//DTD SVG 20010904//EN"
 "http://www.w3.org/TR/2001/REC-SVG-20010904/DTD/svg10.dtd">
<svg version="1.0" xmlns="http://www.w3.org/2000/svg"
 width="85.000000pt" height="80.000000pt" viewBox="0 0 85.000000 80.000000"
 preserveAspectRatio="xMidYMid meet">
<metadata>
Created by potrace 1.16, written by Peter Selinger 2001-2019
</metadata>
<g transform="translate(0.000000,80.000000) scale(0.100000,-0.100000)"
fill="#000000" stroke="none">
<path d="M70 751 l-24 -7 2 -339 c2 -216 7 -344 14 -352 7 -9 28 -11 72 -7 73
7 76 9 76 39 0 20 -6 24 -37 27 l-38 3 -5 250 c-6 324 -7 323 33 327 27 2 33
8 35 31 3 25 1 27 -37 27 -21 0 -45 2 -53 4 -7 2 -24 1 -38 -3z M645 750 c-3
-6 -3 -19 0 -30 5 -15 15 -20 41 -20 19 0 34 -1 34 -2 1 -2 3 -135 6 -295 l6
-293 -42 0 c-39 0 -41 -1 -38 -27 3 -28 4 -28 78 -28 l75 0 1 210 c1 116 -1
274 -4 353 l-5 142 -73 0 c-40 0 -76 -5 -79 -10z M250 591 c-10 -38 -5 -96 11
-116 4 -6 1 -19 -7 -29 -10 -15 -14 -54 -14 -156 0 -188 -9 -179 175 -176 201
4 189 -11 182 226 -5 194 -12 230 -51 248 -12 5 -70 8 -129 7 -97 -3 -108 -2
-117 16 -17 31 -38 22 -50 -20z m259 -157 c17 -21 21 -41 21 -95 0 -89 -13
-99 -126 -99 -96 0 -94 -2 -94 105 0 68 2 75 26 94 21 16 41 21 90 21 56 0 65
-3 83 -26z"/>
</g>
</svg>
