<?xml version="1.0" standalone="no"?>
<!DOCTYPE svg PUBLIC "-//W3C//DTD SVG 20010904//EN"
 "http://www.w3.org/TR/2001/REC-SVG-20010904/DTD/svg10.dtd">
<svg version="1.0" xmlns="http://www.w3.org/2000/svg"
 width="36.000000pt" height="49.000000pt" viewBox="0 0 36.000000 49.000000"
 preserveAspectRatio="xMidYMid meet">
<metadata>
Created by potrace 1.16, written by Peter Selinger 2001-2019
</metadata>
<g transform="translate(0.000000,49.000000) scale(0.100000,-0.100000)"
fill="#000000" stroke="none">
<path d="M115 431 c-47 -21 -60 -35 -69 -75 -11 -45 35 -136 68 -136 6 0 35
-16 64 -36 45 -30 53 -40 50 -62 -7 -60 -90 -49 -136 18 -35 52 -47 45 -47
-25 0 -58 1 -60 30 -66 94 -20 188 -2 217 43 42 66 27 113 -53 167 -33 22 -68
42 -78 46 -24 7 -45 48 -36 74 5 16 14 21 41 21 29 0 39 -6 66 -45 18 -25 35
-45 40 -45 4 0 8 27 8 60 0 50 -3 60 -17 61 -38 3 -69 7 -88 13 -11 3 -38 -3
-60 -13z"/>
</g>
</svg>
