<?xml version="1.0" standalone="no"?>
<!DOCTYPE svg PUBLIC "-//W3C//DTD SVG 20010904//EN"
 "http://www.w3.org/TR/2001/REC-SVG-20010904/DTD/svg10.dtd">
<svg version="1.0" xmlns="http://www.w3.org/2000/svg"
 width="259.000000pt" height="94.000000pt" viewBox="0 0 259.000000 94.000000"
 preserveAspectRatio="xMidYMid meet">
<metadata>
Created by potrace 1.16, written by Peter Selinger 2001-2019
</metadata>
<g transform="translate(0.000000,94.000000) scale(0.100000,-0.100000)"
fill="#000000" stroke="none">
<path d="M2013 873 c-14 -21 -18 -48 -18 -115 0 -77 3 -90 22 -110 22 -22 30
-22 198 -23 141 0 177 -3 189 -15 12 -12 15 -62 17 -268 2 -139 7 -256 12
-259 19 -12 78 9 94 33 14 22 16 59 14 302 -2 323 -7 352 -65 391 -39 25 -43
26 -210 26 -141 0 -170 3 -174 15 -7 23 -33 50 -48 50 -8 0 -22 -12 -31 -27z
m236 -83 c167 0 191 -4 229 -39 22 -22 22 -24 22 -322 0 -281 -1 -300 -17
-297 -17 3 -18 24 -21 248 l-3 245 -25 23 c-24 21 -33 22 -201 22 -150 0 -179
2 -195 17 -20 18 -23 59 -7 116 l10 38 24 -25 c24 -26 25 -26 184 -26z M1705
878 c-11 -6 -22 -12 -23 -14 -2 -1 -8 -21 -13 -44 -12 -52 6 -152 30 -174 10
-9 45 -20 79 -24 34 -5 64 -11 67 -14 16 -15 27 -211 21 -370 -5 -166 -5 -177
13 -183 30 -9 47 4 59 43 15 48 14 601 0 660 -13 51 -45 72 -111 72 -36 0 -47
5 -65 30 -25 33 -28 34 -57 18z m40 -68 c14 -15 31 -20 70 -20 75 0 88 -14 96
-101 12 -114 11 -557 -1 -564 -6 -4 -10 16 -10 52 -4 418 -5 441 -24 462 -15
16 -31 21 -73 21 -44 0 -58 5 -78 25 -25 24 -32 72 -19 123 8 27 16 28 39 2z
M443 873 c-25 -5 -39 -38 -48 -108 -5 -40 -1 -59 16 -95 12 -25 27 -48 33 -52
6 -4 77 -8 159 -8 193 0 194 -2 188 -160 -1 -30 -9 -79 -17 -108 -16 -57 -6
-52 -124 -59 -158 -9 -220 -16 -228 -26 -13 -17 -53 -188 -46 -198 6 -10 484
-12 532 -3 29 6 32 11 47 73 9 36 20 82 25 100 5 19 7 39 4 43 -3 4 -30 8 -60
8 -58 0 -66 9 -40 46 63 89 31 457 -41 486 -10 3 -89 7 -175 7 l-157 1 -16 30
c-9 17 -19 29 -23 29 -4 -1 -17 -4 -29 -6z m33 -74 c21 -19 35 -21 177 -23
182 -1 189 -5 208 -95 24 -116 7 -316 -32 -381 -11 -18 -22 -30 -24 -28 -2 2
5 35 17 73 36 121 11 283 -45 301 -12 4 -80 7 -150 6 -180 -2 -206 14 -192
119 4 27 10 49 13 49 3 0 16 -9 28 -21z m328 -558 c3 -4 31 -7 62 -6 l56 2 -7
-61 c-4 -34 -10 -64 -14 -68 -3 -3 -109 -9 -234 -12 -191 -5 -229 -3 -233 9
-3 7 0 39 6 69 11 54 13 56 43 56 84 1 281 11 286 15 7 8 29 6 35 -4z M1050
855 c-15 -16 -24 -41 -28 -74 -6 -67 3 -99 41 -133 26 -25 29 -32 19 -46 -47
-66 -47 -67 -50 -308 -2 -197 -1 -232 12 -237 20 -8 93 29 106 54 12 22 13
111 4 325 l-5 131 31 27 c31 25 35 26 176 26 83 0 144 -4 144 -9 0 -5 -5 -22
-10 -37 -15 -39 -12 -495 3 -510 4 -4 25 -1 48 6 27 9 45 23 56 44 20 38 23
178 6 261 -17 80 -16 157 2 230 30 127 9 208 -57 220 -18 3 -117 4 -220 2
-192 -4 -208 -1 -208 35 0 27 -42 23 -70 -7z m50 -55 c10 -19 21 -20 228 -20
212 1 217 0 235 -21 12 -15 17 -35 15 -58 l-3 -36 -205 -5 c-113 -3 -221 -3
-239 0 -49 7 -73 50 -65 113 7 51 17 59 34 27z m460 -216 c0 -4 -5 -24 -12
-45 -9 -32 -8 -52 7 -116 12 -48 19 -118 19 -181 1 -93 -1 -104 -19 -115 -11
-6 -22 -11 -24 -11 -3 -1 -6 42 -15 249 -4 102 -2 140 11 177 8 27 19 48 24
48 5 0 9 -3 9 -6z m-441 -354 c0 -93 -8 -120 -35 -120 -20 0 -15 385 6 420 14
23 15 18 22 -90 3 -63 6 -158 7 -210z M68 860 c-22 -13 -33 -114 -19 -168 15
-55 51 -82 110 -82 25 0 52 -4 59 -8 18 -12 24 -95 26 -342 l1 -215 26 -3 c16
-2 32 5 45 19 18 20 19 39 20 283 1 143 -1 299 -5 346 l-6 84 -40 23 c-23 13
-57 23 -81 23 -33 0 -45 5 -58 25 -17 26 -48 32 -78 15z m135 -90 c90 0 87 12
93 -349 4 -194 2 -311 -4 -311 -16 0 -22 89 -21 292 0 106 -2 201 -6 211 -10
25 -46 37 -105 37 -39 0 -52 4 -64 22 -18 25 -21 84 -6 122 l9 26 25 -25 c21
-20 35 -25 79 -25z"/>
</g>
</svg>
