<?xml version="1.0" standalone="no"?>
<!DOCTYPE svg PUBLIC "-//W3C//DTD SVG 20010904//EN"
 "http://www.w3.org/TR/2001/REC-SVG-20010904/DTD/svg10.dtd">
<svg version="1.0" xmlns="http://www.w3.org/2000/svg"
 width="35.000000pt" height="50.000000pt" viewBox="0 0 35.000000 50.000000"
 preserveAspectRatio="xMidYMid meet">
<metadata>
Created by potrace 1.16, written by Peter Selinger 2001-2019
</metadata>
<g transform="translate(0.000000,50.000000) scale(0.100000,-0.100000)"
fill="#000000" stroke="none">
<path d="M110 443 c-49 -25 -74 -78 -59 -124 16 -47 31 -62 106 -105 77 -46
91 -65 68 -100 -28 -43 -88 -26 -126 37 -37 59 -50 51 -47 -28 3 -77 -8 -70
121 -74 89 -3 137 41 137 127 0 48 -11 60 -107 119 -37 22 -71 48 -77 58 -17
26 5 51 47 55 33 3 38 -1 62 -37 14 -23 29 -41 34 -41 12 0 24 74 16 100 -4
12 -15 20 -29 20 -13 0 -43 2 -67 5 -30 4 -55 0 -79 -12z"/>
</g>
</svg>
