<?xml version="1.0" standalone="no"?>
<!DOCTYPE svg PUBLIC "-//W3C//DTD SVG 20010904//EN"
 "http://www.w3.org/TR/2001/REC-SVG-20010904/DTD/svg10.dtd">
<svg version="1.0" xmlns="http://www.w3.org/2000/svg"
 width="45.000000pt" height="65.000000pt" viewBox="0 0 45.000000 65.000000"
 preserveAspectRatio="xMidYMid meet">
<metadata>
Created by potrace 1.16, written by Peter Selinger 2001-2019
</metadata>
<g transform="translate(0.000000,65.000000) scale(0.100000,-0.100000)"
fill="#000000" stroke="none">
<path d="M83 598 c-15 -19 -44 -110 -37 -117 3 -3 11 -1 18 4 54 40 65 44 149
49 66 4 89 2 93 -8 6 -15 -15 -90 -85 -310 -28 -88 -48 -163 -45 -168 3 -4 16
-8 29 -8 29 0 48 27 65 95 7 28 37 129 67 225 67 212 73 233 73 242 0 14 -316
9 -327 -4z"/>
</g>
</svg>
