<?xml version="1.0" standalone="no"?>
<!DOCTYPE svg PUBLIC "-//W3C//DTD SVG 20010904//EN"
 "http://www.w3.org/TR/2001/REC-SVG-20010904/DTD/svg10.dtd">
<svg version="1.0" xmlns="http://www.w3.org/2000/svg"
 width="275.000000pt" height="87.000000pt" viewBox="0 0 275.000000 87.000000"
 preserveAspectRatio="xMidYMid meet">
<metadata>
Created by potrace 1.16, written by Peter Selinger 2001-2019
</metadata>
<g transform="translate(0.000000,87.000000) scale(0.100000,-0.100000)"
fill="#000000" stroke="none">
<path d="M2280 818 c-58 -24 -70 -32 -70 -45 0 -7 11 -13 24 -13 29 0 36 -16
36 -78 l0 -47 -69 0 c-82 0 -110 -16 -155 -88 -55 -88 -32 -232 45 -290 37
-26 109 -33 148 -14 28 14 32 14 39 0 8 -13 17 -12 66 11 31 14 61 26 66 26
21 0 9 30 -14 36 -13 3 -27 15 -30 27 -3 12 -6 127 -6 255 l0 232 -27 -1 c-16
0 -39 -5 -53 -11z m-37 -243 c26 -25 27 -29 27 -133 0 -133 -7 -148 -71 -139
-54 7 -74 30 -89 101 -15 74 -1 133 42 169 40 34 56 34 91 2z M311 800 c-24
-11 -50 -20 -58 -20 -23 0 -10 -35 15 -38 12 -2 22 -9 23 -15 0 -7 2 -32 4
-57 2 -24 2 -47 -1 -51 -2 -4 -21 -3 -41 3 -60 16 -118 -6 -163 -63 -33 -41
-39 -58 -45 -116 -10 -107 20 -175 97 -214 43 -22 112 -19 136 5 14 14 17 14
27 -1 11 -15 16 -14 61 6 71 33 77 36 82 49 2 7 -7 12 -21 12 -14 0 -27 6 -30
14 -3 8 -6 110 -7 228 -2 229 -6 278 -24 278 -6 0 -31 -9 -55 -20z m-35 -241
c15 -17 19 -40 22 -130 5 -118 0 -133 -44 -142 -69 -13 -112 39 -121 143 -6
69 7 105 47 137 24 20 75 15 96 -8z M2524 637 c-69 -26 -92 -68 -73 -134 15
-54 31 -69 127 -119 47 -24 61 -57 36 -85 -36 -40 -106 -9 -134 59 -18 43 -35
19 -35 -49 l0 -64 80 -7 c73 -7 82 -6 122 18 32 18 45 34 54 63 11 37 8 74 -8
96 -7 10 -82 61 -145 99 -35 21 -39 69 -8 86 28 15 83 -19 100 -60 21 -50 40
-32 40 38 0 42 -9 59 -30 59 -8 0 -33 3 -55 6 -22 3 -54 0 -71 -6z M1365 627
c-62 -18 -79 -32 -109 -87 -25 -46 -28 -59 -24 -128 5 -110 47 -166 140 -186
66 -15 150 39 183 118 25 60 4 69 -42 17 -30 -33 -47 -44 -79 -48 -36 -5 -44
-1 -76 29 -34 32 -60 99 -45 115 4 3 48 7 99 8 154 4 141 -1 133 47 -10 59
-32 87 -83 109 -49 21 -43 21 -97 6z m57 -64 c10 -9 18 -24 18 -35 0 -16 -8
-18 -65 -18 -36 0 -65 2 -65 3 0 2 7 18 16 35 12 26 22 32 46 32 17 0 40 -7
50 -17z M1655 622 c-54 -18 -71 -46 -36 -57 20 -6 21 -14 21 -145 0 -130 -1
-140 -21 -150 -33 -18 -16 -33 42 -36 66 -3 119 5 119 18 0 5 -9 17 -20 26
-16 14 -20 34 -25 117 -7 117 1 147 45 165 28 12 34 11 51 -6 15 -16 20 -40
25 -131 6 -111 6 -112 -20 -138 -40 -40 -32 -53 32 -49 17 1 52 2 77 3 49 1
57 13 25 39 -18 15 -21 29 -21 107 0 181 -32 250 -114 250 -31 0 -50 -6 -67
-23 -26 -23 -38 -21 -38 10 0 22 -10 22 -75 0z M580 621 c-47 -15 -71 -36 -92
-81 -28 -59 -31 -183 -5 -223 9 -14 17 -33 17 -40 0 -24 45 -46 104 -53 44 -5
61 -3 83 11 48 32 102 104 103 138 0 28 -20 20 -59 -22 -45 -49 -78 -58 -126
-36 -39 19 -59 49 -69 108 l-7 37 121 0 120 0 0 39 c0 86 -99 149 -190 122z
m69 -67 c36 -45 29 -54 -44 -52 -55 2 -65 5 -65 20 0 26 36 58 64 58 15 0 33
-11 45 -26z M853 610 c-46 -20 -57 -48 -23 -57 27 -7 32 -53 28 -273 -3 -181
-3 -185 -25 -195 -39 -17 -26 -33 27 -37 84 -5 150 2 150 18 0 8 -9 14 -20 14
-26 0 -40 36 -40 100 l0 49 48 -6 c130 -15 229 116 198 264 -16 75 -28 97 -70
122 -40 25 -99 27 -141 5 -27 -14 -31 -14 -41 0 -14 20 -39 19 -91 -4z m217
-75 c35 -37 47 -83 40 -148 -8 -76 -34 -111 -87 -115 -61 -5 -71 13 -74 138
-3 111 0 126 35 140 37 15 62 11 86 -15z"/>
</g>
</svg>
