<?xml version="1.0" standalone="no"?>
<!DOCTYPE svg PUBLIC "-//W3C//DTD SVG 20010904//EN"
 "http://www.w3.org/TR/2001/REC-SVG-20010904/DTD/svg10.dtd">
<svg version="1.0" xmlns="http://www.w3.org/2000/svg"
 width="64.000000pt" height="92.000000pt" viewBox="0 0 64.000000 92.000000"
 preserveAspectRatio="xMidYMid meet">
<metadata>
Created by potrace 1.16, written by Peter Selinger 2001-2019
</metadata>
<g transform="translate(0.000000,92.000000) scale(0.100000,-0.100000)"
fill="#000000" stroke="none">
<path d="M44 905 c-3 -8 -4 -64 -2 -126 3 -109 3 -111 33 -135 29 -23 35 -23
192 -22 175 2 181 0 209 -55 30 -57 -5 -129 -93 -191 -151 -105 -193 -156
-193 -231 0 -32 6 -51 23 -68 69 -76 156 -3 117 98 -14 38 0 57 84 114 89 60
149 129 171 199 14 43 16 72 10 166 -7 109 -8 115 -37 143 l-29 28 -199 0
c-109 0 -201 3 -205 7 -4 4 -7 25 -7 48 1 39 0 40 -34 40 -21 0 -37 -6 -40
-15z m425 -181 c38 -27 10 -36 -50 -15 -46 16 -50 19 -29 23 45 9 55 8 79 -8z"/>
</g>
</svg>
