<?xml version="1.0" standalone="no"?>
<!DOCTYPE svg PUBLIC "-//W3C//DTD SVG 20010904//EN"
 "http://www.w3.org/TR/2001/REC-SVG-20010904/DTD/svg10.dtd">
<svg version="1.0" xmlns="http://www.w3.org/2000/svg"
 width="38.000000pt" height="95.000000pt" viewBox="0 0 38.000000 95.000000"
 preserveAspectRatio="xMidYMid meet">
<metadata>
Created by potrace 1.16, written by Peter Selinger 2001-2019
</metadata>
<g transform="translate(0.000000,95.000000) scale(0.100000,-0.100000)"
fill="#000000" stroke="none">
<path d="M71 896 c-20 -24 -29 -112 -16 -161 15 -61 34 -77 101 -86 31 -4 64
-14 72 -23 12 -12 15 -64 19 -293 3 -153 9 -282 14 -287 14 -15 57 13 65 43 3
14 6 177 5 361 -2 370 -2 369 -66 396 -19 8 -54 14 -78 14 -37 0 -46 4 -55 25
-13 28 -43 33 -61 11z m139 -146 c0 -5 -6 -10 -14 -10 -8 0 -18 5 -21 10 -3 6
3 10 14 10 12 0 21 -4 21 -10z"/>
</g>
</svg>
