<?xml version="1.0" standalone="no"?>
<!DOCTYPE svg PUBLIC "-//W3C//DTD SVG 20010904//EN"
 "http://www.w3.org/TR/2001/REC-SVG-20010904/DTD/svg10.dtd">
<svg version="1.0" xmlns="http://www.w3.org/2000/svg"
 width="105.000000pt" height="105.000000pt" viewBox="0 0 105.000000 105.000000"
 preserveAspectRatio="xMidYMid meet">
<metadata>
Created by potrace 1.16, written by Peter Selinger 2001-2019
</metadata>
<g transform="translate(0.000000,105.000000) scale(0.100000,-0.100000)"
fill="#000000" stroke="none">
<path d="M140 1011 c-59 -15 -94 -60 -82 -106 15 -54 72 -37 72 22 0 32 40 56
72 44 28 -10 38 -29 38 -69 0 -24 -9 -31 -75 -61 -94 -42 -125 -76 -125 -136
0 -85 78 -120 160 -74 l38 22 28 -22 c35 -28 69 -27 99 4 32 31 32 45 0 45
-14 0 -27 6 -30 13 -2 6 -6 66 -9 131 -4 97 -8 124 -24 145 -34 47 -89 61
-162 42z m101 -251 c2 -61 -14 -80 -67 -80 -26 0 -34 6 -44 29 -10 25 -9 34 6
60 18 31 83 65 97 52 4 -4 8 -31 8 -61z M414 865 c-41 -63 -36 -157 11 -204
l25 -26 223 -3 c122 -1 228 -5 236 -7 9 -4 10 -9 3 -18 -6 -7 -19 -35 -28 -62
-19 -54 -22 -117 -14 -352 l5 -143 30 0 c17 1 41 10 55 21 23 19 25 29 28 116
3 61 -2 129 -13 190 -18 98 -17 119 11 213 21 75 26 127 14 171 -17 63 -19 63
-274 69 l-231 5 -13 28 c-16 34 -46 35 -68 2z M443 418 l-32 -33 -2 -170 c-2
-188 -1 -192 60 -161 50 26 55 47 56 208 0 104 4 151 13 159 20 21 14 29 -26
29 -30 0 -45 -7 -69 -32z"/>
</g>
</svg>
