<?xml version="1.0" standalone="no"?>
<!DOCTYPE svg PUBLIC "-//W3C//DTD SVG 20010904//EN"
 "http://www.w3.org/TR/2001/REC-SVG-20010904/DTD/svg10.dtd">
<svg version="1.0" xmlns="http://www.w3.org/2000/svg"
 width="36.000000pt" height="49.000000pt" viewBox="0 0 36.000000 49.000000"
 preserveAspectRatio="xMidYMid meet">
<metadata>
Created by potrace 1.16, written by Peter Selinger 2001-2019
</metadata>
<g transform="translate(0.000000,49.000000) scale(0.100000,-0.100000)"
fill="#000000" stroke="none">
<path d="M125 438 c-74 -25 -101 -88 -67 -155 16 -30 36 -48 91 -78 79 -43
100 -76 66 -102 -42 -30 -112 2 -131 59 -3 11 -13 18 -22 16 -13 -2 -18 -16
-20 -53 -1 -28 1 -56 6 -62 5 -8 39 -14 92 -15 74 -3 89 0 116 19 46 33 69 87
54 123 -10 25 -68 80 -84 80 -9 0 -93 59 -106 75 -18 22 13 55 52 55 22 0 35
-9 56 -40 15 -21 32 -38 37 -36 16 4 19 105 3 110 -34 11 -116 13 -143 4z"/>
</g>
</svg>
