<?xml version="1.0" standalone="no"?>
<!DOCTYPE svg PUBLIC "-//W3C//DTD SVG 20010904//EN"
 "http://www.w3.org/TR/2001/REC-SVG-20010904/DTD/svg10.dtd">
<svg version="1.0" xmlns="http://www.w3.org/2000/svg"
 width="108.000000pt" height="69.000000pt" viewBox="0 0 108.000000 69.000000"
 preserveAspectRatio="xMidYMid meet">
<metadata>
Created by potrace 1.16, written by Peter Selinger 2001-2019
</metadata>
<g transform="translate(0.000000,69.000000) scale(0.100000,-0.100000)"
fill="#000000" stroke="none">
<path d="M330 632 c-50 -19 -66 -50 -31 -59 21 -5 21 -11 21 -234 0 -218 -1
-229 -20 -241 -32 -20 -24 -38 18 -39 20 0 61 -2 91 -2 39 -2 55 2 59 12 3 8
0 17 -7 19 -8 3 -22 13 -32 23 -16 16 -19 35 -19 127 0 100 2 110 23 130 35
32 71 38 96 13 19 -19 21 -33 21 -146 0 -125 0 -126 -25 -135 -14 -5 -25 -16
-25 -25 0 -12 17 -15 95 -15 74 0 95 3 95 14 0 7 -10 20 -21 28 -19 12 -22 25
-26 128 -5 159 -8 173 -45 204 -39 32 -88 34 -141 6 -20 -11 -39 -20 -42 -20
-2 0 -6 51 -7 112 -3 128 -4 128 -78 100z M121 504 c-19 -26 -45 -53 -58 -61
-30 -20 -29 -31 2 -43 25 -9 25 -11 25 -132 0 -158 10 -195 57 -214 30 -13 41
-13 67 -3 34 15 65 46 66 68 0 13 -13 12 -50 -3 -8 -3 -22 -2 -30 4 -12 7 -15
35 -15 147 l0 137 30 1 c23 0 31 5 33 23 3 19 -1 22 -32 22 -35 0 -35 1 -38
47 -2 25 -7 48 -13 49 -5 2 -26 -17 -44 -42z M855 462 c-50 -11 -104 -54 -127
-100 -33 -68 -30 -162 7 -226 31 -52 59 -71 126 -81 41 -6 49 -4 90 27 41 32
88 98 89 126 0 22 -36 12 -50 -14 -16 -30 -58 -54 -94 -54 -50 0 -112 78 -104
131 3 21 6 22 110 21 59 -1 110 3 112 7 3 4 3 25 -1 45 -11 71 -94 133 -158
118z m30 -58 c21 -8 48 -61 35 -69 -11 -7 -119 1 -127 9 -3 3 5 19 17 35 21
30 42 37 75 25z"/>
</g>
</svg>
