<?xml version="1.0" standalone="no"?>
<!DOCTYPE svg PUBLIC "-//W3C//DTD SVG 20010904//EN"
 "http://www.w3.org/TR/2001/REC-SVG-20010904/DTD/svg10.dtd">
<svg version="1.0" xmlns="http://www.w3.org/2000/svg"
 width="66.000000pt" height="93.000000pt" viewBox="0 0 66.000000 93.000000"
 preserveAspectRatio="xMidYMid meet">
<metadata>
Created by potrace 1.16, written by Peter Selinger 2001-2019
</metadata>
<g transform="translate(0.000000,93.000000) scale(0.100000,-0.100000)"
fill="#000000" stroke="none">
<path d="M86 866 c-23 -36 -36 -104 -29 -154 4 -31 13 -48 33 -62 25 -18 45
-20 198 -20 l170 0 30 -34 c44 -50 56 -117 37 -208 -13 -60 -21 -79 -50 -106
l-35 -32 -164 0 c-119 0 -166 -3 -174 -12 -15 -19 -63 -178 -57 -189 7 -10
355 -13 404 -3 155 31 222 460 111 711 -32 72 -48 77 -242 75 l-169 -2 -10 30
c-13 36 -31 38 -53 6z m314 -716 c0 -6 -40 -9 -102 -8 -102 2 -102 2 -33 8
114 11 135 11 135 0z"/>
</g>
</svg>
