<?xml version="1.0" standalone="no"?>
<!DOCTYPE svg PUBLIC "-//W3C//DTD SVG 20010904//EN"
 "http://www.w3.org/TR/2001/REC-SVG-20010904/DTD/svg10.dtd">
<svg version="1.0" xmlns="http://www.w3.org/2000/svg"
 width="70.000000pt" height="94.000000pt" viewBox="0 0 70.000000 94.000000"
 preserveAspectRatio="xMidYMid meet">
<metadata>
Created by potrace 1.16, written by Peter Selinger 2001-2019
</metadata>
<g transform="translate(0.000000,94.000000) scale(0.100000,-0.100000)"
fill="#000000" stroke="none">
<path d="M81 881 c-45 -45 -52 -163 -13 -211 27 -33 79 -39 292 -33 125 3 200
1 204 -5 3 -6 0 -23 -8 -39 -41 -81 -41 -84 -37 -237 7 -221 6 -259 -2 -277
-18 -36 50 -32 98 7 29 23 30 27 33 118 3 62 -2 124 -13 181 -19 92 -16 152
10 226 8 23 15 73 15 111 0 61 -3 72 -26 95 l-26 26 -226 -4 -227 -4 -15 32
c-17 38 -32 41 -59 14z M124 451 c-61 -37 -64 -49 -64 -233 0 -95 4 -169 10
-173 16 -10 84 29 97 55 8 17 13 72 13 165 0 114 3 145 16 164 14 19 14 25 3
32 -21 13 -41 11 -75 -10z"/>
</g>
</svg>
