<?xml version="1.0" standalone="no"?>
<!DOCTYPE svg PUBLIC "-//W3C//DTD SVG 20010904//EN"
 "http://www.w3.org/TR/2001/REC-SVG-20010904/DTD/svg10.dtd">
<svg version="1.0" xmlns="http://www.w3.org/2000/svg"
 width="160.000000pt" height="80.000000pt" viewBox="0 0 160.000000 80.000000"
 preserveAspectRatio="xMidYMid meet">
<metadata>
Created by potrace 1.16, written by Peter Selinger 2001-2019
</metadata>
<g transform="translate(0.000000,80.000000) scale(0.100000,-0.100000)"
fill="#000000" stroke="none">
<path d="M1275 790 c-8 -13 21 -66 40 -74 22 -8 77 -7 91 2 15 10 34 47 34 66
0 11 -9 16 -30 16 -16 0 -29 -3 -29 -7 4 -22 -3 -33 -20 -33 -21 0 -45 23 -34
33 3 4 -5 7 -20 7 -14 0 -29 -4 -32 -10z M734 745 c-13 -32 24 -63 41 -35 4 6
13 4 22 -6 14 -14 17 -55 21 -300 3 -231 1 -284 -10 -285 -7 -1 -24 -2 -38 -2
-21 -2 -25 -7 -25 -32 l0 -30 75 0 75 0 0 325 c0 179 -1 337 -4 353 -3 27 -4
27 -77 27 -57 0 -76 -4 -80 -15z M41 428 c1 -178 4 -336 8 -353 l6 -30 70 2
c39 1 74 2 78 2 5 1 7 13 5 28 -3 24 -8 28 -38 31 -19 2 -38 9 -42 15 -3 6 -6
136 -6 289 0 204 3 278 11 279 7 1 23 2 37 2 20 2 25 7 25 27 0 24 -2 25 -77
28 l-78 3 1 -323z M1410 620 c-18 -34 -8 -111 15 -124 11 -6 22 -12 24 -13 2
-2 -8 -15 -23 -29 l-26 -27 -23 21 c-12 12 -49 57 -82 101 -33 44 -67 80 -76
81 -24 0 -40 -24 -46 -69 -5 -36 -2 -45 31 -81 43 -47 45 -65 11 -100 -37 -39
-42 -87 -15 -140 l22 -44 -22 -18 c-37 -30 -19 -48 50 -48 55 0 61 2 70 25 10
27 9 32 -28 123 -20 49 -23 65 -13 75 10 9 19 4 44 -24 18 -19 56 -61 85 -93
28 -32 52 -65 52 -72 0 -8 12 -17 27 -20 21 -6 31 -2 50 20 29 35 24 55 -30
116 -21 25 -43 55 -48 68 -17 44 16 118 54 124 16 2 25 13 31 40 13 54 -3 84
-53 98 -22 6 -43 15 -46 20 -10 16 -23 12 -35 -10z M951 599 c-28 -82 -1 -129
74 -129 43 0 45 -1 45 -29 0 -17 -11 -42 -25 -59 -15 -18 -23 -37 -19 -46 25
-65 131 90 118 172 -9 60 -33 83 -90 89 -27 3 -53 12 -57 19 -14 24 -35 15
-46 -17z M226 598 c-12 -48 -6 -101 14 -123 17 -18 19 -26 10 -52 -11 -29 -5
-76 28 -239 13 -64 14 -64 120 -64 79 0 103 4 130 20 17 11 32 27 32 35 0 9
32 79 71 156 84 164 91 206 46 245 -16 13 -37 24 -47 24 -10 0 -22 5 -25 10
-12 19 -31 10 -42 -21 -12 -30 -13 -31 -35 -17 -13 8 -36 18 -53 22 -16 4 -33
13 -38 19 -7 12 -38 -16 -51 -46 -3 -8 -8 -7 -16 6 -7 10 -23 17 -44 17 -18 0
-41 7 -52 15 -27 20 -41 18 -48 -7z m377 -131 c22 -8 22 -20 -3 -42 -11 -10
-20 -23 -20 -30 0 -18 -78 -133 -98 -143 -21 -12 -67 -9 -66 4 1 23 19 73 39
109 13 22 26 53 29 68 5 22 11 27 26 22 15 -5 22 0 30 21 10 24 12 25 28 12 9
-8 25 -18 35 -21z m-194 -1 c15 -27 11 -44 -31 -135 -16 -35 -33 -60 -37 -55
-5 5 -13 30 -20 56 -21 87 -11 128 31 128 10 0 21 7 24 15 9 21 19 19 33 -9z"/>
</g>
</svg>
