<?xml version="1.0" standalone="no"?>
<!DOCTYPE svg PUBLIC "-//W3C//DTD SVG 20010904//EN"
 "http://www.w3.org/TR/2001/REC-SVG-20010904/DTD/svg10.dtd">
<svg version="1.0" xmlns="http://www.w3.org/2000/svg"
 width="68.000000pt" height="125.000000pt" viewBox="0 0 68.000000 125.000000"
 preserveAspectRatio="xMidYMid meet">
<metadata>
Created by potrace 1.16, written by Peter Selinger 2001-2019
</metadata>
<g transform="translate(0.000000,125.000000) scale(0.100000,-0.100000)"
fill="#000000" stroke="none">
<path d="M60 1195 c-7 -8 -15 -35 -17 -58 -5 -45 0 -54 61 -92 14 -9 13 -16
-5 -70 -16 -46 -21 -84 -21 -166 0 -111 8 -141 43 -159 11 -7 85 -11 177 -11
176 -1 193 -6 218 -66 12 -28 13 -41 3 -71 -19 -58 -35 -77 -113 -131 -100
-69 -171 -148 -180 -199 -9 -57 10 -101 50 -118 45 -19 56 -18 83 7 21 20 22
27 16 88 -7 74 -5 78 65 132 25 18 51 38 58 44 34 25 87 83 110 120 26 38 27
46 27 188 l0 147 -35 28 c-34 27 -35 27 -235 32 l-200 5 2 53 c1 29 11 70 21
90 35 69 42 101 29 140 -9 27 -20 39 -42 45 -16 5 -43 15 -58 23 -36 18 -42
18 -57 -1z m444 -455 c14 -5 26 -17 26 -25 0 -17 -13 -15 -74 10 -30 13 -30
13 -6 18 14 2 26 5 27 6 1 0 13 -3 27 -9z"/>
</g>
</svg>
