<?xml version="1.0" standalone="no"?>
<!DOCTYPE svg PUBLIC "-//W3C//DTD SVG 20010904//EN"
 "http://www.w3.org/TR/2001/REC-SVG-20010904/DTD/svg10.dtd">
<svg version="1.0" xmlns="http://www.w3.org/2000/svg"
 width="65.000000pt" height="102.000000pt" viewBox="0 0 65.000000 102.000000"
 preserveAspectRatio="xMidYMid meet">
<metadata>
Created by potrace 1.16, written by Peter Selinger 2001-2019
</metadata>
<g transform="translate(0.000000,102.000000) scale(0.100000,-0.100000)"
fill="#000000" stroke="none">
<path d="M77 1013 c-20 -33 -37 -130 -37 -209 0 -166 14 -176 240 -173 176 3
183 1 201 -60 19 -62 -1 -111 -66 -162 -31 -24 -74 -59 -96 -76 -23 -18 -44
-33 -48 -33 -17 0 -69 -88 -76 -127 -14 -84 54 -156 112 -118 28 19 47 61 39
90 -19 73 -19 73 10 101 16 14 52 41 79 59 65 44 118 99 146 153 17 34 23 64
24 130 4 127 -9 190 -44 225 l-29 29 -195 -1 c-188 -2 -196 -1 -207 19 -11 20
1 90 19 115 5 6 11 18 14 28 5 14 0 17 -38 17 -24 0 -46 -3 -48 -7z m408 -283
c27 -23 5 -29 -47 -13 -33 9 -83 14 -137 13 -111 -3 -131 -2 -131 9 0 13 298
5 315 -9z"/>
</g>
</svg>
