<?xml version="1.0" standalone="no"?>
<!DOCTYPE svg PUBLIC "-//W3C//DTD SVG 20010904//EN"
 "http://www.w3.org/TR/2001/REC-SVG-20010904/DTD/svg10.dtd">
<svg version="1.0" xmlns="http://www.w3.org/2000/svg"
 width="33.000000pt" height="27.000000pt" viewBox="0 0 33.000000 27.000000"
 preserveAspectRatio="xMidYMid meet">
<metadata>
Created by potrace 1.16, written by Peter Selinger 2001-2019
</metadata>
<g transform="translate(0.000000,27.000000) scale(0.100000,-0.100000)"
fill="#000000" stroke="none">
<path d="M62 249 c-8 -12 -16 -45 -19 -73 -5 -46 -2 -55 21 -84 52 -61 144
-59 194 6 31 41 33 102 5 140 -19 25 -26 27 -104 30 -77 2 -85 1 -97 -19z
m142 -31 c47 -66 -17 -138 -82 -92 -27 18 -30 69 -5 96 23 25 68 23 87 -4z"/>
</g>
</svg>
