<?xml version="1.0" standalone="no"?>
<!DOCTYPE svg PUBLIC "-//W3C//DTD SVG 20010904//EN"
 "http://www.w3.org/TR/2001/REC-SVG-20010904/DTD/svg10.dtd">
<svg version="1.0" xmlns="http://www.w3.org/2000/svg"
 width="136.000000pt" height="123.000000pt" viewBox="0 0 136.000000 123.000000"
 preserveAspectRatio="xMidYMid meet">
<metadata>
Created by potrace 1.16, written by Peter Selinger 2001-2019
</metadata>
<g transform="translate(0.000000,123.000000) scale(0.100000,-0.100000)"
fill="#000000" stroke="none">
<path d="M726 1198 c-24 -34 -20 -95 7 -121 13 -12 31 -26 40 -32 15 -9 15
-13 -1 -55 -13 -34 -17 -78 -17 -178 l0 -134 30 -24 c29 -23 36 -24 196 -24
160 0 166 -1 187 -23 58 -61 29 -148 -71 -217 -95 -66 -166 -129 -183 -163
-20 -37 -21 -121 -3 -143 7 -8 28 -22 47 -30 31 -13 36 -12 63 7 36 25 45 59
30 109 -15 49 -9 61 47 104 26 19 58 43 71 53 125 95 143 129 148 293 4 112 2
128 -16 157 -39 62 -50 64 -268 66 l-198 2 2 47 c1 31 11 65 28 95 21 38 27
62 28 112 1 72 -13 91 -69 91 -17 0 -37 7 -44 15 -18 21 -36 19 -54 -7z m475
-469 c31 -31 11 -42 -40 -24 -35 12 -137 22 -258 24 -13 1 -23 5 -23 9 0 5 68
9 150 10 140 1 152 0 171 -19z M71 859 c-47 -77 -32 -187 30 -221 31 -17 54
-19 252 -16 119 2 217 0 217 -4 0 -4 -9 -25 -20 -45 -35 -68 -42 -134 -30
-305 6 -87 8 -174 4 -194 l-7 -36 34 7 c52 11 86 32 93 57 11 44 6 183 -11
284 l-17 101 26 89 c37 131 26 223 -31 242 -14 5 -118 7 -230 6 -116 -2 -211
1 -221 6 -10 5 -21 21 -24 35 -9 36 -42 33 -65 -6z M130 447 c-13 -7 -35 -28
-47 -46 -22 -32 -23 -44 -23 -197 0 -155 1 -164 19 -164 34 0 69 18 87 46 15
22 17 47 15 166 -2 114 1 144 14 164 9 14 13 29 10 34 -8 14 -45 12 -75 -3z"/>
</g>
</svg>
