<?xml version="1.0" standalone="no"?>
<!DOCTYPE svg PUBLIC "-//W3C//DTD SVG 20010904//EN"
 "http://www.w3.org/TR/2001/REC-SVG-20010904/DTD/svg10.dtd">
<svg version="1.0" xmlns="http://www.w3.org/2000/svg"
 width="47.000000pt" height="66.000000pt" viewBox="0 0 47.000000 66.000000"
 preserveAspectRatio="xMidYMid meet">
<metadata>
Created by potrace 1.16, written by Peter Selinger 2001-2019
</metadata>
<g transform="translate(0.000000,66.000000) scale(0.100000,-0.100000)"
fill="#000000" stroke="none">
<path d="M255 557 c-22 -34 -79 -120 -128 -190 -67 -97 -88 -134 -85 -155 l3
-27 110 -5 110 -5 7 -59 c9 -70 14 -76 50 -69 26 5 40 33 36 73 -4 48 2 59 35
62 28 3 32 7 35 35 3 30 1 32 -35 35 l-38 3 -5 180 -5 180 -25 2 c-21 2 -32
-8 -65 -60z m15 -197 l0 -110 -75 0 c-46 0 -75 4 -75 11 0 11 138 209 145 209
3 0 5 -49 5 -110z"/>
</g>
</svg>
