<?xml version="1.0" standalone="no"?>
<!DOCTYPE svg PUBLIC "-//W3C//DTD SVG 20010904//EN"
 "http://www.w3.org/TR/2001/REC-SVG-20010904/DTD/svg10.dtd">
<svg version="1.0" xmlns="http://www.w3.org/2000/svg"
 width="33.000000pt" height="66.000000pt" viewBox="0 0 33.000000 66.000000"
 preserveAspectRatio="xMidYMid meet">
<metadata>
Created by potrace 1.16, written by Peter Selinger 2001-2019
</metadata>
<g transform="translate(0.000000,66.000000) scale(0.100000,-0.100000)"
fill="#000000" stroke="none">
<path d="M108 583 c-77 -40 -89 -64 -30 -60 l37 2 0 -214 0 -214 -32 -16 c-38
-19 -42 -30 -10 -32 73 -5 200 -3 209 2 17 11 -1 29 -27 29 -13 0 -29 8 -34
18 -5 10 -10 127 -10 261 -1 134 -4 248 -7 252 -8 14 -25 9 -96 -28z"/>
</g>
</svg>
