<?xml version="1.0" standalone="no"?>
<!DOCTYPE svg PUBLIC "-//W3C//DTD SVG 20010904//EN"
 "http://www.w3.org/TR/2001/REC-SVG-20010904/DTD/svg10.dtd">
<svg version="1.0" xmlns="http://www.w3.org/2000/svg"
 width="33.000000pt" height="65.000000pt" viewBox="0 0 33.000000 65.000000"
 preserveAspectRatio="xMidYMid meet">
<metadata>
Created by potrace 1.16, written by Peter Selinger 2001-2019
</metadata>
<g transform="translate(0.000000,65.000000) scale(0.100000,-0.100000)"
fill="#000000" stroke="none">
<path d="M121 580 c-61 -33 -88 -56 -78 -66 4 -4 19 -2 34 5 21 10 28 9 34 -1
5 -7 9 -105 9 -217 0 -182 -2 -205 -17 -217 -10 -7 -26 -14 -36 -14 -10 0 -17
-6 -15 -12 3 -9 39 -14 122 -16 108 -2 117 -1 114 15 -2 12 -15 20 -38 23
l-35 5 -5 260 c-4 221 -7 260 -20 262 -8 1 -39 -11 -69 -27z"/>
</g>
</svg>
