<?xml version="1.0" standalone="no"?>
<!DOCTYPE svg PUBLIC "-//W3C//DTD SVG 20010904//EN"
 "http://www.w3.org/TR/2001/REC-SVG-20010904/DTD/svg10.dtd">
<svg version="1.0" xmlns="http://www.w3.org/2000/svg"
 width="33.000000pt" height="31.000000pt" viewBox="0 0 33.000000 31.000000"
 preserveAspectRatio="xMidYMid meet">
<metadata>
Created by potrace 1.16, written by Peter Selinger 2001-2019
</metadata>
<g transform="translate(0.000000,31.000000) scale(0.100000,-0.100000)"
fill="#000000" stroke="none">
<path d="M123 269 c-88 -26 -106 -151 -30 -215 27 -23 38 -26 84 -22 63 5 89
26 104 80 12 46 1 88 -34 130 -25 30 -76 42 -124 27z m81 -70 c31 -25 34 -61
6 -89 -27 -27 -62 -25 -88 3 -38 41 -12 103 44 106 6 1 23 -8 38 -20z"/>
</g>
</svg>
