<?xml version="1.0" standalone="no"?>
<!DOCTYPE svg PUBLIC "-//W3C//DTD SVG 20010904//EN"
 "http://www.w3.org/TR/2001/REC-SVG-20010904/DTD/svg10.dtd">
<svg version="1.0" xmlns="http://www.w3.org/2000/svg"
 width="68.000000pt" height="94.000000pt" viewBox="0 0 68.000000 94.000000"
 preserveAspectRatio="xMidYMid meet">
<metadata>
Created by potrace 1.16, written by Peter Selinger 2001-2019
</metadata>
<g transform="translate(0.000000,94.000000) scale(0.100000,-0.100000)"
fill="#000000" stroke="none">
<path d="M74 874 c-14 -20 -18 -47 -18 -112 0 -80 2 -86 28 -108 26 -23 34
-24 181 -24 l154 0 23 -32 c20 -29 23 -44 23 -133 0 -110 -18 -191 -46 -205
-10 -6 -90 -10 -179 -10 -120 0 -161 -3 -164 -12 -9 -33 -26 -117 -32 -155
l-7 -43 276 0 c180 0 278 4 282 10 12 20 46 174 41 187 -3 8 -23 13 -50 13
-68 0 -78 6 -62 38 33 65 48 148 47 250 0 57 -5 120 -10 140 -6 20 -15 59 -22
85 -18 74 -28 77 -221 77 l-167 0 -13 27 c-18 37 -43 40 -64 7z m348 -135 c37
-20 14 -26 -89 -22 -121 4 -153 9 -153 22 0 13 220 12 242 0z m69 -559 c23
-13 25 -36 3 -44 -20 -8 -158 -6 -244 3 l-65 7 100 8 c55 5 118 14 140 21 22
7 41 13 43 14 2 1 12 -4 23 -9z"/>
</g>
</svg>
