<?xml version="1.0" standalone="no"?>
<!DOCTYPE svg PUBLIC "-//W3C//DTD SVG 20010904//EN"
 "http://www.w3.org/TR/2001/REC-SVG-20010904/DTD/svg10.dtd">
<svg version="1.0" xmlns="http://www.w3.org/2000/svg"
 width="71.000000pt" height="126.000000pt" viewBox="0 0 71.000000 126.000000"
 preserveAspectRatio="xMidYMid meet">
<metadata>
Created by potrace 1.16, written by Peter Selinger 2001-2019
</metadata>
<g transform="translate(0.000000,126.000000) scale(0.100000,-0.100000)"
fill="#000000" stroke="none">
<path d="M329 1243 c-25 -30 -69 -102 -69 -112 0 -19 83 -122 96 -119 21 5 94
102 94 125 0 13 -9 31 -20 40 -11 10 -20 21 -20 25 0 11 -46 58 -57 58 -5 0
-16 -8 -24 -17z M81 871 c-27 -27 -40 -79 -32 -132 9 -57 14 -65 61 -89 36
-19 53 -19 245 -14 113 3 209 2 215 -1 5 -3 1 -22 -11 -44 -28 -54 -43 -160
-34 -240 5 -36 8 -121 9 -189 l1 -122 30 6 c64 14 84 42 91 129 2 26 -7 108
-31 299 -3 26 4 63 20 113 34 99 34 181 1 220 l-24 28 -217 -3 c-118 -2 -225
0 -236 3 -11 4 -24 18 -29 31 -11 29 -33 31 -59 5z M123 440 c-17 -10 -37 -28
-42 -39 -7 -12 -11 -89 -11 -190 0 -167 0 -171 21 -171 34 0 78 32 89 65 6 17
9 89 7 159 -2 91 1 136 10 153 7 14 10 29 7 34 -9 15 -47 10 -81 -11z"/>
</g>
</svg>
