<?xml version="1.0" standalone="no"?>
<!DOCTYPE svg PUBLIC "-//W3C//DTD SVG 20010904//EN"
 "http://www.w3.org/TR/2001/REC-SVG-20010904/DTD/svg10.dtd">
<svg version="1.0" xmlns="http://www.w3.org/2000/svg"
 width="72.000000pt" height="68.000000pt" viewBox="0 0 72.000000 68.000000"
 preserveAspectRatio="xMidYMid meet">
<metadata>
Created by potrace 1.16, written by Peter Selinger 2001-2019
</metadata>
<g transform="translate(0.000000,68.000000) scale(0.100000,-0.100000)"
fill="#000000" stroke="none">
<path d="M100 620 c-24 -24 -24 -29 -4 -58 18 -26 41 -28 72 -6 28 19 28 38 0
64 -27 25 -43 25 -68 0z M475 438 c-11 -6 -24 -18 -29 -26 -7 -13 -12 -11 -27
9 -17 23 -19 23 -65 11 -76 -20 -92 -41 -49 -60 25 -11 25 -13 25 -136 0 -114
-2 -127 -21 -145 -12 -11 -18 -24 -14 -30 8 -14 162 -14 170 0 4 5 -5 21 -19
34 -26 24 -27 27 -24 137 l3 113 37 20 c36 19 37 19 57 1 19 -17 21 -30 21
-137 0 -108 -2 -120 -20 -131 -58 -36 12 -60 123 -42 39 7 50 28 19 37 -24 6
-32 44 -33 156 -1 116 -15 159 -59 182 -39 22 -66 23 -95 7z M95 422 c-54 -18
-66 -42 -25 -52 25 -6 25 -6 28 -139 l3 -133 -31 -11 c-16 -6 -30 -17 -30 -23
0 -13 82 -22 153 -16 52 4 61 20 25 44 -22 15 -23 23 -28 179 -6 187 -2 182
-95 151z"/>
</g>
</svg>
