<?xml version="1.0" standalone="no"?>
<!DOCTYPE svg PUBLIC "-//W3C//DTD SVG 20010904//EN"
 "http://www.w3.org/TR/2001/REC-SVG-20010904/DTD/svg10.dtd">
<svg version="1.0" xmlns="http://www.w3.org/2000/svg"
 width="65.000000pt" height="94.000000pt" viewBox="0 0 65.000000 94.000000"
 preserveAspectRatio="xMidYMid meet">
<metadata>
Created by potrace 1.16, written by Peter Selinger 2001-2019
</metadata>
<g transform="translate(0.000000,94.000000) scale(0.100000,-0.100000)"
fill="#000000" stroke="none">
<path d="M76 878 c-22 -33 -36 -109 -29 -152 4 -23 16 -45 35 -61 29 -24 33
-25 197 -25 163 0 169 -1 194 -24 67 -63 62 -270 -10 -332 -20 -17 -41 -24
-73 -25 -25 -1 -98 -2 -162 -3 -90 -1 -121 -5 -131 -16 -20 -22 -59 -145 -55
-172 3 -23 5 -23 138 -24 167 -2 277 10 308 34 63 46 114 207 115 361 2 175
-53 368 -113 398 -17 9 -78 13 -193 13 l-167 0 -10 25 c-12 31 -25 32 -44 3z
m343 -134 c13 -11 -17 -13 -122 -7 -64 3 -114 10 -112 14 5 7 225 0 234 -7z
m-39 -593 c-8 -5 -49 -10 -90 -11 -98 -4 -112 -2 -105 10 3 6 51 10 108 10 62
0 96 -4 87 -9z"/>
</g>
</svg>
