<?xml version="1.0" standalone="no"?>
<!DOCTYPE svg PUBLIC "-//W3C//DTD SVG 20010904//EN"
 "http://www.w3.org/TR/2001/REC-SVG-20010904/DTD/svg10.dtd">
<svg version="1.0" xmlns="http://www.w3.org/2000/svg"
 width="72.000000pt" height="66.000000pt" viewBox="0 0 72.000000 66.000000"
 preserveAspectRatio="xMidYMid meet">
<metadata>
Created by potrace 1.16, written by Peter Selinger 2001-2019
</metadata>
<g transform="translate(0.000000,66.000000) scale(0.100000,-0.100000)"
fill="#000000" stroke="none">
<path d="M102 608 c-28 -28 -7 -78 33 -78 27 0 45 18 45 45 0 27 -18 45 -45
45 -12 0 -26 -5 -33 -12z M110 420 c-30 -11 -56 -20 -57 -20 -2 0 -3 -6 -3
-14 0 -8 10 -16 23 -18 22 -3 22 -6 22 -138 l0 -135 -28 -13 c-15 -7 -27 -17
-27 -21 0 -13 54 -21 131 -21 62 0 69 2 69 19 0 11 -9 22 -19 26 -25 8 -33 46
-31 138 4 151 0 217 -12 216 -7 0 -38 -9 -68 -19z M335 420 c-56 -20 -67 -40
-33 -55 22 -9 23 -17 26 -115 4 -123 -3 -170 -23 -170 -8 0 -15 -9 -15 -19 0
-18 8 -19 85 -19 47 0 88 4 91 10 3 5 -6 20 -20 33 -25 23 -26 28 -26 140 0
111 1 116 23 124 90 34 97 25 97 -129 0 -110 -2 -120 -21 -134 -13 -9 -19 -21
-16 -30 5 -13 21 -15 88 -11 45 2 84 7 87 9 3 3 -7 17 -21 30 -26 24 -27 29
-28 133 -1 141 -13 180 -62 206 -42 21 -104 17 -114 -9 -8 -21 -30 -17 -36 6
-6 24 -17 24 -82 0z"/>
</g>
</svg>
