<?xml version="1.0" standalone="no"?>
<!DOCTYPE svg PUBLIC "-//W3C//DTD SVG 20010904//EN"
 "http://www.w3.org/TR/2001/REC-SVG-20010904/DTD/svg10.dtd">
<svg version="1.0" xmlns="http://www.w3.org/2000/svg"
 width="136.000000pt" height="95.000000pt" viewBox="0 0 136.000000 95.000000"
 preserveAspectRatio="xMidYMid meet">
<metadata>
Created by potrace 1.16, written by Peter Selinger 2001-2019
</metadata>
<g transform="translate(0.000000,95.000000) scale(0.100000,-0.100000)"
fill="#000000" stroke="none">
<path d="M146 888 c-23 -38 -29 -140 -11 -185 19 -48 46 -64 111 -67 76 -3 76
-4 72 -120 -1 -55 1 -128 5 -162 12 -88 4 -94 -132 -94 l-107 0 -23 -94 c-13
-52 -21 -101 -18 -109 5 -14 32 -15 199 -10 106 2 197 9 202 14 5 4 15 24 21
42 14 40 7 97 -24 214 -18 68 -21 98 -16 180 3 54 8 133 10 176 5 82 -7 130
-38 156 -10 8 -52 15 -101 18 -83 6 -85 7 -95 34 -12 35 -35 37 -55 7z m158
-138 c33 -12 34 -30 2 -30 -35 0 -56 10 -56 26 0 16 19 18 54 4z m62 -565 c13
-33 -15 -45 -102 -45 -46 0 -84 4 -84 9 0 12 25 21 63 22 18 0 48 7 67 14 46
18 50 18 56 0z M549 873 c-24 -60 -29 -99 -18 -151 9 -44 17 -57 40 -70 22
-13 28 -22 24 -37 -30 -96 -29 -110 12 -315 14 -69 31 -152 37 -185 l12 -60
154 -3 c223 -3 203 -19 336 262 36 76 86 170 110 207 46 72 63 126 64 195 0
98 -18 123 -103 139 -21 4 -42 16 -48 26 -22 41 -73 4 -84 -62 -8 -45 -21 -58
-30 -29 -8 25 -49 47 -115 61 -39 8 -50 15 -50 30 0 29 -35 24 -56 -8 -11 -16
-21 -41 -24 -57 -5 -31 -30 -49 -30 -22 0 34 -37 56 -95 56 -47 0 -60 4 -79
25 -30 32 -44 32 -57 -2z m126 -133 c0 -8 -8 -16 -17 -18 -13 -2 -18 3 -18 18
0 15 5 20 18 18 9 -2 17 -10 17 -18z m264 11 c15 -9 9 -41 -8 -41 -5 0 -17 7
-25 16 -26 26 0 46 33 25z m151 -45 c0 -30 16 -43 69 -55 66 -15 71 -25 29
-69 -19 -20 -58 -71 -85 -112 -103 -156 -116 -175 -131 -187 -9 -8 -44 -13
-84 -13 -61 0 -68 2 -68 19 0 11 4 22 9 25 5 3 12 17 15 31 4 14 22 60 42 103
38 82 45 98 64 150 13 33 16 35 65 36 27 1 31 5 39 41 4 22 10 46 12 53 6 21
24 4 24 -22z m-284 -10 c5 -27 13 -37 36 -45 25 -9 29 -15 25 -33 -8 -38 -45
-133 -81 -210 -18 -40 -36 -81 -39 -90 -10 -29 -21 -21 -46 32 -18 37 -26 75
-30 147 -8 116 0 138 49 138 49 0 60 10 60 56 0 48 17 51 26 5z m-6 -487 c25
-11 72 -24 105 -27 l60 -7 -26 -18 c-21 -14 -44 -17 -110 -15 -78 3 -84 5 -98
29 -15 28 -10 59 11 59 7 0 33 -10 58 -21z"/>
</g>
</svg>
