<?xml version="1.0" standalone="no"?>
<!DOCTYPE svg PUBLIC "-//W3C//DTD SVG 20010904//EN"
 "http://www.w3.org/TR/2001/REC-SVG-20010904/DTD/svg10.dtd">
<svg version="1.0" xmlns="http://www.w3.org/2000/svg"
 width="45.000000pt" height="69.000000pt" viewBox="0 0 45.000000 69.000000"
 preserveAspectRatio="xMidYMid meet">
<metadata>
Created by potrace 1.16, written by Peter Selinger 2001-2019
</metadata>
<g transform="translate(0.000000,69.000000) scale(0.100000,-0.100000)"
fill="#000000" stroke="none">
<path d="M335 645 c-5 -1 -30 -8 -55 -16 -58 -16 -149 -76 -160 -103 -4 -12
-15 -27 -23 -34 -8 -7 -25 -38 -37 -68 -20 -49 -22 -67 -17 -151 5 -87 8 -100
39 -144 25 -38 45 -54 86 -70 51 -21 55 -21 110 -6 69 20 96 48 118 124 26 89
3 185 -54 228 -22 16 -42 20 -105 19 -89 -1 -88 -3 -31 81 33 51 80 83 157
109 9 3 17 12 17 21 0 14 -19 18 -45 10z m-61 -291 c56 -36 71 -171 25 -235
-33 -47 -102 -34 -139 26 -25 40 -38 162 -21 194 23 42 84 49 135 15z"/>
</g>
</svg>
