<?xml version="1.0" standalone="no"?>
<!DOCTYPE svg PUBLIC "-//W3C//DTD SVG 20010904//EN"
 "http://www.w3.org/TR/2001/REC-SVG-20010904/DTD/svg10.dtd">
<svg version="1.0" xmlns="http://www.w3.org/2000/svg"
 width="89.000000pt" height="67.000000pt" viewBox="0 0 89.000000 67.000000"
 preserveAspectRatio="xMidYMid meet">
<metadata>
Created by potrace 1.16, written by Peter Selinger 2001-2019
</metadata>
<g transform="translate(0.000000,67.000000) scale(0.100000,-0.100000)"
fill="#000000" stroke="none">
<path d="M595 616 c-41 -18 -93 -63 -110 -96 -26 -51 -39 -187 -26 -267 34
-196 191 -273 311 -153 92 92 100 326 16 453 -36 54 -137 87 -191 63z m93 -61
c42 -35 57 -98 57 -236 -1 -104 -4 -122 -26 -165 -30 -59 -64 -76 -103 -51
-51 34 -60 68 -60 232 -1 161 7 195 56 229 30 22 42 20 76 -9z M181 611 c-8
-5 -19 -7 -25 -5 -18 7 -87 -56 -102 -92 -16 -39 -18 -84 -4 -84 6 0 23 20 38
44 40 65 84 81 142 51 31 -16 60 -61 60 -92 0 -30 -30 -106 -54 -138 -22 -29
-53 -62 -152 -166 -60 -63 -58 -79 9 -80 97 -3 142 -3 214 -1 65 2 72 4 78 25
4 12 14 37 23 55 22 48 2 65 -35 31 -25 -22 -38 -25 -115 -28 -49 -1 -88 1
-88 6 0 5 10 19 23 30 12 11 31 31 41 44 11 13 34 42 53 64 42 50 44 53 65 95
50 105 15 210 -81 239 -46 13 -71 14 -90 2z"/>
</g>
</svg>
