<?xml version="1.0" standalone="no"?>
<!DOCTYPE svg PUBLIC "-//W3C//DTD SVG 20010904//EN"
 "http://www.w3.org/TR/2001/REC-SVG-20010904/DTD/svg10.dtd">
<svg version="1.0" xmlns="http://www.w3.org/2000/svg"
 width="66.000000pt" height="95.000000pt" viewBox="0 0 66.000000 95.000000"
 preserveAspectRatio="xMidYMid meet">
<metadata>
Created by potrace 1.16, written by Peter Selinger 2001-2019
</metadata>
<g transform="translate(0.000000,95.000000) scale(0.100000,-0.100000)"
fill="#000000" stroke="none">
<path d="M377 881 c-18 -31 -24 -119 -12 -184 5 -27 15 -42 36 -52 l28 -15
-29 -43 c-15 -23 -38 -51 -49 -62 -21 -19 -22 -18 -43 2 -18 19 -21 35 -24
125 -2 57 -6 117 -9 135 -7 39 -42 63 -95 63 -31 0 -47 6 -64 25 -26 27 -46
31 -64 13 -14 -14 -17 -205 -4 -226 5 -7 38 -16 75 -20 37 -5 69 -11 72 -14 4
-3 9 -47 12 -97 l6 -91 86 -84 c47 -47 82 -88 78 -92 -4 -4 -61 -9 -127 -10
-65 -1 -124 -5 -130 -9 -17 -10 -81 -158 -78 -180 3 -20 8 -20 253 -16 138 1
254 6 258 11 12 11 37 111 37 151 0 65 -18 95 -96 159 -41 33 -77 67 -80 75
-3 8 15 42 39 77 68 95 84 109 112 102 30 -8 41 16 51 109 6 58 4 66 -16 85
-21 19 -96 42 -138 42 -10 0 -22 10 -27 22 -15 33 -38 33 -58 -1z m131 -145
c5 -23 -18 -39 -35 -24 -7 6 -13 19 -13 30 0 26 43 21 48 -6z m-19 -507 c12
-35 1 -73 -24 -83 -28 -10 -245 -7 -245 4 0 6 23 10 50 10 68 0 111 20 150 68
36 45 53 45 69 1z"/>
</g>
</svg>
