<?xml version="1.0" standalone="no"?>
<!DOCTYPE svg PUBLIC "-//W3C//DTD SVG 20010904//EN"
 "http://www.w3.org/TR/2001/REC-SVG-20010904/DTD/svg10.dtd">
<svg version="1.0" xmlns="http://www.w3.org/2000/svg"
 width="69.000000pt" height="131.000000pt" viewBox="0 0 69.000000 131.000000"
 preserveAspectRatio="xMidYMid meet">
<metadata>
Created by potrace 1.16, written by Peter Selinger 2001-2019
</metadata>
<g transform="translate(0.000000,131.000000) scale(0.100000,-0.100000)"
fill="#000000" stroke="none">
<path d="M315 1258 c-44 -15 -74 -47 -85 -89 -12 -42 -7 -61 27 -106 90 -122
272 14 193 145 -28 45 -86 67 -135 50z m72 -70 c31 -29 30 -71 -2 -92 -31 -20
-54 -20 -77 1 -24 21 -23 54 3 87 25 32 45 33 76 4z M460 1254 c1 -20 19 -37
34 -31 17 7 22 27 7 27 -5 0 -16 3 -25 6 -9 3 -16 2 -16 -2z M68 858 c-27 -38
-32 -129 -9 -171 27 -51 61 -58 288 -57 115 0 214 1 222 0 11 0 11 -4 -1 -22
-27 -42 -51 -131 -51 -192 0 -34 3 -131 7 -216 l6 -155 25 2 c41 3 83 40 91
79 6 34 1 162 -10 214 -28 142 -28 159 -7 222 15 44 21 87 21 149 0 122 10
118 -277 121 l-228 3 -13 28 c-17 36 -35 34 -64 -5z M134 450 c-12 -4 -32 -23
-44 -40 -21 -29 -22 -42 -24 -202 l-1 -170 34 6 c69 11 75 27 82 209 3 89 8
171 10 182 5 23 -22 30 -57 15z"/>
</g>
</svg>
