<?xml version="1.0" standalone="no"?>
<!DOCTYPE svg PUBLIC "-//W3C//DTD SVG 20010904//EN"
 "http://www.w3.org/TR/2001/REC-SVG-20010904/DTD/svg10.dtd">
<svg version="1.0" xmlns="http://www.w3.org/2000/svg"
 width="41.000000pt" height="60.000000pt" viewBox="0 0 41.000000 60.000000"
 preserveAspectRatio="xMidYMid meet">
<metadata>
Created by potrace 1.16, written by Peter Selinger 2001-2019
</metadata>
<g transform="translate(0.000000,60.000000) scale(0.100000,-0.100000)"
fill="#000000" stroke="none">
<path d="M73 558 c-21 -28 -32 -76 -31 -133 1 -53 4 -63 33 -92 30 -30 39 -33
92 -33 110 0 127 -45 56 -148 -45 -65 -53 -104 -21 -110 46 -9 137 128 160
242 13 66 0 121 -40 171 -36 44 -60 54 -127 55 -56 0 -61 2 -77 30 -18 32 -30
37 -45 18z m142 -158 c8 -13 -15 -13 -35 0 -12 8 -11 10 7 10 12 0 25 -4 28
-10z"/>
</g>
</svg>
