<?xml version="1.0" standalone="no"?>
<!DOCTYPE svg PUBLIC "-//W3C//DTD SVG 20010904//EN"
 "http://www.w3.org/TR/2001/REC-SVG-20010904/DTD/svg10.dtd">
<svg version="1.0" xmlns="http://www.w3.org/2000/svg"
 width="212.000000pt" height="70.000000pt" viewBox="0 0 212.000000 70.000000"
 preserveAspectRatio="xMidYMid meet">
<metadata>
Created by potrace 1.16, written by Peter Selinger 2001-2019
</metadata>
<g transform="translate(0.000000,70.000000) scale(0.100000,-0.100000)"
fill="#000000" stroke="none">
<path d="M1725 641 c-73 -30 -83 -45 -40 -61 l25 -10 0 -224 0 -224 -25 -16
c-14 -9 -25 -21 -25 -27 0 -14 192 -7 197 8 2 6 -6 15 -19 18 -13 4 -26 13
-30 19 -4 6 -8 61 -8 121 1 123 7 140 61 156 31 8 36 7 56 -18 20 -24 23 -40
23 -119 0 -116 -7 -151 -31 -157 -10 -3 -19 -12 -19 -21 0 -12 11 -16 48 -17
128 -4 165 9 121 41 -25 19 -26 23 -28 141 -3 137 -7 152 -49 193 -28 26 -36
28 -82 24 -28 -3 -59 -13 -70 -23 -11 -10 -23 -16 -26 -12 -3 3 -5 49 -5 103
0 88 -9 126 -28 123 -3 -1 -24 -8 -46 -18z M1127 632 c-24 -26 -21 -57 7 -71
51 -28 99 27 61 69 -23 25 -47 25 -68 2z M696 624 c-41 -15 -66 -31 -66 -44 0
-4 11 -12 25 -18 l25 -12 0 -224 c0 -215 -1 -226 -20 -236 -11 -6 -20 -18 -20
-26 0 -13 15 -15 92 -12 94 3 125 18 75 37 -32 12 -35 23 -37 148 -1 100 -1
103 26 128 34 32 78 33 98 2 11 -16 16 -54 17 -135 1 -114 -6 -142 -38 -142
-8 0 -13 -7 -11 -17 3 -16 15 -18 90 -17 48 0 91 3 94 7 4 4 -2 18 -14 30 -19
21 -23 38 -27 133 -7 137 -11 163 -33 192 -34 43 -125 46 -173 6 -8 -8 -18
-14 -22 -14 -3 0 -8 51 -9 112 -3 126 -4 127 -72 102z M1444 456 c-54 -15
-107 -57 -129 -102 -25 -52 -17 -165 15 -223 58 -102 196 -102 270 0 32 45 39
79 15 79 -8 0 -22 -11 -30 -24 -34 -51 -120 -59 -163 -13 -60 64 -55 186 10
231 35 25 67 20 79 -11 21 -57 67 -81 97 -51 31 31 -1 88 -64 114 -38 16 -43
16 -100 0z M1128 438 c-61 -21 -75 -43 -34 -54 23 -5 25 -11 31 -100 11 -140
-2 -194 -46 -194 -11 0 -19 -7 -19 -15 0 -11 12 -16 43 -17 78 -3 151 2 160
11 12 12 0 31 -18 31 -8 0 -17 10 -19 23 -5 22 -15 225 -16 300 0 43 -3 43
-82 15z M63 432 c-22 -3 -33 -32 -13 -32 13 0 49 -73 93 -186 46 -120 76 -176
89 -172 14 5 57 85 82 151 10 26 21 47 25 47 8 0 17 -19 61 -130 12 -30 26
-59 32 -65 14 -14 33 15 64 99 27 74 32 88 57 146 8 19 20 52 27 72 6 21 16
40 21 43 5 4 9 13 9 21 0 10 -13 14 -49 14 -52 0 -76 -16 -47 -32 9 -5 16 -16
16 -24 0 -15 -59 -163 -70 -177 -3 -4 -23 34 -44 85 l-38 92 21 17 c39 32 26
40 -65 38 -67 -1 -87 -5 -92 -17 -3 -9 0 -18 7 -20 20 -7 49 -42 55 -68 7 -25
-36 -134 -52 -134 -11 0 -23 25 -56 115 l-26 70 22 17 c13 9 21 19 18 21 -7 7
-120 14 -147 9z"/>
</g>
</svg>
