<?xml version="1.0" standalone="no"?>
<!DOCTYPE svg PUBLIC "-//W3C//DTD SVG 20010904//EN"
 "http://www.w3.org/TR/2001/REC-SVG-20010904/DTD/svg10.dtd">
<svg version="1.0" xmlns="http://www.w3.org/2000/svg"
 width="107.000000pt" height="67.000000pt" viewBox="0 0 107.000000 67.000000"
 preserveAspectRatio="xMidYMid meet">
<metadata>
Created by potrace 1.16, written by Peter Selinger 2001-2019
</metadata>
<g transform="translate(0.000000,67.000000) scale(0.100000,-0.100000)"
fill="#000000" stroke="none">
<path d="M355 623 c-66 -15 -116 -63 -66 -63 10 0 21 -8 23 -17 2 -10 5 -110
7 -223 2 -197 1 -207 -18 -224 -41 -37 -28 -46 69 -46 79 0 90 2 90 18 0 9
-10 22 -22 27 -21 9 -23 17 -26 115 -4 135 -1 144 48 164 73 29 90 1 90 -149
0 -89 -3 -108 -19 -124 -10 -10 -24 -20 -32 -23 -7 -2 -9 -10 -5 -16 9 -15
162 -16 171 -1 4 6 -3 21 -16 35 -20 22 -22 32 -20 118 2 110 -12 175 -46 212
-22 24 -29 26 -75 21 -28 -4 -59 -14 -69 -23 -11 -10 -22 -15 -25 -12 -3 4 -5
41 -5 85 0 43 -3 90 -5 106 -6 27 -10 29 -49 20z M150 532 c0 -5 -25 -34 -56
-65 -55 -55 -62 -77 -23 -77 18 0 19 -8 19 -134 0 -177 15 -216 85 -216 34 0
67 17 89 47 23 31 9 51 -23 31 -16 -9 -26 -10 -39 -2 -14 10 -17 30 -20 142
l-3 131 33 3 c26 2 34 8 36 26 3 18 -1 23 -15 22 -44 -5 -53 0 -53 28 0 37
-10 72 -21 72 -5 0 -9 -4 -9 -8z M815 441 c-70 -24 -101 -62 -125 -151 -12
-44 -8 -69 23 -153 12 -33 62 -74 106 -87 38 -11 115 10 140 37 28 30 71 97
71 110 0 25 -33 12 -65 -24 -30 -34 -37 -38 -80 -37 -33 1 -52 7 -67 22 -25
24 -60 110 -49 117 5 2 58 5 120 6 126 1 129 3 112 67 -16 59 -69 102 -124
101 -23 -1 -51 -4 -62 -8z m78 -73 c12 -15 19 -30 16 -32 -2 -2 -32 -6 -66 -9
-57 -4 -63 -3 -63 14 0 29 37 61 67 57 14 -2 35 -15 46 -30z"/>
</g>
</svg>
