<?xml version="1.0" standalone="no"?>
<!DOCTYPE svg PUBLIC "-//W3C//DTD SVG 20010904//EN"
 "http://www.w3.org/TR/2001/REC-SVG-20010904/DTD/svg10.dtd">
<svg version="1.0" xmlns="http://www.w3.org/2000/svg"
 width="38.000000pt" height="95.000000pt" viewBox="0 0 38.000000 95.000000"
 preserveAspectRatio="xMidYMid meet">
<metadata>
Created by potrace 1.16, written by Peter Selinger 2001-2019
</metadata>
<g transform="translate(0.000000,95.000000) scale(0.100000,-0.100000)"
fill="#000000" stroke="none">
<path d="M73 898 c-6 -7 -16 -38 -23 -68 -14 -64 -3 -120 31 -164 17 -22 29
-26 69 -26 31 0 55 -6 70 -18 26 -21 28 -40 29 -384 l1 -198 23 0 c13 0 32 10
43 21 18 20 19 39 16 367 -2 309 -4 349 -20 376 -20 34 -45 44 -114 45 -41 1
-49 5 -60 29 -14 30 -49 40 -65 20z m127 -148 c8 -5 11 -12 8 -16 -10 -9 -38
3 -38 16 0 12 10 13 30 0z"/>
</g>
</svg>
