<?xml version="1.0" standalone="no"?>
<!DOCTYPE svg PUBLIC "-//W3C//DTD SVG 20010904//EN"
 "http://www.w3.org/TR/2001/REC-SVG-20010904/DTD/svg10.dtd">
<svg version="1.0" xmlns="http://www.w3.org/2000/svg"
 width="41.000000pt" height="38.000000pt" viewBox="0 0 41.000000 38.000000"
 preserveAspectRatio="xMidYMid meet">
<metadata>
Created by potrace 1.16, written by Peter Selinger 2001-2019
</metadata>
<g transform="translate(0.000000,38.000000) scale(0.100000,-0.100000)"
fill="#000000" stroke="none">
<path d="M158 333 c-15 -2 -44 -21 -66 -42 -65 -63 -65 -151 0 -218 40 -41 87
-57 144 -48 82 12 145 106 129 191 -6 34 -44 88 -74 103 -21 12 -99 20 -133
14z m85 -74 c36 -16 49 -45 42 -90 -5 -30 -14 -43 -35 -54 -35 -18 -48 -19
-83 -2 -58 27 -60 118 -4 143 39 16 50 17 80 3z"/>
</g>
</svg>
