<?xml version="1.0" standalone="no"?>
<!DOCTYPE svg PUBLIC "-//W3C//DTD SVG 20010904//EN"
 "http://www.w3.org/TR/2001/REC-SVG-20010904/DTD/svg10.dtd">
<svg version="1.0" xmlns="http://www.w3.org/2000/svg"
 width="44.000000pt" height="49.000000pt" viewBox="0 0 44.000000 49.000000"
 preserveAspectRatio="xMidYMid meet">
<metadata>
Created by potrace 1.16, written by Peter Selinger 2001-2019
</metadata>
<g transform="translate(0.000000,49.000000) scale(0.100000,-0.100000)"
fill="#000000" stroke="none">
<path d="M156 442 c-4 -6 -13 -9 -20 -6 -7 3 -27 -9 -45 -25 -27 -25 -32 -36
-29 -68 2 -30 8 -39 24 -41 27 -4 54 22 54 52 0 57 80 70 99 16 16 -47 4 -64
-66 -95 -91 -40 -124 -72 -130 -129 -5 -41 -2 -48 26 -77 30 -29 36 -31 78
-25 27 3 57 15 70 28 l23 22 28 -27 c36 -35 64 -34 103 1 34 30 32 58 -3 49
-27 -7 -34 21 -33 126 2 103 -10 147 -49 178 -31 24 -119 38 -130 21z m86
-248 c-1 -32 -8 -62 -15 -66 -6 -5 -30 -7 -52 -6 -37 3 -40 5 -43 35 -3 25 3
39 25 59 30 28 62 44 78 40 6 -2 9 -29 7 -62z"/>
</g>
</svg>
