<?xml version="1.0" standalone="no"?>
<!DOCTYPE svg PUBLIC "-//W3C//DTD SVG 20010904//EN"
 "http://www.w3.org/TR/2001/REC-SVG-20010904/DTD/svg10.dtd">
<svg version="1.0" xmlns="http://www.w3.org/2000/svg"
 width="68.000000pt" height="95.000000pt" viewBox="0 0 68.000000 95.000000"
 preserveAspectRatio="xMidYMid meet">
<metadata>
Created by potrace 1.16, written by Peter Selinger 2001-2019
</metadata>
<g transform="translate(0.000000,95.000000) scale(0.100000,-0.100000)"
fill="#000000" stroke="none">
<path d="M112 897 c-15 -17 -31 -93 -32 -142 0 -40 19 -78 50 -102 13 -10 10
-20 -22 -81 -26 -46 -41 -91 -47 -137 -12 -82 -3 -105 39 -105 22 0 33 8 50
35 16 26 29 35 49 35 32 0 71 -25 71 -46 0 -11 9 -14 33 -12 l32 3 0 77 c0 92
-9 105 -87 123 -47 11 -53 15 -50 36 5 48 34 59 153 59 60 0 119 -5 133 -11
39 -18 66 -86 66 -171 1 -40 -3 -85 -7 -100 -9 -30 -68 -98 -86 -99 -6 0 -88
-1 -180 -1 -160 -1 -169 -3 -181 -22 -19 -32 -60 -175 -53 -183 7 -7 508 -5
515 2 14 14 73 282 79 355 7 104 -16 249 -54 343 -40 98 -38 97 -237 97 l-171
0 -17 30 c-19 33 -30 37 -46 17z m326 -143 c49 -14 16 -22 -105 -26 -125 -5
-152 -1 -139 21 8 12 203 15 244 5z m32 -594 c0 -6 -28 -10 -62 -10 -35 0 -93
-3 -130 -7 -47 -4 -68 -2 -68 5 0 7 37 12 108 15 59 1 117 4 130 5 12 1 22 -2
22 -8z"/>
</g>
</svg>
