<?xml version="1.0" standalone="no"?>
<!DOCTYPE svg PUBLIC "-//W3C//DTD SVG 20010904//EN"
 "http://www.w3.org/TR/2001/REC-SVG-20010904/DTD/svg10.dtd">
<svg version="1.0" xmlns="http://www.w3.org/2000/svg"
 width="84.000000pt" height="69.000000pt" viewBox="0 0 84.000000 69.000000"
 preserveAspectRatio="xMidYMid meet">
<metadata>
Created by potrace 1.16, written by Peter Selinger 2001-2019
</metadata>
<g transform="translate(0.000000,69.000000) scale(0.100000,-0.100000)"
fill="#000000" stroke="none">
<path d="M90 632 c-49 -19 -64 -46 -31 -57 19 -6 21 -14 21 -103 0 -53 2 -160
4 -236 3 -135 4 -140 28 -161 15 -13 47 -25 77 -29 121 -16 205 47 240 176 9
35 4 68 -26 159 -7 24 -61 61 -101 70 -22 5 -48 3 -75 -7 -53 -19 -57 -13 -57
109 0 110 0 110 -80 79z m218 -290 c24 -32 27 -44 27 -114 0 -71 -2 -80 -26
-104 -20 -19 -38 -27 -68 -28 -22 0 -45 4 -50 9 -13 14 -22 210 -11 241 20 52
87 50 128 -4z M570 438 c-31 -16 -54 -38 -75 -73 -26 -44 -30 -59 -29 -120 1
-58 6 -77 28 -110 15 -22 37 -48 49 -57 26 -20 96 -33 133 -24 34 9 80 59 104
115 24 52 24 51 7 51 -16 0 -57 -41 -57 -57 0 -6 -14 -16 -31 -22 -23 -8 -39
-7 -69 5 -46 18 -67 47 -76 103 l-6 40 113 3 114 3 -3 35 c-2 19 -12 47 -23
62 -10 15 -19 31 -19 37 0 12 -55 31 -89 31 -15 0 -47 -10 -71 -22z m90 -48
c11 -11 20 -29 20 -40 0 -18 -7 -20 -59 -20 -33 0 -63 5 -66 10 -3 6 3 24 15
40 25 35 61 39 90 10z"/>
</g>
</svg>
