<?xml version="1.0" standalone="no"?>
<!DOCTYPE svg PUBLIC "-//W3C//DTD SVG 20010904//EN"
 "http://www.w3.org/TR/2001/REC-SVG-20010904/DTD/svg10.dtd">
<svg version="1.0" xmlns="http://www.w3.org/2000/svg"
 width="88.000000pt" height="93.000000pt" viewBox="0 0 88.000000 93.000000"
 preserveAspectRatio="xMidYMid meet">
<metadata>
Created by potrace 1.16, written by Peter Selinger 2001-2019
</metadata>
<g transform="translate(0.000000,93.000000) scale(0.100000,-0.100000)"
fill="#000000" stroke="none">
<path d="M62 853 c-11 -25 -17 -64 -17 -112 0 -72 1 -73 37 -105 32 -27 36
-34 26 -51 -21 -36 -13 -173 22 -345 18 -91 37 -173 42 -182 8 -16 27 -18 173
-18 l165 0 40 40 c22 22 40 46 40 54 0 7 27 68 60 135 33 67 60 125 60 129 0
4 21 39 46 77 76 115 78 122 79 216 0 103 -9 118 -90 144 -30 9 -59 24 -63 32
-5 9 -19 13 -33 11 -20 -2 -28 -14 -45 -68 l-21 -64 -17 25 c-18 29 -70 54
-128 64 -29 4 -38 11 -38 25 0 52 -63 -8 -77 -72 -7 -36 -18 -35 -33 1 -13 33
-33 41 -102 41 -40 0 -50 4 -68 30 -12 17 -26 30 -31 30 -6 0 -18 -17 -27 -37z
m136 -136 c2 -11 -3 -17 -17 -17 -23 0 -35 15 -26 31 10 15 39 6 43 -14z m256
17 c23 -9 20 -44 -3 -44 -22 0 -45 25 -36 40 7 11 17 13 39 4z m156 -57 c13
-27 23 -34 65 -43 59 -12 71 -37 33 -69 -14 -11 -65 -81 -113 -155 -49 -74
-96 -140 -104 -147 -18 -14 -151 -18 -151 -4 0 13 25 80 53 141 14 30 35 80
47 110 41 101 40 100 82 100 32 0 40 4 48 26 6 14 10 36 10 50 0 33 12 30 30
-9z m-282 -4 c-2 -20 3 -30 20 -39 44 -22 45 -28 18 -96 -14 -36 -26 -68 -26
-71 0 -4 -15 -40 -34 -80 -18 -40 -36 -82 -40 -95 -11 -33 -22 -27 -41 21 -33
82 -45 133 -45 200 0 80 22 113 70 104 34 -7 50 8 50 50 0 23 5 33 15 33 11 0
15 -8 13 -27z m3 -493 c24 -11 63 -20 87 -20 23 0 42 -4 42 -9 0 -12 -52 -21
-126 -21 -67 0 -94 15 -94 51 0 25 34 25 91 -1z"/>
</g>
</svg>
