<?xml version="1.0" standalone="no"?>
<!DOCTYPE svg PUBLIC "-//W3C//DTD SVG 20010904//EN"
 "http://www.w3.org/TR/2001/REC-SVG-20010904/DTD/svg10.dtd">
<svg version="1.0" xmlns="http://www.w3.org/2000/svg"
 width="41.000000pt" height="61.000000pt" viewBox="0 0 41.000000 61.000000"
 preserveAspectRatio="xMidYMid meet">
<metadata>
Created by potrace 1.16, written by Peter Selinger 2001-2019
</metadata>
<g transform="translate(0.000000,61.000000) scale(0.100000,-0.100000)"
fill="#000000" stroke="none">
<path d="M59 543 c-17 -42 -21 -154 -8 -186 16 -38 57 -57 122 -57 101 0 117
-44 52 -144 -48 -72 -55 -100 -29 -110 64 -25 185 198 164 302 -19 92 -24 103
-61 137 -37 33 -40 34 -102 28 l-64 -6 -11 32 c-14 40 -48 42 -63 4z m162
-139 c11 -14 9 -15 -16 -12 -16 1 -30 9 -33 16 -6 18 33 15 49 -4z"/>
</g>
</svg>
