<?xml version="1.0" standalone="no"?>
<!DOCTYPE svg PUBLIC "-//W3C//DTD SVG 20010904//EN"
 "http://www.w3.org/TR/2001/REC-SVG-20010904/DTD/svg10.dtd">
<svg version="1.0" xmlns="http://www.w3.org/2000/svg"
 width="38.000000pt" height="94.000000pt" viewBox="0 0 38.000000 94.000000"
 preserveAspectRatio="xMidYMid meet">
<metadata>
Created by potrace 1.16, written by Peter Selinger 2001-2019
</metadata>
<g transform="translate(0.000000,94.000000) scale(0.100000,-0.100000)"
fill="#000000" stroke="none">
<path d="M69 878 c-23 -43 -29 -92 -17 -145 15 -71 45 -98 104 -95 36 1 50 -3
70 -23 24 -24 24 -26 25 -232 1 -189 4 -326 8 -345 2 -14 25 -8 49 12 l23 19
-1 298 c-2 374 -4 410 -27 436 -25 27 -75 47 -122 47 -30 0 -42 5 -55 25 -20
31 -42 32 -57 3z m126 -138 c3 -5 2 -10 -4 -10 -5 0 -13 5 -16 10 -3 6 -2 10
4 10 5 0 13 -4 16 -10z"/>
</g>
</svg>
