<?xml version="1.0" standalone="no"?>
<!DOCTYPE svg PUBLIC "-//W3C//DTD SVG 20010904//EN"
 "http://www.w3.org/TR/2001/REC-SVG-20010904/DTD/svg10.dtd">
<svg version="1.0" xmlns="http://www.w3.org/2000/svg"
 width="87.000000pt" height="68.000000pt" viewBox="0 0 87.000000 68.000000"
 preserveAspectRatio="xMidYMid meet">
<metadata>
Created by potrace 1.16, written by Peter Selinger 2001-2019
</metadata>
<g transform="translate(0.000000,68.000000) scale(0.100000,-0.100000)"
fill="#000000" stroke="none">
<path d="M205 630 c-93 -21 -141 -99 -160 -260 -8 -75 20 -200 57 -251 31 -44
95 -78 142 -79 44 0 116 41 142 80 31 48 58 187 50 259 -9 79 -32 149 -62 188
-37 48 -112 77 -169 63z m103 -92 c24 -50 34 -142 29 -249 -6 -118 -21 -166
-61 -192 -24 -16 -29 -17 -60 -2 -18 9 -38 27 -45 41 -20 45 -34 167 -27 256
7 99 27 160 64 188 24 20 26 20 56 2 17 -10 37 -30 44 -44z M554 436 c-75 -33
-87 -126 -17 -126 25 0 47 38 37 64 -3 9 5 21 19 31 47 31 99 -17 84 -78 -4
-15 -20 -27 -55 -39 -57 -21 -116 -64 -131 -96 -21 -45 -13 -92 20 -123 39
-36 69 -37 127 -3 l44 26 19 -20 c30 -33 57 -36 95 -10 41 28 46 58 9 58 -14
0 -25 1 -26 3 -1 1 -4 62 -8 134 -7 128 -8 134 -36 163 -26 27 -35 30 -89 30
-34 -1 -75 -7 -92 -14z m126 -236 c0 -56 -2 -60 -30 -75 -38 -20 -63 -13 -79
21 -9 20 -8 31 3 51 13 27 85 74 99 66 4 -2 7 -31 7 -63z"/>
</g>
</svg>
