<?xml version="1.0" standalone="no"?>
<!DOCTYPE svg PUBLIC "-//W3C//DTD SVG 20010904//EN"
 "http://www.w3.org/TR/2001/REC-SVG-20010904/DTD/svg10.dtd">
<svg version="1.0" xmlns="http://www.w3.org/2000/svg"
 width="29.000000pt" height="68.000000pt" viewBox="0 0 29.000000 68.000000"
 preserveAspectRatio="xMidYMid meet">
<metadata>
Created by potrace 1.16, written by Peter Selinger 2001-2019
</metadata>
<g transform="translate(0.000000,68.000000) scale(0.100000,-0.100000)"
fill="#000000" stroke="none">
<path d="M102 628 c-15 -15 -15 -61 0 -76 20 -20 56 -14 73 12 15 23 15 27 0
50 -18 28 -53 34 -73 14z M93 419 c-29 -11 -53 -24 -53 -29 0 -5 12 -15 28
-22 27 -13 27 -14 30 -128 3 -138 0 -156 -33 -164 -14 -4 -25 -13 -25 -22 0
-12 16 -14 102 -12 70 2 103 7 106 15 2 7 -8 17 -22 23 -33 12 -36 26 -39 205
-2 173 -1 170 -94 134z"/>
</g>
</svg>
