<?xml version="1.0" standalone="no"?>
<!DOCTYPE svg PUBLIC "-//W3C//DTD SVG 20010904//EN"
 "http://www.w3.org/TR/2001/REC-SVG-20010904/DTD/svg10.dtd">
<svg version="1.0" xmlns="http://www.w3.org/2000/svg"
 width="71.000000pt" height="94.000000pt" viewBox="0 0 71.000000 94.000000"
 preserveAspectRatio="xMidYMid meet">
<metadata>
Created by potrace 1.16, written by Peter Selinger 2001-2019
</metadata>
<g transform="translate(0.000000,94.000000) scale(0.100000,-0.100000)"
fill="#000000" stroke="none">
<path d="M81 881 c-30 -30 -45 -117 -29 -171 22 -75 42 -80 301 -80 182 0 217
-2 217 -14 0 -8 -4 -17 -9 -20 -5 -3 -17 -29 -27 -58 -14 -42 -18 -80 -16
-182 0 -72 7 -152 14 -178 9 -39 9 -55 -1 -84 -19 -51 -4 -62 54 -40 25 10 50
26 55 36 12 23 12 188 0 255 -24 125 -23 148 4 237 39 130 31 219 -24 248 -13
7 -102 10 -242 9 l-223 -1 -18 31 c-22 36 -30 38 -56 12z m465 -143 c4 -5 5
-10 2 -13 -8 -8 -368 7 -368 16 0 10 356 6 366 -3z M131 447 c-13 -6 -33 -24
-45 -40 -18 -25 -20 -42 -21 -197 0 -187 -2 -182 62 -160 45 16 53 45 53 198
0 102 4 144 15 166 8 15 12 32 9 37 -7 13 -45 11 -73 -4z"/>
</g>
</svg>
