<?xml version="1.0" standalone="no"?>
<!DOCTYPE svg PUBLIC "-//W3C//DTD SVG 20010904//EN"
 "http://www.w3.org/TR/2001/REC-SVG-20010904/DTD/svg10.dtd">
<svg version="1.0" xmlns="http://www.w3.org/2000/svg"
 width="17.000000pt" height="48.000000pt" viewBox="0 0 17.000000 48.000000"
 preserveAspectRatio="xMidYMid meet">
<metadata>
Created by potrace 1.16, written by Peter Selinger 2001-2019
</metadata>
<g transform="translate(0.000000,48.000000) scale(0.100000,-0.100000)"
fill="#000000" stroke="none">
<path d="M58 429 c-21 -12 -24 -59 -6 -77 7 -7 24 -12 39 -12 22 0 29 6 34 31
5 22 2 36 -11 50 -19 21 -31 23 -56 8z M58 139 c-21 -12 -24 -69 -6 -87 15
-15 51 -15 66 0 20 20 15 76 -7 88 -24 12 -31 12 -53 -1z"/>
</g>
</svg>
