<?xml version="1.0" standalone="no"?>
<!DOCTYPE svg PUBLIC "-//W3C//DTD SVG 20010904//EN"
 "http://www.w3.org/TR/2001/REC-SVG-20010904/DTD/svg10.dtd">
<svg version="1.0" xmlns="http://www.w3.org/2000/svg"
 width="73.000000pt" height="91.000000pt" viewBox="0 0 73.000000 91.000000"
 preserveAspectRatio="xMidYMid meet">
<metadata>
Created by potrace 1.16, written by Peter Selinger 2001-2019
</metadata>
<g transform="translate(0.000000,91.000000) scale(0.100000,-0.100000)"
fill="#000000" stroke="none">
<path d="M76 854 c-16 -15 -19 -26 -30 -91 -12 -71 50 -143 122 -143 41 0 41
-12 -2 -89 -46 -81 -73 -199 -82 -352 -6 -123 -6 -127 15 -134 35 -11 61 3 61
33 1 81 21 265 35 317 17 63 73 155 109 178 50 32 88 38 159 26 90 -16 120
-44 137 -124 13 -62 7 -192 -9 -208 -5 -5 -75 -11 -156 -12 -81 -2 -151 -7
-155 -12 -12 -13 -53 -183 -46 -190 10 -10 399 -3 412 8 6 5 14 48 18 97 4 48
10 112 12 142 3 30 6 105 6 167 l1 111 -42 85 c-44 89 -73 117 -156 151 -55
23 -63 20 -76 -26 -12 -47 -72 -128 -95 -128 -10 0 -14 13 -14 45 0 69 -21
100 -74 114 -25 6 -56 11 -70 11 -16 0 -27 7 -31 20 -8 24 -28 26 -49 4z"/>
</g>
</svg>
