<?xml version="1.0" standalone="no"?>
<!DOCTYPE svg PUBLIC "-//W3C//DTD SVG 20010904//EN"
 "http://www.w3.org/TR/2001/REC-SVG-20010904/DTD/svg10.dtd">
<svg version="1.0" xmlns="http://www.w3.org/2000/svg"
 width="38.000000pt" height="95.000000pt" viewBox="0 0 38.000000 95.000000"
 preserveAspectRatio="xMidYMid meet">
<metadata>
Created by potrace 1.16, written by Peter Selinger 2001-2019
</metadata>
<g transform="translate(0.000000,95.000000) scale(0.100000,-0.100000)"
fill="#000000" stroke="none">
<path d="M78 903 c-29 -33 -39 -92 -27 -158 14 -71 37 -94 92 -95 30 0 95 -22
98 -33 0 -1 3 -128 5 -282 3 -154 9 -284 13 -288 14 -15 60 15 71 46 14 42 2
673 -14 707 -14 31 -57 52 -117 58 -37 3 -51 10 -68 33 -25 34 -32 35 -53 12z
m127 -153 c3 -5 -1 -10 -9 -10 -8 0 -18 5 -21 10 -3 6 1 10 9 10 8 0 18 -4 21
-10z"/>
</g>
</svg>
