<?xml version="1.0" standalone="no"?>
<!DOCTYPE svg PUBLIC "-//W3C//DTD SVG 20010904//EN"
 "http://www.w3.org/TR/2001/REC-SVG-20010904/DTD/svg10.dtd">
<svg version="1.0" xmlns="http://www.w3.org/2000/svg"
 width="106.000000pt" height="68.000000pt" viewBox="0 0 106.000000 68.000000"
 preserveAspectRatio="xMidYMid meet">
<metadata>
Created by potrace 1.16, written by Peter Selinger 2001-2019
</metadata>
<g transform="translate(0.000000,68.000000) scale(0.100000,-0.100000)"
fill="#000000" stroke="none">
<path d="M245 631 c-74 -18 -102 -49 -119 -132 -12 -62 -14 -64 -47 -69 -46
-7 -46 -33 1 -40 l35 -5 3 -133 c3 -139 -4 -172 -38 -172 -13 0 -20 -7 -20
-20 0 -20 5 -21 113 -18 92 2 112 6 112 18 0 8 -11 16 -25 18 -44 6 -50 25
-50 174 l0 138 45 0 c38 0 45 3 45 20 0 17 -7 20 -44 20 l-45 0 -3 53 c-3 53
14 107 34 107 6 0 25 -16 42 -36 28 -32 35 -35 53 -25 24 12 36 41 27 64 -4
12 -77 50 -87 46 -1 -1 -15 -4 -32 -8z M488 440 c-42 -13 -97 -59 -116 -99
-11 -23 -17 -59 -16 -101 1 -118 58 -186 167 -197 38 -4 62 -1 84 10 43 23 93
83 93 113 0 14 5 34 10 45 8 14 7 37 -1 80 -10 51 -18 65 -56 98 -25 22 -57
41 -76 43 -17 3 -39 7 -47 11 -8 3 -27 2 -42 -3z m96 -81 c22 -26 46 -104 46
-147 0 -28 -25 -90 -45 -112 -72 -80 -179 110 -134 240 13 35 58 61 91 52 10
-2 29 -17 42 -33z M910 430 c-24 -24 -40 -26 -40 -4 0 14 -7 15 -39 10 -46 -7
-102 -37 -98 -51 2 -5 12 -12 23 -14 30 -5 34 -19 34 -141 -1 -114 -10 -150
-39 -150 -6 0 -11 -7 -11 -15 0 -12 18 -15 101 -15 90 0 100 2 97 17 -2 10
-12 19 -23 22 -31 5 -35 19 -35 129 0 87 7 128 25 150 2 2 21 -2 44 -9 32 -10
43 -9 56 1 21 18 19 46 -7 70 -28 25 -62 26 -88 0z"/>
</g>
</svg>
