<?xml version="1.0" standalone="no"?>
<!DOCTYPE svg PUBLIC "-//W3C//DTD SVG 20010904//EN"
 "http://www.w3.org/TR/2001/REC-SVG-20010904/DTD/svg10.dtd">
<svg version="1.0" xmlns="http://www.w3.org/2000/svg"
 width="41.000000pt" height="68.000000pt" viewBox="0 0 41.000000 68.000000"
 preserveAspectRatio="xMidYMid meet">
<metadata>
Created by potrace 1.16, written by Peter Selinger 2001-2019
</metadata>
<g transform="translate(0.000000,68.000000) scale(0.100000,-0.100000)"
fill="#000000" stroke="none">
<path d="M140 622 c-45 -18 -85 -62 -96 -109 -10 -39 4 -39 41 -1 25 28 45 38
80 44 59 8 78 -7 77 -65 -1 -65 -10 -79 -63 -103 -64 -30 -66 -54 -4 -61 107
-11 152 -136 73 -202 -36 -30 -52 -31 -101 -5 -42 23 -77 26 -95 8 -38 -38 22
-83 109 -81 45 2 66 8 103 33 89 60 120 130 96 216 -7 25 -26 58 -42 74 -33
34 -34 37 -8 70 22 28 26 95 8 134 -25 56 -104 77 -178 48z"/>
</g>
</svg>
