<?xml version="1.0" standalone="no"?>
<!DOCTYPE svg PUBLIC "-//W3C//DTD SVG 20010904//EN"
 "http://www.w3.org/TR/2001/REC-SVG-20010904/DTD/svg10.dtd">
<svg version="1.0" xmlns="http://www.w3.org/2000/svg"
 width="150.000000pt" height="60.000000pt" viewBox="0 0 150.000000 60.000000"
 preserveAspectRatio="xMidYMid meet">
<metadata>
Created by potrace 1.16, written by Peter Selinger 2001-2019
</metadata>
<g transform="translate(0.000000,60.000000) scale(0.100000,-0.100000)"
fill="#000000" stroke="none">
<path d="M350 534 c-6 -14 -10 -47 -10 -73 0 -38 5 -52 21 -63 19 -12 20 -17
9 -58 -7 -27 -9 -68 -6 -102 l7 -58 -30 0 c-37 0 -41 -7 -48 -74 -5 -50 -4
-53 19 -58 13 -2 46 -2 73 1 39 5 52 11 63 31 14 28 11 87 -9 173 -12 54 -12
61 6 95 l20 37 76 3 c53 2 79 -1 87 -10 5 -7 13 -80 17 -162 7 -181 11 -190
55 -146 19 19 21 32 19 165 -2 258 -35 300 -231 294 -61 -3 -81 0 -96 14 -25
23 -31 22 -42 -9z M1279 533 c-14 -37 -5 -104 17 -120 10 -7 27 -13 38 -13 48
-1 51 -10 55 -180 2 -131 6 -163 18 -167 8 -3 22 2 31 11 15 14 16 41 14 219
-3 190 -4 203 -24 224 -14 15 -33 23 -54 23 -17 0 -37 7 -44 15 -19 23 -39 18
-51 -12z M53 528 c-5 -13 -7 -45 -5 -71 4 -44 7 -50 37 -62 17 -8 41 -12 52
-9 11 3 25 -1 32 -10 14 -17 4 -43 -31 -80 -23 -25 -20 -50 9 -54 40 -6 109
120 97 178 -17 76 -38 100 -91 100 -16 0 -38 7 -49 15 -27 20 -39 18 -51 -7z
M762 538 c-19 -19 -15 -105 6 -125 13 -14 17 -35 17 -88 0 -79 20 -208 39
-245 12 -24 15 -25 113 -25 94 0 103 2 127 24 14 14 26 30 26 38 0 7 19 48 41
90 81 151 93 179 97 229 4 46 2 53 -23 72 -15 12 -36 22 -46 22 -10 0 -21 5
-24 10 -12 19 -33 10 -45 -20 -12 -29 -30 -41 -30 -20 0 5 -12 13 -27 16 -16
4 -41 14 -56 23 -27 15 -29 15 -42 -3 -8 -10 -16 -24 -19 -30 -3 -7 -9 -4 -16
7 -7 11 -24 17 -50 17 -21 0 -42 5 -45 10 -8 14 -28 13 -43 -2z m349 -135 c46
-22 45 -20 24 -43 -10 -11 -23 -29 -29 -39 -6 -11 -24 -42 -40 -70 -24 -42
-36 -53 -68 -61 -21 -6 -42 -8 -47 -6 -10 7 9 69 46 149 22 46 30 56 46 51 13
-4 20 0 24 15 6 25 2 25 44 4z m-163 -19 c4 -30 -66 -180 -78 -168 -6 6 -15
35 -20 66 -12 66 -1 108 29 108 11 0 23 5 26 11 11 17 40 5 43 -17z"/>
</g>
</svg>
