<?xml version="1.0" standalone="no"?>
<!DOCTYPE svg PUBLIC "-//W3C//DTD SVG 20010904//EN"
 "http://www.w3.org/TR/2001/REC-SVG-20010904/DTD/svg10.dtd">
<svg version="1.0" xmlns="http://www.w3.org/2000/svg"
 width="87.000000pt" height="93.000000pt" viewBox="0 0 87.000000 93.000000"
 preserveAspectRatio="xMidYMid meet">
<metadata>
Created by potrace 1.16, written by Peter Selinger 2001-2019
</metadata>
<g transform="translate(0.000000,93.000000) scale(0.100000,-0.100000)"
fill="#000000" stroke="none">
<path d="M63 863 c-25 -38 -30 -150 -9 -191 9 -17 26 -36 37 -42 14 -8 18 -17
14 -28 -29 -68 -25 -136 19 -352 32 -155 39 -185 47 -194 4 -5 79 -8 165 -7
128 2 163 5 187 19 22 13 51 63 127 217 55 110 118 229 140 264 38 61 40 69
40 140 0 101 -12 121 -84 147 -32 11 -65 29 -72 38 -36 50 -91 -37 -81 -130 7
-68 29 -94 89 -109 23 -6 43 -15 45 -21 2 -6 -11 -26 -30 -45 -18 -19 -68 -90
-111 -159 -44 -69 -86 -129 -95 -135 -17 -11 -128 -24 -148 -17 -11 4 -10 15
7 57 23 57 83 205 97 240 25 59 33 67 64 61 41 -8 59 19 59 88 0 90 -18 110
-120 131 -48 10 -55 14 -52 33 4 31 -22 28 -47 -4 -12 -15 -26 -44 -31 -65
-13 -47 -23 -49 -35 -7 -11 36 -32 45 -107 47 -39 1 -50 5 -64 26 -21 32 -29
31 -51 -2z m137 -142 c0 -14 -32 -23 -43 -12 -5 5 -7 17 -3 26 4 13 10 14 26
5 11 -6 20 -15 20 -19z m255 -1 c0 -22 -39 -19 -43 3 -3 15 1 18 20 15 12 -2
23 -10 23 -18z m-135 -32 c0 -30 10 -44 38 -53 21 -6 23 -11 17 -42 -7 -36
-11 -49 -65 -173 -18 -41 -38 -90 -44 -107 -19 -56 -33 -42 -70 70 -20 60 -21
196 -3 222 9 12 27 18 53 19 36 1 39 3 42 31 2 17 5 36 7 43 7 20 25 13 25
-10z m1 -498 c24 -11 61 -20 81 -20 20 0 39 -4 42 -9 13 -20 -172 -29 -192 -9
-7 7 -12 22 -12 35 0 29 23 30 81 3z"/>
</g>
</svg>
