<?xml version="1.0" standalone="no"?>
<!DOCTYPE svg PUBLIC "-//W3C//DTD SVG 20010904//EN"
 "http://www.w3.org/TR/2001/REC-SVG-20010904/DTD/svg10.dtd">
<svg version="1.0" xmlns="http://www.w3.org/2000/svg"
 width="86.000000pt" height="90.000000pt" viewBox="0 0 86.000000 90.000000"
 preserveAspectRatio="xMidYMid meet">
<metadata>
Created by potrace 1.16, written by Peter Selinger 2001-2019
</metadata>
<g transform="translate(0.000000,90.000000) scale(0.100000,-0.100000)"
fill="#000000" stroke="none">
<path d="M55 830 c-9 -17 -15 -55 -15 -96 0 -64 2 -68 36 -101 34 -32 35 -35
24 -64 -17 -41 -15 -148 5 -239 24 -112 52 -235 62 -272 4 -16 21 -18 169 -18
189 0 183 -2 228 96 65 141 143 292 174 336 17 26 32 50 32 54 0 3 10 19 21
36 18 24 22 46 23 108 1 99 -17 129 -90 147 -27 7 -54 19 -60 28 -27 36 -68 2
-84 -72 -6 -26 -4 -51 8 -87 16 -49 19 -52 66 -63 72 -18 75 -26 30 -75 -43
-47 -154 -210 -154 -226 0 -5 -13 -24 -29 -41 -27 -29 -33 -31 -100 -31 -55 0
-71 3 -71 14 0 8 15 50 34 93 18 43 48 112 66 153 34 81 51 101 79 93 25 -6
41 18 48 75 4 41 2 57 -16 85 -18 29 -29 36 -82 47 -45 10 -63 18 -67 32 -2
10 -11 18 -18 18 -17 0 -52 -54 -61 -92 -6 -29 -23 -39 -23 -14 0 34 -34 56
-99 63 -44 4 -69 12 -80 25 -22 26 -38 22 -56 -12z m125 -120 c0 -5 -4 -10
-10 -10 -5 0 -10 5 -10 10 0 6 5 10 10 10 6 0 10 -4 10 -10z m260 -10 c0 -5
-7 -10 -15 -10 -8 0 -15 5 -15 10 0 6 7 10 15 10 8 0 15 -4 15 -10z m-126 -33
c4 -22 16 -39 36 -50 17 -10 30 -22 30 -27 0 -14 -29 -86 -68 -170 -19 -41
-41 -90 -48 -107 -8 -18 -19 -33 -25 -33 -23 0 -61 111 -66 193 -5 105 7 131
62 135 45 4 55 14 55 60 0 42 16 41 24 -1z m-2 -482 c29 -14 67 -25 85 -25 17
0 34 -4 37 -9 13 -20 -140 -29 -175 -11 -18 10 -26 50 -12 63 8 9 4 10 65 -18z"/>
</g>
</svg>
