<?xml version="1.0" standalone="no"?>
<!DOCTYPE svg PUBLIC "-//W3C//DTD SVG 20010904//EN"
 "http://www.w3.org/TR/2001/REC-SVG-20010904/DTD/svg10.dtd">
<svg version="1.0" xmlns="http://www.w3.org/2000/svg"
 width="230.000000pt" height="85.000000pt" viewBox="0 0 230.000000 85.000000"
 preserveAspectRatio="xMidYMid meet">
<metadata>
Created by potrace 1.16, written by Peter Selinger 2001-2019
</metadata>
<g transform="translate(0.000000,85.000000) scale(0.100000,-0.100000)"
fill="#000000" stroke="none">
<path d="M1700 790 c-51 -20 -67 -50 -26 -50 14 0 27 -4 30 -8 4 -6 9 -362 7
-440 -1 -14 -10 -26 -26 -32 -14 -5 -25 -17 -25 -25 0 -13 15 -15 97 -13 100
3 131 18 79 38 -31 11 -30 6 -34 388 l-2 162 -27 -1 c-16 -1 -48 -9 -73 -19z
M458 777 c-55 -18 -79 -47 -40 -47 40 -1 42 -9 48 -234 5 -197 4 -220 -12
-237 -9 -10 -23 -19 -31 -19 -7 0 -13 -7 -13 -15 0 -12 18 -15 100 -15 83 0
100 3 100 15 0 9 -11 20 -25 25 -19 7 -25 17 -26 42 0 18 -3 134 -5 258 -2
124 -6 231 -9 238 -6 15 -16 14 -87 -11z M1545 610 c-35 -18 -40 -18 -48 -4
-6 11 -17 13 -40 8 -79 -17 -125 -59 -74 -66 21 -3 22 -8 27 -114 3 -62 3
-125 0 -140 -6 -32 -40 -47 -40 -19 0 12 -6 16 -20 12 -11 -3 -22 -1 -25 3 -3
5 -7 60 -10 122 -4 123 -12 153 -43 182 -27 23 -95 31 -149 17 -68 -19 -116
-94 -81 -129 29 -29 78 3 78 52 0 19 7 29 23 35 43 16 77 -12 77 -66 0 -20 -5
-33 -12 -33 -24 0 -123 -51 -151 -78 -15 -14 -32 -44 -38 -65 -9 -35 -8 -43
15 -77 35 -54 84 -60 148 -21 l47 29 16 -24 c11 -17 25 -24 49 -24 18 0 36 3
39 7 4 3 59 5 123 4 107 -2 116 -1 112 16 -2 10 -12 19 -23 21 -11 2 -24 8
-29 12 -5 5 -11 60 -13 122 -3 98 -1 116 15 136 17 22 19 22 47 8 38 -20 50
-20 69 0 23 22 20 41 -10 69 -32 30 -30 30 -79 5z m-317 -247 c-2 -30 -7 -58
-13 -62 -16 -13 -62 -22 -79 -15 -20 7 -30 58 -17 82 12 22 90 64 103 56 5 -3
8 -31 6 -61z M774 609 c-44 -10 -96 -54 -121 -103 -20 -39 -11 -184 14 -227
52 -88 178 -102 250 -27 49 52 81 128 53 128 -6 0 -30 -20 -53 -45 -34 -35
-51 -45 -76 -45 -68 0 -111 45 -114 120 l-2 32 105 -1 c58 -1 111 3 119 8 9 6
11 18 6 42 -13 59 -35 90 -78 110 -47 21 -46 21 -103 8z m65 -75 c11 -15 18
-30 15 -35 -3 -5 -34 -9 -69 -9 -59 0 -63 1 -58 20 7 26 41 50 69 50 13 0 32
-12 43 -26z M1880 604 c0 -6 14 -26 30 -44 17 -18 30 -38 30 -45 0 -12 15 -44
86 -187 31 -61 32 -126 3 -162 -19 -24 -26 -27 -59 -21 -31 5 -43 2 -59 -14
-26 -26 -26 -46 -1 -71 24 -24 39 -25 83 -6 59 25 78 57 142 236 82 229 106
290 116 290 5 0 9 9 9 20 0 18 -7 20 -55 20 -48 0 -55 -3 -55 -19 0 -11 5 -21
12 -23 14 -5 -42 -190 -60 -196 -7 -2 -12 4 -12 13 0 9 -16 46 -35 84 -41 79
-42 85 -14 105 38 26 13 37 -77 35 -58 -2 -84 -6 -84 -15z M180 602 c-50 -14
-86 -41 -110 -84 -35 -61 -36 -184 -2 -243 34 -59 115 -93 175 -73 64 21 145
124 119 150 -10 10 -18 6 -38 -19 -54 -70 -144 -61 -183 19 -26 55 -27 107 -1
158 37 72 86 76 120 11 23 -46 45 -57 76 -36 56 36 4 113 -82 120 -27 2 -60 1
-74 -3z M170 455 c0 -8 5 -15 10 -15 6 0 10 7 10 15 0 8 -4 15 -10 15 -5 0
-10 -7 -10 -15z M250 440 c0 -5 5 -10 10 -10 6 0 10 5 10 10 0 6 -4 10 -10 10
-5 0 -10 -4 -10 -10z"/>
</g>
</svg>
