<?xml version="1.0" standalone="no"?>
<!DOCTYPE svg PUBLIC "-//W3C//DTD SVG 20010904//EN"
 "http://www.w3.org/TR/2001/REC-SVG-20010904/DTD/svg10.dtd">
<svg version="1.0" xmlns="http://www.w3.org/2000/svg"
 width="87.000000pt" height="93.000000pt" viewBox="0 0 87.000000 93.000000"
 preserveAspectRatio="xMidYMid meet">
<metadata>
Created by potrace 1.16, written by Peter Selinger 2001-2019
</metadata>
<g transform="translate(0.000000,93.000000) scale(0.100000,-0.100000)"
fill="#000000" stroke="none">
<path d="M59 858 c-8 -19 -14 -68 -14 -116 0 -75 2 -86 23 -102 12 -10 26 -20
31 -22 6 -2 3 -27 -5 -58 -17 -61 -14 -98 16 -255 11 -55 25 -127 31 -160 20
-113 6 -105 184 -105 202 0 199 -2 266 138 98 204 149 305 158 312 13 11 52
71 62 97 12 31 15 160 4 192 -7 22 -62 51 -97 51 -10 0 -29 11 -42 25 -13 14
-28 25 -33 25 -16 0 -51 -73 -54 -115 -7 -88 17 -122 98 -140 18 -3 35 -10 38
-15 9 -14 -5 -37 -31 -51 -14 -7 -33 -27 -41 -44 -9 -16 -40 -67 -69 -111 -30
-45 -54 -84 -54 -88 0 -3 -15 -20 -32 -36 -30 -26 -40 -29 -100 -30 -37 0 -69
4 -73 9 -3 6 8 38 24 73 16 35 38 86 49 113 11 28 32 76 47 108 26 55 29 57
66 57 21 0 41 5 45 12 4 6 7 41 6 76 -1 81 -15 98 -103 122 -51 13 -65 21 -67
38 -4 28 -13 28 -40 0 -24 -27 -42 -70 -42 -104 0 -13 -4 -24 -10 -24 -5 0
-10 9 -10 21 0 49 -44 79 -119 79 -42 0 -54 7 -70 38 -16 30 -26 28 -42 -10z
m124 -143 c-4 -15 -26 -12 -31 3 -3 9 2 13 14 10 11 -2 18 -8 17 -13z m267 -5
c0 -14 -15 -19 -29 -10 -17 10 -5 31 14 23 8 -3 15 -9 15 -13z m-132 -44 c3
-21 12 -31 33 -39 16 -6 29 -17 29 -23 0 -12 -64 -174 -111 -281 -13 -29 -26
-53 -30 -53 -4 0 -15 21 -25 48 -10 26 -22 53 -28 61 -6 7 -12 57 -14 111 -4
96 -4 98 21 114 16 11 34 15 50 11 29 -8 47 16 47 60 0 36 24 27 28 -9z m2
-486 c28 -11 66 -20 85 -20 19 0 35 -4 35 -9 0 -12 -52 -21 -120 -21 -61 0
-98 24 -87 55 8 20 26 19 87 -5z"/>
</g>
</svg>
