<?xml version="1.0" standalone="no"?>
<!DOCTYPE svg PUBLIC "-//W3C//DTD SVG 20010904//EN"
 "http://www.w3.org/TR/2001/REC-SVG-20010904/DTD/svg10.dtd">
<svg version="1.0" xmlns="http://www.w3.org/2000/svg"
 width="47.000000pt" height="67.000000pt" viewBox="0 0 47.000000 67.000000"
 preserveAspectRatio="xMidYMid meet">
<metadata>
Created by potrace 1.16, written by Peter Selinger 2001-2019
</metadata>
<g transform="translate(0.000000,67.000000) scale(0.100000,-0.100000)"
fill="#000000" stroke="none">
<path d="M171 614 c-88 -27 -126 -98 -99 -185 13 -45 46 -74 148 -133 78 -46
110 -81 110 -121 0 -39 -8 -50 -50 -67 -65 -27 -143 10 -180 87 -43 88 -70 44
-45 -73 8 -40 15 -75 15 -78 0 -10 29 -3 32 8 4 10 19 9 71 -1 99 -20 156 -9
205 40 68 66 70 159 4 221 -38 36 -144 110 -174 121 -19 7 -42 40 -52 74 -8
27 27 63 61 63 57 0 114 -39 148 -102 9 -16 23 -28 32 -28 14 0 15 11 9 83 -8
92 -15 105 -48 91 -21 -9 -93 -4 -128 8 -8 4 -35 0 -59 -8z"/>
</g>
</svg>
