<?xml version="1.0" standalone="no"?>
<!DOCTYPE svg PUBLIC "-//W3C//DTD SVG 20010904//EN"
 "http://www.w3.org/TR/2001/REC-SVG-20010904/DTD/svg10.dtd">
<svg version="1.0" xmlns="http://www.w3.org/2000/svg"
 width="73.000000pt" height="98.000000pt" viewBox="0 0 73.000000 98.000000"
 preserveAspectRatio="xMidYMid meet">
<metadata>
Created by potrace 1.16, written by Peter Selinger 2001-2019
</metadata>
<g transform="translate(0.000000,98.000000) scale(0.100000,-0.100000)"
fill="#000000" stroke="none">
<path d="M409 903 c-17 -27 -23 -52 -23 -90 2 -72 21 -99 89 -118 35 -11 55
-22 55 -31 0 -17 -26 -70 -44 -94 -14 -17 -69 -147 -86 -202 -15 -49 -30 -49
-30 0 0 29 -15 58 -70 141 -80 119 -91 161 -41 161 26 0 32 6 46 45 15 39 16
51 5 90 -15 52 -50 79 -120 89 -24 4 -52 14 -62 23 -40 36 -84 -24 -80 -110 3
-76 12 -92 67 -116 l45 -20 -6 -68 c-7 -86 9 -126 81 -202 125 -132 105 -181
-80 -198 l-90 -8 -3 -89 c-2 -49 1 -93 6 -98 4 -4 21 -4 38 1 16 5 49 14 74
21 77 22 224 71 245 83 49 26 73 84 101 251 25 150 49 209 118 300 38 50 54
123 37 168 -13 33 -25 40 -86 51 -27 4 -64 10 -82 13 -17 4 -39 15 -49 25 -24
26 -29 24 -55 -18z m-209 -129 c0 -8 -4 -14 -9 -14 -12 0 -32 26 -25 33 10 9
34 -4 34 -19z m361 16 c5 0 9 -7 9 -15 0 -8 -4 -15 -9 -15 -21 0 -41 13 -41
27 0 10 6 13 16 9 9 -3 20 -6 25 -6z"/>
</g>
</svg>
