<?xml version="1.0" standalone="no"?>
<!DOCTYPE svg PUBLIC "-//W3C//DTD SVG 20010904//EN"
 "http://www.w3.org/TR/2001/REC-SVG-20010904/DTD/svg10.dtd">
<svg version="1.0" xmlns="http://www.w3.org/2000/svg"
 width="316.000000pt" height="88.000000pt" viewBox="0 0 316.000000 88.000000"
 preserveAspectRatio="xMidYMid meet">
<metadata>
Created by potrace 1.16, written by Peter Selinger 2001-2019
</metadata>
<g transform="translate(0.000000,88.000000) scale(0.100000,-0.100000)"
fill="#000000" stroke="none">
<path d="M2973 819 c-56 -21 -71 -49 -29 -49 15 0 27 -7 30 -17 6 -20 3 -123
-3 -123 -3 0 -19 5 -37 12 -42 15 -97 -1 -141 -41 -49 -45 -61 -70 -68 -143
-9 -84 13 -156 59 -189 41 -31 111 -41 155 -23 23 10 38 11 46 4 13 -11 54 -2
103 24 35 18 43 46 13 46 -11 0 -22 4 -25 8 -2 4 -6 102 -7 218 -4 268 -6 294
-28 293 -9 0 -40 -9 -68 -20z m-24 -242 c18 -20 23 -40 28 -124 7 -115 -1
-138 -48 -145 -80 -12 -131 74 -114 188 13 89 85 132 134 81z M1295 818 c-16
-6 -35 -15 -42 -20 -19 -15 -54 -98 -57 -137 -3 -31 -8 -37 -32 -41 -37 -7
-38 -34 -1 -38 20 -3 27 -9 28 -25 7 -245 7 -262 -9 -279 -8 -10 -21 -18 -29
-18 -7 0 -13 -7 -13 -15 0 -13 17 -15 112 -13 78 2 113 7 116 16 2 7 -6 12
-21 12 -50 0 -59 26 -61 177 l-1 138 48 3 c39 3 47 6 47 23 0 15 -7 19 -39 19
-50 0 -63 16 -57 76 8 92 24 103 71 54 44 -46 85 -35 85 21 0 47 -76 71 -145
47z M2488 636 c-62 -22 -85 -42 -113 -101 -25 -50 -27 -63 -21 -121 7 -71 36
-129 78 -156 38 -25 107 -32 148 -15 63 27 143 157 96 157 -7 0 -25 -16 -40
-35 -31 -41 -80 -54 -127 -34 -23 9 -38 27 -55 63 -13 28 -24 57 -24 64 0 13
4 14 135 12 50 0 95 3 102 8 15 9 3 71 -21 107 -31 48 -102 70 -158 51z m70
-73 c25 -35 11 -48 -53 -48 -68 0 -80 15 -44 54 17 18 28 22 53 17 17 -4 37
-14 44 -23z M1546 625 c-55 -19 -100 -68 -121 -129 -16 -48 -17 -59 -4 -115
18 -84 59 -132 127 -149 43 -11 55 -11 88 3 50 21 81 50 105 99 34 70 18 76
-47 16 -50 -46 -82 -51 -132 -20 -35 21 -65 78 -60 112 3 19 10 20 103 20 132
-2 139 1 130 45 -10 55 -26 81 -60 102 -47 27 -85 32 -129 16z m70 -70 c14
-14 24 -31 21 -38 -5 -15 -129 -16 -134 -1 -2 6 6 23 17 37 27 34 63 35 96 2z
M1828 617 c-62 -22 -74 -43 -33 -53 l26 -6 -3 -137 c-3 -130 -4 -136 -25 -146
-61 -26 7 -45 130 -37 63 5 77 23 29 40 -25 8 -30 17 -35 57 -14 99 -8 180 14
209 19 24 22 25 42 11 28 -20 63 -19 71 1 4 10 15 14 33 12 l28 -3 3 -136 c3
-136 3 -136 -23 -153 -14 -9 -25 -21 -25 -27 0 -15 202 -7 207 8 3 7 -7 15
-22 19 -36 9 -45 39 -45 148 0 79 3 97 21 120 19 25 22 25 49 11 32 -17 56
-11 71 16 28 53 -68 96 -108 49 -20 -24 -33 -26 -33 -6 0 26 -19 27 -80 5
l-61 -22 -22 22 c-29 26 -57 27 -90 1 -14 -11 -27 -20 -30 -20 -3 0 -7 9 -10
20 -6 24 -6 24 -79 -3z M231 609 c-39 -17 -45 -18 -55 -3 -10 13 -18 14 -58 4
-40 -10 -90 -45 -77 -53 2 -1 13 -7 24 -13 19 -11 20 -23 23 -227 2 -223 1
-235 -40 -250 -47 -16 97 -36 167 -23 39 8 43 29 6 34 -28 4 -43 42 -39 101 2
36 6 45 18 41 8 -2 37 -4 64 -3 96 3 169 99 170 223 0 54 -5 72 -27 107 -47
74 -103 93 -176 62z m71 -82 c39 -43 64 -166 38 -182 -5 -3 -10 -15 -10 -25 0
-49 -81 -77 -128 -44 -21 14 -22 23 -22 129 0 106 1 115 22 129 33 23 76 20
100 -7z M638 608 c-20 -20 -22 -20 -34 -4 -14 19 -48 16 -111 -10 -36 -14 -44
-34 -14 -34 11 0 23 -5 27 -11 4 -6 9 -68 12 -137 l5 -126 -28 -22 c-38 -30
-25 -42 42 -39 32 2 75 3 96 4 26 1 37 6 37 16 0 8 -6 15 -13 15 -8 0 -21 8
-30 18 -14 15 -17 40 -17 129 0 95 3 112 19 127 18 16 21 16 51 1 30 -15 33
-15 51 1 26 24 24 49 -7 73 -34 27 -58 27 -86 -1z M891 618 c-52 -15 -76 -34
-104 -86 -29 -55 -34 -88 -23 -157 11 -76 51 -126 114 -147 38 -12 60 -14 86
-7 40 11 97 61 120 106 32 64 13 85 -31 33 -14 -17 -39 -38 -55 -46 -28 -14
-34 -14 -74 1 -34 13 -47 25 -63 59 -12 23 -21 52 -21 64 0 21 3 22 120 22
l120 0 0 25 c0 53 -30 103 -74 125 -46 22 -64 23 -115 8z m45 -44 c20 -5 44
-41 44 -64 0 -6 -29 -10 -65 -10 -73 0 -84 14 -43 57 23 24 30 26 64 17z"/>
</g>
</svg>
