<?xml version="1.0" standalone="no"?>
<!DOCTYPE svg PUBLIC "-//W3C//DTD SVG 20010904//EN"
 "http://www.w3.org/TR/2001/REC-SVG-20010904/DTD/svg10.dtd">
<svg version="1.0" xmlns="http://www.w3.org/2000/svg"
 width="68.000000pt" height="96.000000pt" viewBox="0 0 68.000000 96.000000"
 preserveAspectRatio="xMidYMid meet">
<metadata>
Created by potrace 1.16, written by Peter Selinger 2001-2019
</metadata>
<g transform="translate(0.000000,96.000000) scale(0.100000,-0.100000)"
fill="#000000" stroke="none">
<path d="M82 900 c-43 -46 -34 -197 13 -238 27 -22 33 -23 176 -21 109 2 152
-1 163 -10 53 -44 42 -321 -14 -356 -8 -5 -89 -9 -286 -14 l-51 -1 -11 -42
c-31 -118 -36 -159 -22 -168 17 -11 532 -2 543 9 11 11 47 147 47 177 0 26
-17 34 -76 34 -43 0 -56 13 -35 36 16 17 44 157 45 223 1 149 -28 289 -66 316
-18 12 -55 15 -190 15 l-167 0 -16 30 c-18 35 -28 37 -53 10z m354 -147 c17
-17 12 -18 -102 -21 -132 -3 -164 1 -164 23 0 12 21 15 124 15 105 0 127 -3
142 -17z m65 -553 c23 -13 25 -46 3 -54 -9 -3 -88 -6 -176 -6 -123 0 -159 3
-156 13 3 8 39 15 102 20 80 6 130 15 204 36 2 1 12 -4 23 -9z"/>
</g>
</svg>
