<?xml version="1.0" standalone="no"?>
<!DOCTYPE svg PUBLIC "-//W3C//DTD SVG 20010904//EN"
 "http://www.w3.org/TR/2001/REC-SVG-20010904/DTD/svg10.dtd">
<svg version="1.0" xmlns="http://www.w3.org/2000/svg"
 width="182.000000pt" height="68.000000pt" viewBox="0 0 182.000000 68.000000"
 preserveAspectRatio="xMidYMid meet">
<metadata>
Created by potrace 1.16, written by Peter Selinger 2001-2019
</metadata>
<g transform="translate(0.000000,68.000000) scale(0.100000,-0.100000)"
fill="#000000" stroke="none">
<path d="M1625 630 c-52 -19 -66 -43 -29 -48 13 -2 25 -13 28 -25 8 -30 7 -80
-2 -92 -4 -5 -37 -10 -74 -10 -63 0 -69 -2 -103 -35 -55 -52 -67 -84 -68 -169
-1 -86 23 -148 69 -177 38 -26 118 -30 151 -9 25 17 27 17 39 1 11 -16 17 -15
78 15 65 32 78 51 40 57 -10 2 -22 7 -26 11 -4 3 -8 105 -8 226 -1 121 -4 232
-7 248 -6 32 -18 33 -88 7z m-21 -241 c25 -29 26 -37 26 -140 l0 -109 -27 -11
c-39 -15 -92 0 -117 34 -30 41 -31 184 -1 217 42 47 84 51 119 9z M40 601 c0
-12 9 -20 29 -24 16 -4 32 -14 35 -24 10 -36 16 -411 7 -436 -6 -15 -19 -27
-33 -29 -12 -2 -24 -11 -26 -20 -4 -20 -8 -19 198 -20 218 -1 261 2 264 15 2
6 10 36 19 65 25 87 -3 113 -47 44 -36 -57 -78 -73 -178 -70 l-83 3 -6 45 c-3
25 -4 73 -1 108 l5 62 66 0 c86 0 110 -7 117 -36 9 -34 30 -49 49 -34 15 12
15 23 6 188 -2 25 -38 12 -52 -20 -12 -28 -21 -34 -59 -41 -25 -4 -65 -6 -90
-5 l-45 3 0 95 0 95 84 3 c100 4 132 -7 155 -54 25 -53 41 -38 41 37 l0 64
-227 3 c-218 2 -228 2 -228 -17z M1056 431 c-64 -50 -80 -85 -80 -171 1 -57 6
-85 22 -117 24 -46 69 -83 102 -83 12 0 30 -4 40 -10 12 -7 33 -5 68 5 125 37
180 214 102 328 -32 47 -72 66 -148 72 -63 6 -69 4 -106 -24z m150 -43 c52
-59 67 -161 35 -234 -12 -26 -27 -52 -34 -56 -47 -30 -116 28 -137 116 -17 72
-9 140 21 172 30 32 87 33 115 2z M574 435 c-4 -9 6 -25 25 -40 16 -15 47 -53
67 -86 32 -53 34 -62 22 -77 -8 -9 -20 -30 -28 -46 -8 -16 -34 -49 -57 -73
-24 -24 -43 -48 -43 -54 0 -6 25 -9 63 -7 l62 3 0 35 c0 32 31 100 46 100 3 0
20 -20 37 -43 28 -40 29 -45 15 -59 -8 -9 -12 -21 -9 -27 9 -13 152 -15 161
-2 3 5 -17 33 -45 62 -27 29 -50 59 -50 68 0 9 -12 34 -27 56 l-26 39 29 54
c16 30 41 60 57 69 42 21 28 38 -36 41 -46 2 -59 0 -64 -14 -3 -9 0 -20 7 -24
11 -7 10 -13 -4 -34 -21 -33 -30 -33 -45 0 -10 22 -9 28 5 39 32 23 5 35 -77
35 -61 0 -81 -3 -85 -15z"/>
</g>
</svg>
