<?xml version="1.0" standalone="no"?>
<!DOCTYPE svg PUBLIC "-//W3C//DTD SVG 20010904//EN"
 "http://www.w3.org/TR/2001/REC-SVG-20010904/DTD/svg10.dtd">
<svg version="1.0" xmlns="http://www.w3.org/2000/svg"
 width="126.000000pt" height="68.000000pt" viewBox="0 0 126.000000 68.000000"
 preserveAspectRatio="xMidYMid meet">
<metadata>
Created by potrace 1.16, written by Peter Selinger 2001-2019
</metadata>
<g transform="translate(0.000000,68.000000) scale(0.100000,-0.100000)"
fill="#000000" stroke="none">
<path d="M1120 634 c-70 -23 -100 -38 -100 -49 0 -8 10 -15 23 -17 20 -3 22
-9 25 -65 3 -66 1 -70 -43 -53 -42 16 -102 -5 -146 -51 -21 -22 -40 -47 -42
-57 -29 -109 -29 -108 -13 -164 25 -83 82 -128 164 -128 21 0 47 7 59 15 14
10 24 12 28 5 10 -16 46 -11 94 13 51 25 62 44 30 49 -14 2 -25 12 -29 28 -4
14 -8 124 -9 244 -1 121 -4 223 -7 228 -6 9 -11 9 -34 2z m-75 -249 c20 -19
25 -35 26 -77 1 -29 2 -71 3 -93 4 -65 -3 -83 -36 -94 -39 -14 -93 10 -112 48
-36 71 -26 173 21 217 33 31 67 30 98 -1z M161 441 c-8 -5 -19 -7 -25 -5 -13
5 -70 -44 -79 -69 -11 -29 10 -67 37 -67 29 0 43 16 48 54 4 36 26 51 62 42
28 -7 50 -47 41 -75 -2 -9 -39 -31 -80 -50 -42 -19 -84 -45 -95 -58 -29 -37
-35 -85 -16 -121 30 -58 84 -67 153 -28 l41 24 23 -24 c30 -32 69 -31 103 3
31 31 29 47 -6 51 l-26 3 -3 123 c-3 95 -8 128 -22 149 -29 44 -118 72 -156
48z m89 -240 c0 -57 -1 -60 -32 -75 -40 -21 -43 -20 -68 6 -24 26 -20 63 8 85
18 15 72 42 85 43 4 0 7 -27 7 -59z M605 443 c-11 -3 -30 -14 -42 -25 -21 -20
-21 -20 -28 1 -8 26 -46 27 -94 3 -41 -20 -50 -39 -24 -49 30 -11 33 -23 33
-144 0 -103 -2 -118 -20 -134 -40 -36 -26 -45 65 -45 91 0 104 9 65 43 -18 15
-20 29 -20 137 l0 119 31 17 c42 21 78 6 80 -33 9 -172 7 -204 -18 -233 -13
-16 -22 -33 -19 -38 3 -5 42 -8 88 -8 68 1 83 4 86 17 2 10 -5 19 -18 22 -18
5 -20 13 -20 93 0 120 -16 207 -44 233 -23 22 -68 33 -101 24z"/>
</g>
</svg>
