<?xml version="1.0" standalone="no"?>
<!DOCTYPE svg PUBLIC "-//W3C//DTD SVG 20010904//EN"
 "http://www.w3.org/TR/2001/REC-SVG-20010904/DTD/svg10.dtd">
<svg version="1.0" xmlns="http://www.w3.org/2000/svg"
 width="41.000000pt" height="67.000000pt" viewBox="0 0 41.000000 67.000000"
 preserveAspectRatio="xMidYMid meet">
<metadata>
Created by potrace 1.16, written by Peter Selinger 2001-2019
</metadata>
<g transform="translate(0.000000,67.000000) scale(0.100000,-0.100000)"
fill="#000000" stroke="none">
<path d="M143 619 c-38 -11 -91 -61 -99 -95 -10 -38 3 -41 39 -7 17 17 48 36
68 43 33 12 39 11 68 -9 17 -13 31 -32 32 -44 4 -71 -16 -104 -83 -138 -52
-26 -49 -45 7 -51 58 -7 93 -31 112 -75 13 -33 13 -40 -4 -86 -15 -41 -24 -52
-55 -64 -35 -14 -40 -13 -97 12 -67 30 -91 25 -91 -20 0 -49 136 -58 221 -14
115 58 141 206 53 295 l-35 35 25 30 c34 40 41 70 26 114 -23 71 -96 100 -187
74z"/>
</g>
</svg>
