<?xml version="1.0" standalone="no"?>
<!DOCTYPE svg PUBLIC "-//W3C//DTD SVG 20010904//EN"
 "http://www.w3.org/TR/2001/REC-SVG-20010904/DTD/svg10.dtd">
<svg version="1.0" xmlns="http://www.w3.org/2000/svg"
 width="74.000000pt" height="93.000000pt" viewBox="0 0 74.000000 93.000000"
 preserveAspectRatio="xMidYMid meet">
<metadata>
Created by potrace 1.16, written by Peter Selinger 2001-2019
</metadata>
<g transform="translate(0.000000,93.000000) scale(0.100000,-0.100000)"
fill="#000000" stroke="none">
<path d="M452 878 c-5 -7 -15 -40 -22 -72 -19 -93 1 -137 73 -160 17 -5 16
-10 -12 -45 -17 -21 -31 -43 -31 -49 0 -5 -7 -15 -15 -22 -13 -11 -21 -6 -53
30 -20 24 -53 62 -73 84 -82 92 -169 201 -169 212 0 18 -31 26 -48 12 -23 -20
-62 -86 -62 -107 0 -35 30 -91 85 -156 30 -35 55 -70 55 -76 0 -6 -22 -35 -49
-65 -71 -78 -77 -140 -25 -246 31 -61 30 -73 -7 -107 -24 -22 -29 -34 -24 -50
6 -21 12 -22 108 -19 l102 3 14 44 c17 55 8 86 -56 185 -40 62 -45 75 -40 114
5 48 25 76 48 67 8 -3 25 -21 39 -40 14 -18 59 -74 100 -123 76 -91 92 -111
155 -194 20 -27 44 -48 54 -48 45 0 109 86 94 127 -6 17 -58 88 -153 208 -22
28 -40 57 -40 65 1 57 92 173 128 163 27 -7 43 19 49 79 9 92 -20 130 -111
147 -30 5 -53 17 -62 30 -17 24 -37 27 -52 9z"/>
</g>
</svg>
