<?xml version="1.0" standalone="no"?>
<!DOCTYPE svg PUBLIC "-//W3C//DTD SVG 20010904//EN"
 "http://www.w3.org/TR/2001/REC-SVG-20010904/DTD/svg10.dtd">
<svg version="1.0" xmlns="http://www.w3.org/2000/svg"
 width="196.000000pt" height="94.000000pt" viewBox="0 0 196.000000 94.000000"
 preserveAspectRatio="xMidYMid meet">
<metadata>
Created by potrace 1.16, written by Peter Selinger 2001-2019
</metadata>
<g transform="translate(0.000000,94.000000) scale(0.100000,-0.100000)"
fill="#000000" stroke="none">
<path d="M146 860 c-9 -22 -16 -69 -16 -104 0 -55 4 -69 26 -95 14 -17 34 -31
45 -31 25 0 24 -8 -6 -64 -29 -55 -32 -92 -16 -209 6 -48 9 -92 6 -97 -4 -6
-26 -10 -51 -10 -37 0 -46 -4 -54 -22 -15 -38 -41 -169 -35 -179 4 -5 58 -9
120 -9 109 0 115 1 130 24 32 49 35 223 4 262 -24 29 -26 182 -3 227 37 73 46
77 171 77 108 0 115 -1 138 -25 15 -14 25 -36 25 -52 0 -177 14 -490 21 -498
13 -14 60 14 77 45 10 19 11 80 7 268 -8 341 -15 370 -92 435 -50 42 -84 48
-243 43 -144 -4 -169 0 -181 30 -6 16 -16 24 -33 24 -19 0 -27 -9 -40 -40z
m397 -114 c37 -17 13 -26 -66 -26 -46 0 -106 -7 -133 -15 -67 -20 -81 -19
-100 10 -28 43 -13 48 140 43 77 -3 149 -8 159 -12z m-329 -591 c-6 -16 -34
-21 -34 -7 0 13 11 22 26 22 8 0 11 -6 8 -15z M1155 892 c-18 -12 -35 -85 -35
-147 0 -53 3 -60 35 -91 32 -30 35 -36 24 -56 -18 -33 -16 -142 5 -248 10 -52
22 -99 27 -105 4 -5 11 -43 14 -82 4 -40 13 -80 19 -89 10 -13 37 -15 167 -16
215 0 199 -11 309 217 49 100 108 211 131 245 56 82 70 139 58 227 -5 37 -15
71 -22 75 -6 4 -34 15 -62 23 -27 9 -57 25 -66 36 -13 18 -20 19 -36 10 -20
-10 -53 -77 -53 -106 0 -19 -16 -19 -23 0 -8 20 -73 51 -124 60 -37 6 -43 10
-43 31 0 27 -3 28 -30 14 -21 -11 -50 -64 -50 -91 0 -29 -15 -29 -28 0 -14 31
-60 51 -120 51 -33 0 -45 5 -58 25 -17 27 -23 29 -39 17z m120 -145 c22 -17
12 -37 -20 -37 -26 0 -42 29 -23 42 18 11 21 10 43 -5z m265 -12 c14 -17 5
-35 -19 -35 -20 0 -41 19 -41 37 0 18 45 17 60 -2z m143 -40 c18 -38 18 -38
85 -55 51 -13 56 -38 12 -63 -16 -10 -35 -28 -41 -40 -23 -43 -157 -243 -172
-255 -10 -9 -39 -12 -84 -10 -78 3 -79 5 -38 93 13 28 40 91 61 140 46 110 56
123 92 117 37 -5 55 17 55 68 0 49 8 51 30 5z m-281 -12 c2 -19 12 -32 31 -41
16 -8 27 -21 27 -33 0 -10 -25 -76 -56 -147 -30 -70 -58 -135 -61 -144 -3 -10
-9 -18 -14 -18 -11 0 -37 51 -55 109 -15 48 -19 178 -6 197 14 22 47 33 65 22
23 -12 46 15 47 55 0 35 18 35 22 0z m0 -478 c31 -14 72 -25 98 -25 42 -1 44
-2 26 -15 -14 -10 -45 -15 -103 -15 -76 0 -84 2 -98 24 -17 25 -11 56 10 56 7
0 37 -11 67 -25z M812 857 c-19 -22 -34 -116 -27 -163 3 -24 16 -56 29 -70 19
-23 31 -27 84 -28 79 -1 96 -16 81 -69 -6 -21 -18 -46 -27 -55 -53 -54 -62
-104 -22 -117 62 -20 149 121 166 269 6 48 3 63 -22 112 -32 64 -50 74 -130
74 -49 0 -55 3 -64 25 -5 14 -14 25 -19 25 -5 0 -16 2 -24 5 -7 3 -19 0 -25
-8z m48 -72 c8 -10 30 -15 64 -15 28 0 62 -6 76 -13 46 -23 73 -114 54 -184
-9 -31 -24 -29 -24 3 0 40 -36 63 -97 64 -76 0 -101 12 -109 55 -7 39 2 105
15 105 5 0 14 -7 21 -15z"/>
</g>
</svg>
