<?xml version="1.0" standalone="no"?>
<!DOCTYPE svg PUBLIC "-//W3C//DTD SVG 20010904//EN"
 "http://www.w3.org/TR/2001/REC-SVG-20010904/DTD/svg10.dtd">
<svg version="1.0" xmlns="http://www.w3.org/2000/svg"
 width="50.000000pt" height="60.000000pt" viewBox="0 0 50.000000 60.000000"
 preserveAspectRatio="xMidYMid meet">
<metadata>
Created by potrace 1.16, written by Peter Selinger 2001-2019
</metadata>
<g transform="translate(0.000000,60.000000) scale(0.100000,-0.100000)"
fill="#000000" stroke="none">
<path d="M95 524 c-18 -44 -7 -109 23 -130 19 -13 19 -16 5 -44 -10 -21 -14
-52 -11 -98 l3 -66 -30 -6 c-28 -5 -31 -9 -39 -63 -5 -31 -6 -60 -2 -64 3 -4
35 -8 71 -9 l64 -2 12 55 c10 43 10 65 1 99 -7 24 -12 71 -12 103 0 79 14 91
107 91 96 0 98 -2 99 -164 1 -173 0 -166 28 -166 41 0 49 40 42 207 -8 167
-10 179 -40 211 -33 37 -74 49 -170 49 -71 1 -92 4 -101 17 -19 25 -33 19 -50
-20z"/>
</g>
</svg>
