<?xml version="1.0" standalone="no"?>
<!DOCTYPE svg PUBLIC "-//W3C//DTD SVG 20010904//EN"
 "http://www.w3.org/TR/2001/REC-SVG-20010904/DTD/svg10.dtd">
<svg version="1.0" xmlns="http://www.w3.org/2000/svg"
 width="72.000000pt" height="92.000000pt" viewBox="0 0 72.000000 92.000000"
 preserveAspectRatio="xMidYMid meet">
<metadata>
Created by potrace 1.16, written by Peter Selinger 2001-2019
</metadata>
<g transform="translate(0.000000,92.000000) scale(0.100000,-0.100000)"
fill="#000000" stroke="none">
<path d="M65 857 c-8 -13 -18 -51 -21 -85 -6 -56 -4 -66 19 -102 24 -35 33
-40 77 -46 28 -4 53 -11 56 -15 3 -5 -3 -21 -14 -37 -28 -40 -78 -169 -91
-232 -6 -30 -11 -86 -11 -125 0 -38 -1 -77 -2 -85 0 -8 0 -32 0 -52 2 -32 5
-38 25 -38 40 0 45 12 52 125 12 202 43 303 117 377 52 52 100 64 186 49 70
-13 100 -30 122 -71 17 -32 20 -234 3 -251 -8 -8 -62 -14 -160 -17 -82 -2
-151 -7 -155 -10 -12 -12 -41 -171 -34 -188 6 -15 27 -15 204 -9 108 3 200 9
204 13 9 10 30 258 32 382 0 59 -5 128 -12 157 -16 59 -67 143 -108 175 -28
22 -118 68 -134 68 -5 0 -12 -15 -15 -32 -10 -45 -32 -88 -63 -120 -40 -43
-52 -36 -52 26 0 73 -26 102 -104 111 -39 5 -59 13 -64 24 -13 36 -36 39 -57
8z m358 -714 c-7 -2 -21 -2 -30 0 -10 3 -4 5 12 5 17 0 24 -2 18 -5z"/>
</g>
</svg>
