<?xml version="1.0" standalone="no"?>
<!DOCTYPE svg PUBLIC "-//W3C//DTD SVG 20010904//EN"
 "http://www.w3.org/TR/2001/REC-SVG-20010904/DTD/svg10.dtd">
<svg version="1.0" xmlns="http://www.w3.org/2000/svg"
 width="26.000000pt" height="24.000000pt" viewBox="0 0 26.000000 24.000000"
 preserveAspectRatio="xMidYMid meet">
<metadata>
Created by potrace 1.16, written by Peter Selinger 2001-2019
</metadata>
<g transform="translate(0.000000,24.000000) scale(0.100000,-0.100000)"
fill="#000000" stroke="none">
<path d="M56 198 c-9 -12 -16 -42 -16 -65 0 -38 4 -46 33 -63 17 -11 36 -21
41 -23 5 -2 4 -13 -3 -25 -11 -21 -10 -22 33 -22 55 0 68 19 70 96 0 57 -15
84 -48 84 -11 0 -36 9 -54 20 -40 25 -38 25 -56 -2z"/>
</g>
</svg>
