<?xml version="1.0" standalone="no"?>
<!DOCTYPE svg PUBLIC "-//W3C//DTD SVG 20010904//EN"
 "http://www.w3.org/TR/2001/REC-SVG-20010904/DTD/svg10.dtd">
<svg version="1.0" xmlns="http://www.w3.org/2000/svg"
 width="133.000000pt" height="94.000000pt" viewBox="0 0 133.000000 94.000000"
 preserveAspectRatio="xMidYMid meet">
<metadata>
Created by potrace 1.16, written by Peter Selinger 2001-2019
</metadata>
<g transform="translate(0.000000,94.000000) scale(0.100000,-0.100000)"
fill="#000000" stroke="none">
<path d="M74 892 c-18 -11 -34 -81 -34 -150 0 -54 4 -67 25 -87 24 -25 26 -25
209 -25 154 0 187 -3 200 -16 16 -16 16 -19 21 -424 2 -143 1 -142 32 -138 14
2 35 15 45 29 18 24 20 43 18 285 -2 380 -3 391 -48 432 -40 38 -64 42 -242
42 l-168 0 -11 30 c-10 30 -25 37 -47 22z m370 -163 c5 -4 -51 -7 -125 -5
-168 5 -161 4 -154 16 8 13 265 2 279 -11z M1041 867 c-5 -13 -12 -48 -16 -78
-9 -75 12 -127 55 -135 16 -4 30 -8 30 -10 0 -10 -74 -124 -81 -124 -4 0 -43
41 -86 92 -43 50 -96 112 -119 137 -23 25 -53 65 -68 89 -14 23 -30 42 -35 42
-5 0 -23 -14 -40 -30 -60 -61 -51 -144 24 -226 82 -88 83 -90 46 -127 -17 -18
-31 -36 -31 -40 0 -4 -9 -17 -19 -29 -32 -33 -41 -99 -23 -155 8 -26 21 -55
27 -63 30 -36 27 -58 -10 -96 -22 -22 -34 -42 -31 -51 3 -8 6 -17 6 -19 0 -2
47 -4 105 -4 104 0 106 0 115 26 24 61 -3 158 -61 220 -34 36 -42 87 -22 133
10 23 21 41 26 41 11 0 108 -106 173 -191 110 -143 175 -219 186 -219 22 0 78
45 89 73 20 47 3 82 -91 194 -63 76 -90 116 -90 134 0 31 53 136 78 155 9 7
29 14 43 14 36 0 49 19 55 81 7 87 -36 139 -117 139 -19 0 -38 9 -53 25 -29
31 -54 32 -65 2z"/>
</g>
</svg>
