<?xml version="1.0" standalone="no"?>
<!DOCTYPE svg PUBLIC "-//W3C//DTD SVG 20010904//EN"
 "http://www.w3.org/TR/2001/REC-SVG-20010904/DTD/svg10.dtd">
<svg version="1.0" xmlns="http://www.w3.org/2000/svg"
 width="103.000000pt" height="105.000000pt" viewBox="0 0 103.000000 105.000000"
 preserveAspectRatio="xMidYMid meet">
<metadata>
Created by potrace 1.16, written by Peter Selinger 2001-2019
</metadata>
<g transform="translate(0.000000,105.000000) scale(0.100000,-0.100000)"
fill="#000000" stroke="none">
<path d="M590 1045 c0 -3 17 -12 38 -20 40 -18 87 -14 118 10 17 13 10 14 -68
15 -49 0 -88 -2 -88 -5z M145 1009 c-45 -13 -87 -61 -83 -94 7 -59 69 -58 76
1 2 16 8 35 14 42 14 17 73 15 87 -2 16 -19 10 -77 -9 -86 -8 -4 -37 -18 -65
-30 -66 -30 -103 -66 -115 -111 -13 -49 0 -83 42 -109 42 -26 54 -25 113 5
l49 24 25 -25 c29 -29 62 -26 99 10 27 26 21 60 -9 51 -24 -8 -27 8 -32 152
-3 94 -7 116 -23 134 -41 46 -99 59 -169 38z m107 -240 c3 -70 -11 -89 -68
-89 -38 0 -59 35 -44 74 9 25 74 76 96 76 8 0 13 -23 16 -61z M416 868 c-8
-13 -17 -39 -20 -58 -8 -45 17 -150 38 -162 23 -13 20 -33 -8 -51 -14 -10 -27
-31 -31 -54 -9 -41 -7 -437 1 -466 3 -10 17 -22 31 -28 27 -10 474 -13 511 -3
48 13 51 37 46 355 -5 297 -13 370 -41 402 -28 30 -91 39 -270 38 l-172 -2
-17 26 c-20 31 -49 32 -68 3z m435 -137 c33 -27 18 -36 -35 -22 -63 15 -182
14 -240 -4 -54 -16 -76 -9 -76 26 0 18 10 19 164 19 146 0 166 -2 187 -19z
m-14 -130 c39 -36 46 -68 41 -211 -4 -131 -7 -135 -101 -145 -87 -9 -255 -1
-268 12 -7 7 -12 59 -14 130 -2 133 10 180 53 210 41 27 59 31 162 32 92 1 97
0 127 -28z m43 -445 c0 -18 -42 -28 -77 -19 l-28 6 30 13 c40 17 75 17 75 0z
m-335 -6 c18 -8 17 -9 -7 -9 -16 -1 -28 4 -28 9 0 12 8 12 35 0z"/>
</g>
</svg>
