<?xml version="1.0" standalone="no"?>
<!DOCTYPE svg PUBLIC "-//W3C//DTD SVG 20010904//EN"
 "http://www.w3.org/TR/2001/REC-SVG-20010904/DTD/svg10.dtd">
<svg version="1.0" xmlns="http://www.w3.org/2000/svg"
 width="33.000000pt" height="66.000000pt" viewBox="0 0 33.000000 66.000000"
 preserveAspectRatio="xMidYMid meet">
<metadata>
Created by potrace 1.16, written by Peter Selinger 2001-2019
</metadata>
<g transform="translate(0.000000,66.000000) scale(0.100000,-0.100000)"
fill="#000000" stroke="none">
<path d="M106 587 c-69 -37 -86 -62 -37 -55 17 3 35 0 40 -6 5 -6 8 -105 8
-221 l-2 -210 -32 -10 c-18 -5 -33 -15 -33 -22 0 -8 13 -13 33 -14 102 -3 187
0 196 6 20 12 11 23 -24 29 -19 4 -37 11 -40 16 -3 5 -5 107 -5 227 -1 248 -5
293 -29 293 -9 0 -43 -15 -75 -33z"/>
</g>
</svg>
