<?xml version="1.0" standalone="no"?>
<!DOCTYPE svg PUBLIC "-//W3C//DTD SVG 20010904//EN"
 "http://www.w3.org/TR/2001/REC-SVG-20010904/DTD/svg10.dtd">
<svg version="1.0" xmlns="http://www.w3.org/2000/svg"
 width="42.000000pt" height="66.000000pt" viewBox="0 0 42.000000 66.000000"
 preserveAspectRatio="xMidYMid meet">
<metadata>
Created by potrace 1.16, written by Peter Selinger 2001-2019
</metadata>
<g transform="translate(0.000000,66.000000) scale(0.100000,-0.100000)"
fill="#000000" stroke="none">
<path d="M140 613 c-23 -8 -70 -55 -86 -85 -29 -55 -12 -63 37 -19 37 35 97
48 131 30 31 -16 38 -28 38 -65 0 -38 -49 -91 -95 -102 -20 -6 -31 -15 -33
-30 -3 -19 1 -22 35 -22 97 -2 150 -73 121 -162 -12 -37 -21 -45 -56 -58 -39
-13 -44 -13 -80 8 -70 39 -130 20 -102 -33 16 -30 55 -39 127 -30 70 9 125 37
163 83 56 69 49 181 -16 238 l-36 30 25 30 c14 17 29 43 33 58 9 37 -22 103
-57 122 -27 14 -119 18 -149 7z"/>
</g>
</svg>
