<?xml version="1.0" standalone="no"?>
<!DOCTYPE svg PUBLIC "-//W3C//DTD SVG 20010904//EN"
 "http://www.w3.org/TR/2001/REC-SVG-20010904/DTD/svg10.dtd">
<svg version="1.0" xmlns="http://www.w3.org/2000/svg"
 width="88.000000pt" height="92.000000pt" viewBox="0 0 88.000000 92.000000"
 preserveAspectRatio="xMidYMid meet">
<metadata>
Created by potrace 1.16, written by Peter Selinger 2001-2019
</metadata>
<g transform="translate(0.000000,92.000000) scale(0.100000,-0.100000)"
fill="#000000" stroke="none">
<path d="M73 868 c-18 -23 -33 -81 -33 -127 0 -50 26 -103 60 -121 19 -10 19
-12 4 -41 -8 -17 -13 -33 -11 -36 3 -2 1 -19 -4 -36 -5 -18 -5 -45 1 -66 5
-20 24 -112 42 -206 17 -93 36 -176 42 -183 13 -18 311 -10 352 9 27 13 75 90
120 189 50 111 93 193 132 252 25 37 48 87 53 110 11 59 11 132 -1 162 -9 25
-65 56 -101 56 -10 0 -29 12 -43 27 -21 23 -27 25 -41 13 -23 -19 -45 -65 -45
-95 0 -33 -5 -32 -44 10 -25 26 -42 35 -67 36 -56 2 -84 13 -84 34 0 18 -6 21
-34 17 -12 -3 -45 -72 -48 -101 -3 -38 -23 -51 -23 -15 0 46 -30 67 -101 72
-48 4 -63 9 -78 28 -21 27 -34 30 -48 12z m111 -134 c23 -9 20 -34 -3 -34 -22
0 -35 15 -26 30 7 12 8 12 29 4z m284 -26 c2 -12 -3 -18 -16 -18 -22 0 -46 23
-35 34 13 13 48 1 51 -16z m135 -7 c7 -35 43 -71 71 -71 37 0 66 -12 66 -27 0
-8 -18 -31 -40 -50 -22 -20 -40 -41 -40 -46 0 -5 -13 -26 -28 -46 -16 -20 -41
-59 -56 -87 -16 -29 -41 -68 -58 -88 -29 -36 -30 -36 -105 -36 l-75 0 7 27 c3
15 18 52 32 83 14 30 32 71 40 90 8 19 23 51 32 70 10 19 21 47 25 63 6 24 11
27 50 27 50 0 56 8 56 76 0 50 14 59 23 15z m-278 -30 c5 -24 18 -36 63 -57 5
-2 -28 -100 -59 -173 -62 -145 -74 -171 -80 -171 -3 0 -12 17 -21 38 -31 74
-46 138 -47 205 0 83 20 113 70 102 38 -9 61 17 53 58 -3 15 -1 27 4 27 6 0
13 -13 17 -29z m16 -493 c32 -13 59 -26 59 -29 0 -10 -107 -21 -129 -14 -21 6
-36 38 -26 55 9 15 32 12 96 -12z"/>
</g>
</svg>
