<?xml version="1.0" standalone="no"?>
<!DOCTYPE svg PUBLIC "-//W3C//DTD SVG 20010904//EN"
 "http://www.w3.org/TR/2001/REC-SVG-20010904/DTD/svg10.dtd">
<svg version="1.0" xmlns="http://www.w3.org/2000/svg"
 width="37.000000pt" height="95.000000pt" viewBox="0 0 37.000000 95.000000"
 preserveAspectRatio="xMidYMid meet">
<metadata>
Created by potrace 1.16, written by Peter Selinger 2001-2019
</metadata>
<g transform="translate(0.000000,95.000000) scale(0.100000,-0.100000)"
fill="#000000" stroke="none">
<path d="M78 903 c-10 -2 -21 -17 -24 -31 -3 -15 -7 -38 -10 -51 -8 -39 6
-125 25 -150 13 -18 32 -24 81 -30 44 -5 67 -13 76 -26 11 -15 14 -77 15 -274
1 -141 2 -265 3 -276 1 -25 34 -30 61 -9 19 14 20 29 23 347 2 224 0 344 -8
370 -14 48 -59 77 -120 77 -49 0 -60 5 -76 34 -12 22 -21 26 -46 19z m128
-170 c-8 -8 -36 5 -36 17 0 7 6 7 21 0 11 -7 18 -14 15 -17z"/>
</g>
</svg>
