<?xml version="1.0" standalone="no"?>
<!DOCTYPE svg PUBLIC "-//W3C//DTD SVG 20010904//EN"
 "http://www.w3.org/TR/2001/REC-SVG-20010904/DTD/svg10.dtd">
<svg version="1.0" xmlns="http://www.w3.org/2000/svg"
 width="100.000000pt" height="132.000000pt" viewBox="0 0 100.000000 132.000000"
 preserveAspectRatio="xMidYMid meet">
<metadata>
Created by potrace 1.16, written by Peter Selinger 2001-2019
</metadata>
<g transform="translate(0.000000,132.000000) scale(0.100000,-0.100000)"
fill="#000000" stroke="none">
<path d="M600 1263 c-24 -13 -40 -31 -54 -64 -18 -45 -18 -48 -1 -94 10 -26
29 -54 41 -62 84 -55 207 7 207 104 0 45 -25 98 -53 113 -37 20 -103 21 -140
3z m107 -65 c31 -29 30 -71 -2 -92 -33 -22 -54 -20 -82 6 -30 28 -29 53 2 83
30 31 52 31 82 3z M164 1018 c-79 -14 -138 -93 -98 -132 30 -31 62 -15 70 35
8 49 33 65 72 47 22 -11 28 -21 30 -53 l2 -40 -81 -39 c-88 -43 -119 -77 -119
-131 0 -38 22 -70 62 -91 30 -15 33 -15 88 13 l57 30 21 -24 c30 -34 68 -30
107 12 24 25 35 31 39 20 10 -27 83 -36 247 -31 87 2 161 1 164 -3 2 -5 -5
-19 -16 -32 -42 -49 -52 -88 -48 -199 2 -58 2 -160 1 -228 -4 -137 -1 -143 60
-117 57 23 68 47 68 145 0 47 -5 103 -11 125 -7 22 -12 84 -13 139 l-1 98 48
43 47 43 0 76 c0 111 -1 112 -249 108 -208 -3 -247 3 -253 41 -4 32 -29 27
-56 -13 -21 -31 -23 -43 -19 -102 4 -66 4 -68 -19 -68 -20 0 -24 5 -24 33 -1
17 -5 78 -9 135 -10 113 -20 134 -78 158 -18 8 -34 13 -35 13 -2 -1 -26 -6
-54 -11z m83 -251 c2 -54 0 -58 -27 -72 -54 -28 -90 -14 -90 35 0 35 76 105
105 96 6 -1 11 -28 12 -59z m588 -37 c3 -5 -3 -10 -14 -10 -12 0 -21 5 -21 10
0 6 6 10 14 10 8 0 18 -4 21 -10z"/>
</g>
</svg>
