<?xml version="1.0" standalone="no"?>
<!DOCTYPE svg PUBLIC "-//W3C//DTD SVG 20010904//EN"
 "http://www.w3.org/TR/2001/REC-SVG-20010904/DTD/svg10.dtd">
<svg version="1.0" xmlns="http://www.w3.org/2000/svg"
 width="258.000000pt" height="94.000000pt" viewBox="0 0 258.000000 94.000000"
 preserveAspectRatio="xMidYMid meet">
<metadata>
Created by potrace 1.16, written by Peter Selinger 2001-2019
</metadata>
<g transform="translate(0.000000,94.000000) scale(0.100000,-0.100000)"
fill="#000000" stroke="none">
<path d="M2303 885 c-27 -19 -47 -109 -38 -165 5 -30 14 -44 41 -61 19 -11 34
-26 34 -32 0 -7 -14 -27 -31 -46 l-31 -33 -39 42 c-22 23 -53 61 -68 84 -16
22 -37 49 -48 58 -10 9 -34 37 -53 63 -73 97 -66 92 -96 75 -46 -25 -69 -65
-66 -115 2 -60 21 -100 72 -158 33 -38 41 -52 36 -72 -4 -14 -10 -25 -15 -25
-5 0 -23 -24 -40 -54 -43 -74 -43 -141 -1 -218 l31 -56 -24 -19 c-30 -23 -50
-60 -43 -79 4 -11 28 -14 108 -14 57 0 109 4 117 9 19 12 30 87 18 126 -5 19
-26 55 -46 82 -53 71 -62 95 -48 132 18 49 24 46 126 -75 13 -16 69 -82 123
-146 55 -65 104 -120 109 -124 18 -11 78 29 94 62 16 33 18 77 7 106 -7 16
-68 90 -134 162 -42 44 -47 70 -22 119 36 69 65 97 100 97 18 0 36 5 39 10 12
19 16 137 6 164 -12 31 -62 63 -111 72 -19 4 -43 15 -53 25 -22 23 -26 23 -54
4z m47 -60 c7 -9 29 -15 53 -15 57 0 87 -30 87 -86 0 -25 -6 -49 -16 -58 -19
-19 -18 -19 -52 -2 -15 7 -42 16 -61 20 -19 3 -40 11 -48 17 -24 20 -11 139
16 139 4 0 14 -7 21 -15z m-340 -27 c53 -73 263 -318 272 -318 5 0 17 13 26
30 19 34 50 44 32 11 -5 -11 -10 -40 -10 -64 0 -47 23 -84 114 -182 21 -22 44
-53 52 -68 14 -25 14 -31 0 -52 -9 -14 -24 -29 -35 -34 -20 -11 -18 -13 -101
89 -25 30 -61 73 -80 96 -79 92 -102 121 -131 162 -35 48 -47 51 -76 20 -55
-61 -58 -124 -10 -194 62 -90 86 -156 65 -181 -13 -16 -138 -18 -138 -3 0 6 4
10 10 10 5 0 12 15 15 34 5 25 -1 49 -24 99 -17 36 -31 74 -31 83 0 32 42 108
82 150 36 38 39 44 27 65 -6 13 -21 33 -31 44 -94 98 -117 157 -82 210 21 32
25 31 54 -7z M1003 848 c-20 -40 -23 -150 -4 -195 17 -41 33 -44 221 -44 118
0 161 -3 176 -13 17 -13 19 -33 22 -268 2 -139 7 -256 10 -260 13 -13 79 12
94 35 20 31 14 593 -7 643 -26 62 -49 69 -246 72 l-178 4 -10 29 c-14 42 -55
40 -78 -3z m65 -49 c24 -19 38 -20 182 -18 128 3 160 0 186 -13 57 -31 56 -25
61 -348 5 -273 4 -300 -11 -306 -9 -4 -19 -5 -21 -3 -5 5 -14 244 -14 385 -1
157 12 148 -217 154 l-188 5 -15 25 c-10 19 -12 41 -7 83 4 31 10 57 13 57 3
0 17 -9 31 -21z M1589 853 c-28 -67 -12 -194 27 -220 23 -14 42 -18 120 -22
19 -1 22 -10 30 -83 5 -46 9 -171 9 -278 l0 -195 26 -3 c16 -2 32 5 44 18 18
19 19 40 16 358 -2 272 -5 341 -16 359 -16 24 -70 43 -125 43 -27 0 -38 5 -45
23 -7 15 -20 23 -43 25 -27 3 -34 -1 -43 -25z m61 -43 c9 -16 21 -20 69 -20
48 0 61 -4 81 -25 22 -24 23 -27 28 -338 3 -227 1 -316 -7 -321 -7 -5 -12 3
-12 21 -4 64 -6 168 -8 326 l-1 167 -32 20 c-21 12 -51 20 -80 20 -58 0 -78
23 -78 91 0 75 18 101 40 59z M88 863 c-38 -10 -54 -115 -30 -199 14 -47 41
-64 106 -64 83 0 81 7 82 -296 0 -201 4 -269 13 -272 29 -10 60 9 71 42 15 47
4 674 -13 695 -18 22 -72 41 -115 41 -31 0 -42 6 -60 30 -13 17 -26 29 -30 29
-4 -1 -14 -3 -24 -6z m40 -73 c10 -16 23 -20 66 -20 47 0 57 -4 78 -28 l24
-29 3 -311 c2 -219 -1 -312 -8 -312 -7 0 -12 28 -12 73 -1 39 -3 95 -4 122 -2
28 -3 109 -4 181 -1 90 -5 136 -14 148 -10 13 -32 19 -81 23 -78 7 -96 23 -96
88 0 79 21 108 48 65z M438 849 c-10 -5 -24 -31 -32 -58 -11 -38 -12 -58 -2
-99 19 -85 22 -86 209 -90 184 -4 186 -5 211 -82 30 -91 14 -189 -36 -229 -29
-23 -39 -25 -187 -29 -86 -2 -159 -7 -162 -10 -12 -13 -59 -193 -54 -203 4 -5
88 -9 187 -9 204 0 244 10 290 73 92 126 102 448 19 621 -39 79 -40 79 -219
78 l-159 -2 -11 25 c-12 27 -27 30 -54 14z m165 -76 c51 3 119 3 153 0 56 -5
61 -8 81 -42 35 -61 56 -148 69 -289 4 -40 2 -67 -5 -76 -6 -7 -9 -20 -6 -28
6 -16 -20 -101 -54 -179 -29 -66 -48 -72 -238 -76 -182 -3 -172 -8 -152 73 11
44 30 63 59 62 8 -1 70 0 137 0 l123 2 39 35 c23 21 45 53 53 78 24 74 11 210
-24 258 -34 46 -61 52 -218 50 -80 -1 -150 2 -156 6 -24 17 -36 56 -30 96 9
56 13 59 47 41 24 -12 51 -14 122 -11z"/>
</g>
</svg>
