<?xml version="1.0" standalone="no"?>
<!DOCTYPE svg PUBLIC "-//W3C//DTD SVG 20010904//EN"
 "http://www.w3.org/TR/2001/REC-SVG-20010904/DTD/svg10.dtd">
<svg version="1.0" xmlns="http://www.w3.org/2000/svg"
 width="92.000000pt" height="68.000000pt" viewBox="0 0 92.000000 68.000000"
 preserveAspectRatio="xMidYMid meet">
<metadata>
Created by potrace 1.16, written by Peter Selinger 2001-2019
</metadata>
<g transform="translate(0.000000,68.000000) scale(0.100000,-0.100000)"
fill="#000000" stroke="none">
<path d="M736 618 c-22 -31 -20 -45 9 -64 52 -34 102 28 57 69 -25 23 -48 21
-66 -5z M435 435 c-72 -39 -88 -80 -56 -143 16 -31 37 -50 96 -83 41 -24 78
-51 81 -62 8 -26 -23 -57 -57 -57 -29 0 -89 43 -89 65 0 15 -28 40 -36 32 -12
-12 -13 -105 -1 -119 8 -10 37 -18 82 -22 61 -5 75 -3 109 17 22 12 48 38 58
59 17 32 18 43 8 73 -12 37 -36 57 -117 99 -28 15 -57 34 -63 41 -19 23 -8 59
21 69 31 10 67 -11 94 -56 21 -37 31 -35 39 6 10 52 -2 86 -29 86 -12 0 -42 2
-66 6 -30 3 -53 0 -74 -11z M733 429 c-58 -22 -66 -35 -29 -45 13 -3 27 -15
30 -27 8 -32 7 -230 -2 -244 -4 -6 -20 -16 -35 -22 -38 -15 -33 -31 11 -33 71
-3 147 -3 160 1 13 3 17 31 5 31 -34 1 -38 20 -43 187 -6 193 -3 189 -97 152z
M105 426 c-56 -25 -74 -73 -50 -134 13 -32 30 -47 95 -86 86 -51 99 -75 61
-110 -30 -28 -85 -6 -114 45 -25 44 -42 50 -51 16 -9 -33 -7 -95 3 -101 5 -3
42 -8 82 -11 102 -7 138 7 167 66 37 75 12 115 -116 184 -76 41 -88 105 -19
105 34 0 63 -22 86 -67 21 -41 32 -26 29 40 l-3 62 -70 2 c-42 2 -82 -3 -100
-11z"/>
</g>
</svg>
