<?xml version="1.0" standalone="no"?>
<!DOCTYPE svg PUBLIC "-//W3C//DTD SVG 20010904//EN"
 "http://www.w3.org/TR/2001/REC-SVG-20010904/DTD/svg10.dtd">
<svg version="1.0" xmlns="http://www.w3.org/2000/svg"
 width="108.000000pt" height="102.000000pt" viewBox="0 0 108.000000 102.000000"
 preserveAspectRatio="xMidYMid meet">
<metadata>
Created by potrace 1.16, written by Peter Selinger 2001-2019
</metadata>
<g transform="translate(0.000000,102.000000) scale(0.100000,-0.100000)"
fill="#000000" stroke="none">
<path d="M784 972 c-37 -24 -52 -146 -26 -208 16 -37 40 -50 107 -58 82 -10
80 0 83 -314 2 -152 7 -281 11 -285 14 -14 61 12 71 39 13 34 12 646 -1 697
-13 49 -57 77 -120 77 -37 0 -50 5 -74 30 -31 32 -34 34 -51 22z m132 -156
c17 -13 17 -15 2 -21 -18 -7 -58 10 -58 25 0 15 33 12 56 -4z M404 918 c-9
-18 -19 -61 -22 -95 -4 -57 -2 -66 19 -89 13 -13 47 -32 76 -40 58 -17 63 -28
33 -67 -11 -14 -20 -28 -20 -31 0 -3 -14 -28 -30 -56 -17 -28 -39 -80 -51
-115 -22 -68 -39 -84 -40 -37 0 15 -10 41 -22 58 -49 68 -114 170 -121 188 -8
24 9 45 33 39 23 -6 35 11 49 65 20 84 -34 161 -114 162 -28 0 -47 6 -59 20
-44 49 -95 -11 -95 -110 0 -74 16 -102 65 -116 l40 -11 -3 -59 c-1 -33 0 -73
3 -91 6 -32 70 -121 117 -161 48 -40 54 -98 14 -131 -15 -13 -100 -23 -177
-21 -15 0 -31 -6 -36 -12 -6 -7 -10 -53 -10 -101 0 -68 3 -90 14 -94 8 -3 67
11 131 32 64 20 133 42 152 48 46 13 107 52 119 76 17 31 38 102 51 171 35
195 37 198 111 310 63 95 74 130 53 178 -21 51 -50 69 -123 76 -42 4 -75 13
-93 26 -37 27 -45 25 -64 -12z m149 -107 c27 -11 39 -32 27 -50 -9 -16 -39 -7
-68 20 -36 33 -12 50 41 30z m-365 -13 c16 -16 15 -38 -2 -38 -18 0 -39 27
-31 40 8 13 18 13 33 -2z"/>
</g>
</svg>
