<?xml version="1.0" standalone="no"?>
<!DOCTYPE svg PUBLIC "-//W3C//DTD SVG 20010904//EN"
 "http://www.w3.org/TR/2001/REC-SVG-20010904/DTD/svg10.dtd">
<svg version="1.0" xmlns="http://www.w3.org/2000/svg"
 width="87.000000pt" height="92.000000pt" viewBox="0 0 87.000000 92.000000"
 preserveAspectRatio="xMidYMid meet">
<metadata>
Created by potrace 1.16, written by Peter Selinger 2001-2019
</metadata>
<g transform="translate(0.000000,92.000000) scale(0.100000,-0.100000)"
fill="#000000" stroke="none">
<path d="M58 853 c-15 -38 -22 -124 -14 -167 5 -25 16 -41 37 -53 23 -14 29
-23 24 -38 -22 -69 -23 -118 -4 -222 11 -59 27 -148 35 -198 25 -139 17 -134
189 -134 210 -1 194 -12 317 234 55 110 105 207 112 215 59 68 88 188 67 268
-11 39 -15 42 -69 58 -31 10 -63 26 -71 36 -7 10 -22 18 -31 18 -21 0 -60 -57
-60 -87 0 -33 -11 -34 -39 -4 -20 21 -42 31 -94 41 -54 10 -67 16 -67 31 0 11
-4 19 -9 19 -18 0 -60 -61 -67 -95 -7 -40 -24 -47 -24 -11 0 28 -23 56 -48 57
-111 6 -116 7 -135 33 -24 33 -35 33 -49 -1z m122 -131 c0 -13 -12 -22 -22
-16 -10 6 -1 24 13 24 5 0 9 -4 9 -8z m275 -11 c10 -18 -17 -23 -33 -7 -15 15
-15 16 5 16 12 0 24 -4 28 -9z m139 -14 c9 -38 42 -64 90 -71 54 -8 58 -24 17
-58 -15 -14 -64 -80 -107 -147 -100 -158 -118 -173 -197 -169 -33 1 -61 7 -63
13 -3 6 14 53 37 105 23 52 47 109 54 125 49 120 45 114 89 117 l41 3 9 53
c10 56 20 66 30 29z m-274 -28 c3 -13 18 -30 33 -37 15 -7 27 -20 27 -28 0
-34 -125 -324 -140 -324 -4 0 -20 30 -35 67 -21 54 -27 85 -28 154 -1 103 10
124 59 116 39 -7 54 7 54 51 0 39 21 40 30 1z m-10 -479 c22 -11 60 -23 85
-27 52 -7 58 -18 14 -27 -67 -13 -138 -7 -159 14 -29 29 -25 60 7 60 8 0 32
-9 53 -20z"/>
</g>
</svg>
