<?xml version="1.0" standalone="no"?>
<!DOCTYPE svg PUBLIC "-//W3C//DTD SVG 20010904//EN"
 "http://www.w3.org/TR/2001/REC-SVG-20010904/DTD/svg10.dtd">
<svg version="1.0" xmlns="http://www.w3.org/2000/svg"
 width="202.000000pt" height="135.000000pt" viewBox="0 0 202.000000 135.000000"
 preserveAspectRatio="xMidYMid meet">
<metadata>
Created by potrace 1.16, written by Peter Selinger 2001-2019
</metadata>
<g transform="translate(0.000000,135.000000) scale(0.100000,-0.100000)"
fill="#000000" stroke="none">
<path d="M1596 1251 c-25 -33 -46 -62 -46 -66 0 -11 103 -126 111 -123 9 4 99
119 99 127 0 14 -92 121 -104 121 -7 0 -34 -27 -60 -59z M709 1179 c-16 -31
-6 -119 16 -135 10 -7 22 -15 27 -16 5 -2 0 -39 -12 -83 -22 -89 -25 -182 -7
-235 20 -60 57 -70 230 -69 175 1 187 -4 187 -80 0 -43 -4 -49 -59 -102 -33
-31 -88 -77 -123 -103 -72 -54 -97 -98 -98 -167 0 -65 28 -99 81 -99 72 0 107
61 78 137 -11 31 -13 29 101 118 117 91 141 132 150 255 8 128 0 184 -35 220
l-29 30 -193 0 -193 0 0 24 c0 23 20 83 40 118 5 9 12 38 15 65 8 67 -13 99
-85 123 -70 25 -77 24 -91 -1z m127 -60 c15 -17 16 -26 7 -67 -6 -26 -18 -66
-27 -89 -24 -65 -29 -115 -14 -136 12 -16 32 -18 201 -18 186 0 189 0 213 -24
22 -23 24 -31 24 -135 0 -130 -19 -190 -73 -227 -64 -45 -150 -119 -170 -145
-18 -24 -19 -32 -8 -68 19 -65 -15 -102 -61 -66 -26 19 -23 75 7 119 14 20 65
66 114 102 118 86 145 123 144 192 -2 64 -27 109 -68 123 -18 6 -97 9 -181 8
l-149 -3 -15 30 c-22 44 -17 156 10 232 26 77 24 102 -15 123 -30 16 -41 39
-32 64 7 18 72 8 93 -15z M1373 922 c-21 -13 -43 -79 -43 -129 0 -61 19 -89
71 -105 49 -14 56 -28 41 -84 -16 -58 6 -119 67 -187 74 -82 91 -108 91 -137
0 -47 -26 -59 -141 -68 l-104 -7 -3 -97 c-3 -111 -6 -109 83 -84 140 39 247
76 279 95 54 34 75 81 97 215 24 152 52 231 107 304 47 64 67 119 58 167 -10
50 -35 66 -123 76 -61 7 -81 13 -92 29 -25 36 -48 25 -70 -35 -29 -77 -27
-107 10 -150 22 -25 39 -35 61 -35 16 0 38 -5 48 -10 23 -12 19 -24 -42 -130
-21 -35 -49 -99 -64 -142 -26 -78 -44 -93 -44 -37 0 33 -39 110 -75 149 -32
34 -67 106 -63 127 2 12 14 19 35 21 28 3 34 8 43 40 27 98 -6 155 -99 172
-30 6 -64 19 -76 30 -23 22 -33 24 -52 12z m115 -150 c3 -9 -2 -13 -14 -10 -9
1 -19 9 -22 16 -3 9 2 13 14 10 9 -1 19 -9 22 -16z m362 8 c8 -5 11 -12 8 -16
-10 -9 -38 3 -38 16 0 12 10 13 30 0z M83 888 c-52 -59 -50 -170 4 -219 28
-24 32 -24 241 -27 l213 -3 -7 -22 c-4 -12 -13 -34 -20 -48 -16 -32 -18 -109
-11 -324 6 -181 7 -181 81 -146 28 13 47 30 55 49 14 34 10 131 -9 227 -17 82
-13 169 10 238 33 97 23 187 -26 227 -13 12 -62 15 -233 15 -208 0 -216 1
-219 20 -8 40 -48 47 -79 13z m288 -78 c154 0 218 -3 227 -12 7 -7 12 -36 12
-65 l0 -53 -237 0 c-131 0 -243 4 -249 8 -32 21 -43 87 -24 138 l11 27 22 -22
c22 -20 32 -21 238 -21z m214 -222 c-22 -76 -24 -95 -9 -150 8 -32 19 -102 24
-155 8 -88 8 -101 -8 -122 -31 -42 -39 -36 -45 36 -8 88 -8 321 0 353 5 23 30
60 41 60 2 0 1 -10 -3 -22z M141 487 c-63 -22 -70 -42 -73 -229 -1 -109 1
-171 8 -178 18 -18 92 17 109 51 11 21 15 65 15 172 0 93 4 147 11 154 16 16
4 43 -18 42 -10 0 -33 -5 -52 -12z m14 -189 c0 -132 -8 -168 -36 -168 -13 0
-11 241 2 279 23 65 34 29 34 -111z"/>
</g>
</svg>
