<?xml version="1.0" standalone="no"?>
<!DOCTYPE svg PUBLIC "-//W3C//DTD SVG 20010904//EN"
 "http://www.w3.org/TR/2001/REC-SVG-20010904/DTD/svg10.dtd">
<svg version="1.0" xmlns="http://www.w3.org/2000/svg"
 width="47.000000pt" height="65.000000pt" viewBox="0 0 47.000000 65.000000"
 preserveAspectRatio="xMidYMid meet">
<metadata>
Created by potrace 1.16, written by Peter Selinger 2001-2019
</metadata>
<g transform="translate(0.000000,65.000000) scale(0.100000,-0.100000)"
fill="#000000" stroke="none">
<path d="M335 633 c-42 -9 -101 -36 -132 -59 -17 -13 -36 -24 -42 -24 -19 0
-98 -135 -109 -188 -16 -72 -15 -105 4 -174 12 -41 29 -71 58 -102 36 -39 47
-45 99 -51 94 -12 151 21 193 112 25 53 30 100 16 131 -5 9 -17 35 -28 56 -30
63 -63 81 -145 80 -38 0 -69 1 -69 3 0 2 9 23 20 46 21 45 95 108 140 120 39
10 54 23 47 41 -6 16 -15 18 -52 9z m-47 -303 c45 -42 56 -156 19 -211 -59
-88 -151 -14 -162 130 -4 46 -1 59 17 78 28 30 95 32 126 3z"/>
</g>
</svg>
