<?xml version="1.0" standalone="no"?>
<!DOCTYPE svg PUBLIC "-//W3C//DTD SVG 20010904//EN"
 "http://www.w3.org/TR/2001/REC-SVG-20010904/DTD/svg10.dtd">
<svg version="1.0" xmlns="http://www.w3.org/2000/svg"
 width="68.000000pt" height="93.000000pt" viewBox="0 0 68.000000 93.000000"
 preserveAspectRatio="xMidYMid meet">
<metadata>
Created by potrace 1.16, written by Peter Selinger 2001-2019
</metadata>
<g transform="translate(0.000000,93.000000) scale(0.100000,-0.100000)"
fill="#000000" stroke="none">
<path d="M82 883 c-24 -10 -42 -62 -42 -124 0 -61 1 -64 45 -104 l45 -42 -25
-23 c-40 -38 -48 -88 -49 -328 l-1 -222 23 0 c14 0 39 15 59 35 34 34 35 38
29 83 -3 26 -9 128 -12 227 -8 246 -9 245 232 246 86 0 159 -2 161 -4 2 -3 -6
-33 -17 -68 -19 -56 -21 -79 -17 -184 3 -66 6 -166 6 -222 0 -56 4 -104 10
-107 13 -8 52 8 79 33 20 20 22 31 22 128 0 59 -7 149 -17 200 -17 96 -17 95
17 223 5 19 10 58 10 87 0 41 -5 58 -26 82 l-26 31 -219 0 c-206 0 -220 1
-239 20 -11 11 -20 25 -20 30 0 11 -7 12 -28 3z m143 -153 c7 -11 -39 -25 -55
-15 -5 3 -8 11 -5 16 8 12 52 12 60 -1z"/>
</g>
</svg>
