<?xml version="1.0" standalone="no"?>
<!DOCTYPE svg PUBLIC "-//W3C//DTD SVG 20010904//EN"
 "http://www.w3.org/TR/2001/REC-SVG-20010904/DTD/svg10.dtd">
<svg version="1.0" xmlns="http://www.w3.org/2000/svg"
 width="32.000000pt" height="66.000000pt" viewBox="0 0 32.000000 66.000000"
 preserveAspectRatio="xMidYMid meet">
<metadata>
Created by potrace 1.16, written by Peter Selinger 2001-2019
</metadata>
<g transform="translate(0.000000,66.000000) scale(0.100000,-0.100000)"
fill="#000000" stroke="none">
<path d="M105 587 c-35 -19 -61 -40 -63 -51 -3 -13 0 -17 9 -13 8 3 22 8 31
12 13 5 19 1 22 -17 10 -44 14 -381 5 -405 -5 -13 -22 -29 -39 -35 -55 -19
-29 -33 62 -34 47 0 100 1 117 4 35 5 37 25 3 30 -11 2 -25 9 -31 16 -7 9 -13
104 -16 261 -3 136 -8 251 -11 256 -8 14 -24 10 -89 -24z"/>
</g>
</svg>
