<?xml version="1.0" standalone="no"?>
<!DOCTYPE svg PUBLIC "-//W3C//DTD SVG 20010904//EN"
 "http://www.w3.org/TR/2001/REC-SVG-20010904/DTD/svg10.dtd">
<svg version="1.0" xmlns="http://www.w3.org/2000/svg"
 width="35.000000pt" height="49.000000pt" viewBox="0 0 35.000000 49.000000"
 preserveAspectRatio="xMidYMid meet">
<metadata>
Created by potrace 1.16, written by Peter Selinger 2001-2019
</metadata>
<g transform="translate(0.000000,49.000000) scale(0.100000,-0.100000)"
fill="#000000" stroke="none">
<path d="M100 433 c-85 -43 -78 -152 13 -208 88 -54 107 -68 113 -87 14 -46
-65 -70 -107 -32 -12 10 -28 34 -36 52 -22 52 -38 35 -38 -39 l0 -64 79 -8
c66 -7 85 -6 117 8 47 22 74 72 65 124 -6 38 -22 54 -101 101 -70 40 -102 76
-89 97 20 32 42 39 71 23 15 -9 33 -26 39 -39 19 -38 33 -48 44 -31 13 20 13
97 0 105 -5 3 -37 8 -72 11 -48 3 -71 0 -98 -13z"/>
</g>
</svg>
