<?xml version="1.0" standalone="no"?>
<!DOCTYPE svg PUBLIC "-//W3C//DTD SVG 20010904//EN"
 "http://www.w3.org/TR/2001/REC-SVG-20010904/DTD/svg10.dtd">
<svg version="1.0" xmlns="http://www.w3.org/2000/svg"
 width="68.000000pt" height="92.000000pt" viewBox="0 0 68.000000 92.000000"
 preserveAspectRatio="xMidYMid meet">
<metadata>
Created by potrace 1.16, written by Peter Selinger 2001-2019
</metadata>
<g transform="translate(0.000000,92.000000) scale(0.100000,-0.100000)"
fill="#000000" stroke="none">
<path d="M71 856 c-26 -28 -36 -79 -27 -141 6 -39 13 -50 46 -71 l39 -26 -28
-42 c-15 -22 -31 -54 -36 -71 -4 -16 -7 -127 -7 -245 l1 -215 33 3 c18 1 42
12 53 23 22 22 22 29 13 323 -5 155 -4 159 19 186 13 16 36 31 51 34 43 8 310
18 321 12 5 -4 0 -32 -14 -70 -20 -56 -23 -77 -18 -177 2 -63 5 -161 6 -219
l2 -105 29 2 c17 1 41 13 54 27 34 33 37 119 12 287 -18 124 -18 128 1 200 25
98 25 186 -1 219 l-19 25 -227 2 c-206 1 -229 3 -241 19 -7 10 -13 24 -13 31
0 21 -24 15 -49 -11z m141 -148 c-17 -8 -26 -8 -34 0 -9 9 -4 12 23 11 32 0
33 -1 11 -11z"/>
</g>
</svg>
