<?xml version="1.0" standalone="no"?>
<!DOCTYPE svg PUBLIC "-//W3C//DTD SVG 20010904//EN"
 "http://www.w3.org/TR/2001/REC-SVG-20010904/DTD/svg10.dtd">
<svg version="1.0" xmlns="http://www.w3.org/2000/svg"
 width="71.000000pt" height="66.000000pt" viewBox="0 0 71.000000 66.000000"
 preserveAspectRatio="xMidYMid meet">
<metadata>
Created by potrace 1.16, written by Peter Selinger 2001-2019
</metadata>
<g transform="translate(0.000000,66.000000) scale(0.100000,-0.100000)"
fill="#000000" stroke="none">
<path d="M106 607 c-22 -16 -18 -55 6 -71 24 -15 72 4 76 30 6 43 -45 68 -82
41z M490 434 c-19 -8 -38 -20 -43 -27 -5 -7 -10 -8 -13 -2 -17 40 -21 41 -81
20 -61 -21 -81 -48 -44 -60 20 -6 21 -14 21 -139 0 -127 -1 -134 -22 -149 -29
-19 -23 -24 27 -27 87 -6 135 0 135 14 0 8 -9 17 -19 21 -24 7 -31 46 -26 159
3 80 5 91 26 107 31 24 66 24 78 0 6 -10 11 -68 12 -130 2 -104 1 -113 -21
-136 -13 -14 -21 -28 -17 -31 9 -9 147 -10 160 -1 8 5 5 13 -10 25 -20 16 -22
27 -25 159 l-3 143 -30 29 c-39 38 -62 43 -105 25z M111 422 c-62 -20 -74 -37
-37 -52 29 -11 30 -14 27 -180 -2 -100 -4 -106 -35 -112 -35 -6 -28 -25 11
-32 62 -10 161 -7 169 5 3 6 -6 21 -21 33 -30 24 -28 6 -34 294 -1 70 0 69
-80 44z"/>
</g>
</svg>
