<?xml version="1.0" standalone="no"?>
<!DOCTYPE svg PUBLIC "-//W3C//DTD SVG 20010904//EN"
 "http://www.w3.org/TR/2001/REC-SVG-20010904/DTD/svg10.dtd">
<svg version="1.0" xmlns="http://www.w3.org/2000/svg"
 width="32.000000pt" height="66.000000pt" viewBox="0 0 32.000000 66.000000"
 preserveAspectRatio="xMidYMid meet">
<metadata>
Created by potrace 1.16, written by Peter Selinger 2001-2019
</metadata>
<g transform="translate(0.000000,66.000000) scale(0.100000,-0.100000)"
fill="#000000" stroke="none">
<path d="M127 600 c-14 -12 -40 -25 -57 -31 -19 -7 -30 -18 -30 -30 0 -22 4
-23 32 -8 11 6 24 7 29 2 11 -11 22 -414 12 -429 -5 -6 -21 -15 -37 -21 -17
-5 -31 -14 -33 -20 -5 -15 31 -21 112 -18 39 2 83 3 98 4 37 1 30 23 -10 33
-31 8 -31 9 -38 91 -4 45 -6 96 -4 112 1 17 1 99 1 183 l-2 152 -24 0 c-13 0
-35 -9 -49 -20z"/>
</g>
</svg>
