<?xml version="1.0" standalone="no"?>
<!DOCTYPE svg PUBLIC "-//W3C//DTD SVG 20010904//EN"
 "http://www.w3.org/TR/2001/REC-SVG-20010904/DTD/svg10.dtd">
<svg version="1.0" xmlns="http://www.w3.org/2000/svg"
 width="69.000000pt" height="92.000000pt" viewBox="0 0 69.000000 92.000000"
 preserveAspectRatio="xMidYMid meet">
<metadata>
Created by potrace 1.16, written by Peter Selinger 2001-2019
</metadata>
<g transform="translate(0.000000,92.000000) scale(0.100000,-0.100000)"
fill="#000000" stroke="none">
<path d="M495 910 c-6 -10 15 -50 27 -50 12 0 17 16 11 38 -5 23 -27 29 -38
12z M75 856 c-31 -31 -41 -87 -25 -139 13 -45 45 -87 67 -87 19 0 16 -18 -7
-47 -41 -53 -50 -115 -48 -336 2 -228 0 -221 64 -191 40 19 50 45 46 129 -2
33 -5 130 -8 216 l-5 156 30 31 29 32 171 0 c94 0 171 -1 171 -3 0 -1 -9 -29
-21 -62 -19 -55 -20 -73 -15 -284 l6 -226 33 3 c19 1 41 12 55 28 20 22 22 35
21 122 0 53 -4 120 -10 147 -21 112 -21 159 -1 250 22 101 19 159 -8 195 l-19
25 -188 -3 c-242 -4 -268 0 -282 38 -12 36 -24 37 -56 6z M460 870 c0 -5 7
-10 15 -10 8 0 15 5 15 10 0 6 -7 10 -15 10 -8 0 -15 -4 -15 -10z"/>
</g>
</svg>
