<?xml version="1.0" standalone="no"?>
<!DOCTYPE svg PUBLIC "-//W3C//DTD SVG 20010904//EN"
 "http://www.w3.org/TR/2001/REC-SVG-20010904/DTD/svg10.dtd">
<svg version="1.0" xmlns="http://www.w3.org/2000/svg"
 width="41.000000pt" height="42.000000pt" viewBox="0 0 41.000000 42.000000"
 preserveAspectRatio="xMidYMid meet">
<metadata>
Created by potrace 1.16, written by Peter Selinger 2001-2019
</metadata>
<g transform="translate(0.000000,42.000000) scale(0.100000,-0.100000)"
fill="#000000" stroke="none">
<path d="M185 375 c-5 -2 -22 -6 -36 -9 -53 -11 -101 -82 -101 -149 0 -63 26
-113 74 -143 103 -66 227 -1 243 126 7 54 -26 125 -71 152 -29 17 -91 30 -109
23z m80 -101 c37 -39 35 -96 -4 -123 -45 -32 -85 -28 -115 12 -35 46 -33 79 5
111 40 34 83 34 114 0z"/>
</g>
</svg>
