<?xml version="1.0" standalone="no"?>
<!DOCTYPE svg PUBLIC "-//W3C//DTD SVG 20010904//EN"
 "http://www.w3.org/TR/2001/REC-SVG-20010904/DTD/svg10.dtd">
<svg version="1.0" xmlns="http://www.w3.org/2000/svg"
 width="108.000000pt" height="70.000000pt" viewBox="0 0 108.000000 70.000000"
 preserveAspectRatio="xMidYMid meet">
<metadata>
Created by potrace 1.16, written by Peter Selinger 2001-2019
</metadata>
<g transform="translate(0.000000,70.000000) scale(0.100000,-0.100000)"
fill="#000000" stroke="none">
<path d="M773 649 c-43 -13 -79 -59 -92 -119 -6 -28 -11 -57 -11 -65 0 -8 -13
-15 -32 -17 -21 -2 -33 -8 -33 -18 0 -10 12 -16 33 -18 l32 -3 1 -72 c0 -40 2
-94 5 -122 6 -80 -3 -114 -31 -121 -14 -3 -25 -12 -25 -20 0 -11 23 -14 110
-14 89 0 110 3 110 14 0 9 -12 16 -27 18 -44 5 -53 36 -50 188 l2 135 45 0
c38 0 45 3 45 20 0 16 -8 21 -45 25 l-45 5 -3 49 c-3 47 12 106 28 106 4 0 23
-14 41 -31 43 -41 83 -38 87 7 3 27 -2 33 -31 48 -38 18 -66 19 -114 5z M275
636 c-95 -19 -145 -53 -202 -141 -24 -36 -26 -47 -26 -150 1 -99 3 -116 27
-162 34 -69 106 -117 198 -134 52 -10 73 -10 94 -1 14 7 30 10 35 6 6 -3 18 0
27 8 9 8 29 20 44 27 51 26 92 66 85 84 -7 18 -47 24 -47 7 0 -5 -19 -22 -42
-37 -37 -24 -53 -28 -120 -28 -90 0 -116 14 -162 89 -41 65 -48 175 -16 258
61 163 251 170 326 13 9 -19 23 -35 30 -35 11 0 14 21 14 94 0 102 -7 116 -45
96 -17 -9 -34 -10 -71 -1 -27 6 -58 13 -69 15 -11 2 -47 -1 -80 -8z M947 152
c-20 -22 -22 -63 -5 -80 38 -38 112 13 87 61 -22 41 -55 49 -82 19z"/>
</g>
</svg>
