<?xml version="1.0" standalone="no"?>
<!DOCTYPE svg PUBLIC "-//W3C//DTD SVG 20010904//EN"
 "http://www.w3.org/TR/2001/REC-SVG-20010904/DTD/svg10.dtd">
<svg version="1.0" xmlns="http://www.w3.org/2000/svg"
 width="70.000000pt" height="94.000000pt" viewBox="0 0 70.000000 94.000000"
 preserveAspectRatio="xMidYMid meet">
<metadata>
Created by potrace 1.16, written by Peter Selinger 2001-2019
</metadata>
<g transform="translate(0.000000,94.000000) scale(0.100000,-0.100000)"
fill="#000000" stroke="none">
<path d="M70 868 c-36 -60 -34 -134 5 -194 26 -40 80 -47 299 -39 112 4 197 4
194 -1 -2 -5 -12 -27 -22 -49 -10 -22 -23 -49 -28 -61 -15 -32 -13 -181 4
-310 6 -45 5 -87 -1 -115 -13 -59 -3 -68 56 -43 38 16 50 27 60 54 15 43 8
189 -13 279 -17 74 -13 119 15 211 22 70 27 153 11 194 -17 46 -39 50 -275 50
l-220 1 -13 28 c-18 37 -48 35 -72 -5z m245 -128 c57 -7 55 -7 -37 -9 -60 0
-98 3 -98 9 0 11 46 11 135 0z M135 451 c-58 -35 -63 -51 -67 -239 l-3 -172
32 0 c37 0 60 20 80 69 12 27 14 61 8 159 -5 105 -4 128 10 149 32 49 -3 69
-60 34z"/>
</g>
</svg>
