<?xml version="1.0" standalone="no"?>
<!DOCTYPE svg PUBLIC "-//W3C//DTD SVG 20010904//EN"
 "http://www.w3.org/TR/2001/REC-SVG-20010904/DTD/svg10.dtd">
<svg version="1.0" xmlns="http://www.w3.org/2000/svg"
 width="33.000000pt" height="66.000000pt" viewBox="0 0 33.000000 66.000000"
 preserveAspectRatio="xMidYMid meet">
<metadata>
Created by potrace 1.16, written by Peter Selinger 2001-2019
</metadata>
<g transform="translate(0.000000,66.000000) scale(0.100000,-0.100000)"
fill="#000000" stroke="none">
<path d="M145 604 c-11 -9 -39 -25 -62 -36 -52 -23 -60 -53 -12 -43 22 5 34 3
40 -6 5 -8 9 -102 9 -210 0 -204 -4 -224 -45 -231 -11 -2 -21 -10 -23 -19 -2
-13 7 -16 50 -14 29 1 83 3 121 4 52 1 67 4 67 16 0 10 -10 15 -27 15 -16 0
-33 4 -40 8 -8 5 -12 77 -13 252 -1 135 -4 253 -7 263 -5 21 -31 22 -58 1z"/>
</g>
</svg>
