<?xml version="1.0" standalone="no"?>
<!DOCTYPE svg PUBLIC "-//W3C//DTD SVG 20010904//EN"
 "http://www.w3.org/TR/2001/REC-SVG-20010904/DTD/svg10.dtd">
<svg version="1.0" xmlns="http://www.w3.org/2000/svg"
 width="63.000000pt" height="93.000000pt" viewBox="0 0 63.000000 93.000000"
 preserveAspectRatio="xMidYMid meet">
<metadata>
Created by potrace 1.16, written by Peter Selinger 2001-2019
</metadata>
<g transform="translate(0.000000,93.000000) scale(0.100000,-0.100000)"
fill="#000000" stroke="none">
<path d="M75 882 c-23 -16 -35 -67 -35 -142 0 -73 2 -80 27 -100 25 -20 37
-21 204 -19 161 3 180 1 198 -15 20 -18 21 -32 23 -290 l3 -271 29 2 c62 5 61
1 58 359 -3 359 -4 368 -65 401 -26 14 -66 19 -210 23 -176 5 -178 5 -190 29
-13 27 -27 34 -42 23z m235 -153 c19 -1 1 -5 -40 -9 -81 -7 -113 -4 -104 12 4
6 27 8 58 4 28 -3 67 -7 86 -7z"/>
</g>
</svg>
