<?xml version="1.0" standalone="no"?>
<!DOCTYPE svg PUBLIC "-//W3C//DTD SVG 20010904//EN"
 "http://www.w3.org/TR/2001/REC-SVG-20010904/DTD/svg10.dtd">
<svg version="1.0" xmlns="http://www.w3.org/2000/svg"
 width="35.000000pt" height="49.000000pt" viewBox="0 0 35.000000 49.000000"
 preserveAspectRatio="xMidYMid meet">
<metadata>
Created by potrace 1.16, written by Peter Selinger 2001-2019
</metadata>
<g transform="translate(0.000000,49.000000) scale(0.100000,-0.100000)"
fill="#000000" stroke="none">
<path d="M113 437 c-46 -17 -64 -38 -69 -83 -9 -72 26 -112 154 -176 34 -17
40 -57 12 -80 -39 -31 -108 1 -131 59 -5 13 -16 23 -24 23 -13 0 -15 -11 -13
-62 l3 -63 35 -1 c19 -1 51 -5 71 -9 85 -16 170 59 155 139 -6 32 -17 43 -93
94 -103 68 -115 83 -88 112 29 32 64 22 100 -27 16 -23 35 -40 40 -39 16 4 19
105 3 110 -36 12 -127 13 -155 3z"/>
</g>
</svg>
