<?xml version="1.0" standalone="no"?>
<!DOCTYPE svg PUBLIC "-//W3C//DTD SVG 20010904//EN"
 "http://www.w3.org/TR/2001/REC-SVG-20010904/DTD/svg10.dtd">
<svg version="1.0" xmlns="http://www.w3.org/2000/svg"
 width="69.000000pt" height="91.000000pt" viewBox="0 0 69.000000 91.000000"
 preserveAspectRatio="xMidYMid meet">
<metadata>
Created by potrace 1.16, written by Peter Selinger 2001-2019
</metadata>
<g transform="translate(0.000000,91.000000) scale(0.100000,-0.100000)"
fill="#000000" stroke="none">
<path d="M88 869 c-9 -5 -25 -34 -34 -63 -16 -52 -16 -57 2 -107 27 -74 46
-79 296 -77 109 0 201 -2 205 -6 4 -3 -6 -32 -21 -64 -31 -66 -37 -144 -22
-292 11 -113 12 -150 3 -182 -7 -25 -5 -28 18 -28 39 0 85 28 96 58 13 33 4
179 -17 279 -17 75 -15 89 20 213 9 30 16 80 16 111 0 47 -4 59 -26 80 -26 24
-27 24 -247 24 l-222 0 -15 32 c-16 35 -25 38 -52 22z M134 440 c-12 -5 -31
-22 -44 -40 -20 -29 -22 -42 -22 -191 0 -88 2 -163 5 -166 8 -8 76 17 84 30 4
7 10 84 14 172 3 88 9 170 14 183 6 18 4 22 -11 21 -11 0 -29 -4 -40 -9z"/>
</g>
</svg>
