<?xml version="1.0" standalone="no"?>
<!DOCTYPE svg PUBLIC "-//W3C//DTD SVG 20010904//EN"
 "http://www.w3.org/TR/2001/REC-SVG-20010904/DTD/svg10.dtd">
<svg version="1.0" xmlns="http://www.w3.org/2000/svg"
 width="40.000000pt" height="41.000000pt" viewBox="0 0 40.000000 41.000000"
 preserveAspectRatio="xMidYMid meet">
<metadata>
Created by potrace 1.16, written by Peter Selinger 2001-2019
</metadata>
<g transform="translate(0.000000,41.000000) scale(0.100000,-0.100000)"
fill="#000000" stroke="none">
<path d="M159 361 c-60 -19 -89 -51 -113 -124 -13 -38 6 -99 43 -137 62 -65
143 -71 209 -15 47 39 65 88 57 151 -6 48 -11 58 -48 88 -45 36 -103 51 -148
37z m113 -94 c24 -30 23 -88 -2 -115 -30 -32 -67 -38 -106 -17 -52 28 -66 89
-31 134 30 36 110 35 139 -2z"/>
</g>
</svg>
