<?xml version="1.0" standalone="no"?>
<!DOCTYPE svg PUBLIC "-//W3C//DTD SVG 20010904//EN"
 "http://www.w3.org/TR/2001/REC-SVG-20010904/DTD/svg10.dtd">
<svg version="1.0" xmlns="http://www.w3.org/2000/svg"
 width="71.000000pt" height="94.000000pt" viewBox="0 0 71.000000 94.000000"
 preserveAspectRatio="xMidYMid meet">
<metadata>
Created by potrace 1.16, written by Peter Selinger 2001-2019
</metadata>
<g transform="translate(0.000000,94.000000) scale(0.100000,-0.100000)"
fill="#000000" stroke="none">
<path d="M431 887 c-18 -23 -31 -110 -21 -153 10 -42 40 -74 71 -74 10 0 19
-3 19 -6 0 -9 -71 -113 -82 -120 -13 -8 -57 35 -126 124 -31 41 -72 91 -91
111 -18 20 -44 53 -57 74 -49 76 -104 36 -104 -77 0 -60 3 -67 45 -124 24 -32
51 -65 60 -72 24 -20 18 -40 -26 -93 -73 -86 -83 -167 -33 -253 31 -52 30 -79
-1 -100 -13 -9 -27 -25 -31 -37 -11 -34 16 -44 103 -40 115 6 120 8 126 47 8
51 -9 102 -60 178 -31 45 -45 78 -46 102 -1 38 18 82 38 90 11 4 177 -187 308
-355 43 -56 62 -60 106 -23 50 42 51 131 1 167 -31 22 -131 148 -141 177 -14
39 4 101 44 148 17 20 32 39 34 41 2 2 20 7 40 10 34 6 38 10 46 46 12 57 0
118 -26 144 -13 11 -47 25 -78 31 -32 6 -61 18 -71 30 -19 23 -31 25 -47 7z"/>
</g>
</svg>
