<?xml version="1.0" standalone="no"?>
<!DOCTYPE svg PUBLIC "-//W3C//DTD SVG 20010904//EN"
 "http://www.w3.org/TR/2001/REC-SVG-20010904/DTD/svg10.dtd">
<svg version="1.0" xmlns="http://www.w3.org/2000/svg"
 width="70.000000pt" height="93.000000pt" viewBox="0 0 70.000000 93.000000"
 preserveAspectRatio="xMidYMid meet">
<metadata>
Created by potrace 1.16, written by Peter Selinger 2001-2019
</metadata>
<g transform="translate(0.000000,93.000000) scale(0.100000,-0.100000)"
fill="#000000" stroke="none">
<path d="M77 873 c-27 -32 -38 -95 -26 -153 10 -47 15 -54 53 -71 36 -16 67
-19 254 -19 140 0 212 -4 212 -10 0 -6 -9 -28 -19 -48 -21 -42 -45 -157 -36
-172 3 -5 10 -75 16 -154 7 -107 7 -151 -1 -167 -17 -32 0 -44 43 -30 63 21
72 40 71 154 -1 108 -5 142 -23 221 -13 53 -10 79 20 168 30 91 22 194 -18
224 -14 10 -70 13 -243 14 -234 0 -250 3 -250 42 0 23 -32 24 -53 1z M130 447
c-13 -7 -34 -27 -46 -44 -20 -30 -21 -42 -18 -195 3 -141 6 -163 20 -166 25
-6 58 16 78 49 14 24 17 51 15 166 -2 91 1 145 9 160 7 12 12 26 12 32 0 15
-39 14 -70 -2z"/>
</g>
</svg>
