<?xml version="1.0" standalone="no"?>
<!DOCTYPE svg PUBLIC "-//W3C//DTD SVG 20010904//EN"
 "http://www.w3.org/TR/2001/REC-SVG-20010904/DTD/svg10.dtd">
<svg version="1.0" xmlns="http://www.w3.org/2000/svg"
 width="37.000000pt" height="96.000000pt" viewBox="0 0 37.000000 96.000000"
 preserveAspectRatio="xMidYMid meet">
<metadata>
Created by potrace 1.16, written by Peter Selinger 2001-2019
</metadata>
<g transform="translate(0.000000,96.000000) scale(0.100000,-0.100000)"
fill="#000000" stroke="none">
<path d="M67 898 c-22 -35 -30 -84 -22 -145 9 -73 35 -98 111 -106 30 -3 62
-11 70 -18 11 -9 14 -58 14 -271 0 -160 4 -267 10 -279 15 -27 35 -24 59 10
20 28 21 41 21 333 -1 315 -6 375 -33 403 -21 20 -70 35 -119 35 -30 0 -39 5
-50 27 -17 36 -43 40 -61 11z"/>
</g>
</svg>
