<?xml version="1.0" standalone="no"?>
<!DOCTYPE svg PUBLIC "-//W3C//DTD SVG 20010904//EN"
 "http://www.w3.org/TR/2001/REC-SVG-20010904/DTD/svg10.dtd">
<svg version="1.0" xmlns="http://www.w3.org/2000/svg"
 width="42.000000pt" height="94.000000pt" viewBox="0 0 42.000000 94.000000"
 preserveAspectRatio="xMidYMid meet">
<metadata>
Created by potrace 1.16, written by Peter Selinger 2001-2019
</metadata>
<g transform="translate(0.000000,94.000000) scale(0.100000,-0.100000)"
fill="#000000" stroke="none">
<path d="M62 873 c-21 -52 -23 -79 -13 -143 12 -75 27 -90 87 -90 45 0 62 -13
46 -33 -26 -31 -32 -93 -17 -182 8 -50 17 -132 21 -183 6 -78 4 -99 -12 -133
-18 -40 -18 -42 1 -55 36 -27 62 -15 105 46 22 31 25 45 23 115 -1 44 -7 118
-13 165 -7 47 -14 99 -16 115 -2 17 -6 41 -9 55 -4 14 -2 38 4 53 10 27 13 28
55 22 42 -7 43 -6 50 25 15 79 -7 153 -54 177 -14 7 -58 13 -97 13 -70 0 -73
1 -88 30 -21 40 -58 41 -73 3z"/>
</g>
</svg>
