<?xml version="1.0" standalone="no"?>
<!DOCTYPE svg PUBLIC "-//W3C//DTD SVG 20010904//EN"
 "http://www.w3.org/TR/2001/REC-SVG-20010904/DTD/svg10.dtd">
<svg version="1.0" xmlns="http://www.w3.org/2000/svg"
 width="69.000000pt" height="92.000000pt" viewBox="0 0 69.000000 92.000000"
 preserveAspectRatio="xMidYMid meet">
<metadata>
Created by potrace 1.16, written by Peter Selinger 2001-2019
</metadata>
<g transform="translate(0.000000,92.000000) scale(0.100000,-0.100000)"
fill="#000000" stroke="none">
<path d="M495 910 c-9 -15 3 -30 25 -30 13 0 17 5 13 20 -6 21 -28 27 -38 10z
M75 856 c-31 -31 -41 -87 -25 -139 13 -45 45 -87 67 -87 19 0 16 -18 -7 -47
-41 -53 -50 -115 -48 -336 2 -228 0 -221 64 -191 40 19 50 45 46 129 -1 33 -4
130 -7 216 l-6 156 30 31 29 32 171 0 c94 0 171 -1 171 -3 0 -1 -9 -29 -21
-62 -19 -55 -20 -73 -15 -284 l6 -226 33 3 c20 1 41 12 56 29 23 26 23 31 18
153 -3 69 -11 151 -18 182 -10 46 -11 71 -1 120 38 206 37 190 17 231 -21 44
-75 73 -105 57 -20 -11 -308 -14 -358 -4 -22 5 -34 14 -41 35 -12 35 -25 36
-56 5z"/>
</g>
</svg>
