<?xml version="1.0" standalone="no"?>
<!DOCTYPE svg PUBLIC "-//W3C//DTD SVG 20010904//EN"
 "http://www.w3.org/TR/2001/REC-SVG-20010904/DTD/svg10.dtd">
<svg version="1.0" xmlns="http://www.w3.org/2000/svg"
 width="75.000000pt" height="115.000000pt" viewBox="0 0 75.000000 115.000000"
 preserveAspectRatio="xMidYMid meet">
<metadata>
Created by potrace 1.16, written by Peter Selinger 2001-2019
</metadata>
<g transform="translate(0.000000,115.000000) scale(0.100000,-0.100000)"
fill="#000000" stroke="none">
<path d="M60 1107 c-31 -24 -43 -74 -38 -157 4 -73 7 -82 37 -112 l32 -33 235
3 c214 3 235 2 241 -14 4 -11 0 -22 -12 -30 -19 -14 -45 -59 -45 -79 0 -7 -5
-15 -12 -17 -18 -6 -26 -105 -17 -228 5 -63 6 -170 2 -236 -5 -116 -5 -122 15
-133 25 -13 76 3 112 36 24 22 25 27 25 151 -1 70 -7 181 -14 247 -18 156 -12
200 38 252 22 22 46 43 55 46 13 5 16 23 16 100 0 108 -5 117 -75 125 -25 2
-45 9 -45 13 0 5 -27 9 -60 9 -33 0 -60 -4 -60 -10 0 -6 -60 -10 -160 -10 -88
0 -160 4 -160 8 0 4 -13 13 -30 19 -23 9 -30 18 -30 37 0 29 -23 35 -50 13z"/>
</g>
</svg>
