<?xml version="1.0" standalone="no"?>
<!DOCTYPE svg PUBLIC "-//W3C//DTD SVG 20010904//EN"
 "http://www.w3.org/TR/2001/REC-SVG-20010904/DTD/svg10.dtd">
<svg version="1.0" xmlns="http://www.w3.org/2000/svg"
 width="75.000000pt" height="115.000000pt" viewBox="0 0 75.000000 115.000000"
 preserveAspectRatio="xMidYMid meet">
<metadata>
Created by potrace 1.16, written by Peter Selinger 2001-2019
</metadata>
<g transform="translate(0.000000,115.000000) scale(0.100000,-0.100000)"
fill="#000000" stroke="none">
<path d="M243 1103 c-4 -10 -11 -21 -16 -24 -18 -13 -27 -112 -15 -172 8 -43
19 -67 42 -90 28 -27 37 -31 85 -30 64 2 106 -17 114 -49 3 -13 7 -169 8 -348
1 -179 5 -333 7 -342 5 -22 40 -24 48 -3 3 8 15 17 25 20 20 7 20 17 17 454
l-3 448 -30 31 c-16 17 -42 34 -57 37 -15 4 -28 11 -28 16 0 5 -27 9 -60 9
-56 0 -60 2 -75 30 -17 34 -52 40 -62 13z"/>
</g>
</svg>
