<?xml version="1.0" standalone="no"?>
<!DOCTYPE svg PUBLIC "-//W3C//DTD SVG 20010904//EN"
 "http://www.w3.org/TR/2001/REC-SVG-20010904/DTD/svg10.dtd">
<svg version="1.0" xmlns="http://www.w3.org/2000/svg"
 width="51.000000pt" height="92.000000pt" viewBox="0 0 51.000000 92.000000"
 preserveAspectRatio="xMidYMid meet">
<metadata>
Created by potrace 1.16, written by Peter Selinger 2001-2019
</metadata>
<g transform="translate(0.000000,92.000000) scale(0.100000,-0.100000)"
fill="#000000" stroke="none">
<path d="M156 864 c-17 -16 -21 -31 -30 -100 -4 -30 0 -52 17 -85 26 -52 55
-69 118 -69 26 0 51 -6 57 -13 6 -7 11 -66 12 -137 0 -69 2 -142 3 -162 0 -21
-2 -40 -5 -44 -4 -3 -44 -7 -90 -9 -142 -4 -145 -4 -153 -22 -16 -41 -44 -166
-39 -174 3 -5 92 -9 198 -9 163 0 196 2 207 16 25 30 23 117 -6 230 -26 102
-27 112 -16 206 12 107 13 219 2 257 -12 43 -52 64 -132 68 -81 4 -87 6 -99
39 -11 28 -22 30 -44 8z"/>
</g>
</svg>
