<?xml version="1.0" standalone="no"?>
<!DOCTYPE svg PUBLIC "-//W3C//DTD SVG 20010904//EN"
 "http://www.w3.org/TR/2001/REC-SVG-20010904/DTD/svg10.dtd">
<svg version="1.0" xmlns="http://www.w3.org/2000/svg"
 width="75.000000pt" height="93.000000pt" viewBox="0 0 75.000000 93.000000"
 preserveAspectRatio="xMidYMid meet">
<metadata>
Created by potrace 1.16, written by Peter Selinger 2001-2019
</metadata>
<g transform="translate(0.000000,93.000000) scale(0.100000,-0.100000)"
fill="#000000" stroke="none">
<path d="M112 893 c-22 -9 -42 -61 -42 -112 0 -66 14 -99 47 -112 59 -23 58
-22 55 -95 -2 -38 2 -82 8 -99 6 -16 40 -58 75 -92 72 -69 86 -100 61 -138
-18 -28 -30 -31 -138 -40 -42 -4 -81 -12 -86 -18 -13 -18 -8 -113 7 -131 9
-10 29 -16 57 -16 57 0 228 56 280 91 52 35 75 90 104 253 23 122 41 176 73
211 36 38 70 119 70 163 0 64 -30 90 -113 98 -39 4 -76 14 -92 25 -35 25 -42
24 -61 -5 -24 -36 -32 -118 -16 -156 12 -25 24 -34 69 -47 30 -8 59 -19 64
-24 10 -9 -11 -69 -24 -69 -10 0 -62 -108 -92 -187 -13 -35 -26 -63 -30 -63
-5 0 -8 16 -8 36 0 27 -14 56 -64 127 -83 121 -90 152 -31 152 22 0 43 48 44
102 1 49 -42 92 -104 104 -27 5 -58 18 -70 29 -23 21 -23 21 -43 13z"/>
</g>
</svg>
