<?xml version="1.0" standalone="no"?>
<!DOCTYPE svg PUBLIC "-//W3C//DTD SVG 20010904//EN"
 "http://www.w3.org/TR/2001/REC-SVG-20010904/DTD/svg10.dtd">
<svg version="1.0" xmlns="http://www.w3.org/2000/svg"
 width="75.000000pt" height="115.000000pt" viewBox="0 0 75.000000 115.000000"
 preserveAspectRatio="xMidYMid meet">
<metadata>
Created by potrace 1.16, written by Peter Selinger 2001-2019
</metadata>
<g transform="translate(0.000000,115.000000) scale(0.100000,-0.100000)"
fill="#000000" stroke="none">
<path d="M78 1093 c-17 -39 -16 -200 1 -240 7 -18 22 -35 32 -38 21 -7 25 -21
8 -27 -15 -5 -59 -115 -59 -149 0 -15 -4 -29 -9 -31 -5 -1 -12 -35 -16 -74 -6
-59 -4 -74 10 -88 28 -27 60 -11 105 53 15 22 70 30 70 11 0 -5 9 -10 21 -10
13 0 23 -10 30 -30 9 -25 16 -30 45 -30 30 0 34 3 40 36 8 46 -2 162 -16 179
-12 15 -86 35 -126 35 -26 0 -26 2 -21 42 3 23 14 48 23 55 23 17 302 18 337
2 19 -8 30 -28 46 -78 25 -79 26 -152 5 -241 -37 -152 -63 -412 -44 -435 19
-23 109 -20 116 2 3 10 10 27 16 39 5 12 8 82 6 162 -2 78 0 142 4 142 7 0 23
205 20 260 -4 75 -15 150 -22 150 -4 0 -10 26 -14 58 -9 76 -34 140 -68 177
l-29 30 -212 3 c-128 2 -217 8 -224 14 -7 6 -13 19 -13 29 0 32 -48 25 -62 -8z"/>
</g>
</svg>
