<?xml version="1.0" standalone="no"?>
<!DOCTYPE svg PUBLIC "-//W3C//DTD SVG 20010904//EN"
 "http://www.w3.org/TR/2001/REC-SVG-20010904/DTD/svg10.dtd">
<svg version="1.0" xmlns="http://www.w3.org/2000/svg"
 width="75.000000pt" height="93.000000pt" viewBox="0 0 75.000000 93.000000"
 preserveAspectRatio="xMidYMid meet">
<metadata>
Created by potrace 1.16, written by Peter Selinger 2001-2019
</metadata>
<g transform="translate(0.000000,93.000000) scale(0.100000,-0.100000)"
fill="#000000" stroke="none">
<path d="M130 880 c-32 -59 -23 -189 16 -225 l24 -22 -29 -54 c-37 -70 -62
-223 -39 -245 19 -19 64 -4 73 25 13 42 99 38 115 -5 7 -18 17 -24 40 -24 37
0 45 26 37 108 -7 69 -27 89 -98 98 -43 6 -49 9 -49 30 0 13 9 33 20 44 18 18
33 20 146 20 69 0 134 -4 144 -10 25 -14 60 -111 60 -169 0 -73 -25 -143 -59
-169 -17 -12 -35 -22 -41 -22 -5 0 -10 -4 -10 -10 0 -6 -65 -10 -175 -10 -162
0 -175 -1 -185 -19 -5 -11 -10 -30 -10 -43 0 -12 -7 -41 -16 -65 -29 -75 -36
-73 245 -73 l250 0 16 30 c8 16 15 39 15 50 0 12 4 29 9 39 14 25 40 214 42
296 2 85 -26 250 -51 309 -36 79 -39 80 -244 86 -176 5 -181 6 -191 28 -12 27
-41 29 -55 2z"/>
</g>
</svg>
