<?xml version="1.0" standalone="no"?>
<!DOCTYPE svg PUBLIC "-//W3C//DTD SVG 20010904//EN"
 "http://www.w3.org/TR/2001/REC-SVG-20010904/DTD/svg10.dtd">
<svg version="1.0" xmlns="http://www.w3.org/2000/svg"
 width="63.000000pt" height="110.000000pt" viewBox="0 0 63.000000 110.000000"
 preserveAspectRatio="xMidYMid meet">
<metadata>
Created by potrace 1.16, written by Peter Selinger 2001-2019
</metadata>
<g transform="translate(0.000000,110.000000) scale(0.100000,-0.100000)"
fill="#000000" stroke="none">
<path d="M367 1062 c-16 -19 -28 -75 -29 -141 0 -29 7 -52 21 -72 l22 -30 -29
-37 c-16 -20 -37 -52 -48 -69 -10 -18 -26 -33 -36 -33 -29 0 -24 87 7 146 28
53 31 90 11 139 -17 40 -42 55 -90 55 -26 0 -42 8 -61 27 -20 23 -28 26 -43
17 -31 -20 -41 -56 -37 -133 5 -91 22 -114 87 -115 l43 -1 2 -389 c1 -224 6
-393 12 -399 5 -5 23 -2 46 9 61 28 67 57 59 257 -9 246 9 325 108 454 42 55
65 68 110 64 23 -2 28 2 33 31 6 33 9 88 6 120 -2 32 -42 58 -87 58 -33 0 -43
4 -47 19 -8 31 -41 44 -60 23z"/>
</g>
</svg>
