<?xml version="1.0" standalone="no"?>
<!DOCTYPE svg PUBLIC "-//W3C//DTD SVG 20010904//EN"
 "http://www.w3.org/TR/2001/REC-SVG-20010904/DTD/svg10.dtd">
<svg version="1.0" xmlns="http://www.w3.org/2000/svg"
 width="75.000000pt" height="93.000000pt" viewBox="0 0 75.000000 93.000000"
 preserveAspectRatio="xMidYMid meet">
<metadata>
Created by potrace 1.16, written by Peter Selinger 2001-2019
</metadata>
<g transform="translate(0.000000,93.000000) scale(0.100000,-0.100000)"
fill="#000000" stroke="none">
<path d="M483 885 c-7 -8 -13 -19 -13 -25 0 -5 -4 -10 -9 -10 -16 0 -22 -103
-6 -127 8 -12 12 -28 9 -36 -5 -15 3 -25 41 -51 19 -14 19 -15 2 -33 -9 -11
-17 -24 -17 -29 0 -6 -15 -25 -34 -43 l-34 -33 -23 20 c-19 19 -22 33 -25 124
-2 57 -6 117 -9 135 -7 39 -42 63 -95 63 -32 0 -47 6 -66 27 -20 22 -29 25
-42 17 -14 -9 -17 -30 -20 -110 -1 -54 2 -105 7 -112 4 -8 28 -16 52 -18 84
-10 89 -12 89 -44 0 -17 5 -30 10 -30 6 0 10 -29 10 -68 l0 -67 85 -85 c46
-46 82 -86 79 -89 -3 -4 -59 -6 -123 -7 -65 -1 -126 -6 -136 -12 -11 -5 -27
-32 -36 -58 -9 -27 -22 -63 -29 -80 -27 -63 -24 -64 213 -64 118 0 229 3 247
6 37 8 45 23 64 114 12 58 11 70 -4 110 -10 25 -27 50 -39 56 -33 17 -131 110
-131 125 0 13 49 82 62 87 4 2 8 9 8 15 0 7 14 27 31 45 23 25 35 31 54 26 30
-7 40 14 51 104 6 53 4 61 -16 80 -21 19 -96 42 -138 42 -10 0 -22 10 -27 22
-12 27 -26 31 -42 13z"/>
</g>
</svg>
