<?xml version="1.0" standalone="no"?>
<!DOCTYPE svg PUBLIC "-//W3C//DTD SVG 20010904//EN"
 "http://www.w3.org/TR/2001/REC-SVG-20010904/DTD/svg10.dtd">
<svg version="1.0" xmlns="http://www.w3.org/2000/svg"
 width="75.000000pt" height="93.000000pt" viewBox="0 0 75.000000 93.000000"
 preserveAspectRatio="xMidYMid meet">
<metadata>
Created by potrace 1.16, written by Peter Selinger 2001-2019
</metadata>
<g transform="translate(0.000000,93.000000) scale(0.100000,-0.100000)"
fill="#000000" stroke="none">
<path d="M108 873 c-6 -16 -13 -65 -16 -110 -4 -77 -3 -83 22 -107 16 -17 37
-26 58 -27 18 0 104 -1 191 -2 144 -2 160 -4 173 -21 11 -16 14 -72 14 -287 0
-172 4 -270 10 -274 18 -11 65 5 79 27 11 17 13 87 12 337 -3 449 6 435 -286
437 l-180 1 -13 27 c-17 35 -49 34 -64 -1z"/>
</g>
</svg>
