<?xml version="1.0" standalone="no"?>
<!DOCTYPE svg PUBLIC "-//W3C//DTD SVG 20010904//EN"
 "http://www.w3.org/TR/2001/REC-SVG-20010904/DTD/svg10.dtd">
<svg version="1.0" xmlns="http://www.w3.org/2000/svg"
 width="77.000000pt" height="91.000000pt" viewBox="0 0 77.000000 91.000000"
 preserveAspectRatio="xMidYMid meet">
<metadata>
Created by potrace 1.16, written by Peter Selinger 2001-2019
</metadata>
<g transform="translate(0.000000,91.000000) scale(0.100000,-0.100000)"
fill="#000000" stroke="none">
<path d="M149 868 c-18 -33 -24 -170 -9 -197 6 -13 27 -29 46 -37 19 -8 34
-16 34 -19 0 -2 -12 -26 -27 -52 -28 -51 -27 -39 -20 -263 l2 -45 -42 -3 c-23
-2 -45 -8 -50 -15 -9 -12 -27 -81 -38 -149 l-6 -38 114 0 c88 0 117 3 127 14
6 8 16 45 21 83 10 69 8 86 -27 236 -17 78 -17 79 5 148 30 94 39 99 181 99
112 0 117 -1 141 -26 24 -25 24 -28 29 -279 4 -140 9 -257 12 -261 4 -3 19 -2
35 3 51 17 54 34 44 334 -9 307 -17 340 -82 389 -51 38 -105 47 -256 45 -75
-2 -143 0 -151 2 -7 3 -18 16 -23 29 -11 31 -44 31 -60 2z"/>
</g>
</svg>
