<?xml version="1.0" standalone="no"?>
<!DOCTYPE svg PUBLIC "-//W3C//DTD SVG 20010904//EN"
 "http://www.w3.org/TR/2001/REC-SVG-20010904/DTD/svg10.dtd">
<svg version="1.0" xmlns="http://www.w3.org/2000/svg"
 width="70.000000pt" height="91.000000pt" viewBox="0 0 70.000000 91.000000"
 preserveAspectRatio="xMidYMid meet">
<metadata>
Created by potrace 1.16, written by Peter Selinger 2001-2019
</metadata>
<g transform="translate(0.000000,91.000000) scale(0.100000,-0.100000)"
fill="#000000" stroke="none">
<path d="M91 856 c-6 -8 -17 -39 -23 -69 -14 -67 0 -127 39 -163 25 -23 32
-24 170 -24 l143 0 21 -32 c17 -28 20 -45 16 -123 -2 -62 -10 -102 -23 -130
l-19 -40 -155 -10 c-85 -5 -160 -13 -166 -17 -6 -4 -16 -36 -23 -70 -6 -35
-16 -76 -21 -92 -7 -22 -6 -32 3 -38 19 -12 489 -10 526 3 21 8 33 19 37 37 3
15 13 54 21 87 24 95 26 90 -39 88 -51 -2 -58 0 -58 17 0 10 4 21 9 24 8 6 21
47 28 96 16 101 -4 360 -28 360 -5 0 -9 6 -9 14 0 7 -12 21 -26 31 -23 15 -47
17 -178 14 l-151 -4 -13 28 c-10 20 -20 27 -41 27 -16 0 -34 -6 -40 -14z"/>
</g>
</svg>
