<?xml version="1.0" standalone="no"?>
<!DOCTYPE svg PUBLIC "-//W3C//DTD SVG 20010904//EN"
 "http://www.w3.org/TR/2001/REC-SVG-20010904/DTD/svg10.dtd">
<svg version="1.0" xmlns="http://www.w3.org/2000/svg"
 width="68.000000pt" height="93.000000pt" viewBox="0 0 68.000000 93.000000"
 preserveAspectRatio="xMidYMid meet">
<metadata>
Created by potrace 1.16, written by Peter Selinger 2001-2019
</metadata>
<g transform="translate(0.000000,93.000000) scale(0.100000,-0.100000)"
fill="#000000" stroke="none">
<path d="M71 876 c-22 -26 -26 -141 -7 -191 10 -25 22 -45 27 -45 16 0 10 -20
-15 -47 -33 -36 -39 -98 -30 -325 6 -169 9 -193 26 -210 18 -18 34 -19 278
-16 196 2 262 6 272 16 17 17 24 611 9 670 -6 21 -25 51 -41 67 l-31 30 -199
3 -199 3 -21 30 c-23 31 -51 37 -69 15z m425 -282 l34 -35 0 -135 c0 -182 9
-174 -195 -174 -195 0 -188 -6 -183 167 3 105 6 122 27 152 35 48 71 60 185
61 l99 0 33 -36z"/>
</g>
</svg>
