<?xml version="1.0" standalone="no"?>
<!DOCTYPE svg PUBLIC "-//W3C//DTD SVG 20010904//EN"
 "http://www.w3.org/TR/2001/REC-SVG-20010904/DTD/svg10.dtd">
<svg version="1.0" xmlns="http://www.w3.org/2000/svg"
 width="75.000000pt" height="115.000000pt" viewBox="0 0 75.000000 115.000000"
 preserveAspectRatio="xMidYMid meet">
<metadata>
Created by potrace 1.16, written by Peter Selinger 2001-2019
</metadata>
<g transform="translate(0.000000,115.000000) scale(0.100000,-0.100000)"
fill="#000000" stroke="none">
<path d="M110 1094 c-18 -47 -12 -75 25 -109 32 -31 33 -35 24 -66 -19 -63
-30 -217 -20 -257 21 -77 20 -76 207 -82 l167 -5 18 -30 c33 -56 23 -90 -45
-163 -17 -19 -44 -39 -61 -46 -16 -8 -56 -38 -88 -69 -49 -47 -58 -62 -63
-101 -9 -63 9 -102 53 -117 31 -10 39 -9 62 9 27 21 32 53 17 118 -8 32 0 40
146 149 22 17 55 55 72 85 27 48 31 65 34 152 5 117 1 137 -39 183 l-31 35
-184 0 c-154 0 -186 2 -190 15 -8 19 24 121 42 136 18 14 19 130 2 147 -7 7
-21 12 -32 12 -12 0 -34 7 -50 15 -40 21 -55 19 -66 -11z"/>
</g>
</svg>
