<?xml version="1.0" standalone="no"?>
<!DOCTYPE svg PUBLIC "-//W3C//DTD SVG 20010904//EN"
 "http://www.w3.org/TR/2001/REC-SVG-20010904/DTD/svg10.dtd">
<svg version="1.0" xmlns="http://www.w3.org/2000/svg"
 width="75.000000pt" height="115.000000pt" viewBox="0 0 75.000000 115.000000"
 preserveAspectRatio="xMidYMid meet">
<metadata>
Created by potrace 1.16, written by Peter Selinger 2001-2019
</metadata>
<g transform="translate(0.000000,115.000000) scale(0.100000,-0.100000)"
fill="#000000" stroke="none">
<path d="M58 1083 c-10 -26 -13 -61 -10 -111 4 -65 7 -75 34 -97 29 -25 31
-25 236 -25 114 0 217 -3 229 -6 23 -6 53 -67 53 -107 0 -38 -34 -75 -105
-119 -38 -23 -78 -50 -89 -60 -11 -10 -43 -31 -71 -47 -64 -37 -81 -56 -96
-112 -20 -76 3 -126 64 -136 31 -5 42 -2 63 18 27 25 27 38 8 121 -8 35 22 64
113 108 38 18 82 47 100 64 17 17 43 39 57 49 51 35 70 91 70 207 0 137 -8
171 -47 210 l-32 31 -245 -3 -245 -3 -13 28 c-20 42 -56 37 -74 -10z M123 760
c-13 -5 -32 -24 -43 -42 -19 -31 -20 -51 -20 -340 l0 -307 26 -20 c15 -12 33
-21 41 -21 19 0 43 25 43 44 0 8 5 18 10 21 11 7 15 631 4 659 -7 18 -27 19
-61 6z"/>
</g>
</svg>
