<?xml version="1.0" standalone="no"?>
<!DOCTYPE svg PUBLIC "-//W3C//DTD SVG 20010904//EN"
 "http://www.w3.org/TR/2001/REC-SVG-20010904/DTD/svg10.dtd">
<svg version="1.0" xmlns="http://www.w3.org/2000/svg"
 width="88.000000pt" height="93.000000pt" viewBox="0 0 88.000000 93.000000"
 preserveAspectRatio="xMidYMid meet">
<metadata>
Created by potrace 1.16, written by Peter Selinger 2001-2019
</metadata>
<g transform="translate(0.000000,93.000000) scale(0.100000,-0.100000)"
fill="#000000" stroke="none">
<path d="M56 847 c-17 -44 -20 -102 -10 -155 4 -22 17 -38 41 -52 26 -15 32
-24 25 -33 -27 -32 -30 -97 -12 -200 48 -260 68 -350 79 -357 7 -4 82 -5 168
-3 118 3 161 8 179 19 14 10 59 88 118 207 51 106 111 217 131 247 61 91 76
219 32 287 -4 7 -34 20 -65 29 -31 9 -62 24 -68 32 -14 20 -38 10 -60 -24 -12
-18 -18 -46 -18 -90 0 -79 23 -109 90 -119 24 -3 47 -11 50 -17 4 -6 -9 -25
-28 -42 -19 -17 -43 -44 -53 -61 -94 -151 -168 -253 -187 -259 -34 -9 -126 -7
-132 2 -6 10 47 146 121 310 22 48 26 52 59 52 41 0 54 24 54 99 0 71 -24 96
-105 111 -53 10 -65 16 -65 31 0 48 -74 -16 -82 -71 -4 -31 -22 -33 -26 -3 -5
33 -24 43 -97 50 -55 5 -69 10 -82 30 -22 34 -38 28 -57 -20z m264 -166 c0
-23 7 -32 35 -45 41 -20 41 -22 16 -79 -10 -23 -28 -67 -41 -97 -12 -30 -33
-78 -46 -106 -13 -28 -24 -56 -24 -62 0 -7 -7 -12 -15 -12 -8 0 -15 8 -15 18
0 10 -4 22 -9 27 -18 20 -41 126 -41 192 0 89 17 118 66 109 37 -7 54 11 54
58 0 14 5 26 10 26 6 0 10 -13 10 -29z"/>
</g>
</svg>
